<?xml version="1.0" standalone="no"?>
<!DOCTYPE svg PUBLIC "-//W3C//DTD SVG 1.1//EN" "http://www.w3.org/Graphics/SVG/1.1/DTD/svg11.dtd" >
<svg xmlns="http://www.w3.org/2000/svg" xmlns:xlink="http://www.w3.org/1999/xlink" version="1.1">
<metadata>
Created by FontForge 20201107 at Mon Oct  6 18:34:49 2025
 By 
Copyright (c) 2016 by FontfabricLLC. All rights reserved.
</metadata>
<defs>
<font id="UniNeueRegular" horiz-adv-x="1185" >
  <font-face 
    font-family="Uni Neue Regular"
    font-weight="500"
    font-stretch="normal"
    units-per-em="2048"
    panose-1="0 0 0 0 0 0 0 0 0 0"
    ascent="1536"
    descent="-512"
    x-height="1059"
    cap-height="1464"
    bbox="-415.273 -500 2140 2005"
    underline-thickness="102"
    underline-position="-255"
    unicode-range="U+0020-25CA"
  />
<missing-glyph horiz-adv-x="460" 
 />
    <glyph glyph-name=".notdef" horiz-adv-x="460" 
 />
    <glyph glyph-name=".null" horiz-adv-x="0" 
 />
    <glyph glyph-name="nonmarkingreturn" horiz-adv-x="682" 
 />
    <glyph glyph-name="space" unicode=" " horiz-adv-x="460" 
 />
    <glyph glyph-name="exclam" unicode="!" horiz-adv-x="507" 
d="M309 360h-108q-25 0 -25 23l-12 700v359q0 22 24 22h134q22 0 22 -22v-359l-12 -700q0 -23 -23 -23zM373 102q0 -51 -34 -84.5t-85 -33.5t-84 33.5t-33 84.5t33 85t84 34t85 -34t34 -85z" />
    <glyph glyph-name="quotedbl" unicode="&#x22;" horiz-adv-x="673" 
d="M307 1440l-49 -412q-3 -22 -27 -22h-88q-22 0 -22 24l20 412q0 22 25 22h119q22 0 22 -24zM573 1440l-49 -412q0 -10 -7 -16t-17 -6h-88q-23 0 -23 24l19 412q0 22 26 22h119q23 0 20 -24z" />
    <glyph glyph-name="numbersign" unicode="#" horiz-adv-x="1488" 
d="M358 0h-102q-12 0 -17.5 8t-0.5 19l112 397h-272q-12 0 -17.5 7.5t-1.5 19.5l25 86q7 20 25 20h278l94 346h-272q-26 0 -19 27l25 86q7 20 27 20h276l117 408q6 20 24 20h103q12 0 17.5 -7.5t2.5 -18.5l-114 -402h323l117 408q6 20 25 20h102q12 0 17.5 -7.5t2.5 -18.5
l-114 -402h268q25 0 18 -28l-24 -84q-6 -21 -25 -21h-274l-96 -346h268q12 0 17.5 -8.5t0.5 -20.5l-24 -84q-6 -20 -25 -20h-274l-117 -404q-3 -20 -25 -20h-102q-12 0 -16.5 8t-1.5 19l114 397h-323l-117 -404q-6 -20 -25 -20zM631 903l-96 -346h323l96 346h-323z" />
    <glyph glyph-name="dollar" unicode="$" horiz-adv-x="1196" 
d="M610 823q63 -15 100.5 -24.5t97 -29.5t96 -40.5t80 -54t68 -72t41.5 -93.5t17 -120q0 -121 -59 -210.5t-156 -137t-223 -59.5v-160q0 -25 -25 -25h-96q-23 0 -23 25v158q-119 9 -221.5 56.5t-206.5 139.5q-18 15 -4 33l68 94q17 17 33 4q103 -83 199.5 -124t201.5 -42
q144 0 242 65t98 187q0 39 -12 72t-28.5 56.5t-49 44.5t-58 33.5t-72 26t-74.5 20.5t-81 18q-53 12 -95.5 24.5t-92.5 32t-88 41.5t-75.5 54t-61.5 69.5t-39 87.5t-15 108q0 122 58.5 211t153.5 135t220 56v147q0 25 23 25h96q25 0 25 -25v-145q105 -9 198 -48.5t195 -117.5
q17 -11 4 -31l-65 -94q-11 -17 -33 -4q-179 129 -381 135q-147 0 -235.5 -66t-88.5 -180q0 -41 11 -73.5t35.5 -57t51.5 -42.5t71 -33.5t81 -26t94 -23.5z" />
    <glyph glyph-name="percent" unicode="%" horiz-adv-x="1544" 
d="M623 969q0 -119 -77.5 -185.5t-185.5 -66.5t-185 66.5t-77 185.5v252q0 122 76.5 188t185.5 66t186 -66t77 -188v-252zM334 0h-107q-13 0 -17.5 9t1.5 20l950 1407q11 14 29 14h106q13 0 18 -9t-1 -20l-951 -1407q-11 -14 -28 -14zM221 979q0 -71 40 -108t99 -37
q58 0 98 37t40 108v227q0 74 -40 113t-98 39q-60 0 -99.5 -39t-39.5 -113v-227zM1448 233q0 -119 -77 -185t-185 -66q-107 0 -184.5 66t-77.5 185v252q0 122 76.5 188t185.5 66q110 0 186 -66t76 -188v-252zM1049 244q0 -71 39.5 -108.5t97.5 -37.5t97.5 37.5t39.5 108.5
v227q0 74 -39.5 113t-97.5 39t-97.5 -39t-39.5 -113v-227z" />
    <glyph glyph-name="ampersand" unicode="&#x26;" horiz-adv-x="1234" 
d="M883 158q-164 -181 -373 -181q-182 0 -304 112.5t-122 295.5q0 137 74 237t209 183q-156 198 -156 352q0 143 102 236.5t260 93.5q154 0 249 -92t93 -236q0 -126 -80 -219.5t-233 -179.5l275 -338q54 92 94 188q10 22 28 13l101 -45q21 -9 12 -31q-49 -134 -127 -260
q22 -27 96 -118t113 -140q9 -12 4.5 -20.5t-18.5 -8.5h-152q-20 0 -29 14q-40 47 -116 144zM248 387q0 -114 77 -184t197 -70q82 0 143.5 37.5t118.5 112.5q-144 176 -317 395q-108 -63 -163.5 -133t-55.5 -158zM371 1155q0 -60 33 -123.5t100 -148.5q129 73 190.5 136
t61.5 140q0 81 -49 131.5t-138 50.5q-90 0 -144 -52.5t-54 -133.5z" />
    <glyph glyph-name="quotesingle" unicode="'" horiz-adv-x="405" 
d="M305 1440l-49 -412q-3 -22 -25 -22h-88q-22 0 -22 24l18 412q0 22 25 22h121q23 0 20 -24z" />
    <glyph glyph-name="parenleft" unicode="(" horiz-adv-x="585" 
d="M526 -238h-123q-19 0 -28 17q-275 467 -275 950t275 950q9 17 28 17h123q13 0 18 -8.5t-1 -20.5q-131 -214 -204 -457t-73 -481t73 -481t204 -457q6 -12 1 -20.5t-18 -8.5z" />
    <glyph glyph-name="parenright" unicode=")" horiz-adv-x="585" 
d="M180 -238h-123q-13 0 -17.5 8.5t1.5 20.5q131 214 203.5 457t72.5 481t-72.5 481t-203.5 457q-6 12 -1.5 20.5t17.5 8.5h123q20 0 29 -17q274 -466 274 -950t-274 -950q-9 -17 -29 -17z" />
    <glyph glyph-name="asterisk" unicode="*" horiz-adv-x="935" 
d="M287 748l-84 61q-20 13 -6 31l147 204l-238 78q-23 7 -16 29l31 100q11 26 29 17l241 -78v252q0 22 25 22h102q25 0 25 -22v-254l239 78q19 9 29 -15l33 -98q3 -9 -1.5 -17.5t-13.5 -11.5l-241 -77l147 -205q15 -15 -4 -31l-84 -63q-15 -15 -31 4l-149 204l-148 -202
q-11 -16 -32 -6z" />
    <glyph glyph-name="plus" unicode="+" 
d="M674 762h348q22 0 22 -23v-110q0 -25 -22 -25h-348v-350q0 -10 -7 -17.5t-18 -7.5h-112q-25 0 -25 25v350h-348q-23 0 -23 25v110q0 23 23 23h348v350q0 25 25 25h112q25 0 25 -25v-350z" />
    <glyph glyph-name="comma" unicode="," horiz-adv-x="440" 
d="M324 186l-136 -407q-3 -19 -26 -19h-101q-23 0 -20 27l109 406q3 20 24 20h129q12 0 18 -8t3 -19z" />
    <glyph glyph-name="hyphen" unicode="-" horiz-adv-x="827" 
d="M670 539h-512q-23 0 -23 22v111q0 22 23 22h512q22 0 22 -22v-111q0 -22 -22 -22z" />
    <glyph glyph-name="period" unicode="." horiz-adv-x="432" 
d="M330 102q0 -49 -31.5 -80.5t-81.5 -31.5q-51 0 -82 31t-31 81q0 51 31 83t82 32q50 0 81.5 -32t31.5 -83z" />
    <glyph glyph-name="slash" unicode="/" horiz-adv-x="860" 
d="M807 1438l-584 -1420q-6 -18 -26 -18h-125q-12 0 -18 8t-1 19l588 1419q9 18 27 18h123q12 0 16.5 -8t-0.5 -18z" />
    <glyph glyph-name="zero" unicode="0" horiz-adv-x="1249" 
d="M1114 461q0 -98 -26.5 -179t-72.5 -137t-108.5 -94.5t-132.5 -56t-147 -17.5t-148 17.5t-134 56t-109.5 94.5t-73.5 137t-27 179v547q0 121 41 215t111 150.5t156.5 85t183.5 28.5t182.5 -28.5t154.5 -85t109.5 -150.5t40.5 -215v-547zM305 455q0 -82 26.5 -144.5
t72.5 -98.5t102 -53.5t121 -17.5q64 0 119 17.5t100.5 53.5t71.5 98.5t26 144.5v546q0 85 -25.5 149t-71 101t-100.5 54.5t-120 17.5q-139 0 -230.5 -78.5t-91.5 -243.5v-546z" />
    <glyph glyph-name="one" unicode="1" horiz-adv-x="733" 
d="M528 0h-120q-25 0 -25 23v1239l-252 -168q-20 -13 -33 6l-57 94q-6 8 -4 17.5t10 15.5l346 229q13 8 31 8h104q25 0 25 -22v-1419q0 -23 -25 -23z" />
    <glyph glyph-name="two" unicode="2" horiz-adv-x="1134" 
d="M1014 0h-910q-22 0 -22 23v83q0 19 12 29l400 420q87 91 137 148.5t103 129.5t76.5 134t23.5 123q0 98 -65.5 167.5t-195.5 69.5q-114 0 -199 -48.5t-161 -131.5q-15 -18 -33 0l-65 90q-13 16 0 33q192 217 456 217q195 0 315 -106.5t120 -288.5q0 -61 -17.5 -122.5
t-44.5 -115.5t-77.5 -121.5t-98 -123t-123.5 -138.5q-151 -168 -301 -313h670q22 0 22 -25v-110q0 -23 -22 -23z" />
    <glyph glyph-name="three" unicode="3" horiz-adv-x="1155" 
d="M1055 455q0 -216 -138.5 -345.5t-355.5 -129.5q-157 0 -270.5 51.5t-214.5 150.5q-16 16 0 33l69 76q19 16 35 0q91 -77 174 -114.5t207 -37.5q145 0 233.5 84t88.5 234q0 145 -89 223t-253 78q-52 0 -125 -13q-20 -3 -27 17l-27 55q-9 15 5 33l262 285q116 127 168 172
h-633q-23 0 -23 24v111q0 22 23 22h833q23 0 23 -22v-80q0 -16 -10 -29l-422 -454l14 -2q126 2 228 -47t163.5 -147t61.5 -228z" />
    <glyph glyph-name="four" unicode="4" horiz-adv-x="1142" 
d="M897 0h-123q-22 0 -22 23v319h-670q-25 0 -25 23v90q0 13 9 28l532 965q8 16 27 16h143q13 0 17.5 -8t-1.5 -20l-518 -938h486v313q0 23 22 23h123q11 0 18 -6.5t7 -16.5v-313h137q22 0 22 -23v-110q0 -23 -22 -23h-137v-319q0 -10 -7 -16.5t-18 -6.5z" />
    <glyph glyph-name="five" unicode="5" horiz-adv-x="1179" 
d="M1083 483q0 -229 -132.5 -365t-360.5 -136q-276 0 -469 196q-15 18 0 33l82 84q14 17 33 -2q80 -76 166 -113t192 -37q151 0 234 90t83 248q0 316 -311 316q-184 0 -303 -113q-14 -14 -31 -8l-98 35q-21 7 -21 26l27 705q0 22 25 22h786q25 0 25 -22v-115q0 -22 -25 -22
h-657l-17 -439q127 92 303 92q215 0 342 -123t127 -352z" />
    <glyph glyph-name="six" unicode="6" horiz-adv-x="1206" 
d="M307 788q116 146 332 146q219 0 345 -122t126 -345q0 -220 -135.5 -355t-351.5 -135t-352 131.5t-136 344.5v559q0 114 38.5 205.5t105.5 149.5t153.5 89t185.5 31q237 0 424 -150q14 -14 2 -32l-65 -88q-13 -23 -33 -7q-143 117 -325 117q-135 0 -224.5 -81t-89.5 -226
v-232zM307 453q0 -144 86.5 -229t233.5 -85q145 0 228 87t83 239q0 150 -77 229.5t-228 79.5q-138 0 -232 -74.5t-94 -222.5v-24z" />
    <glyph glyph-name="seven" unicode="7" horiz-adv-x="1069" 
d="M352 0h-143q-12 0 -17 8.5t1 20.5l614 1271h-731q-23 0 -23 23v119q0 22 23 22h925q25 0 25 -22v-72q0 -15 -6 -27l-641 -1327q-6 -16 -27 -16z" />
    <glyph glyph-name="eight" unicode="8" horiz-adv-x="1251" 
d="M1139 420q0 -205 -140.5 -324t-371.5 -119q-233 0 -373.5 119t-140.5 324q0 118 61.5 213.5t177.5 138.5q-98 44 -149 128t-51 196q0 166 132 278.5t343 112.5q209 0 341 -112.5t132 -278.5q0 -112 -51.5 -196t-149.5 -128q116 -43 178 -139t62 -213zM285 422
q0 -127 92 -206t250 -79q157 0 248.5 79t91.5 206q0 119 -92 190.5t-248 71.5q-157 0 -249.5 -71.5t-92.5 -190.5zM322 1090q0 -116 79 -184t226 -68q145 0 224 68t79 184q0 112 -81 174.5t-222 62.5q-142 0 -223.5 -62.5t-81.5 -174.5z" />
    <glyph glyph-name="nine" unicode="9" horiz-adv-x="1206" 
d="M98 997q0 220 135.5 355t350.5 135q216 0 351.5 -131t135.5 -344v-559q0 -114 -38.5 -206t-105 -150t-152.5 -89t-185 -31q-241 0 -430 179q-15 15 -2 32l67 93q13 19 33 2q147 -144 330 -144q134 0 223.5 80.5t89.5 224.5v230q-119 -144 -334 -144q-218 0 -343.5 121.5
t-125.5 345.5zM268 999q0 -151 78.5 -230t235.5 -79q62 0 118.5 18.5t101.5 53.5t72 93.5t27 131.5v25q0 145 -86.5 230t-232.5 85q-145 0 -229.5 -87.5t-84.5 -240.5z" />
    <glyph glyph-name="colon" unicode=":" horiz-adv-x="499" 
d="M362 954q0 -52 -30.5 -83t-81.5 -31t-82 31t-31 83q0 51 31 82t82 31t81.5 -31t30.5 -82zM362 102q0 -51 -30.5 -81.5t-81.5 -30.5t-82 30.5t-31 81.5q0 52 31 83.5t82 31.5t81.5 -31.5t30.5 -83.5z" />
    <glyph glyph-name="semicolon" unicode=";" horiz-adv-x="522" 
d="M201 -240h-101q-12 0 -17.5 7.5t-2.5 19.5l106 420q6 20 25 20h131q12 0 17.5 -7.5t0.5 -18.5l-133 -420q-7 -21 -26 -21zM385 954q0 -51 -32 -82.5t-83 -31.5t-81.5 31.5t-30.5 82.5q0 50 30.5 81.5t81.5 31.5t83 -31.5t32 -81.5z" />
    <glyph glyph-name="less" unicode="&#x3c;" 
d="M1016 338v-135q0 -12 -9 -17.5t-20 0.5l-858 418q-16 11 -16 29v86q0 18 16 26l858 420q10 6 19.5 0t9.5 -18v-135q0 -21 -19 -27l-673 -309l673 -309q19 -9 19 -29z" />
    <glyph glyph-name="equal" unicode="=" 
d="M1022 788h-858q-23 0 -23 25v111q0 22 23 22h858q22 0 22 -22v-111q0 -25 -22 -25zM1022 416h-858q-23 0 -23 22v111q0 24 23 24h858q22 0 22 -24v-111q0 -22 -22 -22z" />
    <glyph glyph-name="greater" unicode="&#x3e;" 
d="M1057 604l-858 -418q-12 -6 -20.5 -0.5t-8.5 17.5v135q0 20 18 29l674 309l-674 309q-18 6 -18 27v135q0 12 8.5 18t20.5 0l858 -420q16 -10 16 -26v-86q0 -16 -16 -29z" />
    <glyph glyph-name="question" unicode="?" horiz-adv-x="972" 
d="M500 360h-121q-23 0 -23 23v121q0 60 20.5 110t54 85t73.5 66t79.5 62t73 64.5t54 80.5t20.5 103q0 111 -67.5 186.5t-206.5 75.5q-168 0 -301 -133q-22 -18 -33 2l-64 90q-13 16 2 31q66 68 170.5 114t229.5 46q189 0 311.5 -110.5t122.5 -301.5q0 -72 -20.5 -130.5
t-53 -97.5t-72 -72.5t-79.5 -63.5t-72.5 -62t-53 -77t-20.5 -99v-90q0 -23 -24 -23zM555 102q0 -50 -32 -81t-83 -31t-81.5 31t-30.5 81q0 51 30.5 83t81.5 32t83 -32t32 -83z" />
    <glyph glyph-name="at" unicode="@" horiz-adv-x="1898" 
d="M1290 -135q-76 -41 -201.5 -66.5t-230.5 -25.5q-182 0 -323.5 55t-231.5 156t-136 238.5t-46 305.5v258q0 124 26.5 227.5t86.5 192.5t151.5 150.5t229 96t311.5 34.5q556 0 827 -363q8 -13 8 -28v-570q0 -177 -80.5 -269.5t-220.5 -92.5q-80 0 -145.5 29.5t-100.5 82.5
q-39 -54 -109 -85t-161 -31q-165 0 -271 109t-106 274v155q0 166 101 267.5t276 101.5q96 0 193 -21.5t155 -52.5q17 -9 17 -26v-508q0 -81 42.5 -123.5t116.5 -42.5q156 3 156 213v567q-254 287 -694 287q-343 0 -505.5 -151t-162.5 -423v-258q0 -294 157 -458t443 -164
q95 0 199.5 20.5t189.5 61.5q10 6 19 2.5t10 -15.5l23 -81q3 -21 -13 -29zM713 547q0 -122 64.5 -187t166.5 -65q83 0 140.5 32.5t76.5 86.5v481q-27 15 -90.5 28t-126.5 13q-105 0 -168 -65t-63 -173v-151z" />
    <glyph glyph-name="A" unicode="A" horiz-adv-x="1267" 
d="M174 0h-137q-26 0 -19 27l510 1419q6 18 25 18h162q20 0 26 -18l508 -1419q4 -12 -1 -19.5t-17 -7.5h-137q-21 0 -27 18l-125 365h-614l-127 -365q-6 -18 -27 -18zM631 1270l-250 -725h508l-250 725h-8z" />
    <glyph glyph-name="B" unicode="B" horiz-adv-x="1304" 
d="M1143 1079q0 -103 -46.5 -181.5t-127.5 -117.5q113 -41 174 -134.5t61 -221.5q0 -200 -132.5 -312t-371.5 -112h-493q-25 0 -25 23v1419q0 22 25 22h495q215 0 328 -103.5t113 -281.5zM356 158h346q155 0 240.5 66.5t85.5 199.5q0 126 -78.5 198t-234.5 72h-359v-536z
M967 1079q0 106 -68.5 167t-196.5 61h-346v-455h359q116 0 184 57.5t68 169.5z" />
    <glyph glyph-name="C" unicode="C" horiz-adv-x="1202" 
d="M1137 133q-95 -79 -215.5 -117.5t-249.5 -38.5q-114 0 -211.5 32.5t-171 94t-115 159t-41.5 220.5v496q0 123 42 221t115 160t169.5 94.5t208.5 32.5q241 0 436 -144q17 -11 4 -30l-66 -96q-12 -18 -34 -5q-150 111 -342 111q-171 0 -265 -92.5t-94 -251.5v-494
q0 -159 95 -251.5t266 -92.5q211 0 376 127q7 8 16 6t15 -12l68 -94q12 -22 -6 -35z" />
    <glyph glyph-name="D" unicode="D" horiz-adv-x="1372" 
d="M707 0h-500q-25 0 -25 23v1419q0 22 25 22h500q250 0 391 -137.5t141 -388.5v-420q0 -247 -140.5 -382.5t-391.5 -135.5zM358 1305v-1141h347q172 0 263 89.5t91 264.5v420q0 180 -91.5 273.5t-262.5 93.5h-347z" />
    <glyph glyph-name="E" unicode="E" 
d="M358 664v-504h705q22 0 22 -23v-114q0 -23 -22 -23h-856q-25 0 -25 23v1419q0 22 25 22h827q23 0 23 -22v-115q0 -22 -23 -22h-676v-480h629q23 0 23 -24v-113q0 -24 -23 -24h-629z" />
    <glyph glyph-name="F" unicode="F" horiz-adv-x="1144" 
d="M1081 1442v-115q0 -22 -24 -22h-701v-517h623q22 0 22 -22v-115q0 -22 -22 -22h-623v-606q0 -23 -22 -23h-127q-25 0 -25 23v1419q0 22 25 22h850q24 0 24 -22z" />
    <glyph glyph-name="G" unicode="G" horiz-adv-x="1323" 
d="M1192 184q-94 -97 -224.5 -152t-285.5 -55q-91 0 -172.5 20.5t-150.5 62t-119.5 101t-78.5 142.5t-28 182v496q0 123 42 220.5t115 159t169.5 94t208.5 32.5q130 0 256.5 -38t228.5 -108q22 -12 6 -32l-69 -97q-11 -16 -31 -6q-177 117 -391 117q-166 0 -263.5 -90.5
t-97.5 -255.5v-492q0 -163 103 -252.5t272 -89.5q211 0 346 115v381h-336q-22 0 -22 23v114q0 23 22 23h486q22 0 22 -23v-565q0 -19 -8 -27z" />
    <glyph glyph-name="H" unicode="H" horiz-adv-x="1396" 
d="M1040 823v619q0 22 25 22h127q22 0 22 -22v-1419q0 -23 -22 -23h-127q-25 0 -25 23v641h-684v-641q0 -23 -22 -23h-127q-25 0 -25 23v1419q0 22 25 22h127q22 0 22 -22v-619h684z" />
    <glyph glyph-name="I" unicode="I" horiz-adv-x="538" 
d="M356 1442v-1419q0 -23 -22 -23h-127q-25 0 -25 23v1419q0 22 25 22h127q22 0 22 -22z" />
    <glyph glyph-name="J" unicode="J" horiz-adv-x="1036" 
d="M862 467q0 -232 -118 -361t-310 -129q-119 0 -214 39.5t-189 120.5q-18 12 -4 33l57 94q12 21 33 4q78 -62 152.5 -93.5t164.5 -31.5q122 0 188 80t66 246v973q0 22 25 22h127q22 0 22 -22v-975z" />
    <glyph glyph-name="K" unicode="K" horiz-adv-x="1257" 
d="M334 0h-127q-25 0 -25 23v1419q0 22 25 22h127q22 0 22 -22v-678l633 686q14 14 31 14h164q15 0 19.5 -9t-5.5 -19l-588 -631l629 -776q9 -12 4.5 -20.5t-18.5 -8.5h-166q-21 0 -29 14l-536 668l-138 -141v-518q0 -23 -22 -23z" />
    <glyph glyph-name="L" unicode="L" horiz-adv-x="1048" 
d="M1001 0h-794q-25 0 -25 23v1419q0 22 25 22h129q22 0 22 -22v-1282h643q23 0 23 -23v-114q0 -23 -23 -23z" />
    <glyph glyph-name="M" unicode="M" horiz-adv-x="1746" 
d="M334 0h-127q-25 0 -25 23v1419q0 22 25 22h155q19 0 27 -16l318 -578q78 -143 163 -323h7q89 187 163 321l320 580q5 16 26 16h156q23 0 23 -22v-1419q0 -23 -23 -23h-129q-22 0 -22 23v618q0 207 12 555l-4 2q-43 -87 -187 -360l-256 -476q-10 -16 -28 -16h-109
q-20 0 -26 16l-256 476q-126 232 -187 360l-4 -2q10 -435 10 -555v-618q0 -23 -22 -23z" />
    <glyph glyph-name="N" unicode="N" horiz-adv-x="1441" 
d="M332 0h-125q-25 0 -25 23v1419q0 22 25 22h143q19 0 29 -16l543 -885q143 -244 172 -299l6 2q-13 276 -13 555v621q0 22 23 22h127q23 0 23 -22v-1419q0 -23 -23 -23h-143q-21 0 -29 14l-539 854q-102 166 -178 312l-4 -2q12 -324 12 -535v-620q0 -23 -24 -23z" />
    <glyph glyph-name="O" unicode="O" horiz-adv-x="1380" 
d="M1249 514q0 -248 -150 -392.5t-409 -144.5t-409 144.5t-150 392.5v432q0 252 149.5 396.5t409.5 144.5t409.5 -144.5t149.5 -396.5v-432zM307 514q0 -174 100.5 -272.5t282.5 -98.5t281.5 98.5t99.5 272.5v432q0 180 -99.5 279.5t-281.5 99.5q-183 0 -283 -99.5
t-100 -279.5v-432z" />
    <glyph glyph-name="P" unicode="P" horiz-adv-x="1280" 
d="M205 1464h493q242 0 375 -127t133 -352q0 -228 -133.5 -354.5t-374.5 -126.5h-342v-481q0 -23 -22 -23h-129q-23 0 -23 23v1419q0 22 23 22zM356 666h324q350 0 350 319q0 318 -350 318h-324v-637z" />
    <glyph glyph-name="Q" unicode="Q" horiz-adv-x="1382" 
d="M1255 -4l-69 -70q-19 -19 -35 0l-131 137q-143 -86 -330 -86q-259 0 -409 145.5t-150 391.5v432q0 251 149.5 396t409.5 145t409.5 -145t149.5 -396v-432q0 -215 -119 -352l125 -133q16 -19 0 -33zM307 514q0 -173 101 -273t282 -100q111 0 207 52l-186 194q-15 18 0 33
l69 69q19 19 35 0l191 -198q65 94 65 223v432q0 179 -99.5 279t-281.5 100t-282.5 -100t-100.5 -279v-432z" />
    <glyph glyph-name="R" unicode="R" horiz-adv-x="1292" 
d="M1200 0h-160q-20 0 -28 14l-408 557h-248v-548q0 -23 -22 -23h-127q-25 0 -25 23v1419q0 22 25 22h461q242 0 379 -118t137 -330q0 -174 -101.5 -286.5t-283.5 -143.5l415 -557q9 -12 4.5 -20.5t-18.5 -8.5zM670 1305h-314v-576h314q336 0 336 287q0 289 -336 289z" />
    <glyph glyph-name="S" unicode="S" horiz-adv-x="1241" 
d="M1155 397q0 -106 -43 -188.5t-118 -132t-170 -74.5t-206 -25q-148 0 -267.5 47t-244.5 148q-17 14 -4 33l70 96q13 20 31 6q109 -82 209.5 -122.5t212.5 -41.5q150 0 252 64t102 186q0 50 -18.5 89t-48.5 66.5t-81.5 50t-104 37.5t-130.5 32q-81 18 -147 40t-132 57.5
t-110.5 80.5t-72.5 110t-28 144t27.5 143.5t75.5 109.5t114.5 75.5t143 44.5t162.5 14q135 0 246.5 -39t230.5 -125q21 -12 6 -31l-68 -96q-12 -18 -32 -4q-185 127 -398 133q-150 0 -240.5 -59.5t-90.5 -169.5q0 -46 17.5 -82.5t46 -62.5t76.5 -47.5t97.5 -36.5t120.5 -31
q65 -15 115 -28.5t105.5 -34.5t96.5 -44t80 -56t63.5 -72t39 -91t14.5 -113z" />
    <glyph glyph-name="T" unicode="T" horiz-adv-x="1148" 
d="M47 1464h1053q24 0 24 -22v-115q0 -22 -24 -22h-438v-1282q0 -10 -7 -16.5t-18 -6.5h-127q-11 0 -18 6.5t-7 16.5v1282h-438q-22 0 -22 22v115q0 22 22 22z" />
    <glyph glyph-name="U" unicode="U" horiz-adv-x="1415" 
d="M1245 500q0 -235 -146 -379t-392 -144q-244 0 -390.5 144t-146.5 379v942q0 22 25 22h131q22 0 22 -22v-930q0 -175 94 -274t265 -99t265.5 99.5t94.5 273.5v930q0 22 23 22h131q24 0 24 -22v-942z" />
    <glyph glyph-name="V" unicode="V" horiz-adv-x="1292" 
d="M731 0h-174q-21 0 -27 18l-516 1420q-4 12 1.5 19t17.5 7h139q21 0 27 -18l297 -838q64 -180 145 -415h6q73 205 144 411l299 842q6 18 26 18h139q25 0 19 -26l-516 -1420q-6 -18 -27 -18z" />
    <glyph glyph-name="W" unicode="W" horiz-adv-x="1947" 
d="M598 0h-149q-21 0 -27 20l-395 1418q-3 11 2.5 18.5t17.5 7.5h137q22 0 25 -20l213 -801q52 -198 102 -432h4q57 221 125 457l226 753q7 21 24 21h139q18 0 25 -21l227 -753q76 -266 125 -457h4q59 271 101 432l213 801q6 20 24 20h140q12 0 17.5 -7.5t2.5 -18.5
l-397 -1418q-6 -20 -25 -20h-149q-22 0 -25 20l-235 764q-76 258 -113 433h-6q-51 -228 -113 -433l-235 -764q-6 -20 -25 -20z" />
    <glyph glyph-name="X" unicode="X" horiz-adv-x="1208" 
d="M707 735l458 -706q8 -11 3.5 -20t-17.5 -9h-158q-18 0 -28 16l-359 582l-360 -582q-10 -16 -29 -16h-158q-13 0 -18.5 9t2.5 20l461 706l-438 701q-8 10 -3 19t19 9h156q16 0 26 -16l342 -571l340 571q10 16 27 16h155q12 0 17 -9t-2 -19z" />
    <glyph glyph-name="Y" unicode="Y" horiz-adv-x="1163" 
d="M645 0h-129q-22 0 -22 23v534l-482 879q-6 12 -1 20t18 8h147q22 0 27 -16l379 -731l376 731q5 16 27 16h148q13 0 17.5 -8t-1.5 -20l-479 -883v-530q0 -23 -25 -23z" />
    <glyph glyph-name="Z" unicode="Z" horiz-adv-x="1204" 
d="M1106 0h-1010q-22 0 -22 23v79q0 18 8 29l795 1174h-746q-25 0 -25 22v115q0 22 25 22h956q23 0 23 -22v-78q0 -18 -8 -31l-793 -1173h797q22 0 22 -23v-114q0 -23 -22 -23z" />
    <glyph glyph-name="bracketleft" unicode="[" horiz-adv-x="583" 
d="M334 1542v-1628h158q24 0 24 -23v-108q0 -23 -24 -23h-299q-25 0 -25 23v1890q0 23 25 23h299q24 0 24 -23v-108q0 -23 -24 -23h-158z" />
    <glyph glyph-name="backslash" unicode="\" horiz-adv-x="860" 
d="M637 18l-584 1420q-5 11 0 18.5t17 7.5h123q17 0 26 -18l588 -1419q5 -11 -1 -19t-18 -8h-124q-21 0 -27 18z" />
    <glyph glyph-name="bracketright" unicode="]" horiz-adv-x="583" 
d="M250 -86v1628h-158q-24 0 -24 23v108q0 23 24 23h299q25 0 25 -23v-1890q0 -23 -25 -23h-299q-24 0 -24 23v108q0 23 24 23h158z" />
    <glyph glyph-name="asciicircum" unicode="^" 
d="M260 1161h-156q-14 0 -18 8.5t6 20.5l416 479q11 14 29 14h112q18 0 29 -14l416 -479q10 -12 6 -20.5t-19 -8.5h-153q-19 0 -29 13l-305 360l-307 -360q-10 -13 -27 -13z" />
    <glyph glyph-name="underscore" unicode="_" horiz-adv-x="1175" 
d="M1102 -47v-111q0 -22 -23 -22h-983q-22 0 -22 22v111q0 24 22 24h983q23 0 23 -24z" />
    <glyph glyph-name="grave" unicode="`" horiz-adv-x="438" 
d="M309 1223h-92q-19 0 -29 14l-196 272q-9 12 -5.5 20.5t17.5 8.5h129q19 0 29 -14l166 -273q7 -12 1 -20t-20 -8z" />
    <glyph glyph-name="a" unicode="a" horiz-adv-x="1046" 
d="M125 975q154 106 387 106q193 0 300.5 -101t107.5 -296v-614q0 -21 -19 -27q-181 -66 -395 -66q-71 0 -134 11.5t-119.5 37t-97.5 63.5t-65 95.5t-24 128.5q0 159 119 242.5t321 83.5q100 0 246 -25v66q0 127 -57.5 188.5t-188.5 61.5q-164 0 -291 -76q-19 -12 -31 6
l-59 86q-10 19 0 29zM233 313q0 -90 75 -138t198 -48q121 0 246 37v307q-137 25 -246 25q-136 0 -204.5 -48t-68.5 -135z" />
    <glyph glyph-name="b" unicode="b" horiz-adv-x="1112" 
d="M307 1018q123 63 258 63q199 0 322 -116t123 -318v-227q0 -113 -33.5 -199t-95.5 -139t-144 -79t-184 -26q-208 0 -395 72q-19 8 -19 27v1366q0 22 23 22h121q24 0 24 -22v-424zM549 127q142 0 216.5 69.5t74.5 223.5v227q0 285 -289 285q-135 0 -244 -74v-692
q98 -39 242 -39z" />
    <glyph glyph-name="c" unicode="c" horiz-adv-x="962" 
d="M905 96q-162 -119 -362 -119q-201 0 -320 110t-119 286v311q0 177 119 287t318 110q180 0 333 -102q21 -15 7 -35l-54 -84q-14 -18 -32 -6q-118 76 -250 76q-129 0 -201 -67.5t-72 -178.5v-311q0 -112 72 -179t199 -67q140 0 274 90q19 16 33 -4l59 -84q14 -21 -4 -33z
" />
    <glyph glyph-name="d" unicode="d" horiz-adv-x="1112" 
d="M805 1018v424q0 22 24 22h121q23 0 23 -22v-1366q0 -19 -19 -27q-187 -72 -395 -72q-102 0 -184 26t-144 79t-95.5 139t-33.5 199v227q0 202 123 318t322 116q135 0 258 -63zM272 420q0 -156 74.5 -225.5t216.5 -69.5q144 0 242 39v694q-109 74 -244 74q-289 0 -289 -285
v-227z" />
    <glyph glyph-name="e" unicode="e" horiz-adv-x="1060" 
d="M967 674v-201q0 -24 -23 -24h-670v-87q0 -112 74.5 -173.5t192.5 -61.5q165 0 313 115q20 13 33 -6l59 -78q15 -18 -4 -33q-176 -148 -405 -148q-85 0 -161.5 24.5t-137.5 71t-97.5 121.5t-36.5 168v312q0 102 36 181.5t97.5 128t138 73t163.5 24.5q86 0 161.5 -24.5
t136 -73t95.5 -128t35 -181.5zM803 674q0 126 -73 191t-191 65q-121 0 -193 -64.5t-72 -191.5v-86h529v86z" />
    <glyph glyph-name="f" unicode="f" horiz-adv-x="649" 
d="M610 1333q-46 6 -102 6q-96 0 -147.5 -59t-51.5 -164v-67h283q22 0 22 -23v-102q0 -25 -22 -25h-283v-876q0 -23 -24 -23h-121q-23 0 -23 23v1091q0 178 96 275.5t248 97.5q68 0 123 -6q23 -3 23 -27v-98q0 -23 -21 -23z" />
    <glyph glyph-name="g" unicode="g" horiz-adv-x="1112" 
d="M973 29q0 -209 -105.5 -324t-326.5 -115q-224 0 -396 142q-14 11 -2 32l60 89q13 20 33 4q142 -115 305 -115q139 0 203.5 72.5t60.5 228.5v49q-121 -59 -262 -59q-94 0 -173 25.5t-139.5 76t-94.5 131.5t-34 185v204q0 113 35 196.5t99 133t145 73t180 23.5
q213 0 393 -80q19 -6 19 -26v-946zM272 451q0 -140 76 -203.5t207 -63.5q71 0 139.5 16.5t110.5 45.5v649q-44 15 -114 25t-128 10q-140 0 -215.5 -64.5t-75.5 -210.5v-204z" />
    <glyph glyph-name="h" unicode="h" horiz-adv-x="1142" 
d="M309 1030q118 51 256 51q98 0 177.5 -25.5t141 -78t95 -139.5t33.5 -203v-612q0 -23 -25 -23h-121q-22 0 -22 23v606q0 160 -72.5 230.5t-216.5 70.5q-140 0 -246 -53v-854q0 -23 -24 -23h-121q-23 0 -23 23v1419q0 22 23 22h121q24 0 24 -22v-412z" />
    <glyph glyph-name="i" unicode="i" horiz-adv-x="450" 
d="M287 0h-121q-25 0 -25 23v1011q0 25 25 25h121q22 0 22 -25v-1011q0 -23 -22 -23zM328 1356q0 -43 -29 -72t-72 -29t-72.5 29t-29.5 72q0 44 29.5 72t72.5 28t72 -28t29 -72z" />
    <glyph glyph-name="j" unicode="j" horiz-adv-x="466" 
d="M326 -35q0 -184 -80 -280.5t-228 -96.5q-54 0 -100 6q-22 3 -22 27v103q0 24 24 24q43 -6 80 -6q80 0 119 51.5t39 171.5v1069q0 25 24 25h121q10 0 16.5 -7t6.5 -18v-1069zM344 1356q0 -43 -28.5 -72t-71.5 -29t-73 29t-30 72q0 44 30 72t73 28t71.5 -28t28.5 -72z" />
    <glyph glyph-name="k" unicode="k" horiz-adv-x="1013" 
d="M985 0h-151q-20 0 -31 14l-389 473l-105 -100v-364q0 -23 -24 -23h-121q-23 0 -23 23v1419q0 22 23 22h121q24 0 24 -22v-848l463 453q10 12 29 12h149q14 0 17.5 -9.5t-6.5 -19.5l-435 -428l471 -573q9 -12 5.5 -20.5t-17.5 -8.5z" />
    <glyph glyph-name="l" unicode="l" horiz-adv-x="593" 
d="M559 -16q-61 -7 -115 -7q-149 0 -229 97t-80 280v1088q0 22 25 22h121q22 0 22 -22v-1090q0 -117 40 -169t120 -52q43 0 92 6q25 0 25 -22v-105q0 -22 -21 -26z" />
    <glyph glyph-name="m" unicode="m" horiz-adv-x="1673" 
d="M803 981q148 100 315 100q192 0 308 -109t116 -308v-641q0 -23 -22 -23h-121q-25 0 -25 23v645q0 126 -65 194t-195 68q-126 0 -225 -70q39 -83 39 -194v-643q0 -23 -23 -23h-123q-22 0 -22 23v645q0 262 -246 262q-102 0 -207 -37v-870q0 -23 -24 -23h-121q-23 0 -23 23
v950q0 20 19 28q178 80 352 80q179 0 293 -100z" />
    <glyph glyph-name="n" unicode="n" horiz-adv-x="1140" 
d="M283 0h-121q-23 0 -23 23v950q0 19 17 28q191 80 393 80q216 0 338.5 -108t122.5 -334v-616q0 -23 -25 -23h-121q-22 0 -22 23v612q0 155 -75 225t-218 70q-125 0 -242 -37v-870q0 -23 -24 -23z" />
    <glyph glyph-name="o" unicode="o" horiz-adv-x="1105" 
d="M1004 379q0 -182 -121.5 -292t-329.5 -110q-206 0 -328.5 110.5t-122.5 291.5v295q0 182 123 294.5t328 112.5q207 0 329 -112.5t122 -294.5v-295zM272 379q0 -117 73 -184.5t208 -67.5q136 0 209.5 67.5t73.5 184.5v295q0 119 -73.5 187.5t-209.5 68.5
q-135 0 -208 -68.5t-73 -187.5v-295z" />
    <glyph glyph-name="p" unicode="p" horiz-adv-x="1112" 
d="M156 1008q190 73 397 73q210 0 333.5 -110t123.5 -334v-225q0 -203 -123.5 -319t-325.5 -116q-139 0 -254 64v-408q0 -22 -24 -22h-121q-23 0 -23 22v1348q0 21 17 27zM551 127q289 0 289 285v225q0 156 -74.5 226.5t-216.5 70.5q-146 0 -242 -41v-692q109 -74 244 -74z
" />
    <glyph glyph-name="q" unicode="q" horiz-adv-x="1112" 
d="M102 637q0 224 123.5 334t333.5 110q205 0 395 -73q19 -5 19 -27v-1348q0 -22 -23 -22h-121q-24 0 -24 22v408q-118 -64 -254 -64q-202 0 -325.5 116t-123.5 319v225zM272 412q0 -285 289 -285q135 0 244 74v694q-98 39 -242 39q-142 0 -216.5 -70.5t-74.5 -226.5v-225z
" />
    <glyph glyph-name="r" unicode="r" horiz-adv-x="772" 
d="M283 0h-121q-23 0 -23 23v956q0 21 17 27q156 75 350 75q93 0 211 -16q20 -3 20 -27v-100q0 -26 -24 -20q-100 14 -185 14q-123 0 -221 -41v-868q0 -23 -24 -23z" />
    <glyph glyph-name="s" unicode="s" horiz-adv-x="972" 
d="M903 299q0 -153 -115 -237.5t-301 -84.5q-225 0 -405 132q-16 11 -6 32l55 95q12 21 33 6q152 -115 328 -115q106 0 173.5 43.5t67.5 120.5q0 28 -9 50.5t-29 38.5t-38.5 27t-51.5 21t-54 14.5t-59 12.5q-42 9 -69 15.5t-73.5 21t-77.5 29.5t-68 40.5t-59 55t-37.5 72
t-15.5 91.5q0 100 59.5 170t148.5 100.5t196 30.5q184 0 356 -96q22 -10 8 -31l-55 -92q-5 -9 -13.5 -11.5t-17.5 3.5q-142 76 -287 76q-107 0 -168 -40.5t-61 -109.5q0 -28 9 -50t28.5 -38.5t40.5 -28.5t55.5 -22.5t62 -17t70.5 -15.5q46 -9 73.5 -15.5t72.5 -20t73 -28
t61.5 -38t53 -51.5t32.5 -68t13 -88z" />
    <glyph glyph-name="t" unicode="t" horiz-adv-x="657" 
d="M303 348q0 -102 51 -158.5t146 -56.5q24 0 98 4q25 0 25 -22v-109q0 -21 -21 -24q-93 -5 -110 -5q-162 0 -259.5 91t-97.5 272v954q0 25 25 25h106q20 0 23 -23l14 -247h266q23 0 23 -23v-102q0 -25 -23 -25h-266v-551z" />
    <glyph glyph-name="u" unicode="u" horiz-adv-x="1128" 
d="M846 1059h121q22 0 22 -25v-948q0 -24 -16 -29q-180 -80 -387 -80q-211 0 -332 108.5t-121 334.5v614q0 25 25 25h121q22 0 22 -25v-610q0 -156 73 -226.5t212 -70.5q128 0 235 39v868q0 25 25 25z" />
    <glyph glyph-name="v" unicode="v" horiz-adv-x="1024" 
d="M584 0h-150q-17 0 -26 18l-375 1012q-5 12 0.5 20.5t17.5 8.5h131q19 0 27 -19l203 -583q11 -31 44.5 -128.5t53.5 -150.5h2q63 187 96 279l205 583q1 7 9.5 13t17.5 6h131q25 0 18 -29l-377 -1012q-9 -18 -28 -18z" />
    <glyph glyph-name="w" unicode="w" horiz-adv-x="1548" 
d="M367 0q-22 0 -25 20l-305 1010q-7 29 18 29h127q21 0 27 -21l135 -485q39 -147 92 -363h4q62 253 86 332l156 498q6 20 25 20h135q18 0 24 -20l156 -498q34 -109 88 -332h2q73 291 92 363l137 485q3 21 25 21h127q12 0 17.5 -8.5t0.5 -20.5l-303 -1010q-6 -20 -26 -20
h-144q-21 0 -24 20l-172 558q-36 120 -64 256h-6q-34 -144 -65 -256l-172 -558q-3 -20 -25 -20h-143z" />
    <glyph glyph-name="x" unicode="x" horiz-adv-x="997" 
d="M602 535l356 -506q8 -12 3.5 -20.5t-17.5 -8.5h-151q-19 0 -27 14l-266 404l-267 -404q-8 -14 -28 -14h-152q-13 0 -17.5 8.5t3.5 20.5l356 506l-334 495q-8 10 -3 19.5t18 9.5h143q16 0 29 -17l252 -389l252 389q13 17 26 17h144q13 0 18.5 -9.5t-2.5 -19.5z" />
    <glyph glyph-name="y" unicode="y" horiz-adv-x="1128" 
d="M819 244v790q0 11 6.5 18t16.5 7h121q24 0 24 -25v-1005q0 -212 -107 -325t-325 -114q-228 0 -395 142q-14 14 -2 35l61 83q15 22 33 7q150 -113 303 -115q136 2 202 72.5t62 224.5v47q-127 -53 -254 -53q-85 0 -161.5 25.5t-138 74t-98 128t-36.5 179.5v594q0 11 6.5 18
t16.5 7h120q25 0 25 -25v-585q0 -133 79.5 -197t207.5 -64q135 0 233 56z" />
    <glyph glyph-name="z" unicode="z" horiz-adv-x="956" 
d="M864 0h-778q-23 0 -23 23v61q0 18 11 29l569 794h-526q-10 0 -16.5 7t-6.5 18v102q0 11 6.5 18t16.5 7h735q25 0 25 -25v-55q0 -14 -11 -29l-573 -800h571q23 0 23 -23v-104q0 -23 -23 -23z" />
    <glyph glyph-name="braceleft" unicode="{" horiz-adv-x="608" 
d="M516 -240h-55q-125 0 -182.5 62t-57.5 201v407q0 96 -28 152t-95 67q-22 3 -22 25v110q0 22 22 25q67 11 95 67t28 152v408q0 138 57 200t181 62h57q11 0 18 -6.5t7 -16.5v-108q0 -23 -25 -23h-45q-48 -2 -71 -29.5t-23 -89.5v-426q0 -101 -42 -175t-108 -95
q66 -21 108 -95t42 -175v-426q0 -63 23.5 -90t72.5 -29h43q25 0 25 -23v-108q0 -23 -25 -23z" />
    <glyph glyph-name="bar" unicode="|" horiz-adv-x="493" 
d="M303 -285h-110q-25 0 -25 23v2003q0 22 25 22h110q23 0 23 -22v-2003q0 -23 -23 -23z" />
    <glyph glyph-name="braceright" unicode="}" horiz-adv-x="608" 
d="M147 -240h-55q-24 0 -24 23v108q0 23 24 23h43q49 2 72.5 29t23.5 90v426q0 101 42 175t108 95q-66 21 -108 95t-42 175v426q0 62 -23 89.5t-71 29.5h-45q-24 0 -24 23v108q0 23 24 23h58q124 0 180.5 -61.5t56.5 -200.5v-408q0 -96 28 -152t95 -67q22 -3 22 -25v-110
q0 -22 -22 -25q-67 -11 -95 -67t-28 -152v-407q0 -139 -57.5 -201t-182.5 -62z" />
    <glyph glyph-name="asciitilde" unicode="~" 
d="M1034 682q-94 -115 -246 -115q-21 0 -41 2.5t-46.5 9.5t-36.5 10t-44.5 15.5t-37.5 13.5q-111 44 -166 44q-95 0 -152 -54q-17 -17 -33 -4l-73 64q-19 15 -4 30q43 57 100 85t141 28q72 0 207 -51q105 -43 166 -43q96 0 154 55q16 13 32 0l74 -59q15 -15 6 -31z" />
    <glyph glyph-name="exclamdown" unicode="&#xa1;" horiz-adv-x="487" 
d="M188 707h109q25 0 25 -23l12 -700v-359q0 -22 -25 -22h-133q-22 0 -22 22v359l12 700q0 23 22 23zM125 965q0 51 34 84.5t85 33.5t83.5 -33.5t32.5 -84.5t-32.5 -85t-83.5 -34t-85 34t-34 85z" />
    <glyph glyph-name="cent" unicode="&#xa2;" horiz-adv-x="1021" 
d="M868 213l60 -84q13 -20 -6 -33q-143 -107 -324 -119v-145q0 -22 -23 -22h-73q-23 0 -23 22v150q-166 22 -261 128t-95 263v311q0 158 95.5 263.5t260.5 127.5v152q0 22 23 22h73q23 0 23 -22v-148q156 -9 295 -100q20 -14 6 -35l-53 -84q-13 -19 -33 -6q-118 76 -250 76
q-129 0 -200.5 -67.5t-71.5 -178.5v-311q0 -112 71.5 -179t198.5 -67q142 0 275 92q21 14 32 -6z" />
    <glyph glyph-name="sterling" unicode="&#xa3;" horiz-adv-x="1124" 
d="M1008 0h-885q-23 0 -23 23v98q0 9 6.5 15.5t16.5 6.5q129 17 129 215v340h-129q-23 0 -23 23v96q0 25 23 25h129v256q0 172 109 280.5t290 108.5q217 0 357 -119q17 -14 4 -33l-56 -78q-13 -22 -32 -6q-120 90 -273 90q-119 0 -184.5 -66.5t-65.5 -176.5v-256h402
q24 0 24 -25v-96q0 -23 -24 -23h-402v-340q0 -159 -82 -215h689q10 0 17 -6.5t7 -17.5v-96q0 -23 -24 -23z" />
    <glyph glyph-name="currency" unicode="&#xa4;" horiz-adv-x="1306" 
d="M952 305q-126 -90 -299 -90t-299 90l-104 -102q-6 -7 -16 -7t-17 7l-67 67q-18 15 0 33l102 105q-90 126 -90 301q0 171 90 297l-102 102q-18 18 0 35l67 67q7 8 17 8t16 -8l104 -104q127 94 299 94t299 -94l103 104q17 15 35 0l67 -67q17 -17 0 -35l-102 -102
q90 -126 90 -297q0 -172 -90 -301l102 -105q17 -17 0 -33l-67 -67q-19 -19 -35 0zM305 709q0 -159 97.5 -256t250.5 -97t251 99t97 254q-1 151 -100 249.5t-248 98.5q-153 0 -250.5 -97.5t-97.5 -250.5z" />
    <glyph glyph-name="yen" unicode="&#xa5;" horiz-adv-x="1202" 
d="M987 1464h139q14 0 19 -8t-2 -20l-406 -777h207q25 0 25 -24v-82q0 -23 -25 -23h-260v-137h260q25 0 25 -22v-82q0 -23 -25 -23h-260v-243q0 -23 -22 -23h-123q-25 0 -25 23v243h-260q-25 0 -25 23v82q0 22 25 22h260v137h-260q-25 0 -25 23v82q0 24 25 24h209l-410 777
q-6 12 -0.5 20t19.5 8h141q17 0 27 -16l360 -731l358 731q6 16 29 16z" />
    <glyph glyph-name="brokenbar" unicode="&#xa6;" horiz-adv-x="497" 
d="M305 870h-110q-25 0 -25 23v848q0 22 25 22h110q23 0 23 -22v-848q0 -23 -23 -23zM305 -285h-110q-25 0 -25 23v848q0 22 25 22h110q23 0 23 -22v-848q0 -23 -23 -23z" />
    <glyph glyph-name="section" unicode="&#xa7;" horiz-adv-x="1042" 
d="M911 -14q0 -169 -111.5 -267t-277.5 -98q-114 0 -219.5 48t-179.5 130q-13 20 0 33l65 84q15 21 31 2q138 -141 301 -141q108 0 169 56.5t61 141.5q0 34 -9.5 62.5t-32 52t-43.5 40t-60.5 34.5t-64.5 28t-73 27q-49 18 -76 28.5t-71.5 31t-70 38t-57.5 46t-49 59
t-29 72.5t-12 90q0 211 226 290q-170 113 -170 289q0 82 33.5 146t89 101.5t122.5 57t140 19.5q164 0 311 -98q22 -12 6 -31l-55 -82q-11 -19 -33 -6q-114 67 -229 67q-103 0 -162 -45.5t-59 -128.5q0 -29 8.5 -54t20 -44t35 -38t41.5 -31t52.5 -28t54.5 -24l60 -24
q148 -59 209 -101q149 -100 149 -276q0 -102 -48 -177t-140 -110q147 -94 147 -270zM266 594q0 -41 16.5 -74.5t43.5 -58t75.5 -48t99.5 -41t128 -40.5q74 18 119 70.5t45 129.5q0 32 -7.5 58.5t-28.5 49.5t-42.5 40t-64.5 38t-78 36t-99 41q-98 -19 -152.5 -71.5
t-54.5 -129.5z" />
    <glyph glyph-name="dieresis" unicode="&#xa8;" horiz-adv-x="561" 
d="M199 1356q0 -44 -27 -70t-70 -26q-42 0 -69 26t-27 70q0 45 27 71.5t69 26.5q43 0 70 -26.5t27 -71.5zM592 1356q0 -44 -27 -70t-69 -26q-43 0 -71 26t-28 70q0 45 27.5 71.5t71.5 26.5q42 0 69 -26.5t27 -71.5z" />
    <glyph glyph-name="copyright" unicode="&#xa9;" horiz-adv-x="1701" 
d="M1593 729q0 -175 -58 -318t-158.5 -237.5t-235 -145.5t-287.5 -51q-123 0 -235 32t-204.5 95.5t-161 153t-106.5 210.5t-38 261q0 175 58.5 319.5t160 239.5t237 147t289.5 52q153 0 287.5 -52t235 -147t158.5 -239.5t58 -319.5zM193 729q0 -161 51.5 -290t142 -211.5
t210 -126.5t257.5 -44q136 0 254.5 44t208 126.5t141 211.5t51.5 290q0 164 -51.5 294.5t-141.5 213.5t-207.5 126.5t-254.5 43.5t-256 -44t-210 -127t-143 -213.5t-52 -293.5zM1126 426q-104 -107 -274 -107q-128 2 -215.5 76.5t-87.5 204.5v264q0 130 86.5 204.5
t212.5 74.5q78 0 148 -30.5t120 -80.5q13 -17 0 -33l-45 -57q-15 -17 -33 -2q-80 84 -186 84q-75 -2 -126.5 -45t-51.5 -113v-268q0 -71 51 -114.5t127 -43.5q120 0 207 74q18 18 31 -2l36 -55q12 -19 0 -31z" />
    <glyph glyph-name="guillemotleft" unicode="&#xab;" horiz-adv-x="1054" 
d="M524 145h-131q-19 0 -28 15l-283 420q-8 16 0 32l283 420q9 15 28 15h131q14 0 18 -8.5t-3 -20.5l-287 -422l287 -422q7 -12 3 -20.5t-18 -8.5zM946 145h-131q-20 0 -29 15l-282 420q-8 16 0 32l282 420q9 15 29 15h131q14 0 18 -8.5t-3 -20.5l-287 -422l287 -422
q7 -12 3 -20.5t-18 -8.5z" />
    <glyph glyph-name="logicalnot" unicode="&#xac;" 
d="M1012 377h-111q-22 0 -22 22v285h-725q-23 0 -23 23v110q0 25 23 25h858q22 0 22 -25v-418q0 -22 -22 -22z" />
    <glyph glyph-name="registered" unicode="&#xae;" horiz-adv-x="1060" 
d="M956 1061q0 -131 -58.5 -229.5t-154 -147.5t-213.5 -49t-213.5 49t-154 147.5t-58.5 229.5q0 195 122.5 310.5t303.5 115.5t303.5 -115.5t122.5 -310.5zM174 1061q0 -168 101.5 -262t256.5 -94q153 0 254 94.5t101 261.5q0 170 -100.5 264t-254.5 94q-156 0 -257 -93.5
t-101 -264.5zM432 860h-18q-23 0 -23 25v364q0 11 6.5 18t16.5 7h137q68 0 108.5 -33t40.5 -96q0 -109 -108 -125l102 -131q9 -12 5.5 -20.5t-17.5 -8.5h-27q-18 0 -28 17l-105 139h-67v-131q0 -25 -23 -25zM455 1212v-135h96q84 0 84 68q0 33 -22.5 50t-61.5 17h-96z" />
    <glyph glyph-name="macron" unicode="&#xaf;" horiz-adv-x="585" 
d="M0 1292v88q0 11 6.5 18t16.5 7h516q22 0 22 -25v-88q0 -22 -22 -22h-516q-23 0 -23 22z" />
    <glyph glyph-name="degree" unicode="&#xb0;" horiz-adv-x="741" 
d="M651 1208q0 -125 -78.5 -201.5t-199.5 -76.5q-124 0 -202.5 75t-78.5 203q0 129 78.5 204t202.5 75q122 0 200 -75t78 -204zM209 1208q0 -83 45.5 -126.5t118.5 -43.5q72 0 117 43.5t45 126.5q0 81 -45 125.5t-117 44.5t-118 -44.5t-46 -125.5z" />
    <glyph glyph-name="plusminus" unicode="&#xb1;" 
d="M649 391h-112q-25 0 -25 23v325h-348q-23 0 -23 23v110q0 25 23 25h348v324q0 24 25 24h112q11 0 18 -7t7 -17v-324h348q22 0 22 -25v-110q0 -23 -22 -23h-348v-325q0 -10 -7 -16.5t-18 -6.5zM1022 100h-858q-23 0 -23 23v113q0 22 23 22h858q22 0 22 -22v-113
q0 -23 -22 -23z" />
    <glyph glyph-name="two.sups" unicode="&#xb2;" horiz-adv-x="653" 
d="M565 840h-487q-23 0 -23 22v62q0 17 11 28l217 211q61 63 90 96.5t54.5 80t25.5 87.5q0 50 -33 76.5t-94 26.5q-98 0 -174 -80q-18 -18 -35 2l-37 51q-12 18 0 33q109 109 252 109q112 0 176.5 -59.5t64.5 -155.5q0 -87 -50.5 -164.5t-168.5 -192.5q-12 -12 -58.5 -55.5
t-64.5 -61.5h334q25 0 25 -22v-72q0 -22 -25 -22z" />
    <glyph glyph-name="three.sups" unicode="&#xb3;" horiz-adv-x="657" 
d="M592 1090q0 -116 -77 -189.5t-191 -71.5q-155 2 -273 115q-14 17 0 31l39 49q16 16 33 2q79 -82 199 -82q68 0 110.5 42.5t42.5 115.5q0 61 -42.5 100t-115.5 39q-39 0 -69 -6q-23 -3 -29 16l-12 27q-6 18 6 33l145 164l50 51h-299q-23 0 -23 22v64q0 22 23 22h442
q22 0 22 -22v-39q0 -15 -12 -27l-205 -227h25q95 0 153 -65.5t58 -163.5z" />
    <glyph glyph-name="acute" unicode="&#xb4;" horiz-adv-x="489" 
d="M125 1223h-92q-14 0 -20 8t1 20l166 273q10 14 29 14h129q14 0 17.5 -8.5t-5.5 -20.5l-196 -272q-11 -14 -29 -14z" />
    <glyph glyph-name="paragraph" unicode="&#xb6;" horiz-adv-x="1314" 
d="M631 -285h-111q-24 0 -24 23v831q-104 0 -189 37.5t-138.5 100.5t-82.5 142.5t-29 166.5q0 89 29.5 168.5t84.5 142.5t142.5 100t196.5 37h602q23 0 23 -22v-1704q0 -23 -23 -23h-111q-24 0 -24 23v1571h-324v-1571q0 -23 -22 -23z" />
    <glyph glyph-name="periodcentered" unicode="&#xb7;" horiz-adv-x="483" 
d="M354 633q0 -50 -31.5 -81.5t-80.5 -31.5q-51 0 -82 31.5t-31 81.5q0 51 31 83t82 32q50 0 81 -32t31 -83z" />
    <glyph glyph-name="cedilla" unicode="&#xb8;" horiz-adv-x="366" 
d="M395 -250q0 -81 -64.5 -125.5t-172.5 -44.5q-60 0 -119 19q-19 5 -19 26v49q0 24 27 21q46 -14 92 -14q123 0 123 79q0 73 -129 76q-21 0 -29 17q-4 9 2 22l48 115q6 18 26 18h56q12 0 17.5 -7.5t0.5 -18.5l-35 -84q80 -5 128 -44.5t48 -103.5z" />
    <glyph glyph-name="one.sups" unicode="&#xb9;" horiz-adv-x="432" 
d="M301 840h-74q-22 0 -22 22v629l-103 -72q-17 -14 -30 6l-35 50q-12 15 6 30l168 119q13 10 29 10h61q23 0 23 -22v-750q0 -22 -23 -22z" />
    <glyph glyph-name="guillemotright" unicode="&#xbb;" horiz-adv-x="1054" 
d="M238 145h-132q-13 0 -17.5 8.5t3.5 20.5l287 422l-287 422q-8 12 -3.5 20.5t17.5 8.5h132q19 0 28 -15l283 -420q8 -16 0 -32l-283 -420q-9 -15 -28 -15zM659 145h-131q-13 0 -17.5 8.5t3.5 20.5l287 422l-287 422q-8 12 -3.5 20.5t17.5 8.5h131q20 0 29 -15l283 -420
q8 -16 0 -32l-283 -420q-9 -15 -29 -15z" />
    <glyph glyph-name="onequarter" unicode="&#xbc;" horiz-adv-x="1662" 
d="M328 670h-74q-23 0 -23 22v629l-102 -72q-17 -14 -31 6l-35 48q-11 17 7 32l168 119q13 10 28 10h62q22 0 22 -24v-748q0 -22 -22 -22zM1360 1436l-1081 -1422q-8 -14 -29 -14h-84q-13 0 -17.5 9t1.5 20l1083 1421q8 14 29 14h84q13 0 17.5 -9t-3.5 -19zM1499 0h-74
q-22 0 -22 23v149h-356q-23 0 -23 23v45q0 13 6 28l283 510q10 17 26 17h76q13 0 18 -8.5t-1 -20.5l-265 -477h236v147q0 25 22 25h74q10 0 16.5 -7t6.5 -18v-147h59q25 0 25 -25v-69q0 -23 -25 -23h-59v-149q0 -23 -23 -23z" />
    <glyph glyph-name="onehalf" unicode="&#xbd;" horiz-adv-x="1722" 
d="M328 670h-74q-23 0 -23 22v629l-102 -72q-17 -14 -31 6l-35 48q-11 17 7 32l168 119q13 10 28 10h62q22 0 22 -24v-748q0 -22 -22 -22zM1360 1436l-1081 -1422q-8 -14 -29 -14h-84q-13 0 -17.5 9t1.5 20l1083 1421q8 14 29 14h84q13 0 17.5 -9t-3.5 -19zM1616 0h-488
q-22 0 -22 23v61q0 19 10 29l217 211q61 63 90 96.5t54.5 80t25.5 87.5q0 49 -32.5 75.5t-94.5 26.5q-98 0 -174 -80q-18 -18 -35 2l-37 52q-12 17 0 32q109 109 252 109q112 0 177 -59.5t65 -155.5q0 -87 -50.5 -164.5t-168.5 -192.5q-18 -17 -62 -58t-61 -58h334
q24 0 24 -23v-71q0 -23 -24 -23z" />
    <glyph glyph-name="threequarters" unicode="&#xbe;" horiz-adv-x="1744" 
d="M616 920q0 -116 -77 -189.5t-191 -71.5q-154 2 -272 115q-14 17 0 31l39 49q16 16 32 2q79 -82 199 -82q68 0 111 43t43 115q0 61 -42.5 100t-115.5 39q-40 0 -70 -6q-23 -3 -28 16l-13 27q-6 17 7 33l145 164l49 51h-299q-22 0 -22 22v64q0 22 22 22h442q23 0 23 -22
v-39q0 -15 -12 -27l-205 -227h25q95 0 152.5 -65.5t57.5 -163.5zM1497 1436l-1081 -1422q-8 -14 -29 -14h-84q-13 0 -17.5 9t1.5 20l1083 1421q8 14 29 14h84q13 0 17.5 -9t-3.5 -19zM1577 0h-74q-22 0 -22 23v149h-357q-22 0 -22 23v45q0 13 6 28l283 510q10 17 26 17h76
q13 0 17.5 -8.5t-1.5 -20.5l-264 -477h236v147q0 25 22 25h74q22 0 22 -25v-147h60q24 0 24 -25v-69q0 -23 -24 -23h-60v-149q0 -23 -22 -23z" />
    <glyph glyph-name="questiondown" unicode="&#xbf;" horiz-adv-x="962" 
d="M467 715h121q22 0 22 -23v-121q0 -60 -20.5 -110t-53.5 -85t-73 -66l-80 -62t-73 -64.5t-53.5 -80.5t-20.5 -103q0 -111 67.5 -186.5t206.5 -75.5q168 0 301 133q22 18 33 -2l63 -90q13 -16 -2 -31q-66 -68 -170 -114t-229 -46q-189 0 -311.5 110.5t-122.5 301.5
q0 72 20.5 130.5t53 97.5t72 72.5t79 63.5t72 62t53 77t20.5 99v90q0 23 25 23zM412 973q0 50 31.5 81t82.5 31t82 -31t31 -81q0 -51 -31 -83t-82 -32t-82.5 32t-31.5 83z" />
    <glyph glyph-name="Agrave" unicode="&#xc0;" horiz-adv-x="1267" 
d="M174 0h-137q-26 0 -19 27l510 1419q6 18 25 18h162q20 0 26 -18l508 -1419q4 -12 -1 -19.5t-17 -7.5h-137q-21 0 -27 18l-125 365h-614l-127 -365q-6 -18 -27 -18zM631 1270l-250 -725h508l-250 725h-8zM571 1622l-247 272q-10 10 -6 19.5t18 9.5h143q19 0 27 -14
l215 -273q7 -12 3 -20t-17 -8h-107q-18 0 -29 14z" />
    <glyph glyph-name="Aacute" unicode="&#xc1;" horiz-adv-x="1267" 
d="M174 0h-137q-26 0 -19 27l510 1419q6 18 25 18h162q20 0 26 -18l508 -1419q4 -12 -1 -19.5t-17 -7.5h-137q-21 0 -27 18l-125 365h-614l-127 -365q-6 -18 -27 -18zM631 1270l-250 -725h508l-250 725h-8zM926 1894l-248 -272q-11 -14 -29 -14h-106q-14 0 -18 8t3 20
l215 273q8 14 27 14h143q14 0 18.5 -9.5t-5.5 -19.5z" />
    <glyph glyph-name="Acircumflex" unicode="&#xc2;" horiz-adv-x="1267" 
d="M174 0h-137q-26 0 -19 27l510 1419q6 18 25 18h162q20 0 26 -18l508 -1419q4 -12 -1 -19.5t-17 -7.5h-137q-21 0 -27 18l-125 365h-614l-127 -365q-6 -18 -27 -18zM631 1270l-250 -725h508l-250 725h-8zM434 1608h-121q-15 0 -18 9t6 19l252 273q11 14 29 14h106
q15 0 29 -14l252 -273q9 -10 5.5 -19t-18.5 -9h-120q-18 0 -29 14l-172 176l-172 -176q-11 -14 -29 -14z" />
    <glyph glyph-name="Atilde" unicode="&#xc3;" horiz-adv-x="1267" 
d="M174 0h-137q-26 0 -19 27l510 1419q6 18 25 18h162q20 0 26 -18l508 -1419q4 -12 -1 -19.5t-17 -7.5h-137q-21 0 -27 18l-125 365h-614l-127 -365q-6 -18 -27 -18zM631 1270l-250 -725h508l-250 725h-8zM954 1804q-20 -58 -66.5 -103.5t-107.5 -45.5q-57 0 -145 49
q-3 2 -14.5 8.5t-15 8t-13.5 7t-14.5 7.5t-13 6t-14 5t-13 3.5t-14 3t-13.5 0.5q-48 0 -84 -70q-8 -19 -31 -10l-67 39q-20 10 -13 31q22 58 66.5 100.5t105.5 42.5t150 -51l24 -12t28 -13.5t24 -10t28 -9t23 -2.5q26 0 41.5 15.5t36.5 54.5q11 19 30 10l70 -37
q16 -9 12 -27z" />
    <glyph glyph-name="Adieresis" unicode="&#xc4;" horiz-adv-x="1267" 
d="M174 0h-137q-26 0 -19 27l510 1419q6 18 25 18h162q20 0 26 -18l508 -1419q4 -12 -1 -19.5t-17 -7.5h-137q-21 0 -27 18l-125 365h-614l-127 -365q-6 -18 -27 -18zM631 1270l-250 -725h508l-250 725h-8zM526 1735q0 -44 -28.5 -72.5t-71.5 -28.5q-44 0 -72 28.5t-28 72.5
t28 73t72 29q43 0 71.5 -29t28.5 -73zM944 1735q0 -44 -29 -72.5t-73 -28.5t-72.5 28.5t-28.5 72.5t28.5 73t72.5 29t73 -29t29 -73z" />
    <glyph glyph-name="Aring" unicode="&#xc5;" horiz-adv-x="1267" 
d="M174 0h-137q-26 0 -19 27l510 1419q6 18 25 18h162q20 0 26 -18l508 -1419q4 -12 -1 -19.5t-17 -7.5h-137q-21 0 -27 18l-125 365h-614l-127 -365q-6 -18 -27 -18zM631 1270l-250 -725h508l-250 725h-8zM856 1790q0 -98 -61 -155.5t-158 -57.5q-99 0 -162 58.5t-63 154.5
q0 97 63 156t162 59q96 0 157.5 -59t61.5 -156zM516 1790q0 -52 32.5 -82.5t88.5 -30.5q54 0 84.5 30t30.5 83q0 54 -30.5 84.5t-84.5 30.5q-56 0 -88.5 -30.5t-32.5 -84.5z" />
    <glyph glyph-name="AE" unicode="&#xc6;" horiz-adv-x="1771" 
d="M1004 659v-499h641q22 0 22 -23v-114q0 -23 -22 -23h-791q-25 0 -25 23v362h-450l-184 -369q-6 -16 -27 -16h-141q-12 0 -17.5 8.5t0.5 20.5l713 1419q5 16 27 16h870q25 0 25 -22v-115q0 -22 -25 -22h-616v-486h573q22 0 22 -22v-115q0 -23 -22 -23h-573zM829 1305
l-376 -758h376v758z" />
    <glyph glyph-name="Ccedilla" unicode="&#xc7;" horiz-adv-x="1202" 
d="M862 -248q0 -84 -65.5 -130t-175.5 -46q-65 0 -121 18q-19 5 -19 27v51q0 12 7.5 18t19.5 3q50 -15 94 -15q118 0 121 80q2 36 -30 55.5t-101 20.5q-21 0 -29 16q-2 3 -1.5 10t3.5 13l43 107q-211 16 -343 146t-132 357v496q0 123 42 221t115 160t169.5 94.5t208.5 32.5
q241 0 436 -144q17 -11 4 -30l-66 -96q-12 -18 -34 -5q-150 111 -342 111q-171 0 -265 -92.5t-94 -251.5v-494q0 -159 95 -252.5t266 -93.5q209 0 376 129q7 8 16 6t15 -12l68 -94q12 -22 -6 -35q-173 -143 -422 -156l-33 -81q81 -5 130.5 -43.5t49.5 -100.5z" />
    <glyph glyph-name="Egrave" unicode="&#xc8;" 
d="M358 664v-504h705q22 0 22 -23v-114q0 -23 -22 -23h-856q-25 0 -25 23v1419q0 22 25 22h827q23 0 23 -22v-115q0 -22 -23 -22h-676v-480h629q23 0 23 -24v-113q0 -24 -23 -24h-629zM600 1622l-248 272q-10 10 -5.5 19.5t18.5 9.5h143q19 0 27 -14l215 -273q7 -12 3 -20
t-18 -8h-106q-18 0 -29 14z" />
    <glyph glyph-name="Eacute" unicode="&#xc9;" 
d="M358 664v-504h705q22 0 22 -23v-114q0 -23 -22 -23h-856q-25 0 -25 23v1419q0 22 25 22h827q23 0 23 -22v-115q0 -22 -23 -22h-676v-480h629q23 0 23 -24v-113q0 -24 -23 -24h-629zM893 1894l-248 -272q-11 -14 -29 -14h-106q-14 0 -18 8t4 20l215 273q8 14 26 14h144
q14 0 18 -9.5t-6 -19.5z" />
    <glyph glyph-name="Ecircumflex" unicode="&#xca;" 
d="M358 664v-504h705q22 0 22 -23v-114q0 -23 -22 -23h-856q-25 0 -25 23v1419q0 22 25 22h827q23 0 23 -22v-115q0 -22 -23 -22h-676v-480h629q23 0 23 -24v-113q0 -24 -23 -24h-629zM440 1608h-121q-15 0 -18 9t6 19l252 273q11 14 29 14h106q15 0 29 -14l252 -273
q9 -10 6 -19t-18 -9h-121q-18 0 -29 14l-172 176l-172 -176q-11 -14 -29 -14z" />
    <glyph glyph-name="Edieresis" unicode="&#xcb;" 
d="M358 664v-504h705q22 0 22 -23v-114q0 -23 -22 -23h-856q-25 0 -25 23v1419q0 22 25 22h827q23 0 23 -22v-115q0 -22 -23 -22h-676v-480h629q23 0 23 -24v-113q0 -24 -23 -24h-629zM520 1735q0 -44 -28.5 -72.5t-71.5 -28.5q-44 0 -72.5 28.5t-28.5 72.5t28.5 73t72.5 29
q43 0 71.5 -29t28.5 -73zM938 1735q0 -44 -29 -72.5t-73 -28.5t-72.5 28.5t-28.5 72.5t28.5 73t72.5 29t73 -29t29 -73z" />
    <glyph glyph-name="Igrave" unicode="&#xcc;" horiz-adv-x="538" 
d="M356 1442v-1419q0 -23 -22 -23h-127q-25 0 -25 23v1419q0 22 25 22h127q22 0 22 -22zM211 1622l-248 272q-10 10 -6 19.5t18 9.5h144q18 0 26 -14l215 -273q8 -12 4 -20t-18 -8h-106q-18 0 -29 14z" />
    <glyph glyph-name="Iacute" unicode="&#xcd;" horiz-adv-x="538" 
d="M354 1442v-1419q0 -23 -22 -23h-127q-25 0 -25 23v1419q0 22 25 22h127q22 0 22 -22zM559 1894l-248 -272q-11 -14 -28 -14h-107q-14 0 -18 8t4 20l215 273q8 14 26 14h144q14 0 18 -9.5t-6 -19.5z" />
    <glyph glyph-name="Icircumflex" unicode="&#xce;" horiz-adv-x="538" 
d="M111 1608h-111q-14 0 -18.5 8t4.5 20l202 271q10 16 29 16h96q19 0 29 -16l209 -271q9 -12 4.5 -20t-18.5 -8h-111q-18 0 -29 14l-133 176l-127 -176q-8 -14 -26 -14zM356 1442v-1419q0 -23 -22 -23h-127q-25 0 -25 23v1419q0 22 25 22h127q22 0 22 -22z" />
    <glyph glyph-name="Idieresis" unicode="&#xcf;" horiz-adv-x="538" 
d="M332 0h-127q-23 0 -23 23v1419q0 22 23 22h127q24 0 24 -22v-1419q0 -23 -24 -23zM188 1755q0 -44 -28.5 -72t-71.5 -28t-71.5 28t-28.5 72t28.5 73.5t71.5 29.5t71.5 -29.5t28.5 -73.5zM551 1755q0 -44 -28 -72t-74 -28q-44 0 -72.5 28t-28.5 72t28.5 73.5t72.5 29.5
q45 0 73.5 -29t28.5 -74z" />
    <glyph glyph-name="Eth" unicode="&#xd0;" horiz-adv-x="1390" 
d="M225 1464h500q250 0 391 -137.5t141 -388.5v-420q0 -247 -140.5 -382.5t-391.5 -135.5h-500q-24 0 -24 23v675h-156q-22 0 -22 23v76q0 22 22 22h156v623q0 22 24 22zM723 164q172 0 263 89.5t91 264.5v420q0 180 -91.5 273.5t-262.5 93.5h-346v-486h342q22 0 22 -22v-76
q0 -23 -22 -23h-342v-534h346z" />
    <glyph glyph-name="Ntilde" unicode="&#xd1;" horiz-adv-x="1441" 
d="M332 0h-125q-25 0 -25 23v1419q0 22 25 22h143q19 0 29 -16l543 -885q143 -244 172 -299l6 2q-13 276 -13 555v621q0 22 23 22h127q23 0 23 -22v-1419q0 -23 -23 -23h-143q-21 0 -29 14l-539 854q-102 166 -178 312l-4 -2q12 -324 12 -535v-620q0 -23 -24 -23zM1042 1804
q-20 -58 -66.5 -103.5t-107.5 -45.5q-57 0 -145 49q-3 2 -14.5 8.5t-15 8t-13.5 7t-14.5 7.5t-13 6t-14 5t-13 3.5t-14 3t-13.5 0.5q-48 0 -84 -70q-8 -19 -31 -10l-67 39q-20 10 -13 31q22 58 66.5 100.5t105.5 42.5t150 -51l24 -12t28 -13.5t24 -10t28 -9t23 -2.5
q26 0 41.5 15.5t36.5 54.5q11 20 31 10l69 -37q16 -9 12 -27z" />
    <glyph glyph-name="Ograve" unicode="&#xd2;" horiz-adv-x="1380" 
d="M1249 514q0 -248 -150 -392.5t-409 -144.5t-409 144.5t-150 392.5v432q0 252 149.5 396.5t409.5 144.5t409.5 -144.5t149.5 -396.5v-432zM307 514q0 -174 100.5 -272.5t282.5 -98.5t281.5 98.5t99.5 272.5v432q0 180 -99.5 279.5t-281.5 99.5q-183 0 -283 -99.5
t-100 -279.5v-432zM655 1622l-247 272q-10 10 -6 19.5t18 9.5h143q19 0 27 -14l215 -273q7 -12 3 -20t-17 -8h-107q-18 0 -29 14z" />
    <glyph glyph-name="Oacute" unicode="&#xd3;" horiz-adv-x="1380" 
d="M1249 514q0 -248 -150 -392.5t-409 -144.5t-409 144.5t-150 392.5v432q0 252 149.5 396.5t409.5 144.5t409.5 -144.5t149.5 -396.5v-432zM307 514q0 -174 100.5 -272.5t282.5 -98.5t281.5 98.5t99.5 272.5v432q0 180 -99.5 279.5t-281.5 99.5q-183 0 -283 -99.5
t-100 -279.5v-432zM954 1894l-247 -272q-11 -14 -29 -14h-107q-13 0 -17 8t3 20l215 273q8 14 27 14h143q14 0 18 -9.5t-6 -19.5z" />
    <glyph glyph-name="Ocircumflex" unicode="&#xd4;" horiz-adv-x="1380" 
d="M1249 514q0 -248 -150 -392.5t-409 -144.5t-409 144.5t-150 392.5v432q0 252 149.5 396.5t409.5 144.5t409.5 -144.5t149.5 -396.5v-432zM307 514q0 -174 100.5 -272.5t282.5 -98.5t281.5 98.5t99.5 272.5v432q0 180 -99.5 279.5t-281.5 99.5q-183 0 -283 -99.5
t-100 -279.5v-432zM489 1608h-120q-15 0 -18.5 9t5.5 19l252 273q11 14 29 14h106q15 0 29 -14l252 -273q9 -10 6 -19t-18 -9h-121q-18 0 -29 14l-172 176l-172 -176q-11 -14 -29 -14z" />
    <glyph glyph-name="Otilde" unicode="&#xd5;" horiz-adv-x="1380" 
d="M1249 514q0 -248 -150 -392.5t-409 -144.5t-409 144.5t-150 392.5v432q0 252 149.5 396.5t409.5 144.5t409.5 -144.5t149.5 -396.5v-432zM307 514q0 -174 100.5 -272.5t282.5 -98.5t281.5 98.5t99.5 272.5v432q0 180 -99.5 279.5t-281.5 99.5q-183 0 -283 -99.5
t-100 -279.5v-432zM1010 1804q-20 -58 -66.5 -103.5t-107.5 -45.5q-58 0 -146 49q-3 2 -14.5 8.5t-15 8t-13.5 7t-14.5 7.5t-13 6t-14 5t-13 3.5t-14 3t-13.5 0.5q-48 0 -84 -70q-8 -19 -30 -10l-68 39q-19 10 -12 31q22 58 66.5 100.5t105.5 42.5q60 0 149 -51l24 -12
t28 -13.5t24 -10t28 -9t23 -2.5q26 0 41.5 15.5t36.5 54.5q11 20 31 10l69 -37q17 -9 13 -27z" />
    <glyph glyph-name="Odieresis" unicode="&#xd6;" horiz-adv-x="1380" 
d="M1249 514q0 -248 -150 -392.5t-409 -144.5t-409 144.5t-150 392.5v432q0 252 149.5 396.5t409.5 144.5t409.5 -144.5t149.5 -396.5v-432zM307 514q0 -174 100.5 -272.5t282.5 -98.5t281.5 98.5t99.5 272.5v432q0 180 -99.5 279.5t-281.5 99.5q-183 0 -283 -99.5
t-100 -279.5v-432zM582 1735q0 -44 -29 -72.5t-72 -28.5q-44 0 -72 28.5t-28 72.5t28 73t72 29q43 0 72 -29t29 -73zM999 1735q0 -44 -29 -72.5t-73 -28.5t-72 28.5t-28 72.5t28 73t72 29t73 -29t29 -73z" />
    <glyph glyph-name="multiply" unicode="&#xd7;" 
d="M594 565l-332 -334q-18 -17 -35 0l-77 78q-8 7 -8 17t8 16l333 336l-333 332q-17 17 0 34l77 78q16 16 35 0l332 -334l334 334q8 8 17.5 8t15.5 -8l77 -78q17 -17 0 -34l-331 -332l331 -336q8 -6 8 -16t-8 -17l-77 -78q-16 -20 -33 0z" />
    <glyph glyph-name="Oslash" unicode="&#xd8;" horiz-adv-x="1409" 
d="M330 -111h-103q-13 0 -17.5 8.5t1.5 20.5l96 184q-176 144 -176 410v434q0 251 153.5 396t420.5 145q168 0 294 -60l64 121q9 17 27 17h102q14 0 18.5 -8.5t-2.5 -20.5l-96 -182q166 -143 166 -408v-434q0 -247 -153.5 -391t-419.5 -144q-153 0 -281 56l-68 -127
q-7 -17 -26 -17zM313 512q0 -148 82 -242l525 1004q-89 47 -215 47q-187 0 -289.5 -98t-102.5 -277v-434zM504 186q84 -41 201 -41q186 0 288.5 97t102.5 270v434q0 145 -74 234z" />
    <glyph glyph-name="Ugrave" unicode="&#xd9;" horiz-adv-x="1415" 
d="M1245 500q0 -235 -146 -379t-392 -144q-244 0 -390.5 144t-146.5 379v942q0 22 25 22h131q22 0 22 -22v-930q0 -175 94 -274t265 -99t265.5 99.5t94.5 273.5v930q0 22 23 22h131q24 0 24 -22v-942zM645 1622l-248 272q-10 10 -5.5 19.5t18.5 9.5h143q19 0 27 -14
l215 -273q7 -12 3 -20t-18 -8h-106q-18 0 -29 14z" />
    <glyph glyph-name="Uacute" unicode="&#xda;" horiz-adv-x="1415" 
d="M1245 500q0 -235 -146 -379t-392 -144q-244 0 -390.5 144t-146.5 379v942q0 22 25 22h131q22 0 22 -22v-930q0 -175 94 -274t265 -99t265.5 99.5t94.5 273.5v930q0 22 23 22h131q24 0 24 -22v-942zM999 1894l-247 -272q-11 -14 -29 -14h-107q-14 0 -18 8t4 20l215 273
q8 14 27 14h143q14 0 18 -9.5t-6 -19.5z" />
    <glyph glyph-name="Ucircumflex" unicode="&#xdb;" horiz-adv-x="1415" 
d="M1245 500q0 -235 -146 -379t-392 -144q-244 0 -390.5 144t-146.5 379v942q0 22 25 22h131q22 0 22 -22v-930q0 -175 94 -274t265 -99t265.5 99.5t94.5 273.5v930q0 22 23 22h131q24 0 24 -22v-942zM508 1608h-121q-15 0 -18 9t6 19l252 273q11 14 28 14h107q15 0 29 -14
l251 -273q9 -10 6 -19t-18 -9h-121q-17 0 -28 14l-172 176l-172 -176q-11 -14 -29 -14z" />
    <glyph glyph-name="Udieresis" unicode="&#xdc;" horiz-adv-x="1415" 
d="M1245 500q0 -235 -146 -379t-392 -144q-244 0 -390.5 144t-146.5 379v942q0 22 25 22h131q22 0 22 -22v-930q0 -175 94 -274t265 -99t265.5 99.5t94.5 273.5v930q0 22 23 22h131q24 0 24 -22v-942zM600 1735q0 -44 -28.5 -72.5t-71.5 -28.5q-44 0 -72.5 28.5t-28.5 72.5
t28.5 73t72.5 29q43 0 71.5 -29t28.5 -73zM1018 1735q0 -44 -29.5 -72.5t-73.5 -28.5t-72 28.5t-28 72.5t28 73t72 29t73.5 -29t29.5 -73z" />
    <glyph glyph-name="Yacute" unicode="&#xdd;" horiz-adv-x="1163" 
d="M645 0h-129q-22 0 -22 23v534l-482 879q-6 12 -1 20t18 8h147q22 0 27 -16l379 -731l376 731q5 16 27 16h148q13 0 17.5 -8t-1.5 -20l-479 -883v-530q0 -23 -25 -23zM858 1894l-248 -272q-11 -14 -28 -14h-107q-13 0 -17 8t3 20l215 273q8 14 26 14h144q14 0 18 -9.5
t-6 -19.5z" />
    <glyph glyph-name="Thorn" unicode="&#xde;" horiz-adv-x="1314" 
d="M338 0h-131q-25 0 -25 23v1419q0 22 25 22h131q22 0 22 -22v-203h340q241 0 377.5 -126t136.5 -349q0 -225 -136 -351t-378 -126h-340v-264q0 -23 -22 -23zM360 1073v-620h336q336 0 336 311q0 153 -86 231t-250 78h-336z" />
    <glyph glyph-name="germandbls" unicode="&#xdf;" horiz-adv-x="1142" 
d="M995 1083q0 -102 -43 -184t-131 -121q117 -46 175.5 -139t58.5 -219q0 -131 -60 -229t-159.5 -147.5t-223.5 -49.5q-103 0 -198 33q-19 9 -19 26v113q0 12 7.5 17t19.5 1q79 -26 172 -26q130 0 210.5 70.5t80.5 197.5q0 125 -72.5 194.5t-206.5 69.5h-180q-23 0 -23 25
v104q0 25 23 25h174q107 0 167 67.5t60 171.5q0 127 -66 192.5t-196 65.5q-256 0 -256 -278v-1040q0 -23 -24 -23h-121q-23 0 -23 23v1040q0 205 118 314.5t306 109.5q193 0 311.5 -104.5t118.5 -299.5z" />
    <glyph glyph-name="agrave" unicode="&#xe0;" horiz-adv-x="1046" 
d="M125 975q154 106 387 106q193 0 300.5 -101t107.5 -296v-614q0 -21 -19 -27q-181 -66 -395 -66q-71 0 -134 11.5t-119.5 37t-97.5 63.5t-65 95.5t-24 128.5q0 159 119 242.5t321 83.5q100 0 246 -25v66q0 127 -57.5 188.5t-188.5 61.5q-164 0 -291 -76q-19 -12 -31 6
l-59 86q-10 19 0 29zM233 313q0 -90 75 -138t198 -48q121 0 246 37v307q-137 25 -246 25q-136 0 -204.5 -48t-68.5 -135zM602 1223h-92q-19 0 -29 14l-196 272q-9 12 -5.5 20.5t17.5 8.5h129q18 0 29 -14l166 -273q7 -12 1 -20t-20 -8z" />
    <glyph glyph-name="aacute" unicode="&#xe1;" horiz-adv-x="1046" 
d="M125 975q154 106 387 106q193 0 300.5 -101t107.5 -296v-614q0 -21 -19 -27q-181 -66 -395 -66q-71 0 -134 11.5t-119.5 37t-97.5 63.5t-65 95.5t-24 128.5q0 159 119 242.5t321 83.5q100 0 246 -25v66q0 127 -57.5 188.5t-188.5 61.5q-164 0 -291 -76q-19 -12 -31 6
l-59 86q-10 19 0 29zM233 313q0 -90 75 -138t198 -48q121 0 246 37v307q-137 25 -246 25q-136 0 -204.5 -48t-68.5 -135zM512 1223h-92q-14 0 -20 8t1 20l166 273q11 14 29 14h129q14 0 17.5 -8.5t-5.5 -20.5l-196 -272q-11 -14 -29 -14z" />
    <glyph glyph-name="acircumflex" unicode="&#xe2;" horiz-adv-x="1046" 
d="M125 975q154 106 387 106q193 0 300.5 -101t107.5 -296v-614q0 -21 -19 -27q-181 -66 -395 -66q-71 0 -134 11.5t-119.5 37t-97.5 63.5t-65 95.5t-24 128.5q0 159 119 242.5t321 83.5q100 0 246 -25v66q0 127 -57.5 188.5t-188.5 61.5q-164 0 -291 -76q-19 -12 -31 6
l-59 86q-10 19 0 29zM233 313q0 -90 75 -138t198 -48q121 0 246 37v307q-137 25 -246 25q-136 0 -204.5 -48t-68.5 -135zM334 1223h-103q-15 0 -19 8t5 20l232 273q14 14 28 14h88q19 0 29 -14l229 -273q10 -12 7 -20t-17 -8h-106q-19 0 -29 14l-156 186l-160 -186
q-14 -14 -28 -14z" />
    <glyph glyph-name="atilde" unicode="&#xe3;" horiz-adv-x="1046" 
d="M125 975q154 106 387 106q193 0 300.5 -101t107.5 -296v-614q0 -21 -19 -27q-181 -66 -395 -66q-71 0 -134 11.5t-119.5 37t-97.5 63.5t-65 95.5t-24 128.5q0 159 119 242.5t321 83.5q100 0 246 -25v66q0 127 -57.5 188.5t-188.5 61.5q-164 0 -291 -76q-19 -12 -31 6
l-59 86q-10 19 0 29zM233 313q0 -90 75 -138t198 -48q121 0 246 37v307q-137 25 -246 25q-136 0 -204.5 -48t-68.5 -135zM836 1393q-17 -57 -64.5 -103.5t-109.5 -46.5q-54 0 -146 49q-3 2 -14.5 8t-15 8t-13.5 7.5t-14.5 7.5t-13 5.5t-13.5 5.5t-12.5 4t-14 2.5t-12.5 0.5
q-54 0 -84 -69q-11 -19 -33 -10l-67 38q-20 11 -10 31q23 57 67.5 100.5t104.5 43.5q58 0 149 -52q3 -2 16.5 -9t19 -9.5t17.5 -8t19 -8.5t17.5 -6t19 -4.5t16.5 -1.5q26 0 43 16t37 54q10 22 31 10l67 -37q19 -11 13 -26z" />
    <glyph glyph-name="adieresis" unicode="&#xe4;" horiz-adv-x="1046" 
d="M125 975q154 106 387 106q193 0 300.5 -101t107.5 -296v-614q0 -21 -19 -27q-181 -66 -395 -66q-71 0 -134 11.5t-119.5 37t-97.5 63.5t-65 95.5t-24 128.5q0 159 119 242.5t321 83.5q100 0 246 -25v66q0 127 -57.5 188.5t-188.5 61.5q-164 0 -291 -76q-19 -12 -31 6
l-59 86q-10 19 0 29zM233 313q0 -90 75 -138t198 -48q121 0 246 37v307q-137 25 -246 25q-136 0 -204.5 -48t-68.5 -135zM412 1356q0 -44 -27 -70t-70 -26q-42 0 -69 26t-27 70q0 45 27 71.5t69 26.5q43 0 70 -26.5t27 -71.5zM805 1356q0 -44 -27 -70t-69 -26q-43 0 -71 26
t-28 70q0 45 27.5 71.5t71.5 26.5q42 0 69 -26.5t27 -71.5z" />
    <glyph glyph-name="aring" unicode="&#xe5;" horiz-adv-x="1046" 
d="M125 975q154 106 387 106q193 0 300.5 -101t107.5 -296v-614q0 -21 -19 -27q-181 -66 -395 -66q-71 0 -134 11.5t-119.5 37t-97.5 63.5t-65 95.5t-24 128.5q0 159 119 242.5t321 83.5q100 0 246 -25v66q0 127 -57.5 188.5t-188.5 61.5q-164 0 -291 -76q-19 -12 -31 6
l-59 86q-10 19 0 29zM233 313q0 -90 75 -138t198 -48q121 0 246 37v307q-137 25 -246 25q-136 0 -204.5 -48t-68.5 -135zM735 1403q0 -96 -60.5 -152.5t-154.5 -56.5q-98 0 -160.5 57.5t-62.5 153.5q0 94 62.5 151.5t160.5 57.5q94 0 154.5 -58t60.5 -153zM399 1403
q0 -49 33 -80t86 -31q51 0 83 31t32 80q0 51 -32 82t-83 31q-53 0 -86 -31t-33 -82z" />
    <glyph glyph-name="ae" unicode="&#xe6;" horiz-adv-x="1679" 
d="M1155 -23q-169 0 -293 107q-65 -47 -162.5 -77t-201.5 -30q-84 0 -160 21t-137.5 61t-98 105.5t-36.5 148.5q0 104 57 177.5t151.5 108t219.5 34.5q98 0 245 -21v95q0 221 -243 221q-155 0 -293 -76q-22 -9 -33 8l-49 82q-10 20 6 33q73 47 171 75.5t202 28.5
q211 0 329 -159q57 77 145.5 118t196.5 41q82 0 155 -24t131.5 -70.5t93 -121.5t34.5 -169v-207q0 -24 -24 -24h-656v-103q0 -113 67 -171t185 -58q186 0 311 115q18 15 33 -2l64 -82q15 -19 -2 -31q-74 -71 -181 -112.5t-227 -41.5zM236 315q0 -90 74 -139t184 -49
q75 0 148.5 22t125.5 54q-29 65 -29 145v125q-139 21 -231 21q-135 0 -203.5 -47t-68.5 -132zM905 678v-78h518v82q0 119 -71.5 182.5t-186.5 63.5q-116 0 -188 -63.5t-72 -186.5z" />
    <glyph glyph-name="ccedilla" unicode="&#xe7;" horiz-adv-x="962" 
d="M905 96q-148 -108 -319 -116l-33 -82q80 -5 128 -44.5t48 -103.5q0 -81 -64.5 -125.5t-172.5 -44.5q-60 0 -119 19q-19 5 -19 26v49q0 24 27 21q46 -14 92 -14q123 0 123 79q0 73 -129 76q-21 0 -29 17q-4 9 2 22l43 107q-177 15 -278 121.5t-101 269.5v311
q0 177 119 287t318 110q180 0 333 -102q21 -15 7 -35l-54 -84q-14 -18 -32 -6q-118 76 -250 76q-129 0 -201 -67.5t-72 -178.5v-311q0 -112 72 -179t199 -67q140 0 274 90q19 16 33 -4l59 -84q14 -21 -4 -33z" />
    <glyph glyph-name="egrave" unicode="&#xe8;" horiz-adv-x="1060" 
d="M967 674v-201q0 -24 -23 -24h-670v-87q0 -112 74.5 -173.5t192.5 -61.5q165 0 313 115q20 13 33 -6l59 -78q15 -18 -4 -33q-176 -148 -405 -148q-85 0 -161.5 24.5t-137.5 71t-97.5 121.5t-36.5 168v312q0 102 36 181.5t97.5 128t138 73t163.5 24.5q86 0 161.5 -24.5
t136 -73t95.5 -128t35 -181.5zM803 674q0 126 -73 191t-191 65q-121 0 -193 -64.5t-72 -191.5v-86h529v86zM625 1223h-93q-18 0 -28 14l-197 272q-9 12 -5.5 20.5t17.5 8.5h130q17 0 28 -14l166 -273q7 -12 1.5 -20t-19.5 -8z" />
    <glyph glyph-name="eacute" unicode="&#xe9;" horiz-adv-x="1060" 
d="M967 674v-201q0 -24 -23 -24h-670v-87q0 -112 74.5 -173.5t192.5 -61.5q165 0 313 115q20 13 33 -6l59 -78q15 -18 -4 -33q-176 -148 -405 -148q-85 0 -161.5 24.5t-137.5 71t-97.5 121.5t-36.5 168v312q0 102 36 181.5t97.5 128t138 73t163.5 24.5q86 0 161.5 -24.5
t136 -73t95.5 -128t35 -181.5zM803 674q0 126 -73 191t-191 65q-121 0 -193 -64.5t-72 -191.5v-86h529v86zM520 1223h-92q-14 0 -19.5 8t1.5 20l165 273q11 14 29 14h129q14 0 17.5 -8.5t-5.5 -20.5l-196 -272q-11 -14 -29 -14z" />
    <glyph glyph-name="ecircumflex" unicode="&#xea;" horiz-adv-x="1060" 
d="M967 674v-201q0 -24 -23 -24h-670v-87q0 -112 74.5 -173.5t192.5 -61.5q165 0 313 115q20 13 33 -6l59 -78q15 -18 -4 -33q-176 -148 -405 -148q-85 0 -161.5 24.5t-137.5 71t-97.5 121.5t-36.5 168v312q0 102 36 181.5t97.5 128t138 73t163.5 24.5q86 0 161.5 -24.5
t136 -73t95.5 -128t35 -181.5zM803 674q0 126 -73 191t-191 65q-121 0 -193 -64.5t-72 -191.5v-86h529v86zM350 1223h-102q-15 0 -19.5 8t4.5 20l232 273q14 14 29 14h88q18 0 28 -14l230 -273q10 -12 6.5 -20t-17.5 -8h-106q-19 0 -29 14l-155 186l-160 -186
q-14 -14 -29 -14z" />
    <glyph glyph-name="edieresis" unicode="&#xeb;" horiz-adv-x="1060" 
d="M967 674v-201q0 -24 -23 -24h-670v-87q0 -112 74.5 -173.5t192.5 -61.5q165 0 313 115q20 13 33 -6l59 -78q15 -18 -4 -33q-176 -148 -405 -148q-85 0 -161.5 24.5t-137.5 71t-97.5 121.5t-36.5 168v312q0 102 36 181.5t97.5 128t138 73t163.5 24.5q86 0 161.5 -24.5
t136 -73t95.5 -128t35 -181.5zM803 674q0 126 -73 191t-191 65q-121 0 -193 -64.5t-72 -191.5v-86h529v86zM434 1356q0 -44 -26.5 -70t-69.5 -26q-42 0 -69 26t-27 70q0 45 27 71.5t69 26.5q43 0 69.5 -26.5t26.5 -71.5zM827 1356q0 -44 -27 -70t-69 -26q-43 0 -70.5 26
t-27.5 70q0 45 27.5 71.5t70.5 26.5q42 0 69 -26.5t27 -71.5z" />
    <glyph glyph-name="igrave" unicode="&#xec;" horiz-adv-x="450" 
d="M285 0h-121q-23 0 -23 23v1011q0 11 6.5 18t16.5 7h121q24 0 24 -25v-1011q0 -23 -24 -23zM309 1223h-92q-19 0 -29 14l-196 272q-9 12 -5.5 20.5t17.5 8.5h129q19 0 29 -14l166 -273q7 -12 1 -20t-20 -8z" />
    <glyph glyph-name="iacute" unicode="&#xed;" horiz-adv-x="450" 
d="M285 0h-121q-23 0 -23 23v1011q0 11 6.5 18t16.5 7h121q24 0 24 -25v-1011q0 -23 -24 -23zM227 1223h-92q-14 0 -19.5 8t1.5 20l166 273q10 14 28 14h129q14 0 18 -8.5t-5 -20.5l-197 -272q-11 -14 -29 -14z" />
    <glyph glyph-name="icircumflex" unicode="&#xee;" horiz-adv-x="450" 
d="M285 0h-121q-23 0 -23 23v1011q0 11 6.5 18t16.5 7h121q24 0 24 -25v-1011q0 -23 -24 -23zM74 1223h-101q-13 0 -17.5 8.5t1.5 19.5l195 273q11 14 28 14h90q15 0 29 -14l195 -273q8 -11 3 -19.5t-18 -8.5h-102q-19 0 -29 14l-123 190l-123 -188q-10 -16 -28 -16z" />
    <glyph glyph-name="idieresis" unicode="&#xef;" horiz-adv-x="450" 
d="M285 0h-121q-23 0 -23 23v1011q0 11 6.5 18t16.5 7h121q24 0 24 -25v-1011q0 -23 -24 -23zM176 1356q0 -40 -26.5 -67t-67.5 -27q-40 0 -67 27t-27 67q0 41 27 68.5t67 27.5q41 0 67.5 -27.5t26.5 -68.5zM461 1356q0 -40 -27.5 -67t-68.5 -27t-68 27t-27 67q0 41 27 68.5
t68 27.5t68.5 -27.5t27.5 -68.5z" />
    <glyph glyph-name="eth" unicode="&#xf0;" horiz-adv-x="1126" 
d="M901 1403l-121 -90q216 -200 219 -555v-379q0 -181 -121.5 -291.5t-326.5 -110.5q-206 0 -327.5 110.5t-121.5 291.5v233q0 180 120.5 292t316.5 112q190 0 297 -117q-20 196 -181 324l-198 -146q-19 -13 -33 6l-33 45q-13 17 6 33l166 123q-120 62 -254 74q-25 0 -22 24
v97q3 22 24 22q219 -16 381 -121l148 109q20 15 34 -6l33 -45q13 -19 -6 -35zM272 379q0 -117 72.5 -184.5t206.5 -67.5t206 67t74 185v233q2 120 -71.5 188t-208.5 68q-134 0 -206.5 -68.5t-72.5 -187.5v-233z" />
    <glyph glyph-name="ntilde" unicode="&#xf1;" horiz-adv-x="1140" 
d="M283 0h-121q-23 0 -23 23v950q0 19 17 28q191 80 393 80q216 0 338.5 -108t122.5 -334v-616q0 -23 -25 -23h-121q-22 0 -22 23v612q0 155 -75 225t-218 70q-125 0 -242 -37v-870q0 -23 -24 -23zM866 1393q-17 -57 -64.5 -103.5t-109.5 -46.5q-53 0 -145 49q-3 2 -14.5 8
t-15 8t-13.5 7.5t-14.5 7.5t-13 5.5t-13.5 5.5t-12.5 4t-14 2.5t-12.5 0.5q-54 0 -84 -69q-11 -19 -33 -10l-67 38q-21 12 -11 31q23 57 67.5 100.5t104.5 43.5q59 0 150 -52q3 -2 16.5 -9t19 -9.5t17.5 -8t19 -8.5t17.5 -6t19 -4.5t16.5 -1.5q26 0 43 16t37 54q9 22 30 10
l68 -37q18 -10 12 -26z" />
    <glyph glyph-name="ograve" unicode="&#xf2;" horiz-adv-x="1105" 
d="M1004 379q0 -182 -121.5 -292t-329.5 -110q-206 0 -328.5 110.5t-122.5 291.5v295q0 182 123 294.5t328 112.5q207 0 329 -112.5t122 -294.5v-295zM272 379q0 -117 73 -184.5t208 -67.5q136 0 209.5 67.5t73.5 184.5v295q0 119 -73.5 187.5t-209.5 68.5
q-135 0 -208 -68.5t-73 -187.5v-295zM643 1223h-92q-19 0 -29 14l-196 272q-9 12 -5.5 20.5t17.5 8.5h129q18 0 29 -14l166 -273q7 -12 1 -20t-20 -8z" />
    <glyph glyph-name="oacute" unicode="&#xf3;" horiz-adv-x="1105" 
d="M1004 379q0 -182 -121.5 -292t-329.5 -110q-206 0 -328.5 110.5t-122.5 291.5v295q0 182 123 294.5t328 112.5q207 0 329 -112.5t122 -294.5v-295zM272 379q0 -117 73 -184.5t208 -67.5q136 0 209.5 67.5t73.5 184.5v295q0 119 -73.5 187.5t-209.5 68.5
q-135 0 -208 -68.5t-73 -187.5v-295zM539 1223h-93q-14 0 -19.5 8t1.5 20l166 273q10 14 29 14h129q14 0 17.5 -8.5t-5.5 -20.5l-197 -272q-11 -14 -28 -14z" />
    <glyph glyph-name="ocircumflex" unicode="&#xf4;" horiz-adv-x="1105" 
d="M1004 379q0 -182 -121.5 -292t-329.5 -110q-206 0 -328.5 110.5t-122.5 291.5v295q0 182 123 294.5t328 112.5q207 0 329 -112.5t122 -294.5v-295zM272 379q0 -117 73 -184.5t208 -67.5q136 0 209.5 67.5t73.5 184.5v295q0 119 -73.5 187.5t-209.5 68.5
q-135 0 -208 -68.5t-73 -187.5v-295zM365 1223h-103q-15 0 -19 8t5 20l231 273q14 14 29 14h88q18 0 29 -14l229 -273q10 -12 7 -20t-17 -8h-107q-17 0 -28 14l-156 186l-160 -186q-14 -14 -28 -14z" />
    <glyph glyph-name="otilde" unicode="&#xf5;" horiz-adv-x="1105" 
d="M1004 379q0 -182 -121.5 -292t-329.5 -110q-206 0 -328.5 110.5t-122.5 291.5v295q0 182 123 294.5t328 112.5q207 0 329 -112.5t122 -294.5v-295zM272 379q0 -117 73 -184.5t208 -67.5q136 0 209.5 67.5t73.5 184.5v295q0 119 -73.5 187.5t-209.5 68.5
q-135 0 -208 -68.5t-73 -187.5v-295zM870 1393q-17 -57 -64.5 -103.5t-109.5 -46.5q-53 0 -145 49q-3 2 -14.5 8t-15 8t-13.5 7.5t-14.5 7.5t-13 5.5t-13.5 5.5t-12.5 4t-14 2.5t-12.5 0.5q-54 0 -84 -69q-11 -19 -33 -10l-67 38q-21 12 -11 31q22 57 67.5 100.5t105.5 43.5
q58 0 149 -52q3 -2 16.5 -9t19 -9.5t17.5 -8t19 -8.5t17.5 -6t19 -4.5t16.5 -1.5q26 0 43 16t37 54q10 22 31 10l67 -37q18 -10 12 -26z" />
    <glyph glyph-name="odieresis" unicode="&#xf6;" horiz-adv-x="1105" 
d="M1004 379q0 -182 -121.5 -292t-329.5 -110q-206 0 -328.5 110.5t-122.5 291.5v295q0 182 123 294.5t328 112.5q207 0 329 -112.5t122 -294.5v-295zM272 379q0 -117 73 -184.5t208 -67.5q136 0 209.5 67.5t73.5 184.5v295q0 119 -73.5 187.5t-209.5 68.5
q-135 0 -208 -68.5t-73 -187.5v-295zM453 1356q0 -44 -27 -70t-70 -26q-42 0 -69 26t-27 70q0 45 27 71.5t69 26.5q43 0 70 -26.5t27 -71.5zM846 1356q0 -44 -27 -70t-69 -26q-43 0 -71 26t-28 70q0 45 27.5 71.5t71.5 26.5q42 0 69 -26.5t27 -71.5z" />
    <glyph glyph-name="divide" unicode="&#xf7;" 
d="M1022 606h-858q-23 0 -23 23v112q0 23 23 23h858q22 0 22 -23v-112q0 -23 -22 -23zM709 324q0 -51 -32 -83t-83 -32t-82 32t-31 83t31 82.5t82 31.5t83 -31.5t32 -82.5zM709 1034q0 -50 -32 -81t-83 -31t-82 31t-31 81q0 51 31 83t82 32t83 -32t32 -83z" />
    <glyph glyph-name="oslash" unicode="&#xf8;" horiz-adv-x="1105" 
d="M233 -117h-102q-13 0 -17.5 8.5t1.5 20.5l104 180q-117 111 -117 287v295q0 182 122 294.5t329 112.5q126 0 213 -43l80 136q10 16 28 16h103q13 0 17.5 -8.5t-1.5 -20.5l-112 -192q123 -111 123 -295v-295q0 -182 -121.5 -292t-329.5 -110q-130 0 -221 46l-72 -123
q-10 -17 -27 -17zM272 379q0 -76 35 -129l383 651q-60 29 -137 29q-136 0 -208.5 -68.5t-72.5 -187.5v-295zM553 127q136 0 208.5 67t72.5 185v295q0 83 -41 139l-383 -655q67 -31 143 -31z" />
    <glyph glyph-name="ugrave" unicode="&#xf9;" horiz-adv-x="1128" 
d="M846 1059h121q22 0 22 -25v-948q0 -24 -16 -29q-180 -80 -387 -80q-211 0 -332 108.5t-121 334.5v614q0 25 25 25h121q22 0 22 -25v-610q0 -156 73 -226.5t212 -70.5q128 0 235 39v868q0 25 25 25zM657 1223h-92q-17 0 -28 14l-197 272q-9 12 -5.5 20.5t17.5 8.5h129
q19 0 29 -14l166 -273q7 -12 1 -20t-20 -8z" />
    <glyph glyph-name="uacute" unicode="&#xfa;" horiz-adv-x="1128" 
d="M846 1059h121q22 0 22 -25v-948q0 -24 -16 -29q-180 -80 -387 -80q-211 0 -332 108.5t-121 334.5v614q0 25 25 25h121q22 0 22 -25v-610q0 -156 73 -226.5t212 -70.5q128 0 235 39v868q0 25 25 25zM549 1223h-92q-14 0 -20 8t1 20l166 273q10 14 29 14h129
q14 0 17.5 -8.5t-5.5 -20.5l-196 -272q-10 -14 -29 -14z" />
    <glyph glyph-name="ucircumflex" unicode="&#xfb;" horiz-adv-x="1128" 
d="M846 1059h121q22 0 22 -25v-948q0 -24 -16 -29q-180 -80 -387 -80q-211 0 -332 108.5t-121 334.5v614q0 25 25 25h121q22 0 22 -25v-610q0 -156 73 -226.5t212 -70.5q128 0 235 39v868q0 25 25 25zM379 1223h-103q-15 0 -19 8t5 20l232 273q14 14 28 14h88q18 0 29 -14
l229 -273q10 -12 7 -20t-17 -8h-106q-18 0 -29 14l-156 186l-159 -186q-14 -14 -29 -14z" />
    <glyph glyph-name="udieresis" unicode="&#xfc;" horiz-adv-x="1128" 
d="M846 1059h121q22 0 22 -25v-948q0 -24 -16 -29q-180 -80 -387 -80q-211 0 -332 108.5t-121 334.5v614q0 25 25 25h121q22 0 22 -25v-610q0 -156 73 -226.5t212 -70.5q128 0 235 39v868q0 25 25 25zM467 1356q0 -44 -26.5 -70t-69.5 -26q-42 0 -69.5 26.5t-27.5 69.5
q0 45 27.5 71.5t69.5 26.5q43 0 69.5 -26.5t26.5 -71.5zM860 1356q0 -44 -27 -70t-69 -26q-43 0 -70.5 26t-27.5 70q0 45 27.5 71.5t70.5 26.5q42 0 69 -26.5t27 -71.5z" />
    <glyph glyph-name="yacute" unicode="&#xfd;" horiz-adv-x="1128" 
d="M819 244v790q0 11 6.5 18t16.5 7h121q24 0 24 -25v-1005q0 -212 -107 -325t-325 -114q-228 0 -395 142q-14 14 -2 35l61 83q15 22 33 7q150 -113 303 -115q136 2 202 72.5t62 224.5v47q-127 -53 -254 -53q-85 0 -161.5 25.5t-138 74t-98 128t-36.5 179.5v594q0 11 6.5 18
t16.5 7h120q25 0 25 -25v-585q0 -133 79.5 -197t207.5 -64q135 0 233 56zM551 1223h-92q-14 0 -20 8t1 20l166 273q10 14 29 14h129q14 0 17.5 -8.5t-5.5 -20.5l-196 -272q-10 -14 -29 -14z" />
    <glyph glyph-name="thorn" unicode="&#xfe;" horiz-adv-x="1114" 
d="M309 1030q117 51 254 51q93 0 171.5 -23.5t141.5 -71.5t98.5 -129t35.5 -187v-285q0 -98 -36 -177t-98 -128.5t-142.5 -76t-172.5 -26.5q-136 0 -252 58v-400q0 -24 -24 -24h-121q-23 0 -23 24v1807q0 22 23 22h121q24 0 24 -22v-412zM549 127q61 0 112 14.5t92 44.5
t64 81.5t23 119.5v279q0 72 -23 125t-64 83t-92 44t-114 14q-131 0 -238 -51v-697q107 -57 240 -57z" />
    <glyph glyph-name="ydieresis" unicode="&#xff;" horiz-adv-x="1128" 
d="M819 244v790q0 11 6.5 18t16.5 7h121q24 0 24 -25v-1005q0 -212 -107 -325t-325 -114q-228 0 -395 142q-14 14 -2 35l61 83q15 22 33 7q150 -113 303 -115q136 2 202 72.5t62 224.5v47q-127 -53 -254 -53q-85 0 -161.5 25.5t-138 74t-98 128t-36.5 179.5v594q0 11 6.5 18
t16.5 7h120q25 0 25 -25v-585q0 -133 79.5 -197t207.5 -64q135 0 233 56zM461 1356q0 -44 -26.5 -70t-69.5 -26q-42 0 -69.5 26.5t-27.5 69.5q0 45 27.5 71.5t69.5 26.5q43 0 69.5 -26.5t26.5 -71.5zM854 1356q0 -44 -27 -70t-69 -26q-43 0 -71 26t-28 70q0 45 27.5 71.5
t71.5 26.5q42 0 69 -26.5t27 -71.5z" />
    <glyph glyph-name="Amacron" unicode="&#x100;" horiz-adv-x="1267" 
d="M174 0h-137q-26 0 -19 27l510 1419q6 18 25 18h162q20 0 26 -18l508 -1419q4 -12 -1 -19.5t-17 -7.5h-137q-21 0 -27 18l-125 365h-614l-127 -365q-6 -18 -27 -18zM631 1270l-250 -725h508l-250 725h-8zM911 1661h-557q-22 0 -22 22v93q0 24 22 24h557q23 0 23 -24v-93
q0 -22 -23 -22z" />
    <glyph glyph-name="amacron" unicode="&#x101;" horiz-adv-x="1046" 
d="M125 975q154 106 387 106q193 0 300.5 -101t107.5 -296v-614q0 -21 -19 -27q-181 -66 -395 -66q-71 0 -134 11.5t-119.5 37t-97.5 63.5t-65 95.5t-24 128.5q0 159 119 242.5t321 83.5q100 0 246 -25v66q0 127 -57.5 188.5t-188.5 61.5q-164 0 -291 -76q-19 -12 -31 6
l-59 86q-10 19 0 29zM233 313q0 -90 75 -138t198 -48q121 0 246 37v307q-137 25 -246 25q-136 0 -204.5 -48t-68.5 -135zM242 1292v88q0 25 22 25h516q10 0 16.5 -7t6.5 -18v-88q0 -22 -23 -22h-516q-22 0 -22 22z" />
    <glyph glyph-name="Abreve" unicode="&#x102;" horiz-adv-x="1267" 
d="M174 0h-137q-26 0 -19 27l510 1419q6 18 25 18h162q20 0 26 -18l508 -1419q4 -12 -1 -19.5t-17 -7.5h-137q-21 0 -27 18l-125 365h-614l-127 -365q-6 -18 -27 -18zM631 1270l-250 -725h508l-250 725h-8zM969 1864q-15 -129 -102 -206t-232 -77q-144 0 -230 76.5
t-104 204.5q-3 19 21 26l90 23q21 3 26 -19q28 -172 197 -172q85 0 134.5 44.5t61.5 127.5q6 22 27 19l90 -23q24 -7 21 -24z" />
    <glyph glyph-name="abreve" unicode="&#x103;" horiz-adv-x="1046" 
d="M125 975q154 106 387 106q193 0 300.5 -101t107.5 -296v-614q0 -21 -19 -27q-181 -66 -395 -66q-71 0 -134 11.5t-119.5 37t-97.5 63.5t-65 95.5t-24 128.5q0 159 119 242.5t321 83.5q100 0 246 -25v66q0 127 -57.5 188.5t-188.5 61.5q-164 0 -291 -76q-19 -12 -31 6
l-59 86q-10 19 0 29zM233 313q0 -90 75 -138t198 -48q121 0 246 37v307q-137 25 -246 25q-136 0 -204.5 -48t-68.5 -135zM829 1499q-14 -125 -97 -200.5t-220 -75.5q-136 0 -217 74.5t-96 199.5q-1 10 5 17.5t15 9.5l82 10q21 3 27 -18q28 -164 184 -164q160 0 188 164
q3 21 27 18l80 -10q25 -4 22 -25z" />
    <glyph glyph-name="Aogonek" unicode="&#x104;" horiz-adv-x="1267" 
d="M1284 -375q-78 -35 -170 -35q-91 0 -143.5 45t-52.5 123q0 68 49.5 134.5t130.5 109.5h-6q-21 9 -31 35l-119 348h-614l-127 -367q-6 -18 -27 -18h-137q-26 0 -19 27l510 1419q6 18 25 18h162q20 0 26 -18l508 -1419q10 -26 -12 -29q-78 -37 -124 -91.5t-46 -101.5
q0 -67 82 -67q58 0 102 16q24 7 29 -14l18 -86q3 -21 -14 -29zM631 1270l-250 -727h508l-250 727h-8z" />
    <glyph glyph-name="aogonek" unicode="&#x105;" horiz-adv-x="1048" 
d="M920 696v-622q0 -20 -19 -29q-103 -44 -170 -113t-67 -127q0 -35 20.5 -51t67.5 -16q56 0 96 16q23 10 29 -16l18 -80q6 -20 -14 -29q-76 -37 -166 -37q-191 0 -191 168q0 57 41.5 122.5t112.5 113.5q-84 -19 -174 -19q-89 0 -164.5 18t-138.5 56t-99 106t-36 160
q0 157 118.5 239.5t319.5 82.5q98 0 248 -25v76q0 121 -58 180.5t-190 59.5q-164 0 -291 -76q-19 -12 -31 6l-59 86q-12 21 6 33q157 102 383 102q191 0 299.5 -99.5t108.5 -285.5zM233 317q0 -94 73 -142t198 -48q126 0 248 35v313q-115 21 -248 21q-136 0 -203.5 -46.5
t-67.5 -132.5z" />
    <glyph glyph-name="Cacute" unicode="&#x106;" horiz-adv-x="1202" 
d="M1137 133q-95 -79 -215.5 -117.5t-249.5 -38.5q-114 0 -211.5 32.5t-171 94t-115 159t-41.5 220.5v496q0 123 42 221t115 160t169.5 94.5t208.5 32.5q241 0 436 -144q17 -11 4 -30l-66 -96q-12 -18 -34 -5q-150 111 -342 111q-171 0 -265 -92.5t-94 -251.5v-494
q0 -159 95 -251.5t266 -92.5q211 0 376 127q7 8 16 6t15 -12l68 -94q12 -22 -6 -35zM952 1894l-247 -272q-11 -14 -29 -14h-107q-13 0 -17 8t3 20l215 273q8 14 27 14h143q14 0 18 -9.5t-6 -19.5z" />
    <glyph glyph-name="cacute" unicode="&#x107;" horiz-adv-x="962" 
d="M905 96q-162 -119 -362 -119q-201 0 -320 110t-119 286v311q0 177 119 287t318 110q180 0 333 -102q21 -15 7 -35l-54 -84q-14 -18 -32 -6q-118 76 -250 76q-129 0 -201 -67.5t-72 -178.5v-311q0 -112 72 -179t199 -67q140 0 274 90q19 16 33 -4l59 -84q14 -21 -4 -33z
M508 1223h-92q-14 0 -20 8t1 20l166 273q11 14 29 14h129q14 0 17.5 -8.5t-5.5 -20.5l-196 -272q-11 -14 -29 -14z" />
    <glyph glyph-name="Cdotaccent" unicode="&#x10a;" horiz-adv-x="1202" 
d="M1137 133q-95 -79 -215.5 -117.5t-249.5 -38.5q-114 0 -211.5 32.5t-171 94t-115 159t-41.5 220.5v496q0 123 42 221t115 160t169.5 94.5t208.5 32.5q241 0 436 -144q17 -11 4 -30l-66 -96q-12 -18 -34 -5q-150 111 -342 111q-171 0 -265 -92.5t-94 -251.5v-494
q0 -159 95 -251.5t266 -92.5q211 0 376 127q7 8 16 6t15 -12l68 -94q12 -22 -6 -35zM774 1745q0 -46 -32.5 -79.5t-79.5 -33.5q-46 0 -79.5 33.5t-33.5 79.5q0 47 33.5 80t79.5 33q47 0 79.5 -33t32.5 -80z" />
    <glyph glyph-name="cdotaccent" unicode="&#x10b;" horiz-adv-x="962" 
d="M905 96q-162 -119 -362 -119q-201 0 -320 110t-119 286v311q0 177 119 287t318 110q180 0 333 -102q21 -15 7 -35l-54 -84q-14 -18 -32 -6q-118 76 -250 76q-129 0 -201 -67.5t-72 -178.5v-311q0 -112 72 -179t199 -67q140 0 274 90q19 16 33 -4l59 -84q14 -21 -4 -33z
M625 1356q0 -43 -29.5 -73t-73.5 -30q-43 0 -72.5 30t-29.5 73q0 44 29.5 73t72.5 29q44 0 73.5 -29t29.5 -73z" />
    <glyph glyph-name="Ccaron" unicode="&#x10c;" horiz-adv-x="1202" 
d="M1137 133q-95 -79 -215.5 -117.5t-249.5 -38.5q-114 0 -211.5 32.5t-171 94t-115 159t-41.5 220.5v496q0 123 42 221t115 160t169.5 94.5t208.5 32.5q241 0 436 -144q17 -11 4 -30l-66 -96q-12 -18 -34 -5q-150 111 -342 111q-171 0 -265 -92.5t-94 -251.5v-494
q0 -159 95 -251.5t266 -92.5q211 0 376 127q7 8 16 6t15 -12l68 -94q12 -22 -6 -35zM340 1923h121q17 0 28 -14l173 -176l172 176q11 14 28 14h121q15 0 18 -9.5t-6 -19.5l-252 -272q-14 -14 -28 -14h-107q-17 0 -28 14l-252 272q-9 10 -6 19.5t18 9.5z" />
    <glyph glyph-name="ccaron" unicode="&#x10d;" horiz-adv-x="962" 
d="M905 96q-162 -119 -362 -119q-201 0 -320 110t-119 286v311q0 177 119 287t318 110q180 0 333 -102q21 -15 7 -35l-54 -84q-14 -18 -32 -6q-118 76 -250 76q-129 0 -201 -67.5t-72 -178.5v-311q0 -112 72 -179t199 -67q140 0 274 90q19 16 33 -4l59 -84q14 -21 -4 -33z
M242 1538h102q15 0 29 -14l159 -187l156 187q10 14 29 14h106q14 0 17.5 -8.5t-6.5 -20.5l-230 -272q-10 -14 -29 -14h-88q-14 0 -28 14l-232 272q-9 12 -4.5 20.5t19.5 8.5z" />
    <glyph glyph-name="Dcaron" unicode="&#x10e;" horiz-adv-x="1372" 
d="M707 0h-500q-25 0 -25 23v1419q0 22 25 22h500q250 0 391 -137.5t141 -388.5v-420q0 -247 -140.5 -382.5t-391.5 -135.5zM358 1305v-1141h347q172 0 263 89.5t91 264.5v420q0 180 -91.5 273.5t-262.5 93.5h-347zM354 1923h121q18 0 29 -14l172 -176l172 176q11 14 29 14
h120q15 0 18.5 -9.5t-5.5 -19.5l-252 -272q-14 -14 -29 -14h-106q-18 0 -29 14l-252 272q-9 10 -6 19.5t18 9.5z" />
    <glyph glyph-name="dcaron" unicode="&#x10f;" horiz-adv-x="1153" 
d="M547 1081q135 0 258 -63v424q0 22 24 22h121q23 0 23 -22v-1366q0 -19 -19 -27q-187 -72 -395 -72q-102 0 -184 26t-144 79t-95.5 139t-33.5 199v227q0 202 123 318t322 116zM1069 1147l72 297q5 20 26 20h105q24 0 18 -26l-100 -297q-6 -19 -27 -19h-73q-25 0 -21 25z
M272 420q0 -156 74.5 -225.5t216.5 -69.5q144 0 242 39v694q-109 74 -244 74q-289 0 -289 -285v-227z" />
    <glyph glyph-name="Dcroat" unicode="&#x110;" horiz-adv-x="1390" 
d="M225 1464h500q250 0 391 -137.5t141 -388.5v-420q0 -247 -140.5 -382.5t-391.5 -135.5h-500q-24 0 -24 23v675h-156q-22 0 -22 23v76q0 22 22 22h156v623q0 22 24 22zM723 164q172 0 263 89.5t91 264.5v420q0 180 -91.5 273.5t-262.5 93.5h-346v-486h342q22 0 22 -22v-76
q0 -23 -22 -23h-342v-534h346z" />
    <glyph glyph-name="dcroat" unicode="&#x111;" horiz-adv-x="1112" 
d="M973 1317h139q25 0 25 -25v-69q0 -23 -25 -23h-139v-1124q0 -19 -19 -27q-187 -72 -395 -72q-102 0 -184 26t-144 79t-95.5 139t-33.5 199v203q0 203 123 319.5t322 116.5q136 0 258 -66v207h-285q-22 0 -22 23v69q0 25 22 25h285v125q0 22 24 22h121q23 0 23 -22v-125z
M272 420q0 -156 74.5 -225.5t216.5 -69.5q144 0 242 39v670q-107 73 -244 73q-289 0 -289 -284v-203z" />
    <glyph glyph-name="Emacron" unicode="&#x112;" 
d="M358 664v-504h705q22 0 22 -23v-114q0 -23 -22 -23h-856q-25 0 -25 23v1419q0 22 25 22h827q23 0 23 -22v-115q0 -22 -23 -22h-676v-480h629q23 0 23 -24v-113q0 -24 -23 -24h-629zM903 1661h-557q-22 0 -22 22v93q0 24 22 24h557q23 0 23 -24v-93q0 -22 -23 -22z" />
    <glyph glyph-name="emacron" unicode="&#x113;" horiz-adv-x="1060" 
d="M967 674v-201q0 -24 -23 -24h-670v-87q0 -112 74.5 -173.5t192.5 -61.5q165 0 313 115q20 13 33 -6l59 -78q15 -18 -4 -33q-176 -148 -405 -148q-85 0 -161.5 24.5t-137.5 71t-97.5 121.5t-36.5 168v312q0 102 36 181.5t97.5 128t138 73t163.5 24.5q86 0 161.5 -24.5
t136 -73t95.5 -128t35 -181.5zM803 674q0 126 -73 191t-191 65q-121 0 -193 -64.5t-72 -191.5v-86h529v86zM254 1292v88q0 25 22 25h517q22 0 22 -25v-88q0 -22 -22 -22h-517q-22 0 -22 22z" />
    <glyph glyph-name="Edotaccent" unicode="&#x116;" 
d="M358 664v-504h705q22 0 22 -23v-114q0 -23 -22 -23h-856q-25 0 -25 23v1419q0 22 25 22h827q23 0 23 -22v-115q0 -22 -23 -22h-676v-480h629q23 0 23 -24v-113q0 -24 -23 -24h-629zM739 1745q0 -46 -32.5 -79.5t-79.5 -33.5q-46 0 -79.5 33.5t-33.5 79.5q0 47 33.5 80
t79.5 33q47 0 79.5 -33t32.5 -80z" />
    <glyph glyph-name="edotaccent" unicode="&#x117;" horiz-adv-x="1060" 
d="M967 674v-201q0 -24 -23 -24h-670v-87q0 -112 74.5 -173.5t192.5 -61.5q165 0 313 115q20 13 33 -6l59 -78q15 -18 -4 -33q-176 -148 -405 -148q-85 0 -161.5 24.5t-137.5 71t-97.5 121.5t-36.5 168v312q0 102 36 181.5t97.5 128t138 73t163.5 24.5q86 0 161.5 -24.5
t136 -73t95.5 -128t35 -181.5zM803 674q0 126 -73 191t-191 65q-121 0 -193 -64.5t-72 -191.5v-86h529v86zM637 1356q0 -43 -29 -73t-73 -30q-43 0 -73 30t-30 73q0 44 30 73t73 29q44 0 73 -29t29 -73z" />
    <glyph glyph-name="Eogonek" unicode="&#x118;" horiz-adv-x="1183" 
d="M991 -262q55 0 99 16q23 7 28 -14l19 -86q5 -19 -15 -29q-82 -35 -168 -35q-92 0 -144 45t-52 123q0 69 49 134t131 108h-731q-25 0 -25 23v1419q0 22 25 22h825q23 0 23 -22v-115q0 -22 -23 -22h-676v-482h629q25 0 25 -22v-115q0 -22 -25 -22h-629v-504h705
q24 0 24 -23v-117q0 -19 -18 -28q-70 -37 -116 -87t-46 -102q0 -65 86 -65z" />
    <glyph glyph-name="eogonek" unicode="&#x119;" horiz-adv-x="1054" 
d="M831 -367q-79 -45 -174 -45q-87 0 -136.5 42.5t-49.5 123.5q0 114 139 234q-28 -11 -67 -11q-87 0 -165 24.5t-139.5 70.5t-98 120.5t-36.5 167.5v322q0 99 36 177t97.5 125.5t137.5 72t162 24.5t161.5 -24.5t134.5 -72t93.5 -125.5t34.5 -177v-209q0 -22 -23 -22h-664
v-89q0 -114 72.5 -174.5t192.5 -60.5q91 0 172 31.5t137 81.5q18 15 33 -4l59 -78q13 -20 -2 -33q-29 -24 -141 -94q-86 -56 -135.5 -118.5t-49.5 -107.5q0 -71 78 -71q47 0 90 22q20 10 31 -12l31 -82q9 -19 -11 -29zM274 678v-88h527v92q0 123 -76.5 186.5t-194.5 63.5
q-115 0 -185.5 -63t-70.5 -191z" />
    <glyph glyph-name="Ecaron" unicode="&#x11a;" 
d="M358 664v-504h705q22 0 22 -23v-114q0 -23 -22 -23h-856q-25 0 -25 23v1419q0 22 25 22h827q23 0 23 -22v-115q0 -22 -23 -22h-676v-480h629q23 0 23 -24v-113q0 -24 -23 -24h-629zM305 1923h121q18 0 29 -14l172 -176l172 176q11 14 28 14h121q15 0 18.5 -9.5
t-5.5 -19.5l-252 -272q-14 -14 -29 -14h-107q-17 0 -28 14l-252 272q-9 10 -6 19.5t18 9.5z" />
    <glyph glyph-name="ecaron" unicode="&#x11b;" horiz-adv-x="1060" 
d="M967 674v-201q0 -24 -23 -24h-670v-87q0 -112 74.5 -173.5t192.5 -61.5q165 0 313 115q20 13 33 -6l59 -78q15 -18 -4 -33q-176 -148 -405 -148q-85 0 -161.5 24.5t-137.5 71t-97.5 121.5t-36.5 168v312q0 102 36 181.5t97.5 128t138 73t163.5 24.5q86 0 161.5 -24.5
t136 -73t95.5 -128t35 -181.5zM803 674q0 126 -73 191t-191 65q-121 0 -193 -64.5t-72 -191.5v-86h529v86zM254 1538h102q15 0 29 -14l160 -187l155 187q10 14 29 14h107q14 0 17 -8.5t-7 -20.5l-230 -272q-10 -14 -28 -14h-88q-15 0 -29 14l-231 272q-9 12 -5 20.5t19 8.5z
" />
    <glyph glyph-name="Gbreve" unicode="&#x11e;" horiz-adv-x="1323" 
d="M1192 184q-94 -97 -224.5 -152t-285.5 -55q-91 0 -172.5 20.5t-150.5 62t-119.5 101t-78.5 142.5t-28 182v496q0 123 42 220.5t115 159t169.5 94t208.5 32.5q130 0 256.5 -38t228.5 -108q22 -12 6 -32l-69 -97q-11 -16 -31 -6q-177 117 -391 117q-166 0 -263.5 -90.5
t-97.5 -255.5v-492q0 -163 103 -252.5t272 -89.5q211 0 346 115v381h-336q-22 0 -22 23v114q0 23 22 23h486q22 0 22 -23v-565q0 -19 -8 -27zM1001 1864q-16 -129 -102 -206t-231 -77q-144 0 -230 76.5t-104 204.5q-3 19 20 26l90 23q21 3 27 -19q28 -172 197 -172
q85 0 134.5 44.5t61.5 127.5q6 22 27 19l90 -23q23 -7 20 -24z" />
    <glyph glyph-name="gbreve" unicode="&#x11f;" horiz-adv-x="1112" 
d="M973 29q0 -209 -105.5 -324t-326.5 -115q-224 0 -396 142q-14 11 -2 32l60 89q13 20 33 4q142 -115 305 -115q139 0 203.5 72.5t60.5 228.5v49q-121 -59 -262 -59q-94 0 -173 25.5t-139.5 76t-94.5 131.5t-34 185v204q0 113 35 196.5t99 133t145 73t180 23.5
q213 0 393 -80q19 -6 19 -26v-946zM272 451q0 -140 76 -203.5t207 -63.5q71 0 139.5 16.5t110.5 45.5v649q-44 15 -114 25t-128 10q-140 0 -215.5 -64.5t-75.5 -210.5v-204zM874 1499q-14 -125 -97 -200.5t-220 -75.5q-136 0 -217 74.5t-96 199.5q-1 10 5 17.5t15 9.5l82 10
q21 3 27 -18q28 -164 184 -164q160 0 188 164q3 21 27 18l80 -10q25 -4 22 -25z" />
    <glyph glyph-name="Gdotaccent" unicode="&#x120;" horiz-adv-x="1323" 
d="M1192 184q-94 -97 -224.5 -152t-285.5 -55q-91 0 -172.5 20.5t-150.5 62t-119.5 101t-78.5 142.5t-28 182v496q0 123 42 220.5t115 159t169.5 94t208.5 32.5q130 0 256.5 -38t228.5 -108q22 -12 6 -32l-69 -97q-11 -16 -31 -6q-177 117 -391 117q-166 0 -263.5 -90.5
t-97.5 -255.5v-492q0 -163 103 -252.5t272 -89.5q211 0 346 115v381h-336q-22 0 -22 23v114q0 23 22 23h486q22 0 22 -23v-565q0 -19 -8 -27zM780 1745q0 -46 -32.5 -79.5t-79.5 -33.5q-46 0 -79.5 33.5t-33.5 79.5q0 47 33.5 80t79.5 33q47 0 79.5 -33t32.5 -80z" />
    <glyph glyph-name="gdotaccent" unicode="&#x121;" horiz-adv-x="1112" 
d="M973 29q0 -209 -105.5 -324t-326.5 -115q-224 0 -396 142q-14 11 -2 32l60 89q13 20 33 4q142 -115 305 -115q139 0 203.5 72.5t60.5 228.5v49q-121 -59 -262 -59q-94 0 -173 25.5t-139.5 76t-94.5 131.5t-34 185v204q0 113 35 196.5t99 133t145 73t180 23.5
q213 0 393 -80q19 -6 19 -26v-946zM272 451q0 -140 76 -203.5t207 -63.5q71 0 139.5 16.5t110.5 45.5v649q-44 15 -114 25t-128 10q-140 0 -215.5 -64.5t-75.5 -210.5v-204zM659 1356q0 -43 -29 -73t-73 -30q-43 0 -72.5 30t-29.5 73q0 44 29.5 73t72.5 29q44 0 73 -29
t29 -73z" />
    <glyph glyph-name="uni0122" unicode="&#x122;" horiz-adv-x="1323" 
d="M1192 184q-94 -97 -224.5 -152t-285.5 -55q-91 0 -172.5 20.5t-150.5 62t-119.5 101t-78.5 142.5t-28 182v496q0 123 42 220.5t115 159t169.5 94t208.5 32.5q130 0 256.5 -38t228.5 -108q22 -12 6 -32l-69 -97q-11 -16 -31 -6q-177 117 -391 117q-166 0 -263.5 -90.5
t-97.5 -255.5v-492q0 -163 103 -252.5t272 -89.5q211 0 346 115v381h-336q-22 0 -22 23v114q0 23 22 23h486q22 0 22 -23v-565q0 -19 -8 -27zM610 -500h-78q-28 0 -22 25l76 299q6 20 26 20h111q12 0 17.5 -7t2.5 -19l-106 -299q-6 -19 -27 -19z" />
    <glyph glyph-name="uni0123" unicode="&#x123;" horiz-adv-x="1112" 
d="M973 29q0 -209 -105.5 -324t-326.5 -115q-224 0 -396 142q-14 11 -2 32l60 89q13 20 33 4q142 -115 305 -115q139 0 203.5 72.5t60.5 228.5v49q-121 -59 -262 -59q-94 0 -173 25.5t-139.5 76t-94.5 131.5t-34 185v204q0 113 35 196.5t99 133t145 73t180 23.5
q213 0 393 -80q19 -6 19 -26v-946zM272 451q0 -140 76 -203.5t207 -63.5q71 0 139.5 16.5t110.5 45.5v649q-44 15 -114 25t-128 10q-140 0 -215.5 -64.5t-75.5 -210.5v-204zM584 1223h-113q-12 0 -18 8t0 18l112 281q5 18 27 18h78q12 0 17 -7t1 -19l-80 -279
q-7 -20 -24 -20z" />
    <glyph glyph-name="Hbar" unicode="&#x126;" horiz-adv-x="1417" 
d="M1225 1257h121q24 0 24 -24v-74q0 -24 -24 -24h-121v-1112q0 -23 -23 -23h-129q-22 0 -22 23v641h-684v-641q0 -23 -23 -23h-127q-24 0 -24 23v1112h-121q-23 0 -23 24v74q0 24 23 24h121v185q0 22 24 22h127q23 0 23 -22v-185h684v185q0 22 22 22h129q23 0 23 -22v-185z
M367 821h684v314h-684v-314z" />
    <glyph glyph-name="hbar" unicode="&#x127;" horiz-adv-x="1142" 
d="M309 1006q122 51 258 51q98 0 177.5 -26t140 -78.5t94 -139.5t33.5 -203v-587q0 -23 -23 -23h-121q-24 0 -24 23v581q0 160 -72.5 230.5t-214.5 70.5q-132 0 -248 -53v-829q0 -23 -22 -23h-121q-25 0 -25 23v1177h-139q-22 0 -22 23v69q0 25 22 25h139v125q0 22 25 22
h121q22 0 22 -22v-125h287q22 0 22 -25v-69q0 -23 -22 -23h-287v-194z" />
    <glyph glyph-name="Imacron" unicode="&#x12a;" horiz-adv-x="540" 
d="M8 1716v90q0 23 23 23h479q22 0 22 -23v-90q0 -22 -22 -22h-479q-23 0 -23 22zM358 1442v-1419q0 -23 -24 -23h-127q-11 0 -18 6.5t-7 16.5v1419q0 22 25 22h127q24 0 24 -22z" />
    <glyph glyph-name="imacron" unicode="&#x12b;" horiz-adv-x="450" 
d="M424 1266h-395q-23 0 -23 24v88q0 23 23 23h395q22 0 22 -23v-88q0 -24 -22 -24zM287 0h-121q-11 0 -18 6.5t-7 16.5v1011q0 10 7.5 17.5t17.5 7.5h121q22 0 22 -25v-1011q0 -23 -22 -23z" />
    <glyph glyph-name="Iogonek" unicode="&#x12e;" horiz-adv-x="538" 
d="M309 -262q56 0 97 16q22 6 28 -16l19 -86q5 -19 -15 -29q-81 -33 -164 -33q-93 0 -145.5 45.5t-52.5 126.5q0 66 33 129t90 111q-17 3 -17 27v1413q0 22 23 22h129q22 0 22 -22v-1419q0 -22 -18 -25q-52 -37 -83.5 -90t-31.5 -98q0 -72 86 -72z" />
    <glyph glyph-name="iogonek" unicode="&#x12f;" horiz-adv-x="450" 
d="M414 -367q-80 -41 -183 -41q-96 0 -148 46.5t-52 138.5q0 58 37.5 118t99.5 107h-6q-21 4 -21 25v1007q0 10 7.5 17.5t17.5 7.5h121q22 0 22 -25v-1011q0 -22 -22 -25q-117 -90 -117 -180q0 -80 94 -80q57 0 113 22q23 10 26 -14l23 -82q6 -22 -12 -31zM328 1356
q0 -43 -29 -72t-72 -29t-72.5 29t-29.5 72q0 44 29.5 73t72.5 29t72 -29t29 -73z" />
    <glyph glyph-name="Idotaccent" unicode="&#x130;" horiz-adv-x="538" 
d="M356 1442v-1419q0 -23 -22 -23h-127q-25 0 -25 23v1419q0 22 25 22h127q22 0 22 -22zM383 1745q0 -46 -33 -79.5t-80 -33.5q-46 0 -79 33.5t-33 79.5q0 47 33 80t79 33q47 0 80 -33t33 -80z" />
    <glyph glyph-name="dotlessi" unicode="&#x131;" horiz-adv-x="450" 
d="M285 0h-121q-23 0 -23 23v1011q0 11 6.5 18t16.5 7h121q24 0 24 -25v-1011q0 -23 -24 -23z" />
    <glyph glyph-name="IJ" unicode="&#x132;" horiz-adv-x="1589" 
d="M356 1442v-1419q0 -23 -22 -23h-127q-25 0 -25 23v1419q0 22 25 22h127q22 0 22 -22zM1417 467q0 -232 -118 -361t-310 -129q-119 0 -214 39.5t-189 120.5q-18 12 -4 33l57 94q12 21 33 4q78 -62 152.5 -93.5t164.5 -31.5q122 0 188 80t66 246v973q0 22 25 22h127
q22 0 22 -22v-975z" />
    <glyph glyph-name="ij" unicode="&#x133;" horiz-adv-x="1024" 
d="M287 0h-121q-25 0 -25 23v1011q0 25 25 25h121q22 0 22 -25v-1011q0 -23 -22 -23zM328 1356q0 -43 -29 -72t-72 -29t-72.5 29t-29.5 72q0 44 29.5 72t72.5 28t72 -28t29 -72zM883 -35q0 -184 -80 -280.5t-228 -96.5q-53 0 -100 6q-22 3 -22 27v103q0 24 24 24
q44 -6 80 -6q80 0 119 51.5t39 171.5v1069q0 25 24 25h121q10 0 16.5 -7t6.5 -18v-1069zM901 1356q0 -43 -28.5 -72t-71.5 -29t-73 29t-30 72q0 44 30 72t73 28t71.5 -28t28.5 -72z" />
    <glyph glyph-name="uni0136" unicode="&#x136;" horiz-adv-x="1257" 
d="M334 0h-127q-25 0 -25 23v1419q0 22 25 22h127q22 0 22 -22v-678l633 686q14 14 31 14h164q15 0 19.5 -9t-5.5 -19l-588 -631l629 -776q9 -12 4.5 -20.5t-18.5 -8.5h-166q-21 0 -29 14l-536 668l-138 -141v-518q0 -23 -22 -23zM592 -500h-78q-28 0 -22 25l75 299
q6 20 27 20h111q12 0 17.5 -7t2.5 -19l-107 -299q-6 -19 -26 -19z" />
    <glyph glyph-name="uni0137" unicode="&#x137;" horiz-adv-x="1013" 
d="M985 0h-151q-20 0 -31 14l-389 473l-105 -100v-364q0 -23 -24 -23h-121q-23 0 -23 23v1419q0 22 23 22h121q24 0 24 -22v-848l463 453q10 12 29 12h149q14 0 17.5 -9.5t-6.5 -19.5l-435 -428l471 -573q9 -12 5.5 -20.5t-17.5 -8.5zM498 -483h-74q-27 0 -21 24l70 285
q6 20 27 20h104q26 0 19 -26l-99 -285q-6 -18 -26 -18z" />
    <glyph glyph-name="Lacute" unicode="&#x139;" horiz-adv-x="1048" 
d="M999 0h-794q-25 0 -25 23v1419q0 22 25 22h129q22 0 22 -22v-1282h643q23 0 23 -23v-114q0 -23 -23 -23zM578 1894l-248 -272q-11 -14 -29 -14h-106q-14 0 -18 8t3 20l215 273q8 14 27 14h143q14 0 18.5 -9.5t-5.5 -19.5z" />
    <glyph glyph-name="lacute" unicode="&#x13a;" horiz-adv-x="593" 
d="M559 -16q-61 -7 -115 -7q-149 0 -229 97t-80 280v1088q0 22 25 22h121q22 0 22 -22v-1090q0 -117 40 -169t120 -52q43 0 92 6q25 0 25 -22v-105q0 -22 -21 -26zM537 1894l-248 -272q-11 -14 -29 -14h-106q-14 0 -18 8t3 20l215 273q8 14 27 14h143q14 0 18.5 -9.5
t-5.5 -19.5z" />
    <glyph glyph-name="uni013B" unicode="&#x13b;" horiz-adv-x="1048" 
d="M1001 0h-794q-25 0 -25 23v1419q0 22 25 22h129q22 0 22 -22v-1282h643q23 0 23 -23v-114q0 -23 -23 -23zM485 -500h-77q-12 0 -19 6.5t-4 18.5l76 299q6 20 26 20h111q26 0 20 -26l-106 -299q-6 -19 -27 -19z" />
    <glyph glyph-name="uni013C" unicode="&#x13c;" horiz-adv-x="593" 
d="M559 -16q-61 -7 -115 -7q-149 0 -229 97t-80 280v1088q0 22 25 22h121q22 0 22 -22v-1090q0 -117 40 -169t120 -52q43 0 92 6q25 0 25 -22v-105q0 -22 -21 -26zM352 -483h-73q-27 0 -21 24l70 285q6 20 26 20h105q25 0 18 -26l-98 -285q-6 -18 -27 -18z" />
    <glyph glyph-name="Lcaron" unicode="&#x13d;" horiz-adv-x="1048" 
d="M702 1102h-92q-12 0 -17.5 7.5t-2.5 18.5l84 316q3 20 24 20h113q12 0 17.5 -7.5t2.5 -18.5l-104 -318q-4 -18 -25 -18zM1001 0h-794q-25 0 -25 23v1419q0 22 25 22h129q22 0 22 -22v-1282h643q23 0 23 -23v-114q0 -23 -23 -23z" />
    <glyph glyph-name="lcaron" unicode="&#x13e;" horiz-adv-x="620" 
d="M551 -16q-61 -7 -107 -7q-150 0 -229.5 96.5t-79.5 280.5v1088q0 22 23 22h121q24 0 24 -22v-1090q0 -117 39 -169t119 -52q41 0 84 6q26 0 26 -22v-105q0 -23 -20 -26zM532 1139h-77q-12 0 -18 7.5t-3 18.5l74 279q6 20 27 20h104q12 0 17.5 -7.5t0.5 -18.5l-100 -281
q-7 -18 -25 -18z" />
    <glyph glyph-name="Ldot" unicode="&#x13f;" horiz-adv-x="1048" 
d="M1001 0h-794q-25 0 -25 23v1419q0 22 25 22h129q22 0 22 -22v-1282h643q23 0 23 -23v-114q0 -23 -23 -23zM805 719q0 -49 -31.5 -81t-81.5 -32q-51 0 -81.5 31.5t-30.5 81.5q0 51 30.5 83t81.5 32q50 0 81.5 -32t31.5 -83z" />
    <glyph glyph-name="ldot" unicode="&#x140;" horiz-adv-x="643" 
d="M551 -16q-61 -7 -107 -7q-150 0 -229.5 96.5t-79.5 280.5v1088q0 22 23 22h121q24 0 24 -22v-1090q0 -117 39 -169t119 -52q41 0 84 6q26 0 26 -22v-105q0 -23 -20 -26zM639 743q0 -45 -28.5 -74.5t-73.5 -29.5q-47 0 -77 29.5t-30 74.5q0 46 30 75.5t77 29.5
q45 0 73.5 -29.5t28.5 -75.5z" />
    <glyph glyph-name="Lslash" unicode="&#x141;" horiz-adv-x="1085" 
d="M395 686v-526h643q23 0 23 -23v-114q0 -23 -23 -23h-794q-23 0 -23 23v550l-168 -108q-12 -7 -20 -3t-8 17v111q0 17 14 28l182 117v707q0 22 23 22h127q24 0 24 -22v-594l277 180q12 8 20 4t8 -18v-111q0 -18 -14 -29z" />
    <glyph glyph-name="lslash" unicode="&#x142;" horiz-adv-x="731" 
d="M627 -16q-58 -7 -105 -7q-150 0 -229.5 96.5t-79.5 280.5v183l-131 -93q-12 -8 -20.5 -3t-8.5 18v108q0 17 15 29l145 102v744q0 22 23 22h120q25 0 25 -22v-625l229 164q10 9 18.5 4.5t8.5 -18.5v-109q0 -16 -14 -27l-242 -174v-305q0 -117 39 -169t119 -52q41 0 84 6
q24 0 24 -22v-105q0 -23 -20 -26z" />
    <glyph glyph-name="Nacute" unicode="&#x143;" horiz-adv-x="1441" 
d="M332 0h-125q-25 0 -25 23v1419q0 22 25 22h143q19 0 29 -16l543 -885q143 -244 172 -299l6 2q-13 276 -13 555v621q0 22 23 22h127q23 0 23 -22v-1419q0 -23 -23 -23h-143q-21 0 -29 14l-539 854q-102 166 -178 312l-4 -2q12 -324 12 -535v-620q0 -23 -24 -23zM1004 1894
l-248 -272q-11 -14 -29 -14h-106q-14 0 -18 8t3 20l215 273q8 14 27 14h143q14 0 18.5 -9.5t-5.5 -19.5z" />
    <glyph glyph-name="nacute" unicode="&#x144;" horiz-adv-x="1140" 
d="M283 0h-121q-23 0 -23 23v950q0 19 17 28q191 80 393 80q216 0 338.5 -108t122.5 -334v-616q0 -23 -25 -23h-121q-22 0 -22 23v612q0 155 -75 225t-218 70q-125 0 -242 -37v-870q0 -23 -24 -23zM537 1223h-93q-14 0 -19.5 8t1.5 20l166 273q10 14 29 14h129
q14 0 17.5 -8.5t-5.5 -20.5l-197 -272q-11 -14 -28 -14z" />
    <glyph glyph-name="uni0145" unicode="&#x145;" horiz-adv-x="1441" 
d="M332 0h-125q-25 0 -25 23v1419q0 22 25 22h143q19 0 29 -16l543 -885q143 -244 172 -299l6 2q-13 276 -13 555v621q0 22 23 22h127q23 0 23 -22v-1419q0 -23 -23 -23h-143q-21 0 -29 14l-539 854q-102 166 -178 312l-4 -2q12 -324 12 -535v-620q0 -23 -24 -23zM678 -500
h-78q-28 0 -22 25l75 299q6 20 27 20h111q12 0 17.5 -7t2.5 -19l-106 -299q-6 -19 -27 -19z" />
    <glyph glyph-name="uni0146" unicode="&#x146;" horiz-adv-x="1140" 
d="M283 0h-121q-23 0 -23 23v950q0 19 17 28q191 80 393 80q216 0 338.5 -108t122.5 -334v-616q0 -23 -25 -23h-121q-22 0 -22 23v612q0 155 -75 225t-218 70q-125 0 -242 -37v-870q0 -23 -24 -23zM532 -483h-73q-27 0 -21 24l70 285q6 20 27 20h104q25 0 18 -26l-98 -285
q-6 -18 -27 -18z" />
    <glyph glyph-name="Ncaron" unicode="&#x147;" horiz-adv-x="1441" 
d="M332 0h-125q-25 0 -25 23v1419q0 22 25 22h143q19 0 29 -16l543 -885q143 -244 172 -299l6 2q-13 276 -13 555v621q0 22 23 22h127q23 0 23 -22v-1419q0 -23 -23 -23h-143q-21 0 -29 14l-539 854q-102 166 -178 312l-4 -2q12 -324 12 -535v-620q0 -23 -24 -23zM401 1923
h121q18 0 29 -14l172 -176l172 176q11 14 29 14h120q15 0 18.5 -9.5t-5.5 -19.5l-252 -272q-14 -14 -29 -14h-106q-18 0 -29 14l-252 272q-9 10 -6 19.5t18 9.5z" />
    <glyph glyph-name="ncaron" unicode="&#x148;" horiz-adv-x="1140" 
d="M283 0h-121q-23 0 -23 23v950q0 19 17 28q191 80 393 80q216 0 338.5 -108t122.5 -334v-616q0 -23 -25 -23h-121q-22 0 -22 23v612q0 155 -75 225t-218 70q-125 0 -242 -37v-870q0 -23 -24 -23zM266 1538h103q14 0 28 -14l160 -187l156 187q11 14 28 14h107q14 0 17 -8.5
t-7 -20.5l-229 -272q-11 -14 -29 -14h-88q-15 0 -29 14l-231 272q-9 12 -5 20.5t19 8.5z" />
    <glyph glyph-name="Eng" unicode="&#x14a;" horiz-adv-x="1441" 
d="M1087 760v682q0 22 23 22h127q23 0 23 -22v-1454q0 -211 -74.5 -305.5t-231.5 -94.5q-46 0 -90 6q-22 3 -22 25v109q0 22 24 22q54 -4 70 -4q83 0 118.5 56.5t37.5 183.5l-549 860q-91 141 -195 334l-4 -4q12 -290 12 -465v-688q0 -23 -24 -23h-125q-25 0 -25 23v1419
q0 22 25 22h143q19 0 29 -16l518 -850q124 -199 197 -334l6 4q-13 250 -13 492z" />
    <glyph glyph-name="eng" unicode="&#x14b;" horiz-adv-x="1140" 
d="M1010 -23q0 -200 -76.5 -293.5t-226.5 -93.5q-49 0 -95 9q-22 3 -22 24v105q0 22 24 22q43 -6 74 -6q154 0 154 233v658q0 155 -75 225t-218 70q-141 0 -242 -37v-870q0 -23 -24 -23h-121q-23 0 -23 23v950q0 17 15 26q188 82 395 82q216 0 338.5 -108t122.5 -334v-662z
" />
    <glyph glyph-name="Omacron" unicode="&#x14c;" horiz-adv-x="1380" 
d="M1249 514q0 -248 -150 -392.5t-409 -144.5t-409 144.5t-150 392.5v432q0 252 149.5 396.5t409.5 144.5t409.5 -144.5t149.5 -396.5v-432zM307 514q0 -174 100.5 -272.5t282.5 -98.5t281.5 98.5t99.5 272.5v432q0 180 -99.5 279.5t-281.5 99.5q-183 0 -283 -99.5
t-100 -279.5v-432zM967 1661h-557q-23 0 -23 22v93q0 24 23 24h557q22 0 22 -24v-93q0 -22 -22 -22z" />
    <glyph glyph-name="omacron" unicode="&#x14d;" horiz-adv-x="1105" 
d="M1004 379q0 -182 -121.5 -292t-329.5 -110q-206 0 -328.5 110.5t-122.5 291.5v295q0 182 123 294.5t328 112.5q207 0 329 -112.5t122 -294.5v-295zM272 379q0 -117 73 -184.5t208 -67.5q136 0 209.5 67.5t73.5 184.5v295q0 119 -73.5 187.5t-209.5 68.5
q-135 0 -208 -68.5t-73 -187.5v-295zM272 1292v88q0 11 6.5 18t16.5 7h516q10 0 16.5 -7t6.5 -18v-88q0 -22 -23 -22h-516q-23 0 -23 22z" />
    <glyph glyph-name="Ohungarumlaut" unicode="&#x150;" horiz-adv-x="1380" 
d="M1249 514q0 -248 -150 -392.5t-409 -144.5t-409 144.5t-150 392.5v432q0 252 149.5 396.5t409.5 144.5t409.5 -144.5t149.5 -396.5v-432zM307 514q0 -174 100.5 -272.5t282.5 -98.5t281.5 98.5t99.5 272.5v432q0 180 -99.5 279.5t-281.5 99.5q-183 0 -283 -99.5
t-100 -279.5v-432zM514 1608h-108q-14 0 -18 8t3 20l209 271q10 16 29 16h137q15 0 19 -9.5t-5 -19.5l-237 -272q-11 -14 -29 -14zM889 1608h-107q-14 0 -18 9t4 19l219 273q11 14 29 14h139q14 0 18 -9.5t-6 -19.5l-249 -274q-10 -12 -29 -12z" />
    <glyph glyph-name="ohungarumlaut" unicode="&#x151;" horiz-adv-x="1105" 
d="M1004 379q0 -182 -121.5 -292t-329.5 -110q-206 0 -328.5 110.5t-122.5 291.5v295q0 182 123 294.5t328 112.5q207 0 329 -112.5t122 -294.5v-295zM272 379q0 -117 73 -184.5t208 -67.5q136 0 209.5 67.5t73.5 184.5v295q0 119 -73.5 187.5t-209.5 68.5
q-135 0 -208 -68.5t-73 -187.5v-295zM408 1223h-74q-14 0 -19.5 8t0.5 20l148 271q13 16 29 16h102q13 0 17.5 -8.5t-3.5 -20.5l-172 -272q-11 -14 -28 -14zM702 1223h-73q-13 0 -18 8t1 20l162 273q10 14 29 14h102q14 0 19 -8.5t-2 -20.5l-191 -272q-11 -14 -29 -14z" />
    <glyph glyph-name="OE" unicode="&#x152;" horiz-adv-x="2004" 
d="M1057 0q-25 0 -25 23v106q-65 -73 -158.5 -112.5t-197.5 -39.5q-111 0 -208 33.5t-173 97.5t-120 167.5t-44 234.5v444q0 132 44 235.5t120 167.5t173 97t208 33q103 0 196.5 -40.5t159.5 -115.5v111q0 22 25 22h794q23 0 23 -22v-119q0 -11 -6.5 -18t-16.5 -7h-641v-477
h594q25 0 25 -22v-119q0 -23 -25 -23h-594v-491h670q25 0 25 -25v-118q0 -23 -25 -23h-823zM311 510q0 -182 102.5 -277.5t262.5 -95.5q155 0 254.5 94.5t99.5 272.5v457q0 183 -99 274.5t-255 91.5q-161 0 -263 -93t-102 -280v-444z" />
    <glyph glyph-name="oe" unicode="&#x153;" horiz-adv-x="1789" 
d="M1266 -23q-107 0 -201.5 41.5t-149.5 120.5q-57 -77 -149.5 -119.5t-212.5 -42.5q-206 0 -328.5 110.5t-122.5 291.5v295q0 182 123 294.5t328 112.5q120 0 213 -44.5t152 -123.5q57 82 149.5 125t200.5 43q86 0 161.5 -24.5t136 -73t95.5 -128t35 -181.5v-201
q0 -24 -23 -24h-669v-87q0 -111 74 -172t192 -61q96 0 169.5 31.5t141.5 85.5q20 13 33 -6l63 -80q16 -19 -4 -35q-180 -148 -407 -148zM272 379q0 -117 73 -184.5t208 -67.5q136 0 209.5 67t73.5 185v295q0 119 -73.5 187.5t-209.5 68.5q-135 0 -208 -68.5t-73 -187.5v-295
zM1004 674v-86h528v86q0 126 -73 191t-191 65q-121 0 -192.5 -64.5t-71.5 -191.5z" />
    <glyph glyph-name="Racute" unicode="&#x154;" horiz-adv-x="1292" 
d="M1200 0h-160q-20 0 -28 14l-408 557h-248v-548q0 -23 -22 -23h-127q-25 0 -25 23v1419q0 22 25 22h461q242 0 379 -118t137 -330q0 -174 -101.5 -286.5t-283.5 -143.5l415 -557q9 -12 4.5 -20.5t-18.5 -8.5zM670 1305h-314v-576h314q336 0 336 287q0 289 -336 289z
M922 1894l-248 -272q-11 -14 -29 -14h-106q-14 0 -18 8t3 20l215 273q8 14 27 14h143q14 0 18.5 -9.5t-5.5 -19.5z" />
    <glyph glyph-name="racute" unicode="&#x155;" horiz-adv-x="772" 
d="M283 0h-121q-23 0 -23 23v956q0 21 17 27q156 75 350 75q93 0 211 -16q20 -3 20 -27v-100q0 -26 -24 -20q-100 14 -185 14q-123 0 -221 -41v-868q0 -23 -24 -23zM438 1223h-92q-14 0 -19.5 8t1.5 20l166 273q10 14 28 14h129q14 0 18 -8.5t-5 -20.5l-197 -272
q-11 -14 -29 -14z" />
    <glyph glyph-name="uni0156" unicode="&#x156;" horiz-adv-x="1292" 
d="M1200 0h-160q-20 0 -28 14l-408 557h-248v-548q0 -23 -22 -23h-127q-25 0 -25 23v1419q0 22 25 22h461q242 0 379 -118t137 -330q0 -174 -101.5 -286.5t-283.5 -143.5l415 -557q9 -12 4.5 -20.5t-18.5 -8.5zM670 1305h-314v-576h314q336 0 336 287q0 289 -336 289z
M604 -500h-78q-28 0 -22 25l76 299q6 20 26 20h111q12 0 17.5 -7t2.5 -19l-106 -299q-6 -19 -27 -19z" />
    <glyph glyph-name="uni0157" unicode="&#x157;" horiz-adv-x="772" 
d="M283 0h-121q-23 0 -23 23v956q0 21 17 27q156 75 350 75q93 0 211 -16q20 -3 20 -27v-100q0 -26 -24 -20q-100 14 -185 14q-123 0 -221 -41v-868q0 -23 -24 -23zM199 -483h-74q-27 0 -21 24l70 285q6 20 27 20h104q25 0 19 -26l-99 -285q-6 -18 -26 -18z" />
    <glyph glyph-name="Rcaron" unicode="&#x158;" horiz-adv-x="1292" 
d="M1200 0h-160q-20 0 -28 14l-408 557h-248v-548q0 -23 -22 -23h-127q-25 0 -25 23v1419q0 22 25 22h461q242 0 379 -118t137 -330q0 -174 -101.5 -286.5t-283.5 -143.5l415 -557q9 -12 4.5 -20.5t-18.5 -8.5zM670 1305h-314v-576h314q336 0 336 287q0 289 -336 289z
M309 1923h121q18 0 29 -14l172 -176l172 176q11 14 28 14h121q15 0 18.5 -9.5t-5.5 -19.5l-252 -272q-14 -14 -29 -14h-106q-18 0 -29 14l-252 272q-9 10 -6 19.5t18 9.5z" />
    <glyph glyph-name="rcaron" unicode="&#x159;" horiz-adv-x="772" 
d="M283 0h-121q-23 0 -23 23v956q0 21 17 27q156 75 350 75q93 0 211 -16q20 -3 20 -27v-100q0 -26 -24 -20q-100 14 -185 14q-123 0 -221 -41v-868q0 -23 -24 -23zM152 1538h102q15 0 29 -14l159 -187l156 187q10 14 29 14h106q14 0 17 -8.5t-7 -20.5l-229 -272
q-11 -14 -29 -14h-88q-14 0 -28 14l-232 272q-9 12 -4.5 20.5t19.5 8.5z" />
    <glyph glyph-name="Sacute" unicode="&#x15a;" horiz-adv-x="1241" 
d="M1155 397q0 -106 -43 -188.5t-118 -132t-170 -74.5t-206 -25q-148 0 -267.5 47t-244.5 148q-17 14 -4 33l70 96q13 20 31 6q109 -82 209.5 -122.5t212.5 -41.5q150 0 252 64t102 186q0 50 -18.5 89t-48.5 66.5t-81.5 50t-104 37.5t-130.5 32q-81 18 -147 40t-132 57.5
t-110.5 80.5t-72.5 110t-28 144t27.5 143.5t75.5 109.5t114.5 75.5t143 44.5t162.5 14q135 0 246.5 -39t230.5 -125q21 -12 6 -31l-68 -96q-12 -18 -32 -4q-185 127 -398 133q-150 0 -240.5 -59.5t-90.5 -169.5q0 -46 17.5 -82.5t46 -62.5t76.5 -47.5t97.5 -36.5t120.5 -31
q65 -15 115 -28.5t105.5 -34.5t96.5 -44t80 -56t63.5 -72t39 -91t14.5 -113zM895 1894l-248 -272q-11 -14 -29 -14h-106q-14 0 -18 8t4 20l215 273q8 14 26 14h144q14 0 18 -9.5t-6 -19.5z" />
    <glyph glyph-name="sacute" unicode="&#x15b;" horiz-adv-x="972" 
d="M903 299q0 -153 -115 -237.5t-301 -84.5q-225 0 -405 132q-16 11 -6 32l55 95q12 21 33 6q152 -115 328 -115q106 0 173.5 43.5t67.5 120.5q0 28 -9 50.5t-29 38.5t-38.5 27t-51.5 21t-54 14.5t-59 12.5q-42 9 -69 15.5t-73.5 21t-77.5 29.5t-68 40.5t-59 55t-37.5 72
t-15.5 91.5q0 100 59.5 170t148.5 100.5t196 30.5q184 0 356 -96q22 -10 8 -31l-55 -92q-5 -9 -13.5 -11.5t-17.5 3.5q-142 76 -287 76q-107 0 -168 -40.5t-61 -109.5q0 -28 9 -50t28.5 -38.5t40.5 -28.5t55.5 -22.5t62 -17t70.5 -15.5q46 -9 73.5 -15.5t72.5 -20t73 -28
t61.5 -38t53 -51.5t32.5 -68t13 -88zM465 1223h-92q-14 0 -20 8t1 20l166 273q10 14 29 14h129q14 0 17.5 -8.5t-5.5 -20.5l-196 -272q-10 -14 -29 -14z" />
    <glyph glyph-name="Scedilla" unicode="&#x15e;" horiz-adv-x="1241" 
d="M846 -248q0 -84 -66 -130t-176 -46q-66 0 -121 18q-18 5 -18 27v51q0 12 7.5 18t19.5 3q50 -15 94 -15q118 0 121 80q2 36 -30.5 55.5t-101.5 20.5q-20 0 -28 16q-2 3 -1.5 10t3.5 13l43 107q-139 4 -254 50.5t-232 141.5q-17 14 -4 33l70 96q13 20 31 6
q109 -82 209 -121.5t213 -40.5q97 0 175 25.5t128.5 83t50.5 139.5q0 50 -18.5 89t-48.5 66.5t-81.5 50t-104 37.5t-130.5 32q-81 18 -147 40t-132 57.5t-110.5 80.5t-72.5 110t-28 144t27.5 143.5t75.5 109.5t114.5 75.5t143 44.5t162.5 14q135 0 246.5 -39t230.5 -125
q21 -12 6 -31l-68 -96q-12 -18 -32 -4q-185 127 -398 133q-150 0 -240.5 -59.5t-90.5 -169.5q0 -46 17.5 -82.5t46 -62.5t76.5 -47.5t97.5 -36.5t120.5 -31q65 -15 115 -28.5t105.5 -34.5t96.5 -44t80 -56t63.5 -72t39 -91t14.5 -113q0 -96 -35 -172t-98 -125.5t-144 -78
t-178 -37.5v-4l-34 -84q81 -5 130.5 -43.5t49.5 -100.5z" />
    <glyph glyph-name="scedilla" unicode="&#x15f;" horiz-adv-x="972" 
d="M705 -250q0 -81 -65 -125.5t-173 -44.5q-60 0 -119 19q-18 5 -18 26v49q0 24 26 21q46 -14 93 -14q122 0 122 79q0 73 -129 76q-20 0 -28 17q-4 9 2 22l41 102q-207 9 -375 132q-16 11 -6 32l55 95q12 21 33 6q152 -115 328 -115q106 0 173.5 43.5t67.5 120.5
q0 28 -9 50.5t-29 38.5t-38.5 27t-51.5 21t-54 14.5t-59 12.5q-42 9 -69 15.5t-73.5 21t-77.5 29.5t-68 40.5t-59 55t-37.5 72t-15.5 91.5q0 100 59.5 170t148.5 100.5t196 30.5q184 0 356 -96q22 -10 8 -31l-55 -92q-5 -9 -13.5 -11.5t-17.5 3.5q-142 76 -287 76
q-107 0 -168 -40.5t-61 -109.5q0 -28 9 -50t28.5 -38.5t40.5 -28.5t55.5 -22.5t62 -17t70.5 -15.5q46 -9 73.5 -15.5t72.5 -20t73 -28t61.5 -38t53 -51.5t32.5 -68t13 -88q0 -136 -93 -219t-247 -98l-35 -84q80 -5 128.5 -44.5t48.5 -103.5z" />
    <glyph glyph-name="Scaron" unicode="&#x160;" horiz-adv-x="1241" 
d="M1155 397q0 -106 -43 -188.5t-118 -132t-170 -74.5t-206 -25q-148 0 -267.5 47t-244.5 148q-17 14 -4 33l70 96q13 20 31 6q109 -82 209.5 -122.5t212.5 -41.5q150 0 252 64t102 186q0 50 -18.5 89t-48.5 66.5t-81.5 50t-104 37.5t-130.5 32q-81 18 -147 40t-132 57.5
t-110.5 80.5t-72.5 110t-28 144t27.5 143.5t75.5 109.5t114.5 75.5t143 44.5t162.5 14q135 0 246.5 -39t230.5 -125q21 -12 6 -31l-68 -96q-12 -18 -32 -4q-185 127 -398 133q-150 0 -240.5 -59.5t-90.5 -169.5q0 -46 17.5 -82.5t46 -62.5t76.5 -47.5t97.5 -36.5t120.5 -31
q65 -15 115 -28.5t105.5 -34.5t96.5 -44t80 -56t63.5 -72t39 -91t14.5 -113zM297 1923h121q17 0 28 -14l172 -176l173 176q11 14 28 14h121q15 0 18 -9.5t-6 -19.5l-252 -272q-14 -14 -28 -14h-107q-17 0 -28 14l-252 272q-9 10 -6 19.5t18 9.5z" />
    <glyph glyph-name="scaron" unicode="&#x161;" horiz-adv-x="972" 
d="M903 299q0 -153 -115 -237.5t-301 -84.5q-225 0 -405 132q-16 11 -6 32l55 95q12 21 33 6q152 -115 328 -115q106 0 173.5 43.5t67.5 120.5q0 28 -9 50.5t-29 38.5t-38.5 27t-51.5 21t-54 14.5t-59 12.5q-42 9 -69 15.5t-73.5 21t-77.5 29.5t-68 40.5t-59 55t-37.5 72
t-15.5 91.5q0 100 59.5 170t148.5 100.5t196 30.5q184 0 356 -96q22 -10 8 -31l-55 -92q-5 -9 -13.5 -11.5t-17.5 3.5q-142 76 -287 76q-107 0 -168 -40.5t-61 -109.5q0 -28 9 -50t28.5 -38.5t40.5 -28.5t55.5 -22.5t62 -17t70.5 -15.5q46 -9 73.5 -15.5t72.5 -20t73 -28
t61.5 -38t53 -51.5t32.5 -68t13 -88zM199 1538h102q15 0 29 -14l159 -187l156 187q11 14 29 14h106q14 0 17.5 -8.5t-6.5 -20.5l-230 -272q-11 -14 -29 -14h-88q-14 0 -28 14l-232 272q-9 12 -4.5 20.5t19.5 8.5z" />
    <glyph glyph-name="uni0162" unicode="&#x162;" horiz-adv-x="1148" 
d="M528 -500h-77q-13 0 -19.5 6.5t-3.5 18.5l76 299q6 20 26 20h111q27 0 21 -26l-107 -299q-6 -19 -27 -19zM47 1464h1053q24 0 24 -22v-115q0 -22 -24 -22h-438v-1282q0 -10 -7 -16.5t-18 -6.5h-127q-11 0 -18 6.5t-7 16.5v1282h-438q-22 0 -22 22v115q0 22 22 22z" />
    <glyph glyph-name="uni0163" unicode="&#x163;" horiz-adv-x="657" 
d="M360 -483h-73q-27 0 -21 24l70 285q6 20 26 20h105q25 0 18 -26l-98 -285q-6 -18 -27 -18zM303 348q0 -102 51 -158.5t146 -56.5q24 0 98 4q25 0 25 -22v-109q0 -21 -21 -24q-93 -5 -110 -5q-162 0 -259.5 91t-97.5 272v954q0 25 25 25h106q20 0 23 -23l14 -247h266
q23 0 23 -23v-102q0 -25 -23 -25h-266v-551z" />
    <glyph glyph-name="Tcaron" unicode="&#x164;" horiz-adv-x="1148" 
d="M47 1464h1053q24 0 24 -22v-115q0 -22 -24 -22h-438v-1282q0 -10 -7 -16.5t-18 -6.5h-127q-11 0 -18 6.5t-7 16.5v1282h-438q-22 0 -22 22v115q0 22 22 22zM252 1923h121q17 0 28 -14l172 -176l172 176q11 14 29 14h121q15 0 18 -9.5t-6 -19.5l-252 -272q-14 -14 -28 -14
h-107q-17 0 -28 14l-252 272q-9 10 -6 19.5t18 9.5z" />
    <glyph glyph-name="tcaron" unicode="&#x165;" horiz-adv-x="657" 
d="M600 -18q-88 -5 -108 -5q-162 0 -259.5 91t-97.5 272v954q0 25 25 25h106q20 0 23 -23l14 -247h266q23 0 23 -23v-102q0 -25 -23 -25h-266v-551q0 -102 51 -158.5t146 -56.5q24 0 98 4q25 0 25 -22v-109q0 -21 -23 -24zM530 1206h-73q-27 0 -21 25l72 276q3 21 27 21h102
q12 0 17 -7.5t1 -19.5l-98 -276q-9 -19 -27 -19z" />
    <glyph glyph-name="Tbar" unicode="&#x166;" horiz-adv-x="1169" 
d="M647 0h-129q-22 0 -22 23v608h-242q-23 0 -23 22v74q0 25 23 25h242v553h-435q-22 0 -22 22v115q0 22 22 22h1047q22 0 22 -22v-115q0 -22 -22 -22h-436v-553h239q25 0 25 -25v-74q0 -22 -25 -22h-239v-608q0 -23 -25 -23z" />
    <glyph glyph-name="tbar" unicode="&#x167;" horiz-adv-x="667" 
d="M610 -18q-92 -5 -110 -5q-161 0 -258 91t-97 272v172h-88q-24 0 -24 23v69q0 23 24 23h88v667q0 25 23 25h106q23 0 23 -23l14 -247h267q24 0 24 -23v-102q0 -25 -24 -25h-265v-272h174q23 0 23 -23v-69q0 -23 -23 -23h-174v-164q0 -102 50.5 -158.5t144.5 -56.5
q26 0 100 4q25 0 25 -22v-109q0 -21 -23 -24z" />
    <glyph glyph-name="Umacron" unicode="&#x16a;" horiz-adv-x="1415" 
d="M1245 500q0 -235 -146 -379t-392 -144q-244 0 -390.5 144t-146.5 379v942q0 22 25 22h131q22 0 22 -22v-930q0 -175 94 -274t265 -99t265.5 99.5t94.5 273.5v930q0 22 23 22h131q24 0 24 -22v-942zM985 1661h-557q-22 0 -22 22v93q0 24 22 24h557q23 0 23 -24v-93
q0 -22 -23 -22z" />
    <glyph glyph-name="umacron" unicode="&#x16b;" horiz-adv-x="1128" 
d="M846 1059h121q22 0 22 -25v-948q0 -24 -16 -29q-180 -80 -387 -80q-211 0 -332 108.5t-121 334.5v614q0 25 25 25h121q22 0 22 -25v-610q0 -156 73 -226.5t212 -70.5q128 0 235 39v868q0 25 25 25zM289 1292v88q0 25 22 25h516q10 0 16.5 -7t6.5 -18v-88q0 -22 -23 -22
h-516q-22 0 -22 22z" />
    <glyph glyph-name="Uring" unicode="&#x16e;" horiz-adv-x="1415" 
d="M1245 500q0 -235 -146 -379t-392 -144q-244 0 -390.5 144t-146.5 379v942q0 22 25 22h131q22 0 22 -22v-930q0 -175 94 -274t265 -99t265.5 99.5t94.5 273.5v930q0 22 23 22h131q24 0 24 -22v-942zM930 1790q0 -98 -61 -155.5t-158 -57.5q-99 0 -162.5 58.5t-63.5 154.5
q0 97 63.5 156t162.5 59q96 0 157.5 -59t61.5 -156zM590 1790q0 -52 32.5 -82.5t88.5 -30.5q54 0 84 30t30 83q0 54 -30 84.5t-84 30.5q-56 0 -88.5 -30.5t-32.5 -84.5z" />
    <glyph glyph-name="uring" unicode="&#x16f;" horiz-adv-x="1128" 
d="M846 1059h121q22 0 22 -25v-948q0 -24 -16 -29q-180 -80 -387 -80q-211 0 -332 108.5t-121 334.5v614q0 25 25 25h121q22 0 22 -25v-610q0 -156 73 -226.5t212 -70.5q128 0 235 39v868q0 25 25 25zM784 1403q0 -96 -60.5 -152.5t-154.5 -56.5q-98 0 -160.5 57.5
t-62.5 153.5q0 94 62.5 151.5t160.5 57.5q94 0 154.5 -58t60.5 -153zM449 1403q0 -49 32.5 -80t85.5 -31q51 0 83 31t32 80q0 51 -32 82t-83 31q-53 0 -85.5 -31t-32.5 -82z" />
    <glyph glyph-name="Uhungarumlaut" unicode="&#x170;" horiz-adv-x="1415" 
d="M1245 500q0 -235 -146 -379t-392 -144q-244 0 -390.5 144t-146.5 379v942q0 22 25 22h131q22 0 22 -22v-930q0 -175 94 -274t265 -99t265.5 99.5t94.5 273.5v930q0 22 23 22h131q24 0 24 -22v-942zM524 1608h-108q-14 0 -18 8t3 20l209 271q10 16 29 16h137
q15 0 19.5 -9.5t-4.5 -19.5l-238 -272q-11 -14 -29 -14zM899 1608h-106q-15 0 -19 9t4 19l219 273q11 14 29 14h139q14 0 18.5 -9.5t-5.5 -19.5l-250 -274q-10 -12 -29 -12z" />
    <glyph glyph-name="uhungarumlaut" unicode="&#x171;" horiz-adv-x="1128" 
d="M846 1059h121q22 0 22 -25v-948q0 -24 -16 -29q-180 -80 -387 -80q-211 0 -332 108.5t-121 334.5v614q0 25 25 25h121q22 0 22 -25v-610q0 -156 73 -226.5t212 -70.5q128 0 235 39v868q0 25 25 25zM422 1223h-74q-14 0 -19 8t1 20l147 271q13 16 29 16h102q14 0 18 -8.5
t-3 -20.5l-172 -272q-11 -14 -29 -14zM717 1223h-74q-13 0 -17.5 8t1.5 20l161 273q10 14 29 14h103q14 0 18.5 -8.5t-2.5 -20.5l-191 -272q-11 -14 -28 -14z" />
    <glyph glyph-name="Uogonek" unicode="&#x172;" horiz-adv-x="1419" 
d="M1020 -367q-84 -41 -207 -41q-83 0 -134.5 42t-51.5 110q0 132 153 246v2q-34 -15 -75 -15q-87 0 -166.5 20.5t-147 62.5t-116.5 102.5t-77 144t-28 182.5v953q0 22 25 22h131q24 0 24 -22v-953q0 -164 101.5 -256t257.5 -92t259 92t103 256v953q0 22 25 22h131
q22 0 22 -22v-953q0 -76 -15 -139.5t-37 -107.5t-56.5 -82t-64.5 -61t-70 -46q-222 -135 -222 -246q0 -38 21 -55.5t67 -17.5q57 0 107 20q22 13 29 -14l20 -80q6 -20 -8 -27z" />
    <glyph glyph-name="uogonek" unicode="&#x173;" horiz-adv-x="1126" 
d="M926 -369q-74 -39 -174 -39q-99 0 -155 45t-56 125q0 132 157 228q-67 -13 -98 -13q-220 0 -343.5 103t-123.5 305v649q0 11 6.5 18t16.5 7h120q10 0 17.5 -7.5t7.5 -17.5v-649q0 -258 293 -258q125 0 225 39v868q0 10 7.5 17.5t17.5 7.5h121q22 0 22 -25v-952
q0 -21 -18 -27q-285 -112 -285 -241q0 -40 23 -58t71 -18q56 0 107 22q22 9 28 -14l27 -86q6 -20 -14 -29z" />
    <glyph glyph-name="Wcircumflex" unicode="&#x174;" horiz-adv-x="1947" 
d="M598 0h-149q-21 0 -27 20l-395 1418q-3 11 2.5 18.5t17.5 7.5h137q22 0 25 -20l213 -801q52 -198 102 -432h4q57 221 125 457l226 753q7 21 24 21h139q18 0 25 -21l227 -753q76 -266 125 -457h4q59 271 101 432l213 801q6 20 24 20h140q12 0 17.5 -7.5t2.5 -18.5
l-397 -1418q-6 -20 -25 -20h-149q-22 0 -25 20l-235 764q-76 258 -113 433h-6q-51 -228 -113 -433l-235 -764q-6 -20 -25 -20zM772 1608h-121q-15 0 -18 9t6 19l252 273q11 14 29 14h106q15 0 29 -14l252 -273q9 -10 5.5 -19t-18.5 -9h-120q-18 0 -29 14l-172 176l-172 -176
q-11 -14 -29 -14z" />
    <glyph glyph-name="wcircumflex" unicode="&#x175;" horiz-adv-x="1548" 
d="M367 0q-22 0 -25 20l-305 1010q-7 29 18 29h127q21 0 27 -21l135 -485q39 -147 92 -363h4q62 253 86 332l156 498q6 20 25 20h135q18 0 24 -20l156 -498q34 -109 88 -332h2q73 291 92 363l137 485q3 21 25 21h127q12 0 17.5 -8.5t0.5 -20.5l-303 -1010q-6 -20 -26 -20
h-144q-21 0 -24 20l-172 558q-36 120 -64 256h-6q-34 -144 -65 -256l-172 -558q-3 -20 -25 -20h-143zM586 1223h-103q-15 0 -19 8t5 20l231 273q14 14 29 14h88q19 0 29 -14l229 -273q10 -12 7 -20t-17 -8h-107q-18 0 -28 14l-156 186l-160 -186q-14 -14 -28 -14z" />
    <glyph glyph-name="Ycircumflex" unicode="&#x176;" horiz-adv-x="1163" 
d="M645 0h-129q-22 0 -22 23v534l-482 879q-6 12 -1 20t18 8h147q22 0 27 -16l379 -731l376 731q5 16 27 16h148q13 0 17.5 -8t-1.5 -20l-479 -883v-530q0 -23 -25 -23zM381 1608h-121q-15 0 -18 9t6 19l252 273q11 14 28 14h107q15 0 29 -14l251 -273q9 -10 6 -19t-18 -9
h-121q-17 0 -28 14l-172 176l-172 -176q-11 -14 -29 -14z" />
    <glyph glyph-name="ycircumflex" unicode="&#x177;" horiz-adv-x="1128" 
d="M819 244v790q0 11 6.5 18t16.5 7h121q24 0 24 -25v-1005q0 -212 -107 -325t-325 -114q-228 0 -395 142q-14 14 -2 35l61 83q15 22 33 7q150 -113 303 -115q136 2 202 72.5t62 224.5v47q-127 -53 -254 -53q-85 0 -161.5 25.5t-138 74t-98 128t-36.5 179.5v594q0 11 6.5 18
t16.5 7h120q25 0 25 -25v-585q0 -133 79.5 -197t207.5 -64q135 0 233 56zM373 1223h-103q-15 0 -19 8t5 20l231 273q14 14 29 14h88q18 0 29 -14l229 -273q10 -12 7 -20t-17 -8h-107q-17 0 -28 14l-156 186l-160 -186q-14 -14 -28 -14z" />
    <glyph glyph-name="Ydieresis" unicode="&#x178;" horiz-adv-x="1163" 
d="M645 0h-129q-22 0 -22 23v534l-482 879q-6 12 -1 20t18 8h147q22 0 27 -16l379 -731l376 731q5 16 27 16h148q13 0 17.5 -8t-1.5 -20l-479 -883v-530q0 -23 -25 -23zM473 1735q0 -44 -28.5 -72.5t-71.5 -28.5q-44 0 -72.5 28.5t-28.5 72.5t28.5 73t72.5 29q43 0 71.5 -29
t28.5 -73zM891 1735q0 -44 -29.5 -72.5t-73.5 -28.5t-72 28.5t-28 72.5t28 73t72 29t73.5 -29t29.5 -73z" />
    <glyph glyph-name="Zacute" unicode="&#x179;" horiz-adv-x="1204" 
d="M1106 0h-1010q-22 0 -22 23v79q0 18 8 29l795 1174h-746q-25 0 -25 22v115q0 22 25 22h956q23 0 23 -22v-78q0 -18 -8 -31l-793 -1173h797q22 0 22 -23v-114q0 -23 -22 -23zM874 1894l-247 -272q-11 -14 -29 -14h-106q-14 0 -18 8t3 20l215 273q8 14 27 14h143
q14 0 18 -9.5t-6 -19.5z" />
    <glyph glyph-name="zacute" unicode="&#x17a;" horiz-adv-x="956" 
d="M864 0h-778q-23 0 -23 23v61q0 18 11 29l569 794h-526q-10 0 -16.5 7t-6.5 18v102q0 11 6.5 18t16.5 7h735q25 0 25 -25v-55q0 -14 -11 -29l-573 -800h571q23 0 23 -23v-104q0 -23 -23 -23zM467 1223h-92q-14 0 -20 8t1 20l166 273q10 14 29 14h129q14 0 17.5 -8.5
t-5.5 -20.5l-196 -272q-11 -14 -29 -14z" />
    <glyph glyph-name="Zdotaccent" unicode="&#x17b;" horiz-adv-x="1204" 
d="M1106 0h-1010q-22 0 -22 23v79q0 18 8 29l795 1174h-746q-25 0 -25 22v115q0 22 25 22h956q23 0 23 -22v-78q0 -18 -8 -31l-793 -1173h797q22 0 22 -23v-114q0 -23 -22 -23zM713 1745q0 -46 -33 -79.5t-80 -33.5q-46 0 -79.5 33.5t-33.5 79.5q0 47 33.5 80t79.5 33
q47 0 80 -33t33 -80z" />
    <glyph glyph-name="zdotaccent" unicode="&#x17c;" horiz-adv-x="956" 
d="M864 0h-778q-23 0 -23 23v61q0 18 11 29l569 794h-526q-10 0 -16.5 7t-6.5 18v102q0 11 6.5 18t16.5 7h735q25 0 25 -25v-55q0 -14 -11 -29l-573 -800h571q23 0 23 -23v-104q0 -23 -23 -23zM580 1356q0 -43 -29.5 -73t-73.5 -30q-43 0 -72.5 30t-29.5 73q0 44 29.5 73
t72.5 29q44 0 73.5 -29t29.5 -73z" />
    <glyph glyph-name="Zcaron" unicode="&#x17d;" horiz-adv-x="1204" 
d="M1106 0h-1010q-22 0 -22 23v79q0 18 8 29l795 1174h-746q-25 0 -25 22v115q0 22 25 22h956q23 0 23 -22v-78q0 -18 -8 -31l-793 -1173h797q22 0 22 -23v-114q0 -23 -22 -23zM279 1923h120q18 0 29 -14l172 -176l172 176q11 14 29 14h121q15 0 18 -9.5t-6 -19.5l-252 -272
q-14 -14 -29 -14h-106q-18 0 -29 14l-252 272q-9 10 -5.5 19.5t18.5 9.5z" />
    <glyph glyph-name="zcaron" unicode="&#x17e;" horiz-adv-x="956" 
d="M864 0h-778q-23 0 -23 23v61q0 18 11 29l569 794h-526q-10 0 -16.5 7t-6.5 18v102q0 11 6.5 18t16.5 7h735q25 0 25 -25v-55q0 -14 -11 -29l-573 -800h571q23 0 23 -23v-104q0 -23 -23 -23zM197 1538h102q15 0 29 -14l159 -187l156 187q11 14 29 14h106q14 0 17 -8.5
t-7 -20.5l-229 -272q-11 -14 -29 -14h-88q-14 0 -28 14l-232 272q-9 12 -4.5 20.5t19.5 8.5z" />
    <glyph glyph-name="florin" unicode="&#x192;" horiz-adv-x="925" 
d="M389 25q-9 -46 -20.5 -82.5t-34 -76.5t-51.5 -66.5t-74.5 -44t-102.5 -17.5q-64 0 -126 22q-21 9 -15 31l23 88q6 21 28 17q34 -11 74 -11q56 0 87 41.5t46 134.5l113 592h-166q-25 0 -25 23v106q0 25 25 25h192l76 393q12 62 31 109t51.5 89.5t84.5 65.5t122 23
q80 0 154 -23q23 -3 16 -28l-18 -84q-6 -20 -29 -17q-47 15 -92 15q-70 0 -105 -46t-53 -143l-68 -354h199q10 0 16.5 -7t6.5 -18v-106q0 -23 -23 -23h-227z" />
    <glyph glyph-name="uni0218" unicode="&#x218;" horiz-adv-x="1241" 
d="M1155 397q0 -106 -43 -188.5t-118 -132t-170 -74.5t-206 -25q-148 0 -267.5 47t-244.5 148q-17 14 -4 33l70 96q13 20 31 6q109 -82 209.5 -122.5t212.5 -41.5q150 0 252 64t102 186q0 50 -18.5 89t-48.5 66.5t-81.5 50t-104 37.5t-130.5 32q-81 18 -147 40t-132 57.5
t-110.5 80.5t-72.5 110t-28 144t27.5 143.5t75.5 109.5t114.5 75.5t143 44.5t162.5 14q135 0 246.5 -39t230.5 -125q21 -12 6 -31l-68 -96q-12 -18 -32 -4q-185 127 -398 133q-150 0 -240.5 -59.5t-90.5 -169.5q0 -46 17.5 -82.5t46 -62.5t76.5 -47.5t97.5 -36.5t120.5 -31
q65 -15 115 -28.5t105.5 -34.5t96.5 -44t80 -56t63.5 -72t39 -91t14.5 -113zM573 -500h-77q-12 0 -19 6.5t-4 18.5l76 299q6 20 26 20h111q12 0 18 -7t3 -19l-107 -299q-6 -19 -27 -19z" />
    <glyph glyph-name="uni0219" unicode="&#x219;" horiz-adv-x="972" 
d="M903 299q0 -153 -115 -237.5t-301 -84.5q-225 0 -405 132q-16 11 -6 32l55 95q12 21 33 6q152 -115 328 -115q106 0 173.5 43.5t67.5 120.5q0 28 -9 50.5t-29 38.5t-38.5 27t-51.5 21t-54 14.5t-59 12.5q-42 9 -69 15.5t-73.5 21t-77.5 29.5t-68 40.5t-59 55t-37.5 72
t-15.5 91.5q0 100 59.5 170t148.5 100.5t196 30.5q184 0 356 -96q22 -10 8 -31l-55 -92q-5 -9 -13.5 -11.5t-17.5 3.5q-142 76 -287 76q-107 0 -168 -40.5t-61 -109.5q0 -28 9 -50t28.5 -38.5t40.5 -28.5t55.5 -22.5t62 -17t70.5 -15.5q46 -9 73.5 -15.5t72.5 -20t73 -28
t61.5 -38t53 -51.5t32.5 -68t13 -88zM451 -483h-74q-27 0 -21 24l70 285q6 20 27 20h104q25 0 18 -26l-98 -285q-6 -18 -26 -18z" />
    <glyph glyph-name="uni021A" unicode="&#x21a;" horiz-adv-x="1148" 
d="M47 1464h1053q24 0 24 -22v-115q0 -22 -24 -22h-438v-1282q0 -10 -7 -16.5t-18 -6.5h-127q-11 0 -18 6.5t-7 16.5v1282h-438q-22 0 -22 22v115q0 22 22 22zM528 -500h-77q-13 0 -19.5 6.5t-3.5 18.5l76 299q6 20 26 20h111q27 0 21 -26l-107 -299q-6 -19 -27 -19z" />
    <glyph glyph-name="uni021B" unicode="&#x21b;" horiz-adv-x="657" 
d="M303 348q0 -102 51 -158.5t146 -56.5q24 0 98 4q25 0 25 -22v-109q0 -21 -21 -24q-93 -5 -110 -5q-162 0 -259.5 91t-97.5 272v954q0 25 25 25h106q20 0 23 -23l14 -247h266q23 0 23 -23v-102q0 -25 -23 -25h-266v-551zM360 -483h-73q-27 0 -21 24l70 285q6 20 26 20h105
q25 0 18 -26l-98 -285q-6 -18 -27 -18z" />
    <glyph glyph-name="uni0237" unicode="&#x237;" horiz-adv-x="466" 
d="M326 -35q0 -184 -80 -280.5t-228 -96.5q-54 0 -100 6q-22 3 -22 27v103q0 24 24 24q43 -6 80 -6q80 0 119 51.5t39 169.5v1071q0 25 24 25h121q10 0 16.5 -7t6.5 -18v-1069z" />
    <glyph glyph-name="circumflex" unicode="&#x2c6;" horiz-adv-x="686" 
d="M156 1223h-103q-15 0 -19 8t5 20l231 273q14 14 29 14h88q19 0 29 -14l229 -273q10 -12 7 -20t-17 -8h-107q-18 0 -28 14l-156 186l-160 -186q-14 -14 -28 -14z" />
    <glyph glyph-name="caron" unicode="&#x2c7;" horiz-adv-x="593" 
d="M53 1538h103q14 0 28 -14l160 -187l156 187q10 14 28 14h107q14 0 17 -8.5t-7 -20.5l-229 -272q-10 -14 -29 -14h-88q-15 0 -29 14l-231 272q-9 12 -5 20.5t19 8.5z" />
    <glyph glyph-name="breve" unicode="&#x2d8;" horiz-adv-x="538" 
d="M633 1499q-14 -125 -97 -200.5t-221 -75.5q-136 0 -217 74.5t-96 199.5q-1 10 5 17.5t16 9.5l81 10q21 3 27 -18q28 -164 184 -164q161 0 189 164q3 21 26 18l80 -10q26 -4 23 -25z" />
    <glyph glyph-name="dotaccent" unicode="&#x2d9;" horiz-adv-x="215" 
d="M211 1356q0 -43 -29 -73t-73 -30q-43 0 -73 30t-30 73q0 44 30 73t73 29q44 0 73 -29t29 -73z" />
    <glyph glyph-name="ring" unicode="&#x2da;" horiz-adv-x="462" 
d="M440 1403q0 -96 -60.5 -152.5t-154.5 -56.5q-98 0 -160.5 57.5t-62.5 153.5q0 94 62.5 151.5t160.5 57.5q94 0 154.5 -58t60.5 -153zM104 1403q0 -49 33 -80t86 -31q51 0 83 31t32 80q0 51 -32 82t-83 31q-53 0 -86 -31t-33 -82z" />
    <glyph glyph-name="ogonek" unicode="&#x2db;" horiz-adv-x="442" 
d="M393 -375q-78 -35 -172 -35q-91 0 -142.5 45t-51.5 123q0 64 45 126t123 108q11 8 26 8h78q15 0 16 -8t-14 -17q-59 -37 -93 -84.5t-34 -87.5q0 -65 84 -65q59 0 100 16q26 7 29 -16l19 -84q6 -20 -13 -29z" />
    <glyph glyph-name="tilde" unicode="&#x2dc;" horiz-adv-x="677" 
d="M657 1395q-17 -57 -64.5 -103.5t-109.5 -46.5q-53 0 -145 49q-3 2 -14.5 8t-15 8t-13.5 7.5t-14.5 7.5t-13 5.5t-13.5 5.5t-12.5 4t-14 2.5t-12.5 0.5q-54 0 -84 -69q-11 -19 -33 -10l-67 39q-20 12 -11 30q22 57 67.5 100.5t105.5 43.5q58 0 149 -52q3 -2 16.5 -9
t19 -9.5t17.5 -8t19 -8.5t17.5 -6t19 -4.5t16.5 -1.5q26 0 43 16t37 54q10 22 31 10l67 -37q18 -10 12 -26z" />
    <glyph glyph-name="hungarumlaut" unicode="&#x2dd;" horiz-adv-x="600" 
d="M92 1223h-74q-14 0 -19 8t1 20l147 271q13 16 29 16h103q13 0 17.5 -8.5t-3.5 -20.5l-172 -272q-11 -14 -29 -14zM387 1223h-74q-13 0 -17.5 8t1.5 20l162 273q11 14 28 14h103q14 0 18.5 -8.5t-2.5 -20.5l-190 -272q-10 -14 -29 -14z" />
    <glyph glyph-name="gravecomb" unicode="&#x300;" horiz-adv-x="366" 
d="M352 1223h-92q-18 0 -29 14l-196 272q-9 12 -5.5 20.5t17.5 8.5h129q18 0 29 -14l166 -273q7 -12 1 -20t-20 -8z" />
    <glyph glyph-name="acutecomb" unicode="&#x301;" horiz-adv-x="370" 
d="M125 1223h-92q-14 0 -20 8t1 20l166 273q10 14 29 14h129q14 0 17.5 -8.5t-5.5 -20.5l-196 -272q-11 -14 -29 -14z" />
    <glyph glyph-name="uni0302" unicode="&#x302;" horiz-adv-x="686" 
d="M156 1223h-103q-15 0 -19 8t5 20l231 273q14 14 29 14h88q19 0 29 -14l229 -273q10 -12 7 -20t-17 -8h-107q-18 0 -28 14l-156 186l-160 -186q-14 -14 -28 -14z" />
    <glyph glyph-name="tildecomb" unicode="&#x303;" horiz-adv-x="675" 
d="M657 1395q-17 -57 -64.5 -103.5t-109.5 -46.5q-53 0 -145 49q-3 2 -14.5 8t-15 8t-13.5 7.5t-14.5 7.5t-13 5.5t-13.5 5.5t-12.5 4t-14 2.5t-12.5 0.5q-54 0 -84 -69q-11 -19 -33 -10l-67 39q-20 12 -11 30q22 57 67.5 100.5t105.5 43.5q58 0 149 -52q3 -2 16.5 -9
t19 -9.5t17.5 -8t19 -8.5t17.5 -6t19 -4.5t16.5 -1.5q26 0 43 16t37 54q10 22 31 10l67 -37q18 -10 12 -26z" />
    <glyph glyph-name="uni0304" unicode="&#x304;" horiz-adv-x="561" 
d="M0 1292v88q0 11 6.5 18t16.5 7h516q22 0 22 -25v-88q0 -22 -22 -22h-516q-23 0 -23 22z" />
    <glyph glyph-name="uni0306" unicode="&#x306;" horiz-adv-x="634" 
d="M633 1499q-14 -125 -97 -200.5t-221 -75.5q-136 0 -217 74.5t-96 199.5q-1 10 5 17.5t16 9.5l81 10q21 3 27 -18q28 -164 184 -164q161 0 189 164q3 21 26 18l80 -10q26 -4 23 -25z" />
    <glyph glyph-name="uni0307" unicode="&#x307;" horiz-adv-x="249" 
d="M227 1356q0 -43 -29 -73t-73 -30q-43 0 -72.5 30t-29.5 73q0 44 29.5 73t72.5 29q44 0 73 -29t29 -73z" />
    <glyph glyph-name="uni0308" unicode="&#x308;" horiz-adv-x="598" 
d="M199 1356q0 -44 -27 -70t-70 -26q-42 0 -69 26t-27 70q0 45 27 71.5t69 26.5q43 0 70 -26.5t27 -71.5zM592 1356q0 -44 -27 -70t-69 -26q-43 0 -71 26t-28 70q0 45 27.5 71.5t71.5 26.5q42 0 69 -26.5t27 -71.5z" />
    <glyph glyph-name="uni030A" unicode="&#x30a;" horiz-adv-x="444" 
d="M440 1403q0 -96 -60.5 -152.5t-154.5 -56.5q-98 0 -160.5 57.5t-62.5 153.5q0 94 62.5 151.5t160.5 57.5q94 0 154.5 -58t60.5 -153zM104 1403q0 -49 33 -80t86 -31q51 0 83 31t32 80q0 51 -32 82t-83 31q-53 0 -86 -31t-33 -82z" />
    <glyph glyph-name="uni030B" unicode="&#x30b;" horiz-adv-x="612" 
d="M92 1223h-74q-14 0 -19 8t1 20l147 271q13 16 29 16h103q13 0 17.5 -8.5t-3.5 -20.5l-172 -272q-11 -14 -29 -14zM387 1223h-74q-13 0 -17.5 8t1.5 20l162 273q11 14 28 14h103q14 0 18.5 -8.5t-2.5 -20.5l-190 -272q-10 -14 -29 -14z" />
    <glyph glyph-name="uni030C" unicode="&#x30c;" horiz-adv-x="636" 
d="M53 1538h103q14 0 28 -14l160 -187l156 187q10 14 28 14h107q14 0 17 -8.5t-7 -20.5l-229 -272q-10 -14 -29 -14h-88q-15 0 -29 14l-231 272q-9 12 -5 20.5t19 8.5z" />
    <glyph glyph-name="uni0312" unicode="&#x312;" horiz-adv-x="256" 
d="M143 1223h-112q-12 0 -18.5 8t-0.5 18l113 281q5 18 27 18h77q12 0 17.5 -7t1.5 -19l-80 -279q-7 -20 -25 -20z" />
    <glyph glyph-name="uni0326" unicode="&#x326;" horiz-adv-x="235" 
d="M102 -483h-73q-27 0 -21 24l70 285q6 20 26 20h105q25 0 18 -26l-98 -285q-6 -18 -27 -18z" />
    <glyph glyph-name="uni0327" unicode="&#x327;" horiz-adv-x="403" 
d="M395 -250q0 -81 -64.5 -125.5t-172.5 -44.5q-60 0 -119 19q-19 5 -19 26v49q0 24 27 21q46 -14 92 -14q123 0 123 79q0 73 -129 76q-21 0 -29 17q-4 9 2 22l48 115q6 18 26 18h56q12 0 17.5 -7.5t0.5 -18.5l-35 -84q80 -5 128 -44.5t48 -103.5z" />
    <glyph glyph-name="uni0328" unicode="&#x328;" horiz-adv-x="378" 
d="M367 -375q-78 -35 -172 -35q-91 0 -143 45t-52 123q0 64 45 126t123 108q11 8 27 8h77q15 0 16 -8t-14 -17q-59 -37 -93 -84.5t-34 -87.5q0 -65 84 -65q60 0 101 16q25 6 28 -16l19 -84q6 -20 -12 -29z" />
    <glyph glyph-name="uni0335" unicode="&#x335;" horiz-adv-x="692" 
d="M670 1198h-647q-23 0 -23 23v73q0 23 23 23h647q22 0 22 -23v-73q0 -23 -22 -23z" />
    <glyph glyph-name="uni0336" unicode="&#x336;" horiz-adv-x="1083" 
d="M0 504v74q0 22 23 22h1038q22 0 22 -22v-74q0 -25 -22 -25h-1038q-10 0 -16.5 7t-6.5 18z" />
    <glyph glyph-name="uni0337" unicode="&#x337;" horiz-adv-x="577" 
d="M14 668l535 477q11 9 20 4.5t9 -19.5v-106q0 -17 -15 -29l-534 -477q-11 -10 -20 -6t-9 18v109q0 18 14 29z" />
    <glyph glyph-name="uni0338" unicode="&#x338;" horiz-adv-x="1112" 
d="M180 -84h-102q-13 0 -18 8.5t1 20.5l844 1575q6 16 27 16h102q13 0 18 -8.5t-1 -20.5l-844 -1575q-5 -16 -27 -16z" />
    <glyph glyph-name="tonos" unicode="&#x384;" horiz-adv-x="368" 
d="M125 1223h-92q-14 0 -20 8t1 20l166 273q10 14 29 14h129q14 0 17.5 -8.5t-5.5 -20.5l-196 -272q-11 -14 -29 -14z" />
    <glyph glyph-name="dieresistonos" unicode="&#x385;" horiz-adv-x="679" 
d="M317 1225h-69q-12 0 -18 7t-3 19l109 269q6 18 26 18h105q12 0 16.5 -8t-0.5 -19l-139 -270q-5 -16 -27 -16zM180 1356q0 -40 -25 -64t-65 -24q-39 0 -64.5 24.5t-25.5 63.5q0 41 25.5 65.5t64.5 24.5q40 0 65 -24.5t25 -65.5zM680 1356q0 -39 -24.5 -63.5t-63.5 -24.5
q-40 0 -66 24.5t-26 63.5q0 41 26 65.5t66 24.5q39 0 63.5 -24.5t24.5 -65.5z" />
    <glyph glyph-name="Alphatonos" unicode="&#x386;" horiz-adv-x="1347" 
d="M186 1149h-92q-14 0 -19.5 8.5t1.5 20.5l166 272q10 14 28 14h129q14 0 18 -8t-5 -20l-197 -273q-11 -14 -29 -14zM254 0h-137q-26 0 -19 27l510 1419q6 18 25 18h162q20 0 26 -18l508 -1419q4 -12 -1 -19.5t-17 -7.5h-137q-21 0 -27 18l-125 365h-614l-127 -365
q-6 -18 -27 -18zM711 1270l-250 -725h508l-250 725h-8z" />
    <glyph glyph-name="Epsilontonos" unicode="&#x388;" horiz-adv-x="1507" 
d="M133 1149h-92q-14 0 -19.5 8.5t1.5 20.5l165 272q11 14 29 14h129q14 0 17.5 -8t-5.5 -20l-196 -273q-10 -14 -29 -14zM680 664v-504h704q23 0 23 -23v-114q0 -23 -23 -23h-856q-24 0 -24 23v1419q0 22 24 22h828q22 0 22 -22v-115q0 -22 -22 -22h-676v-480h629
q22 0 22 -24v-113q0 -24 -22 -24h-629z" />
    <glyph glyph-name="Etatonos" unicode="&#x389;" horiz-adv-x="1728" 
d="M133 1149h-92q-14 0 -19.5 8.5t1.5 20.5l165 272q11 14 29 14h129q14 0 17.5 -8t-5.5 -20l-196 -273q-10 -14 -29 -14zM1372 823v619q0 22 25 22h127q22 0 22 -22v-1419q0 -23 -22 -23h-127q-25 0 -25 23v641h-684v-641q0 -23 -22 -23h-127q-25 0 -25 23v1419q0 22 25 22
h127q22 0 22 -22v-619h684z" />
    <glyph glyph-name="Iotatonos" unicode="&#x38a;" horiz-adv-x="884" 
d="M133 1149h-92q-14 0 -19.5 8.5t1.5 20.5l165 272q11 14 29 14h129q14 0 17.5 -8t-5.5 -20l-196 -273q-10 -14 -29 -14zM702 1442v-1419q0 -23 -22 -23h-127q-25 0 -25 23v1419q0 22 25 22h127q22 0 22 -22z" />
    <glyph glyph-name="Omicrontonos" unicode="&#x38c;" horiz-adv-x="1632" 
d="M137 1149h-92q-14 0 -19.5 8.5t1.5 20.5l166 272q10 14 28 14h129q14 0 17.5 -8t-5.5 -20l-196 -273q-11 -14 -29 -14zM1501 514q0 -248 -150 -392.5t-409 -144.5t-409 144.5t-150 392.5v432q0 252 149.5 396.5t409.5 144.5t409.5 -144.5t149.5 -396.5v-432zM559 514
q0 -174 100.5 -272.5t282.5 -98.5t281.5 98.5t99.5 272.5v432q0 180 -99.5 279.5t-281.5 99.5q-183 0 -283 -99.5t-100 -279.5v-432z" />
    <glyph glyph-name="Upsilontonos" unicode="&#x38e;" horiz-adv-x="1638" 
d="M154 1149h-93q-14 0 -19.5 8.5t1.5 20.5l166 272q10 14 29 14h129q14 0 17.5 -8t-5.5 -20l-197 -273q-11 -14 -28 -14zM1120 0h-129q-22 0 -22 23v534l-482 879q-6 12 -1 20t18 8h147q22 0 27 -16l379 -731l377 731q5 16 26 16h148q13 0 17.5 -8t-1.5 -20l-479 -883v-530
q0 -23 -25 -23z" />
    <glyph glyph-name="Omegatonos" unicode="&#x38f;" horiz-adv-x="1632" 
d="M784 0h-428q-24 0 -24 23v108q0 25 24 25h172q-182 161 -182 405v369q0 263 149 410t416 147q266 0 415 -147.5t149 -409.5v-369q0 -243 -183 -405h174q10 0 16.5 -7t6.5 -18v-108q0 -23 -23 -23h-430q-22 0 -22 23v88q0 17 18 26q124 50 193 159t69 265v369
q0 192 -98.5 293.5t-284.5 101.5q-187 0 -286 -101.5t-99 -293.5v-369q0 -156 68.5 -265t193.5 -159q21 -11 21 -26v-88q0 -10 -7 -16.5t-18 -6.5zM141 1149h-92q-14 0 -19.5 8.5t1.5 20.5l166 272q10 14 28 14h129q14 0 18 -8t-5 -20l-197 -273q-11 -14 -29 -14z" />
    <glyph glyph-name="iotadieresistonos" unicode="&#x390;" horiz-adv-x="450" 
d="M287 0h-121q-11 0 -18 6.5t-7 16.5v1011q0 10 7.5 17.5t17.5 7.5h121q22 0 22 -25v-1011q0 -23 -22 -23zM113 1362q0 -38 -24 -62t-62 -24q-37 0 -61.5 24t-24.5 62t24.5 62t61.5 24q38 0 62 -24t24 -62zM219 1225h-63q-12 0 -17.5 7t-1.5 19l96 246q6 19 27 19h96
q13 0 18 -8.5t-1 -20.5l-127 -246q-8 -16 -27 -16zM557 1362q0 -38 -23 -62t-61 -24t-62 24t-24 62t24 62t62 24t61 -24t23 -62z" />
    <glyph glyph-name="Alpha" unicode="&#x391;" horiz-adv-x="1267" 
d="M174 0h-137q-26 0 -19 27l510 1419q6 18 25 18h162q20 0 26 -18l508 -1419q4 -12 -1 -19.5t-17 -7.5h-137q-21 0 -27 18l-125 365h-614l-127 -365q-6 -18 -27 -18zM631 1270l-250 -725h508l-250 725h-8z" />
    <glyph glyph-name="Beta" unicode="&#x392;" horiz-adv-x="1304" 
d="M1143 1079q0 -103 -46.5 -181.5t-127.5 -117.5q113 -41 174 -134.5t61 -221.5q0 -200 -132.5 -312t-371.5 -112h-493q-25 0 -25 23v1419q0 22 25 22h495q215 0 328 -103.5t113 -281.5zM356 158h346q155 0 240.5 66.5t85.5 199.5q0 126 -78.5 198t-234.5 72h-359v-536z
M967 1079q0 106 -68.5 167t-196.5 61h-346v-455h359q116 0 184 57.5t68 169.5z" />
    <glyph glyph-name="Gamma" unicode="&#x393;" horiz-adv-x="1044" 
d="M334 0h-127q-11 0 -18 6.5t-7 16.5v1419q0 22 25 22h788q25 0 25 -22v-115q0 -22 -25 -22h-637v-1282q0 -23 -24 -23z" />
    <glyph glyph-name="uni0394" unicode="&#x394;" horiz-adv-x="1277" 
d="M1241 0h-1204q-26 0 -19 27l508 1419q6 18 27 18h174q21 0 27 -18l506 -1419q4 -12 -1.5 -19.5t-17.5 -7.5zM637 1270l-387 -1110h780l-387 1110h-6z" />
    <glyph glyph-name="Epsilon" unicode="&#x395;" 
d="M358 664v-504h705q22 0 22 -23v-114q0 -23 -22 -23h-856q-25 0 -25 23v1419q0 22 25 22h827q23 0 23 -22v-115q0 -22 -23 -22h-676v-480h629q23 0 23 -24v-113q0 -24 -23 -24h-629z" />
    <glyph glyph-name="Zeta" unicode="&#x396;" horiz-adv-x="1204" 
d="M1106 0h-1010q-22 0 -22 23v79q0 18 8 29l795 1174h-746q-25 0 -25 22v115q0 22 25 22h956q23 0 23 -22v-78q0 -18 -8 -31l-793 -1173h797q22 0 22 -23v-114q0 -23 -22 -23z" />
    <glyph glyph-name="Eta" unicode="&#x397;" horiz-adv-x="1396" 
d="M1040 823v619q0 22 25 22h127q22 0 22 -22v-1419q0 -23 -22 -23h-127q-25 0 -25 23v641h-684v-641q0 -23 -22 -23h-127q-25 0 -25 23v1419q0 22 25 22h127q22 0 22 -22v-619h684z" />
    <glyph glyph-name="Theta" unicode="&#x398;" horiz-adv-x="1392" 
d="M1262 514q0 -248 -152 -392.5t-414 -144.5t-413.5 144.5t-151.5 392.5v432q0 252 151 396.5t414 144.5t414.5 -144.5t151.5 -396.5v-432zM307 514q0 -174 102 -272.5t287 -98.5t286 98.5t101 272.5v432q0 181 -101 280t-286 99q-186 0 -287.5 -99.5t-101.5 -279.5v-432z
M969 672h-545q-25 0 -25 24v97q0 22 25 22h545q24 0 24 -22v-97q0 -24 -24 -24z" />
    <glyph glyph-name="Iota" unicode="&#x399;" horiz-adv-x="538" 
d="M356 1442v-1419q0 -23 -22 -23h-127q-25 0 -25 23v1419q0 22 25 22h127q22 0 22 -22z" />
    <glyph glyph-name="Kappa" unicode="&#x39a;" horiz-adv-x="1257" 
d="M334 0h-127q-25 0 -25 23v1419q0 22 25 22h127q22 0 22 -22v-678l633 686q14 14 31 14h164q15 0 19.5 -9t-5.5 -19l-588 -631l629 -776q9 -12 4.5 -20.5t-18.5 -8.5h-166q-21 0 -29 14l-536 668l-138 -141v-518q0 -23 -22 -23z" />
    <glyph glyph-name="Lambda" unicode="&#x39b;" horiz-adv-x="1277" 
d="M176 0h-139q-26 0 -19 27l508 1419q6 18 27 18h174q21 0 27 -18l506 -1419q4 -12 -1.5 -19.5t-17.5 -7.5h-137q-24 0 -27 18l-305 871l-129 383h-6l-129 -381l-305 -873q-6 -18 -27 -18z" />
    <glyph glyph-name="Mu" unicode="&#x39c;" horiz-adv-x="1746" 
d="M334 0h-127q-25 0 -25 23v1419q0 22 25 22h155q19 0 27 -16l318 -578q78 -143 163 -323h7q89 187 163 321l320 580q5 16 26 16h156q23 0 23 -22v-1419q0 -23 -23 -23h-129q-22 0 -22 23v618q0 207 12 555l-4 2q-43 -87 -187 -360l-256 -476q-10 -16 -28 -16h-109
q-20 0 -26 16l-256 476q-126 232 -187 360l-4 -2q10 -435 10 -555v-618q0 -23 -22 -23z" />
    <glyph glyph-name="Nu" unicode="&#x39d;" horiz-adv-x="1441" 
d="M332 0h-125q-25 0 -25 23v1419q0 22 25 22h143q19 0 29 -16l543 -885q143 -244 172 -299l6 2q-13 276 -13 555v621q0 22 23 22h127q23 0 23 -22v-1419q0 -23 -23 -23h-143q-21 0 -29 14l-539 854q-102 166 -178 312l-4 -2q12 -324 12 -535v-620q0 -23 -24 -23z" />
    <glyph glyph-name="Xi" unicode="&#x39e;" horiz-adv-x="1142" 
d="M995 1305h-850q-22 0 -22 22v115q0 22 22 22h850q25 0 25 -22v-115q0 -22 -25 -22zM950 662h-757q-23 0 -23 24v113q0 22 23 22h757q25 0 25 -22v-113q0 -24 -25 -24zM1020 0h-899q-23 0 -23 23v116q0 23 23 23h899q24 0 24 -23v-116q0 -23 -24 -23z" />
    <glyph glyph-name="Omicron" unicode="&#x39f;" horiz-adv-x="1380" 
d="M1249 514q0 -248 -150 -392.5t-409 -144.5t-409 144.5t-150 392.5v432q0 252 149.5 396.5t409.5 144.5t409.5 -144.5t149.5 -396.5v-432zM307 514q0 -174 100.5 -272.5t282.5 -98.5t281.5 98.5t99.5 272.5v432q0 180 -99.5 279.5t-281.5 99.5q-183 0 -283 -99.5
t-100 -279.5v-432z" />
    <glyph glyph-name="Pi" unicode="&#x3a0;" horiz-adv-x="1402" 
d="M336 0h-129q-11 0 -18 6.5t-7 16.5v1419q0 22 25 22h989q25 0 25 -22v-1419q0 -23 -25 -23h-129q-23 0 -23 23v1282h-686v-1282q0 -23 -22 -23z" />
    <glyph glyph-name="Rho" unicode="&#x3a1;" horiz-adv-x="1280" 
d="M205 1464h493q242 0 375 -127t133 -352q0 -228 -133.5 -354.5t-374.5 -126.5h-342v-481q0 -23 -22 -23h-129q-23 0 -23 23v1419q0 22 23 22zM356 666h324q350 0 350 319q0 318 -350 318h-324v-637z" />
    <glyph glyph-name="Sigma" unicode="&#x3a3;" horiz-adv-x="1130" 
d="M104 1464h912q24 0 24 -22v-113q0 -22 -24 -22h-678q3 -3 399 -535q10 -16 0 -35l-286 -403q-68 -99 -132 -174h697q24 0 24 -25v-112q0 -23 -24 -23h-912q-22 0 -22 23v71q0 18 8 29l453 633l-451 594q-10 13 -10 30v62q0 22 22 22z" />
    <glyph glyph-name="Tau" unicode="&#x3a4;" horiz-adv-x="1148" 
d="M47 1464h1053q24 0 24 -22v-115q0 -22 -24 -22h-438v-1282q0 -10 -7 -16.5t-18 -6.5h-127q-11 0 -18 6.5t-7 16.5v1282h-438q-22 0 -22 22v115q0 22 22 22z" />
    <glyph glyph-name="Upsilon" unicode="&#x3a5;" horiz-adv-x="1163" 
d="M645 0h-129q-22 0 -22 23v534l-482 879q-6 12 -1 20t18 8h147q22 0 27 -16l379 -731l376 731q5 16 27 16h148q13 0 17.5 -8t-1.5 -20l-479 -883v-530q0 -23 -25 -23z" />
    <glyph glyph-name="Phi" unicode="&#x3a6;" horiz-adv-x="1755" 
d="M942 -135h-129q-22 0 -22 22v158h-121q-106 0 -200.5 32.5t-172.5 97t-124 174t-46 251.5v258q0 114 30.5 208t82 157t122 106t147.5 62.5t161 19.5h121v145q0 25 22 25h129q10 0 16.5 -7t6.5 -18v-145h120q84 0 161 -19.5t147.5 -62.5t122 -106t82 -157t30.5 -208v-258
q0 -142 -46 -251.5t-124 -174t-172.5 -97t-200.5 -32.5h-120v-158q0 -22 -23 -22zM307 600q0 -102 30.5 -179.5t83 -122.5t117.5 -67t140 -22h113v1038h-113q-60 0 -113 -12t-101 -41t-82 -73t-54.5 -111t-20.5 -152v-258zM965 1247v-1038h112q75 0 140 22t118.5 67
t84 122.5t30.5 179.5v258q0 85 -20.5 152t-55 111t-83 73t-101.5 41t-113 12h-112z" />
    <glyph glyph-name="Chi" unicode="&#x3a7;" horiz-adv-x="1208" 
d="M707 735l458 -706q8 -11 3.5 -20t-17.5 -9h-158q-18 0 -28 16l-359 582l-360 -582q-10 -16 -29 -16h-158q-13 0 -18.5 9t2.5 20l461 706l-438 701q-8 10 -3 19t19 9h156q16 0 26 -16l342 -571l340 571q10 16 27 16h155q12 0 17 -9t-2 -19z" />
    <glyph glyph-name="Psi" unicode="&#x3a8;" horiz-adv-x="1671" 
d="M899 0h-129q-25 0 -25 23v299h-114q-101 0 -191.5 32t-162 92.5t-114 156.5t-42.5 214v625q0 22 22 22h131q25 0 25 -22v-625q0 -160 98.5 -246t251.5 -86h96v957q0 22 25 22h129q23 0 23 -22v-957h100q153 0 251.5 86t98.5 246v625q0 22 23 22h133q22 0 22 -22v-625
q0 -118 -42.5 -214t-114 -156.5t-162 -92.5t-191.5 -32h-118v-299q0 -23 -23 -23z" />
    <glyph glyph-name="uni03A9" unicode="&#x3a9;" horiz-adv-x="1443" 
d="M596 0h-428q-25 0 -25 23v108q0 25 25 25h172q-182 161 -182 405v369q0 263 149 410t416 147q265 0 414 -147t149 -410v-369q0 -244 -182 -405h174q22 0 22 -25v-108q0 -23 -22 -23h-430q-23 0 -23 23v88q0 17 19 26q124 50 193 159t69 265v369q0 192 -98.5 293.5
t-284.5 101.5q-187 0 -286 -101.5t-99 -293.5v-369q0 -156 68.5 -265t193.5 -159q21 -11 21 -26v-88q0 -10 -7 -16.5t-18 -6.5z" />
    <glyph glyph-name="Iotadieresis" unicode="&#x3aa;" horiz-adv-x="538" 
d="M332 0h-127q-23 0 -23 23v1419q0 22 23 22h127q24 0 24 -22v-1419q0 -23 -24 -23zM188 1755q0 -44 -28.5 -72t-71.5 -28t-71.5 28t-28.5 72t28.5 73.5t71.5 29.5t71.5 -29.5t28.5 -73.5zM551 1755q0 -44 -28 -72t-74 -28q-44 0 -72.5 28t-28.5 72t28.5 73.5t72.5 29.5
q45 0 73.5 -29t28.5 -74z" />
    <glyph glyph-name="Upsilondieresis" unicode="&#x3ab;" horiz-adv-x="1163" 
d="M473 1735q0 -44 -28.5 -72.5t-71.5 -28.5q-44 0 -72.5 28.5t-28.5 72.5t28.5 73t72.5 29q43 0 71.5 -29t28.5 -73zM891 1735q0 -44 -29.5 -72.5t-73.5 -28.5t-72 28.5t-28 72.5t28 73t72 29t73.5 -29t29.5 -73zM645 0h-129q-22 0 -22 23v534l-482 879q-6 12 -1 20t18 8
h147q22 0 27 -16l379 -731l376 731q5 16 27 16h148q13 0 17.5 -8t-1.5 -20l-479 -883v-530q0 -23 -25 -23z" />
    <glyph glyph-name="alphatonos" unicode="&#x3ac;" horiz-adv-x="1107" 
d="M813 117q-60 -67 -141.5 -103.5t-171.5 -36.5q-84 0 -154.5 24.5t-125.5 74t-86.5 132t-31.5 191.5v254q0 105 36.5 187.5t99 134.5t144 79t175.5 27q180 0 393 -73q19 -6 19 -27v-958q0 -23 -23 -23h-100q-22 0 -25 23zM272 399q0 -141 62 -206.5t190 -65.5
q70 0 144.5 34.5t132.5 98.5v637q-122 35 -250 35q-122 0 -200.5 -73t-78.5 -206v-254zM553 1223h-92q-14 0 -20 8t1 20l166 273q10 14 29 14h129q14 0 17.5 -8.5t-5.5 -20.5l-196 -272q-10 -14 -29 -14z" />
    <glyph glyph-name="epsilontonos" unicode="&#x3ad;" horiz-adv-x="995" 
d="M518 127q169 0 318 129q16 14 32 -2l66 -78q15 -18 0 -33q-97 -91 -198 -128.5t-226 -37.5q-184 0 -303 94.5t-119 239.5q0 184 180 248q-143 68 -143 215q0 134 109.5 220.5t285.5 86.5q222 0 385 -137q16 -14 2 -35l-61 -78q-17 -17 -35 -2q-125 105 -289 105
q-105 0 -167 -41.5t-62 -120.5q0 -74 53.5 -117t145.5 -43h202q23 0 23 -24v-82q0 -25 -23 -25h-205q-111 0 -171 -42.5t-60 -125.5q0 -88 69.5 -137t190.5 -49zM506 1223h-92q-14 0 -20 8t1 20l166 273q11 14 29 14h129q14 0 17.5 -8.5t-5.5 -20.5l-196 -272
q-11 -14 -29 -14z" />
    <glyph glyph-name="etatonos" unicode="&#x3ae;" horiz-adv-x="1140" 
d="M573 1223h-92q-14 0 -19.5 8t1.5 20l166 273q11 14 28 14h129q14 0 18 -8.5t-5 -20.5l-197 -272q-10 -14 -29 -14zM283 0h-121q-23 0 -23 23v950q0 19 17 28q191 80 393 80q216 0 338.5 -108t122.5 -334v-616q0 -23 -25 -23h-121q-22 0 -22 23v612q0 155 -75 225t-218 70
q-125 0 -242 -37v-870q0 -23 -24 -23z" />
    <glyph glyph-name="iotatonos" unicode="&#x3af;" horiz-adv-x="450" 
d="M233 1223h-92q-14 0 -19.5 8t1.5 20l166 273q10 14 28 14h129q14 0 18 -8.5t-5 -20.5l-197 -272q-11 -14 -29 -14zM285 0h-121q-23 0 -23 23v1011q0 11 6.5 18t16.5 7h121q24 0 24 -25v-1011q0 -23 -24 -23z" />
    <glyph glyph-name="upsilondieresistonos" unicode="&#x3b0;" horiz-adv-x="1142" 
d="M1010 383q0 -181 -124.5 -294.5t-314.5 -111.5q-190 0 -314 112.5t-124 293.5v651q0 25 25 25h121q22 0 22 -25v-651q0 -122 73.5 -188t196.5 -68q122 0 196.5 66.5t74.5 189.5v651q0 25 22 25h121q25 0 25 -25v-651zM551 1225h-70q-12 0 -17.5 7t-2.5 19l108 269
q6 18 27 18h104q12 0 17 -8t0 -19l-139 -270q-5 -16 -27 -16zM414 1356q0 -40 -25 -64t-65 -24q-39 0 -65 24.5t-26 63.5q0 40 26 65t65 25q40 0 65 -24.5t25 -65.5zM913 1356q0 -39 -24.5 -63.5t-63.5 -24.5q-40 0 -66 24.5t-26 63.5q0 41 26 65.5t66 24.5q39 0 63.5 -24.5
t24.5 -65.5z" />
    <glyph glyph-name="alpha" unicode="&#x3b1;" horiz-adv-x="1107" 
d="M813 117q-60 -67 -141.5 -103.5t-171.5 -36.5q-84 0 -154.5 24.5t-125.5 74t-86.5 132t-31.5 191.5v254q0 105 36.5 187.5t99 134.5t144 79t175.5 27q180 0 393 -73q19 -6 19 -27v-958q0 -23 -23 -23h-100q-22 0 -25 23zM272 399q0 -141 62 -206.5t190 -65.5
q70 0 144.5 34.5t132.5 98.5v637q-122 35 -250 35q-122 0 -200.5 -73t-78.5 -206v-254z" />
    <glyph glyph-name="beta" unicode="&#x3b2;" horiz-adv-x="1103" 
d="M961 1090q1 -112 -50.5 -193.5t-140.5 -128.5q117 -37 180.5 -129.5t63.5 -230.5q0 -206 -120 -317t-321 -114q-141 -3 -268 60v-402q0 -24 -22 -24h-119q-23 0 -23 24v1448q0 197 112.5 300.5t295.5 103.5q186 0 299 -105.5t113 -291.5zM305 193q110 -66 250 -66
q147 0 220 68.5t73 214.5q0 133 -71.5 198.5t-221.5 65.5h-123q-24 0 -24 22v103q0 11 7 17.5t17 6.5h125q108 0 174 70t66 188q0 127 -68 191.5t-180 64.5q-117 0 -180.5 -70.5t-63.5 -187.5v-886z" />
    <glyph glyph-name="gamma" unicode="&#x3b3;" horiz-adv-x="1021" 
d="M571 -391h-118q-25 0 -25 22v385l-395 1014q-5 12 0.5 20.5t17.5 8.5h131q23 0 27 -19l174 -481q47 -126 127 -379h4q9 28 36.5 113.5t50.5 156t38 109.5l172 481q8 19 27 19h133q12 0 17.5 -8.5t0.5 -20.5l-395 -1014v-385q0 -22 -23 -22z" />
    <glyph glyph-name="delta" unicode="&#x3b4;" horiz-adv-x="1095" 
d="M311 1192q0 -39 28 -73.5t81.5 -63t104 -48.5t122.5 -44q167 -55 258.5 -149.5t91.5 -246.5v-198q0 -124 -65 -215t-164.5 -134t-216.5 -43q-119 0 -220 43t-167 133.5t-66 213.5v208q0 131 73 224t196 137q-106 52 -164 114.5t-58 147.5q0 125 110.5 207t307.5 82
q189 0 348 -90q20 -13 11 -31l-52 -98q-12 -19 -34 -8q-139 77 -283 77q-110 0 -176 -39t-66 -106zM551 127q117 0 197.5 62.5t80.5 185.5v186q0 118 -79 188t-209 97q-125 -11 -199 -83t-74 -192v-200q0 -115 81 -179.5t202 -64.5z" />
    <glyph glyph-name="epsilon" unicode="&#x3b5;" horiz-adv-x="995" 
d="M518 127q169 0 318 129q16 14 32 -2l66 -78q15 -18 0 -33q-97 -91 -198 -128.5t-226 -37.5q-184 0 -303 94.5t-119 239.5q0 184 180 248q-143 68 -143 215q0 134 109.5 220.5t285.5 86.5q222 0 385 -137q16 -14 2 -35l-61 -78q-17 -17 -35 -2q-125 105 -289 105
q-105 0 -167 -41.5t-62 -120.5q0 -74 53.5 -117t145.5 -43h202q23 0 23 -24v-82q0 -25 -23 -25h-205q-111 0 -171 -42.5t-60 -125.5q0 -88 69.5 -137t190.5 -49z" />
    <glyph glyph-name="zeta" unicode="&#x3b6;" horiz-adv-x="952" 
d="M850 -82q0 -121 -150 -291q-16 -16 -32 -2l-78 62q-18 15 -2 34q100 115 100 175q0 19 -11.5 33.5t-41 28t-50.5 20.5t-69 22q-37 11 -56 17.5t-56.5 19.5t-59 24.5t-55.5 29t-54.5 36t-46.5 43.5t-41.5 54t-30.5 63.5t-21.5 76.5t-6.5 89q0 219 152 445.5t432 412.5
l-2 2h-504q-25 0 -25 24v105q0 22 25 22h752q22 0 22 -22v-68q0 -20 -16 -28q-315 -196 -491.5 -428.5t-176.5 -436.5q0 -69 19.5 -123.5t57 -92.5t78 -62.5t95.5 -46.5q31 -13 80.5 -30t81.5 -28.5t70 -30t60 -37.5t37 -48t15 -64z" />
    <glyph glyph-name="eta" unicode="&#x3b7;" horiz-adv-x="1140" 
d="M283 0h-121q-23 0 -23 23v950q0 19 17 28q191 80 393 80q216 0 338.5 -108t122.5 -334v-616q0 -23 -25 -23h-121q-22 0 -22 23v612q0 155 -75 225t-218 70q-125 0 -242 -37v-870q0 -23 -24 -23z" />
    <glyph glyph-name="theta" unicode="&#x3b8;" horiz-adv-x="1183" 
d="M1053 416q0 -209 -128 -325t-333 -114q-203 0 -332 115.5t-129 323.5v628q0 207 129.5 325t331.5 118q203 2 332 -117t129 -326v-628zM301 1044v-223h582v223q0 143 -79 219t-212 74q-130 0 -210.5 -76t-80.5 -217zM301 410q0 -137 76.5 -210t214.5 -73q138 -2 215.5 72
t77.5 211v264h-584v-264z" />
    <glyph glyph-name="iota" unicode="&#x3b9;" horiz-adv-x="450" 
d="M285 0h-121q-23 0 -23 23v1011q0 11 6.5 18t16.5 7h121q24 0 24 -25v-1011q0 -23 -24 -23z" />
    <glyph glyph-name="kappa" unicode="&#x3ba;" horiz-adv-x="1013" 
d="M983 0h-143q-20 0 -31 14l-387 465l-117 -117v-339q0 -23 -24 -23h-117q-23 0 -23 23v1011q0 11 6.5 18t16.5 7h117q10 0 17 -7t7 -18v-465l471 478q10 12 29 12h147q14 0 18.5 -9.5t-5.5 -19.5l-430 -434l462 -567q9 -12 4.5 -20.5t-18.5 -8.5z" />
    <glyph glyph-name="lambda" unicode="&#x3bb;" horiz-adv-x="1140" 
d="M279 0h-121q-25 0 -25 23v577q0 108 34 188.5t96 128t140.5 70.5t174.5 23q124 0 260 -52v144q0 115 -72.5 175t-198.5 60q-82 0 -160 -26.5t-133 -69.5q-19 -16 -34 2l-58 84q-16 15 2 33q68 59 170 93t215 34q89 0 165.5 -24t136.5 -71t94 -124t34 -176v-1069
q0 -23 -22 -23h-121q-11 0 -18 6.5t-7 16.5v784q-128 53 -251 53q-136 0 -207.5 -61.5t-71.5 -200.5v-575q0 -23 -22 -23z" />
    <glyph glyph-name="uni03BC" unicode="&#x3bc;" horiz-adv-x="1161" 
d="M285 -391h-121q-23 0 -23 22v1403q0 11 6.5 18t16.5 7h121q24 0 24 -25v-633q0 -120 72 -197t199 -77q129 0 200.5 77t71.5 197v633q0 25 25 25h120q10 0 16.5 -7t6.5 -18v-1011q0 -23 -23 -23h-94q-20 0 -26 20l-11 113q-31 -69 -109.5 -112.5t-176.5 -43.5
q-94 0 -166 40t-109 106q0 -11 2 -56t2 -73v-363q0 -22 -24 -22z" />
    <glyph glyph-name="nu" unicode="&#x3bd;" horiz-adv-x="1024" 
d="M584 0h-150q-17 0 -26 18l-375 1012q-5 12 0.5 20.5t17.5 8.5h131q19 0 27 -19l203 -583q11 -31 44.5 -128.5t53.5 -150.5h2q63 187 96 279l205 583q1 7 9.5 13t17.5 6h131q25 0 18 -29l-377 -1012q-9 -18 -28 -18z" />
    <glyph glyph-name="xi" unicode="&#x3be;" horiz-adv-x="944" 
d="M860 -82q0 -120 -149 -289q-13 -20 -33 -4l-78 62q-17 14 -4 34q100 107 100 170q0 12 -5.5 23t-19.5 21t-25.5 17t-38 17t-41 15t-48.5 16q-41 14 -63 21t-63.5 23.5t-66 29.5t-61 35t-58.5 43.5t-47.5 52.5t-39.5 64t-23.5 76t-9.5 91q0 128 71.5 217t198.5 125
q-116 45 -174.5 130t-58.5 200q0 165 118 272t310 107q215 0 377 -131q18 -12 6 -33l-55 -80q-14 -22 -33 -6q-133 100 -299 100q-107 0 -181.5 -62.5t-74.5 -168.5q0 -108 79.5 -179t202.5 -71h164q10 0 16.5 -7t6.5 -18v-104q0 -25 -23 -25h-184q-127 0 -212 -74t-85 -190
q0 -101 61.5 -162t171.5 -106q33 -14 85.5 -32.5t87 -31t75.5 -32.5t65.5 -40t41 -50t16.5 -66z" />
    <glyph glyph-name="omicron" unicode="&#x3bf;" horiz-adv-x="1105" 
d="M1004 379q0 -182 -121.5 -292t-329.5 -110q-206 0 -328.5 110.5t-122.5 291.5v295q0 182 123 294.5t328 112.5q207 0 329 -112.5t122 -294.5v-295zM272 379q0 -117 73 -184.5t208 -67.5q136 0 209.5 67.5t73.5 184.5v295q0 119 -73.5 187.5t-209.5 68.5
q-135 0 -208 -68.5t-73 -187.5v-295z" />
    <glyph glyph-name="pi" unicode="&#x3c0;" horiz-adv-x="1118" 
d="M166 1059h788q10 0 16.5 -7t6.5 -18v-1011q0 -23 -23 -23h-120q-25 0 -25 23v884h-500v-884q0 -23 -22 -23h-121q-25 0 -25 23v1011q0 25 25 25z" />
    <glyph glyph-name="rho" unicode="&#x3c1;" horiz-adv-x="1116" 
d="M274 -389h-116q-25 0 -25 24v1014q0 208 121.5 320t310.5 112q92 0 172 -27t142.5 -78.5t98.5 -135t36 -189.5v-272q0 -194 -124 -298t-327 -104q-133 0 -264 78v-420q0 -24 -25 -24zM299 215q122 -88 258 -88q133 0 211 64.5t78 193.5v262q0 144 -75 214.5t-206 70.5
q-128 0 -197 -71.5t-69 -215.5v-430z" />
    <glyph glyph-name="sigma1" unicode="&#x3c2;" horiz-adv-x="929" 
d="M266 424q0 -38 11 -71t25.5 -57.5t43.5 -48t51.5 -38t63 -32t64.5 -26t69 -24.5q53 -18 81.5 -29t69 -31t61.5 -39t36.5 -47.5t15.5 -62.5q0 -123 -149 -291q-15 -19 -33 -4l-78 64q-19 15 -2 32q100 115 100 172q0 18 -11.5 32t-40 27.5t-51.5 22t-69 23.5l-61.5 20.5
t-62 23t-64.5 28.5t-59.5 34t-57 42.5t-47 51t-38.5 62t-23 73.5t-9 87v291q0 89 34 161t91 117t130 69.5t153 24.5q218 0 371 -104q19 -13 4 -31l-58 -88q-13 -20 -30 -6q-131 78 -285 78q-102 0 -174 -61t-72 -164v-281z" />
    <glyph glyph-name="sigma" unicode="&#x3c3;" horiz-adv-x="1144" 
d="M1001 387q0 -187 -121 -299t-329 -111q-206 0 -328.5 111.5t-122.5 298.5v254q0 189 122.5 303.5t328.5 114.5h516q10 0 16.5 -7t6.5 -18v-102q0 -11 -6.5 -18t-16.5 -7h-190q60 -41 92 -110t32 -156v-254zM268 387q0 -123 73 -190.5t210 -67.5q138 0 211.5 67.5
t73.5 190.5v254q0 128 -75 196t-210 70q-136 0 -209.5 -70.5t-73.5 -195.5v-254z" />
    <glyph glyph-name="tau" unicode="&#x3c4;" horiz-adv-x="919" 
d="M522 0h-123q-22 0 -22 23v884h-320q-10 0 -17 7t-7 18v102q0 11 7 18t17 7h805q25 0 25 -25v-102q0 -25 -25 -25h-317v-884q0 -23 -23 -23z" />
    <glyph glyph-name="upsilon" unicode="&#x3c5;" horiz-adv-x="1142" 
d="M1010 383q0 -181 -124.5 -294.5t-314.5 -111.5q-190 0 -314 112.5t-124 293.5v651q0 25 25 25h121q22 0 22 -25v-651q0 -122 73.5 -188t196.5 -68q122 0 196.5 66.5t74.5 189.5v651q0 25 22 25h121q25 0 25 -25v-651z" />
    <glyph glyph-name="phi" unicode="&#x3c6;" horiz-adv-x="1505" 
d="M813 -389h-121q-22 0 -22 24v365h-164q-84 0 -156.5 25.5t-128 75t-87.5 128.5t-32 179v243q0 189 117 298.5t301 109.5h150v383q0 22 22 22h121q23 0 23 -22v-383h163q184 0 294 -109t110 -299v-243q0 -99 -31.5 -178.5t-86 -128.5t-123 -75t-146.5 -26h-180v-365
q0 -24 -23 -24zM270 412q0 -260 262 -260h138v755h-144q-124 0 -190 -65.5t-66 -196.5v-233zM836 152h137q264 0 264 260v233q0 130 -66.5 196t-189.5 66h-145v-755z" />
    <glyph glyph-name="chi" unicode="&#x3c7;" horiz-adv-x="997" 
d="M602 535l356 -506q8 -12 3.5 -20.5t-17.5 -8.5h-151q-19 0 -27 14l-266 404l-267 -404q-8 -14 -28 -14h-152q-13 0 -17.5 8.5t3.5 20.5l356 506l-334 495q-8 10 -3 19.5t18 9.5h143q16 0 29 -17l252 -389l252 389q13 17 26 17h144q13 0 18.5 -9.5t-2.5 -19.5z" />
    <glyph glyph-name="psi" unicode="&#x3c8;" horiz-adv-x="1554" 
d="M836 -391h-119q-23 0 -23 22v369h-121q-89 0 -167.5 26.5t-140.5 77t-98 133t-36 185.5v612q0 11 6.5 18t16.5 7h120q25 0 25 -25v-606q0 -276 303 -276h92v882q0 11 6.5 18t16.5 7h119q10 0 17 -7t7 -18v-882h92q303 0 303 276v606q0 11 6.5 18t16.5 7h123q22 0 22 -25
v-612q0 -103 -36.5 -185.5t-98.5 -133t-140.5 -77t-166.5 -26.5h-121v-369q0 -22 -24 -22z" />
    <glyph glyph-name="omega" unicode="&#x3c9;" horiz-adv-x="1554" 
d="M1063 958l29 107q2 9 9.5 14t16.5 2q149 -29 239.5 -130t90.5 -257v-338q0 -115 -55 -203.5t-138 -132t-176 -43.5q-212 0 -301 195q-89 -195 -303 -195q-93 0 -176.5 43.5t-139 132t-55.5 203.5v338q0 155 91 256.5t239 130.5q10 3 18.5 -2t10.5 -14l26 -107
q6 -20 -16 -26q-93 -17 -147 -81t-54 -163v-326q0 -105 61.5 -169t147.5 -64q99 0 156 62.5t57 170.5v304q0 22 23 22h121q22 0 22 -22v-304q0 -108 57 -170.5t156 -62.5q85 0 146 64t61 169v326q0 99 -53 163t-146 81q-21 5 -18 26z" />
    <glyph glyph-name="iotadieresis" unicode="&#x3ca;" horiz-adv-x="450" 
d="M285 0h-121q-23 0 -23 23v1011q0 11 6.5 18t16.5 7h121q24 0 24 -25v-1011q0 -23 -24 -23zM176 1356q0 -40 -26.5 -67t-67.5 -27q-40 0 -67 27t-27 67q0 41 27 68.5t67 27.5q41 0 67.5 -27.5t26.5 -68.5zM461 1356q0 -40 -27.5 -67t-68.5 -27t-68 27t-27 67q0 41 27 68.5
t68 27.5t68.5 -27.5t27.5 -68.5z" />
    <glyph glyph-name="upsilondieresis" unicode="&#x3cb;" horiz-adv-x="1142" 
d="M1010 383q0 -181 -124.5 -294.5t-314.5 -111.5q-190 0 -314 112.5t-124 293.5v651q0 25 25 25h121q22 0 22 -25v-651q0 -122 73.5 -188t196.5 -68q122 0 196.5 66.5t74.5 189.5v651q0 25 22 25h121q25 0 25 -25v-651zM473 1356q0 -44 -26.5 -70t-69.5 -26q-42 0 -69 26
t-27 70q0 45 27 71.5t69 26.5q43 0 69.5 -26.5t26.5 -71.5zM866 1356q0 -44 -27 -70t-69 -26q-43 0 -70.5 26t-27.5 70q0 45 27.5 71.5t70.5 26.5q42 0 69 -26.5t27 -71.5z" />
    <glyph glyph-name="omicrontonos" unicode="&#x3cc;" horiz-adv-x="1105" 
d="M520 1223h-92q-14 0 -19.5 8t1.5 20l165 273q11 14 29 14h129q14 0 17.5 -8.5t-5.5 -20.5l-196 -272q-11 -14 -29 -14zM1004 379q0 -182 -121.5 -292t-329.5 -110q-206 0 -328.5 110.5t-122.5 291.5v295q0 182 123 294.5t328 112.5q207 0 329 -112.5t122 -294.5v-295z
M272 379q0 -117 73 -184.5t208 -67.5q136 0 209.5 67.5t73.5 184.5v295q0 119 -73.5 187.5t-209.5 68.5q-135 0 -208 -68.5t-73 -187.5v-295z" />
    <glyph glyph-name="upsilontonos" unicode="&#x3cd;" horiz-adv-x="1142" 
d="M1010 383q0 -181 -124.5 -294.5t-314.5 -111.5q-190 0 -314 112.5t-124 293.5v651q0 25 25 25h121q22 0 22 -25v-651q0 -122 73.5 -188t196.5 -68q122 0 196.5 66.5t74.5 189.5v651q0 25 22 25h121q25 0 25 -25v-651zM582 1223h-93q-14 0 -19.5 8t1.5 20l166 273
q11 14 29 14h129q14 0 17.5 -8.5t-5.5 -20.5l-197 -272q-10 -14 -28 -14z" />
    <glyph glyph-name="omegatonos" unicode="&#x3ce;" horiz-adv-x="1554" 
d="M1063 958l29 107q2 9 9.5 14t16.5 2q149 -29 239.5 -130t90.5 -257v-338q0 -115 -55 -203.5t-138 -132t-176 -43.5q-212 0 -301 195q-89 -195 -303 -195q-93 0 -176.5 43.5t-139 132t-55.5 203.5v338q0 155 91 256.5t239 130.5q10 3 18.5 -2t10.5 -14l26 -107
q6 -20 -16 -26q-93 -17 -147 -81t-54 -163v-326q0 -105 61.5 -169t147.5 -64q99 0 156 62.5t57 170.5v304q0 22 23 22h121q22 0 22 -22v-304q0 -108 57 -170.5t156 -62.5q85 0 146 64t61 169v326q0 99 -53 163t-146 81q-21 5 -18 26zM786 1223h-92q-14 0 -19.5 8t1.5 20
l166 273q10 14 28 14h129q14 0 18 -8.5t-5 -20.5l-197 -272q-11 -14 -29 -14z" />
    <glyph glyph-name="uni0401" unicode="&#x401;" 
d="M535 1755q0 -44 -29 -73t-72 -29q-44 0 -73 29t-29 73t29 73.5t73 29.5q43 0 72 -29.5t29 -73.5zM952 1755q0 -44 -29 -73t-73 -29q-45 0 -73.5 28.5t-28.5 73.5t28.5 74t73.5 29q44 0 73 -29.5t29 -73.5zM358 664v-504h705q22 0 22 -23v-114q0 -23 -22 -23h-856
q-25 0 -25 23v1419q0 22 25 22h827q23 0 23 -22v-115q0 -22 -23 -22h-676v-480h629q23 0 23 -24v-113q0 -24 -23 -24h-629z" />
    <glyph glyph-name="uni0402" unicode="&#x402;" horiz-adv-x="1466" 
d="M659 1014q125 49 256 49q98 0 178.5 -26t141.5 -78.5t95 -139.5t34 -203v-262q0 -184 -80.5 -280.5t-230.5 -96.5q-47 0 -101 7q-22 3 -22 26v107q0 11 7 17t19 5q54 -4 80 -4q79 0 116.5 50t37.5 167v252q0 162 -71.5 231.5t-213.5 69.5q-137 0 -246 -53v-829
q0 -23 -22 -23h-129q-23 0 -23 23v1282h-438q-22 0 -22 22v115q0 22 22 22h1051q24 0 24 -22v-115q0 -22 -24 -22h-439v-291z" />
    <glyph glyph-name="uni0403" unicode="&#x403;" horiz-adv-x="1044" 
d="M334 0h-127q-11 0 -18 6.5t-7 16.5v1419q0 22 25 22h788q25 0 25 -22v-115q0 -22 -25 -22h-637v-1282q0 -23 -24 -23zM836 1894l-248 -272q-11 -14 -29 -14h-106q-14 0 -18 8t3 20l215 273q8 14 27 14h143q14 0 18.5 -9.5t-5.5 -19.5z" />
    <glyph glyph-name="uni0404" unicode="&#x404;" horiz-adv-x="1210" 
d="M1137 133q-95 -79 -215.5 -117.5t-249.5 -38.5q-114 0 -211.5 32t-171 93.5t-115 159t-41.5 221.5v496q0 123 42 221t115 160t169.5 94.5t208.5 32.5q241 0 436 -144q17 -11 4 -30l-66 -96q-12 -18 -34 -5q-150 111 -342 111q-171 0 -265 -92.5t-94 -251.5v-168h559
q25 0 25 -25v-116q0 -25 -25 -25h-559v-160q0 -159 95 -251.5t266 -92.5q211 0 376 127q7 8 16 6t15 -12l68 -94q12 -22 -6 -35z" />
    <glyph glyph-name="uni0405" unicode="&#x405;" horiz-adv-x="1253" 
d="M1161 397q0 -86 -28 -156t-77 -118.5t-117.5 -81.5t-147 -48.5t-166.5 -15.5q-148 0 -267.5 47t-244.5 148q-17 14 -4 33l69 96q13 20 31 6q109 -82 209.5 -122.5t212.5 -41.5q150 0 252 64t102 186q0 50 -18.5 89t-48.5 66.5t-81.5 50t-104 37.5t-130.5 32
q-81 18 -146.5 40t-132 57.5t-110.5 80.5t-72 110t-28 144t27.5 143.5t75.5 109.5t114 75.5t142.5 44.5t162.5 14q135 0 246.5 -39t230.5 -125q21 -12 6 -31l-67 -96q-12 -18 -33 -4q-185 127 -397 133q-150 0 -241 -59.5t-91 -169.5q0 -46 17.5 -82.5t46 -62.5t76.5 -47.5
t97.5 -36.5t120.5 -31q65 -15 115 -28.5t105.5 -34.5t96.5 -44t80 -56t63.5 -72t39 -91t14.5 -113z" />
    <glyph glyph-name="uni0406" unicode="&#x406;" horiz-adv-x="538" 
d="M356 1442v-1419q0 -23 -22 -23h-127q-25 0 -25 23v1419q0 22 25 22h127q22 0 22 -22z" />
    <glyph glyph-name="uni0407" unicode="&#x407;" horiz-adv-x="538" 
d="M356 1442v-1419q0 -23 -22 -23h-129q-23 0 -23 23v1419q0 22 23 22h129q22 0 22 -22zM190 1755q0 -44 -28.5 -72t-71.5 -28q-44 0 -72 28t-28 72q0 45 28 74t72 29q43 0 71.5 -29.5t28.5 -73.5zM553 1755q0 -44 -29 -72t-73 -28q-45 0 -74 28t-29 72t29.5 73.5t73.5 29.5
t73 -29.5t29 -73.5z" />
    <glyph glyph-name="uni0408" unicode="&#x408;" horiz-adv-x="1036" 
d="M862 467q0 -232 -118 -361t-310 -129q-119 0 -214 39.5t-189 120.5q-18 12 -4 33l57 94q12 21 33 4q78 -62 152.5 -93.5t164.5 -31.5q122 0 188 80t66 246v973q0 22 25 22h127q22 0 22 -22v-975z" />
    <glyph glyph-name="uni0409" unicode="&#x409;" horiz-adv-x="2041" 
d="M426 319q-50 -178 -140.5 -252.5t-244.5 -72.5q-23 0 -23 22v117q0 23 23 23q91 2 143 53.5t82 183.5q32 129 52 369.5t38 677.5q3 24 25 24h766q22 0 22 -22v-520h291q245 0 377.5 -116t132.5 -343q0 -222 -134.5 -342.5t-367.5 -120.5h-450q-25 0 -25 23v1280h-467
q-13 -373 -35.5 -606.5t-64.5 -377.5zM1169 758v-594h299q322 0 322 299q0 295 -328 295h-293z" />
    <glyph glyph-name="uni040A" unicode="&#x40a;" horiz-adv-x="2027" 
d="M334 0h-129q-23 0 -23 23v1419q0 22 23 22h129q24 0 24 -22v-565h637v565q0 22 23 22h129q24 0 24 -22v-565h275q250 0 382 -107.5t132 -325.5q0 -213 -136.5 -328.5t-367.5 -115.5h-438q-23 0 -23 23v692h-637v-692q0 -23 -24 -23zM1171 713v-549h287q154 0 238 69
t84 211q0 269 -332 269h-277z" />
    <glyph glyph-name="uni040B" unicode="&#x40b;" horiz-adv-x="1466" 
d="M651 1014q122 49 254 49q98 0 178.5 -26t141.5 -78.5t95 -139.5t34 -203v-593q0 -23 -23 -23h-127q-19 0 -22 23v581q0 161 -72 231t-215 70q-138 0 -244 -53v-829q0 -23 -24 -23h-127q-11 0 -18 6.5t-7 16.5v1282h-428q-22 0 -22 22v115q0 22 22 22h1030q25 0 25 -22
v-115q0 -22 -25 -22h-426v-291z" />
    <glyph glyph-name="uni040C" unicode="&#x40c;" horiz-adv-x="1257" 
d="M930 1894l-248 -272q-11 -14 -29 -14h-106q-14 0 -18 8t3 20l216 273q8 14 26 14h144q14 0 18 -9.5t-6 -19.5zM334 0h-127q-25 0 -25 23v1419q0 22 25 22h127q22 0 22 -22v-678l633 686q14 14 31 14h164q15 0 19.5 -9t-5.5 -19l-588 -631l629 -776q9 -12 4.5 -20.5
t-18.5 -8.5h-166q-21 0 -29 14l-536 668l-138 -141v-518q0 -23 -22 -23z" />
    <glyph glyph-name="uni040E" unicode="&#x40e;" horiz-adv-x="1118" 
d="M449 0h-142q-12 0 -16.5 8t0.5 19l201 438l-476 973q-5 11 0 18.5t17 7.5h143q21 0 29 -18l375 -799l340 799q6 18 26 18h141q12 0 17.5 -8t1.5 -18l-629 -1420q-9 -18 -28 -18zM897 1864q-15 -129 -102 -206t-232 -77q-144 0 -230 76.5t-104 204.5q-3 19 21 26l90 23
q21 3 27 -19q28 -172 196 -172q85 0 135 44.5t62 127.5q5 22 26 19l91 -23q23 -7 20 -24z" />
    <glyph glyph-name="uni040F" unicode="&#x40f;" horiz-adv-x="1400" 
d="M1067 1464h129q23 0 23 -22v-1419q0 -23 -23 -23h-412v-252q0 -24 -22 -24h-121q-23 0 -23 24v252h-411q-11 0 -18 6.5t-7 16.5v1419q0 22 25 22h127q24 0 24 -22v-1282h686v1282q0 22 23 22z" />
    <glyph glyph-name="uni0410" unicode="&#x410;" horiz-adv-x="1267" 
d="M174 0h-137q-26 0 -19 27l510 1419q6 18 25 18h162q20 0 26 -18l508 -1419q4 -12 -1 -19.5t-17 -7.5h-137q-21 0 -27 18l-125 365h-614l-127 -365q-6 -18 -27 -18zM631 1270l-250 -725h508l-250 725h-8z" />
    <glyph glyph-name="uni0411" unicode="&#x411;" horiz-adv-x="1302" 
d="M358 885h353q256 0 379.5 -106t123.5 -333q0 -220 -132.5 -333t-360.5 -113h-514q-11 0 -18 6.5t-7 16.5v1419q0 22 25 22h874q25 0 25 -22v-115q0 -22 -25 -22h-723v-420zM358 160h357q158 0 239.5 68.5t81.5 217.5q0 143 -76.5 211t-246.5 68h-355v-565z" />
    <glyph glyph-name="uni0412" unicode="&#x412;" horiz-adv-x="1304" 
d="M1143 1079q0 -103 -46.5 -181.5t-127.5 -117.5q113 -41 174 -134.5t61 -221.5q0 -200 -132.5 -312t-371.5 -112h-493q-25 0 -25 23v1419q0 22 25 22h495q215 0 328 -103.5t113 -281.5zM356 158h346q155 0 240.5 66.5t85.5 199.5q0 126 -78.5 198t-234.5 72h-359v-536z
M967 1079q0 106 -68.5 167t-196.5 61h-346v-455h359q116 0 184 57.5t68 169.5z" />
    <glyph glyph-name="uni0413" unicode="&#x413;" horiz-adv-x="1044" 
d="M334 0h-127q-11 0 -18 6.5t-7 16.5v1419q0 22 25 22h788q25 0 25 -22v-115q0 -22 -25 -22h-637v-1282q0 -23 -24 -23z" />
    <glyph glyph-name="uni0414" unicode="&#x414;" horiz-adv-x="1406" 
d="M172 -281h-125q-24 0 -24 25v395q0 23 24 23h57q78 26 123.5 140.5t76.5 378t56 759.5q0 24 25 24h772q25 0 25 -22v-1280h121q24 0 24 -23v-395q0 -25 -24 -25h-125q-10 0 -17.5 7.5t-7.5 17.5v256h-956v-256q0 -25 -25 -25zM530 1305q-18 -526 -55.5 -781t-122.5 -362
h654v1143h-476z" />
    <glyph glyph-name="uni0415" unicode="&#x415;" 
d="M358 664v-504h705q22 0 22 -23v-114q0 -23 -22 -23h-856q-25 0 -25 23v1419q0 22 25 22h827q23 0 23 -22v-115q0 -22 -23 -22h-676v-480h629q23 0 23 -24v-113q0 -24 -23 -24h-629z" />
    <glyph glyph-name="uni0416" unicode="&#x416;" horiz-adv-x="1878" 
d="M1837 0h-166q-18 0 -26 14l-490 668l-129 -145v-514q0 -10 -7 -16.5t-18 -6.5h-124q-25 0 -25 23v514l-129 145l-490 -668q-8 -14 -28 -14h-164q-14 0 -18.5 8.5t4.5 20.5l585 782l-542 625q-9 12 -5 20t19 8h162q20 0 28 -14l578 -694v686q0 22 25 22h124q25 0 25 -22
v-686q4 5 578 694q8 14 28 14h162q15 0 18.5 -8t-6.5 -20l-540 -625l585 -782q9 -12 4.5 -20.5t-18.5 -8.5z" />
    <glyph glyph-name="uni0417" unicode="&#x417;" horiz-adv-x="1208" 
d="M1059 1083q-2 -103 -55.5 -187.5t-153.5 -119.5q119 -42 183.5 -136.5t64.5 -215.5q0 -211 -144.5 -329t-375.5 -118q-314 0 -510 177q-17 17 -5 34l68 97q14 21 31 4q166 -148 416 -148q153 0 246.5 77.5t93.5 205.5q0 114 -87.5 186t-263.5 72h-198q-23 0 -23 23v112
q0 23 23 23h204q149 0 228.5 69t79.5 170q0 104 -82.5 174t-227.5 70q-227 0 -378 -133q-20 -17 -35 4l-66 92q-12 18 2 35q188 166 477 166q220 0 355 -117.5t133 -286.5z" />
    <glyph glyph-name="uni0418" unicode="&#x418;" horiz-adv-x="1441" 
d="M1235 0h-125q-11 0 -18 6.5t-7 16.5v620q0 182 13 533l-4 4q-70 -135 -179 -312l-538 -854q-8 -14 -29 -14h-143q-23 0 -23 23v1419q0 22 23 22h127q22 0 22 -22v-621q0 -296 -12 -551l6 -6q29 55 172 299l543 885q10 16 29 16h143q25 0 25 -22v-1419q0 -23 -25 -23z" />
    <glyph glyph-name="uni0419" unicode="&#x419;" horiz-adv-x="1441" 
d="M1063 1864q-15 -129 -102 -206t-232 -77q-144 0 -230 76.5t-104 204.5q-3 19 21 26l90 23q21 3 26 -19q28 -172 197 -172q85 0 135 44.5t62 127.5q5 22 26 19l90 -23q24 -7 21 -24zM1110 0h125q25 0 25 23v1419q0 22 -25 22h-143q-19 0 -29 -16l-543 -885
q-143 -244 -172 -299l-6 2q12 255 12 555v621q0 22 -22 22h-127q-23 0 -23 -22v-1419q0 -23 23 -23h143q21 0 29 14l538 854q109 177 179 312l4 -2q-13 -351 -13 -535v-620q0 -10 7 -16.5t18 -6.5z" />
    <glyph glyph-name="uni041A" unicode="&#x41a;" horiz-adv-x="1257" 
d="M334 0h-127q-25 0 -25 23v1419q0 22 25 22h127q22 0 22 -22v-678l633 686q14 14 31 14h164q15 0 19.5 -9t-5.5 -19l-588 -631l629 -776q9 -12 4.5 -20.5t-18.5 -8.5h-166q-21 0 -29 14l-536 668l-138 -141v-518q0 -23 -22 -23z" />
    <glyph glyph-name="uni041B" unicode="&#x41b;" horiz-adv-x="1359" 
d="M434 451q-28 -167 -78 -266t-125 -143.5t-188 -47.5q-23 0 -23 22v117q0 23 23 23q98 6 146.5 77t78.5 259q46 274 66 950q0 22 22 22h799q23 0 23 -22v-1419q0 -23 -23 -23h-129q-22 0 -22 23v1280h-504q-14 -535 -66 -852z" />
    <glyph glyph-name="uni041C" unicode="&#x41c;" horiz-adv-x="1746" 
d="M334 0h-127q-25 0 -25 23v1419q0 22 25 22h155q19 0 27 -16l318 -578q78 -143 163 -323h7q89 187 163 321l320 580q5 16 26 16h156q23 0 23 -22v-1419q0 -23 -23 -23h-129q-22 0 -22 23v618q0 207 12 555l-4 2q-43 -87 -187 -360l-256 -476q-10 -16 -28 -16h-109
q-20 0 -26 16l-256 476q-126 232 -187 360l-4 -2q10 -435 10 -555v-618q0 -23 -22 -23z" />
    <glyph glyph-name="uni041D" unicode="&#x41d;" horiz-adv-x="1396" 
d="M1040 823v619q0 22 25 22h127q22 0 22 -22v-1419q0 -23 -22 -23h-127q-25 0 -25 23v641h-684v-641q0 -23 -22 -23h-127q-25 0 -25 23v1419q0 22 25 22h127q22 0 22 -22v-619h684z" />
    <glyph glyph-name="uni041E" unicode="&#x41e;" horiz-adv-x="1380" 
d="M1249 514q0 -248 -150 -392.5t-409 -144.5t-409 144.5t-150 392.5v432q0 252 149.5 396.5t409.5 144.5t409.5 -144.5t149.5 -396.5v-432zM307 514q0 -174 100.5 -272.5t282.5 -98.5t281.5 98.5t99.5 272.5v432q0 180 -99.5 279.5t-281.5 99.5q-183 0 -283 -99.5
t-100 -279.5v-432z" />
    <glyph glyph-name="uni041F" unicode="&#x41f;" horiz-adv-x="1402" 
d="M336 0h-129q-11 0 -18 6.5t-7 16.5v1419q0 22 25 22h989q25 0 25 -22v-1419q0 -23 -25 -23h-129q-23 0 -23 23v1282h-686v-1282q0 -23 -22 -23z" />
    <glyph glyph-name="uni0420" unicode="&#x420;" horiz-adv-x="1280" 
d="M205 1464h493q242 0 375 -127t133 -352q0 -228 -133.5 -354.5t-374.5 -126.5h-342v-481q0 -23 -22 -23h-129q-23 0 -23 23v1419q0 22 23 22zM356 666h324q350 0 350 319q0 318 -350 318h-324v-637z" />
    <glyph glyph-name="uni0421" unicode="&#x421;" horiz-adv-x="1202" 
d="M1137 133q-95 -79 -215.5 -117.5t-249.5 -38.5q-114 0 -211.5 32.5t-171 94t-115 159t-41.5 220.5v496q0 123 42 221t115 160t169.5 94.5t208.5 32.5q241 0 436 -144q17 -11 4 -30l-66 -96q-12 -18 -34 -5q-150 111 -342 111q-171 0 -265 -92.5t-94 -251.5v-494
q0 -159 95 -251.5t266 -92.5q211 0 376 127q7 8 16 6t15 -12l68 -94q12 -22 -6 -35z" />
    <glyph glyph-name="uni0422" unicode="&#x422;" horiz-adv-x="1148" 
d="M47 1464h1053q24 0 24 -22v-115q0 -22 -24 -22h-438v-1282q0 -10 -7 -16.5t-18 -6.5h-127q-11 0 -18 6.5t-7 16.5v1282h-438q-22 0 -22 22v115q0 22 22 22z" />
    <glyph glyph-name="uni0423" unicode="&#x423;" horiz-adv-x="1118" 
d="M449 0h-142q-12 0 -16.5 8t0.5 19l201 438l-476 973q-5 11 0 18.5t17 7.5h143q21 0 29 -18l375 -799l340 799q6 18 26 18h141q12 0 17.5 -8t1.5 -18l-629 -1420q-9 -18 -28 -18z" />
    <glyph glyph-name="uni0424" unicode="&#x424;" horiz-adv-x="1755" 
d="M942 -135h-129q-22 0 -22 22v158h-121q-106 0 -200.5 32.5t-172.5 97t-124 174t-46 251.5v258q0 114 30.5 208t82 157t122 106t147.5 62.5t161 19.5h121v145q0 25 22 25h129q10 0 16.5 -7t6.5 -18v-145h120q84 0 161 -19.5t147.5 -62.5t122 -106t82 -157t30.5 -208v-258
q0 -142 -46 -251.5t-124 -174t-172.5 -97t-200.5 -32.5h-120v-158q0 -22 -23 -22zM307 600q0 -102 30.5 -179.5t83 -122.5t117.5 -67t140 -22h113v1038h-113q-60 0 -113 -12t-101 -41t-82 -73t-54.5 -111t-20.5 -152v-258zM965 1247v-1038h112q75 0 140 22t118.5 67
t84 122.5t30.5 179.5v258q0 85 -20.5 152t-55 111t-83 73t-101.5 41t-113 12h-112z" />
    <glyph glyph-name="uni0425" unicode="&#x425;" horiz-adv-x="1208" 
d="M707 735l458 -706q8 -11 3.5 -20t-17.5 -9h-158q-18 0 -28 16l-359 582l-360 -582q-10 -16 -29 -16h-158q-13 0 -18.5 9t2.5 20l461 706l-438 701q-8 10 -3 19t19 9h156q16 0 26 -16l342 -571l340 571q10 16 27 16h155q12 0 17 -9t-2 -19z" />
    <glyph glyph-name="uni0426" unicode="&#x426;" horiz-adv-x="1427" 
d="M1325 -268h-121q-22 0 -22 22v246h-975q-25 0 -25 23v1419q0 22 25 22h127q22 0 22 -22v-1280h672v1280q0 22 23 22h127q24 0 24 -22v-1280h123q11 0 18 -6.5t7 -16.5v-385q0 -22 -25 -22z" />
    <glyph glyph-name="uni0427" unicode="&#x427;" horiz-adv-x="1290" 
d="M1083 0h-129q-22 0 -22 23v555q-163 -72 -318 -72q-230 0 -369 123t-139 354v459q0 22 23 22h131q23 0 23 -22v-451q0 -160 95 -240.5t251 -80.5q159 0 303 75v697q0 22 22 22h129q25 0 25 -22v-1419q0 -23 -25 -23z" />
    <glyph glyph-name="uni0428" unicode="&#x428;" horiz-adv-x="1953" 
d="M1749 0h-1544q-23 0 -23 23v1419q0 22 23 22h129q24 0 24 -22v-1280h531v1280q0 22 22 22h129q25 0 25 -22v-1280h530v1280q0 22 25 22h129q23 0 23 -22v-1419q0 -23 -23 -23z" />
    <glyph glyph-name="uni0429" unicode="&#x429;" horiz-adv-x="1994" 
d="M1894 -268h-120q-25 0 -25 22v246h-1542q-25 0 -25 23v1419q0 22 25 22h129q22 0 22 -22v-1280h531v1280q0 22 22 22h129q25 0 25 -22v-1280h528v1280q0 22 25 22h129q22 0 22 -22v-1280h125q23 0 23 -23v-385q0 -22 -23 -22z" />
    <glyph glyph-name="uni042A" unicode="&#x42a;" horiz-adv-x="1417" 
d="M844 0h-484q-22 0 -22 23v1277h-283q-22 0 -22 25v117q0 22 22 22h434q25 0 25 -22v-508h322q245 0 377.5 -116.5t132.5 -344.5q0 -227 -134.5 -350t-367.5 -123zM514 772v-608h332q319 0 319 309q0 299 -327 299h-324z" />
    <glyph glyph-name="uni042B" unicode="&#x42b;" horiz-adv-x="1789" 
d="M690 0h-483q-11 0 -18 6.5t-7 16.5v1419q0 22 25 22h129q22 0 22 -22v-506h324q244 0 377 -122t133 -343q0 -223 -131.5 -347t-370.5 -124zM1585 0h-129q-24 0 -24 23v1419q0 22 24 22h129q23 0 23 -22v-1419q0 -23 -23 -23zM358 772v-608h332q164 0 243 76.5t79 230.5
q0 301 -322 301h-332z" />
    <glyph glyph-name="uni042C" unicode="&#x42c;" horiz-adv-x="1263" 
d="M690 0h-483q-11 0 -18 6.5t-7 16.5v1419q0 22 25 22h129q22 0 22 -22v-506h324q244 0 377 -122t133 -341q0 -225 -131.5 -349t-370.5 -124zM358 772v-608h332q164 0 243 76.5t79 232.5q0 150 -79.5 224.5t-242.5 74.5h-332z" />
    <glyph glyph-name="uni042D" unicode="&#x42d;" horiz-adv-x="1210" 
d="M74 133q-18 13 -6 35l67 94q6 10 15 12t16 -6q165 -127 377 -127q171 0 265.5 92.5t94.5 251.5v160h-559q-25 0 -25 25v116q0 25 25 25h559v168q0 159 -93.5 251.5t-264.5 92.5q-192 0 -342 -111q-23 -13 -35 5l-66 96q-13 19 4 30q195 144 437 144q112 0 208 -32.5
t169.5 -94.5t115 -160t41.5 -221v-496q0 -164 -72.5 -280t-192 -171t-273.5 -55q-129 0 -249.5 38.5t-215.5 117.5z" />
    <glyph glyph-name="uni042E" unicode="&#x42e;" horiz-adv-x="1851" 
d="M1718 485q0 -123 -43 -221.5t-117.5 -160t-170.5 -94t-205 -32.5q-110 0 -206.5 32.5t-171 94t-118 160t-43.5 221.5v185h-287v-647q0 -23 -22 -23h-129q-23 0 -23 23v1419q0 22 23 22h129q22 0 22 -22v-611h287v146q0 124 43.5 223t118 161t171 94t206.5 32
q109 0 205 -32t170.5 -94t117.5 -161t43 -223v-492zM821 485q0 -164 102 -254t259 -90q155 0 256.5 90t101.5 254v492q0 88 -27.5 155t-77 108.5t-113.5 62t-140 20.5q-160 0 -260.5 -87t-100.5 -259v-492z" />
    <glyph glyph-name="uni042F" unicode="&#x42f;" horiz-adv-x="1318" 
d="M113 1006q0 216 133 337t370 121h496q23 0 23 -22v-1419q0 -23 -23 -23h-127q-24 0 -24 23v530h-287l-393 -539q-11 -14 -29 -14h-164q-14 0 -18.5 8.5t4.5 20.5l409 540q-175 30 -272.5 143.5t-97.5 293.5zM618 715h343v585h-343q-160 0 -243.5 -75.5t-83.5 -220.5
q0 -141 83.5 -215t243.5 -74z" />
    <glyph glyph-name="uni0430" unicode="&#x430;" horiz-adv-x="1046" 
d="M125 975q154 106 387 106q193 0 300.5 -101t107.5 -296v-614q0 -21 -19 -27q-181 -66 -395 -66q-71 0 -134 11.5t-119.5 37t-97.5 63.5t-65 95.5t-24 128.5q0 159 119 242.5t321 83.5q100 0 246 -25v66q0 127 -57.5 188.5t-188.5 61.5q-164 0 -291 -76q-19 -12 -31 6
l-59 86q-10 19 0 29zM233 313q0 -90 75 -138t198 -48q121 0 246 37v307q-137 25 -246 25q-136 0 -204.5 -48t-68.5 -135z" />
    <glyph glyph-name="uni0431" unicode="&#x431;" horiz-adv-x="1107" 
d="M301 934q122 72 279 72q195 0 311.5 -109t116.5 -313v-185q0 -104 -35 -186t-96.5 -132.5t-140 -77t-169.5 -26.5q-88 0 -165.5 26.5t-138 77t-95.5 132.5t-35 186v631q0 91 34 167t92 126t126 82t145 47q6 1 87.5 15t138.5 29.5t98 37.5q22 11 31 -10l51 -90
q11 -22 -8 -31q-32 -18 -81.5 -34.5t-86 -25t-95 -21t-73.5 -15.5q-291 -65 -291 -281v-92zM567 127q119 0 195 70t76 202v181q0 134 -69 206t-200 72q-68 0 -141 -19.5t-127 -54.5v-385q0 -132 75 -202t191 -70z" />
    <glyph glyph-name="uni0432" unicode="&#x432;" horiz-adv-x="1073" 
d="M582 0h-418q-23 0 -23 23v1011q0 11 6.5 18t16.5 7h418q172 0 268 -78t96 -199q0 -161 -153 -223q192 -69 192 -266q0 -130 -108.5 -211.5t-294.5 -81.5zM309 920v-310h266q94 0 148.5 41.5t54.5 116.5q0 72 -52.5 112t-150.5 40h-266zM309 479v-342h266q240 0 240 174
q0 168 -240 168h-266z" />
    <glyph glyph-name="uni0433" unicode="&#x433;" horiz-adv-x="831" 
d="M285 0h-121q-23 0 -23 23v1011q0 11 6.5 18t16.5 7h612q10 0 16.5 -7t6.5 -18v-102q0 -11 -6.5 -18t-16.5 -7h-467v-884q0 -23 -24 -23z" />
    <glyph glyph-name="uni0434" unicode="&#x434;" horiz-adv-x="1175" 
d="M176 -281h-115q-22 0 -22 25v383q0 23 22 23h45q49 29 79.5 107.5t56.5 263.5t47 513q0 10 6.5 17.5t15.5 7.5h654q24 0 24 -25v-884h107q24 0 24 -23v-383q0 -25 -24 -25h-113q-25 0 -25 25v256h-759v-256q0 -11 -6.5 -18t-16.5 -7zM444 907q-19 -331 -54 -511t-97 -246
h528v757h-377z" />
    <glyph glyph-name="uni0435" unicode="&#x435;" horiz-adv-x="1060" 
d="M967 674v-201q0 -24 -23 -24h-670v-87q0 -112 74.5 -173.5t192.5 -61.5q165 0 313 115q20 13 33 -6l59 -78q15 -18 -4 -33q-176 -148 -405 -148q-85 0 -161.5 24.5t-137.5 71t-97.5 121.5t-36.5 168v312q0 102 36 181.5t97.5 128t138 73t163.5 24.5q86 0 161.5 -24.5
t136 -73t95.5 -128t35 -181.5zM803 674q0 126 -73 191t-191 65q-121 0 -193 -64.5t-72 -191.5v-86h529v86z" />
    <glyph glyph-name="uni0436" unicode="&#x436;" horiz-adv-x="1495" 
d="M1448 0h-145q-21 0 -29 14l-326 469l-119 -133v-327q0 -23 -24 -23h-117q-22 0 -22 23v327l-119 133l-326 -469q-11 -14 -28 -14h-146q-13 0 -17.5 8.5t3.5 20.5l403 569l-366 432q-9 10 -5 19.5t17 9.5h147q19 0 29 -17l408 -491v483q0 25 22 25h117q24 0 24 -25v-483
l408 491q10 17 29 17h145q15 0 19 -9.5t-5 -19.5l-368 -432l405 -569q8 -12 3.5 -20.5t-17.5 -8.5z" />
    <glyph glyph-name="uni0437" unicode="&#x437;" horiz-adv-x="987" 
d="M862 776q0 -148 -141 -217q178 -63 178 -250q0 -143 -119 -237.5t-303 -94.5q-124 0 -224 34t-196 120q-16 13 -2 31l64 80q17 17 35 2q146 -117 317 -117q120 0 189 49t69 137q0 82 -59.5 125t-169.5 43h-205q-25 0 -25 25v82q0 24 25 24h203q91 0 143.5 43t52.5 117
q0 79 -62 120.5t-165 41.5q-163 0 -291 -100q-8 -7 -17.5 -6t-15.5 10l-61 77q-14 21 2 35q164 131 385 131q173 0 283 -86.5t110 -218.5z" />
    <glyph glyph-name="uni0438" unicode="&#x438;" horiz-adv-x="1150" 
d="M309 0h-145q-23 0 -23 23v1011q0 11 6.5 18t16.5 7h121q22 0 22 -25v-545q0 -35 -1 -124t-1 -125q121 217 180 307l330 495q10 17 29 17h143q10 0 16.5 -7t6.5 -18v-1011q0 -23 -23 -23h-119q-24 0 -24 23v528q0 108 4 256h-2q-27 -50 -85 -148t-91 -149l-332 -496
q-8 -14 -29 -14z" />
    <glyph glyph-name="uni0439" unicode="&#x439;" horiz-adv-x="1150" 
d="M309 0h-145q-23 0 -23 23v1011q0 11 6.5 18t16.5 7h121q22 0 22 -25v-545q0 -35 -1 -124t-1 -125q121 217 180 307l330 495q10 17 29 17h143q10 0 16.5 -7t6.5 -18v-1011q0 -23 -23 -23h-119q-24 0 -24 23v528q0 108 4 256h-2q-27 -50 -85 -148t-91 -149l-332 -496
q-8 -14 -29 -14zM885 1501q-14 -125 -97 -200.5t-221 -75.5q-136 0 -217 74.5t-96 199.5q-1 10 5 17.5t15 9.5l82 10q21 3 27 -18q28 -164 184 -164q161 0 189 164q3 21 26 18l80 -10q26 -4 23 -25z" />
    <glyph glyph-name="uni043A" unicode="&#x43a;" horiz-adv-x="1013" 
d="M983 0h-143q-20 0 -31 14l-387 465l-117 -117v-339q0 -23 -24 -23h-117q-23 0 -23 23v1011q0 11 6.5 18t16.5 7h117q10 0 17 -7t7 -18v-465l471 478q10 12 29 12h147q14 0 18.5 -9.5t-5.5 -19.5l-430 -434l462 -567q9 -12 4.5 -20.5t-18.5 -8.5z" />
    <glyph glyph-name="uni043B" unicode="&#x43b;" horiz-adv-x="1138" 
d="M389 365q-24 -142 -62.5 -220.5t-102 -114t-169.5 -38.5q-22 0 -22 22v105q0 21 22 24q71 3 109.5 57t62.5 206q34 246 52 628q0 11 7 18t17 7h670q24 0 24 -25v-1011q0 -23 -24 -23h-121q-23 0 -23 23v884h-393q-10 -245 -47 -542z" />
    <glyph glyph-name="uni043C" unicode="&#x43c;" horiz-adv-x="1357" 
d="M285 0h-121q-23 0 -23 23v1011q0 11 6.5 18t16.5 7h139q17 0 27 -17l235 -432q50 -93 113 -219h2q48 102 111 219l237 432q7 17 27 17h137q25 0 25 -25v-1011q0 -23 -25 -23h-119q-22 0 -22 23v489q0 193 2 283h-2q-74 -156 -117 -234l-191 -354q-6 -17 -26 -17h-78
q-19 0 -27 17l-194 360q-27 52 -113 228q0 -45 1 -140t1 -143v-489q0 -23 -22 -23z" />
    <glyph glyph-name="uni043D" unicode="&#x43d;" horiz-adv-x="1118" 
d="M285 0h-121q-23 0 -23 23v1011q0 11 6.5 18t16.5 7h121q24 0 24 -25v-409h500v409q0 25 22 25h121q10 0 17.5 -7.5t7.5 -17.5v-1011q0 -10 -7 -16.5t-18 -6.5h-121q-22 0 -22 23v452h-500v-452q0 -23 -24 -23z" />
    <glyph glyph-name="uni043E" unicode="&#x43e;" horiz-adv-x="1105" 
d="M1004 379q0 -182 -121.5 -292t-329.5 -110q-206 0 -328.5 110.5t-122.5 291.5v295q0 182 123 294.5t328 112.5q207 0 329 -112.5t122 -294.5v-295zM272 379q0 -117 73 -184.5t208 -67.5q136 0 209.5 67.5t73.5 184.5v295q0 119 -73.5 187.5t-209.5 68.5
q-135 0 -208 -68.5t-73 -187.5v-295z" />
    <glyph glyph-name="uni043F" unicode="&#x43f;" horiz-adv-x="1118" 
d="M166 1059h788q10 0 16.5 -7t6.5 -18v-1011q0 -23 -23 -23h-120q-25 0 -25 23v884h-500v-884q0 -23 -22 -23h-121q-25 0 -25 23v1011q0 25 25 25z" />
    <glyph glyph-name="uni0440" unicode="&#x440;" horiz-adv-x="1110" 
d="M156 1008q190 73 397 73q210 0 333.5 -110t123.5 -334v-225q0 -203 -123.5 -319t-325.5 -116q-139 0 -254 64v-408q0 -22 -24 -22h-121q-23 0 -23 22v1348q0 21 17 27zM551 127q289 0 289 285v225q0 156 -74.5 226.5t-216.5 70.5q-146 0 -242 -41v-692q109 -74 244 -74z
" />
    <glyph glyph-name="uni0441" unicode="&#x441;" horiz-adv-x="962" 
d="M905 96q-162 -119 -362 -119q-201 0 -320 110t-119 286v311q0 177 119 287t318 110q180 0 333 -102q21 -15 7 -35l-54 -84q-14 -18 -32 -6q-118 76 -250 76q-129 0 -201 -67.5t-72 -178.5v-311q0 -112 72 -179t199 -67q140 0 274 90q19 16 33 -4l59 -84q14 -21 -4 -33z
" />
    <glyph glyph-name="uni0442" unicode="&#x442;" horiz-adv-x="919" 
d="M522 0h-123q-22 0 -22 23v884h-320q-10 0 -17 7t-7 18v102q0 11 7 18t17 7h805q25 0 25 -25v-102q0 -25 -25 -25h-317v-884q0 -23 -23 -23z" />
    <glyph glyph-name="uni0443" unicode="&#x443;" horiz-adv-x="1128" 
d="M819 244v790q0 11 6.5 18t16.5 7h121q24 0 24 -25v-1005q0 -212 -107 -325t-325 -114q-228 0 -395 142q-14 14 -2 35l61 83q15 22 33 7q150 -113 303 -115q136 2 202 72.5t62 224.5v47q-127 -53 -254 -53q-85 0 -161.5 25.5t-138 74t-98 128t-36.5 179.5v594q0 11 6.5 18
t16.5 7h120q25 0 25 -25v-585q0 -133 79.5 -197t207.5 -64q135 0 233 56z" />
    <glyph glyph-name="uni0444" unicode="&#x444;" horiz-adv-x="1505" 
d="M813 -389h-121q-22 0 -22 24v365h-164q-84 0 -156.5 25.5t-128 75t-87.5 128.5t-32 179v243q0 189 117 298.5t301 109.5h150v383q0 22 22 22h121q23 0 23 -22v-383h163q184 0 294 -109t110 -299v-243q0 -99 -31.5 -178.5t-86 -128.5t-123 -75t-146.5 -26h-180v-365
q0 -24 -23 -24zM270 412q0 -260 262 -260h138v755h-144q-124 0 -190 -65.5t-66 -196.5v-233zM836 152h137q264 0 264 260v233q0 130 -66.5 196t-189.5 66h-145v-755z" />
    <glyph glyph-name="uni0445" unicode="&#x445;" horiz-adv-x="997" 
d="M602 535l356 -506q8 -12 3.5 -20.5t-17.5 -8.5h-151q-19 0 -27 14l-266 404l-267 -404q-8 -14 -28 -14h-152q-13 0 -17.5 8.5t3.5 20.5l356 506l-334 495q-8 10 -3 19.5t18 9.5h143q16 0 29 -17l252 -389l252 389q13 17 26 17h144q13 0 18.5 -9.5t-2.5 -19.5z" />
    <glyph glyph-name="uni0446" unicode="&#x446;" horiz-adv-x="1163" 
d="M1079 -268h-108q-25 0 -25 22v246h-782q-23 0 -23 23v1011q0 11 6.5 18t16.5 7h121q24 0 24 -25v-882h500v882q0 25 22 25h121q10 0 17.5 -7.5t7.5 -17.5v-884h102q25 0 25 -23v-373q0 -22 -25 -22z" />
    <glyph glyph-name="uni0447" unicode="&#x447;" horiz-adv-x="1060" 
d="M897 0h-121q-24 0 -24 23v358q-126 -49 -252 -49q-191 0 -300.5 106t-109.5 324v272q0 11 6.5 18t16.5 7h123q22 0 22 -25v-268q0 -148 61.5 -215.5t182.5 -67.5q130 0 250 49v502q0 25 24 25h121q10 0 16.5 -7t6.5 -18v-1011q0 -23 -23 -23z" />
    <glyph glyph-name="uni0448" unicode="&#x448;" horiz-adv-x="1595" 
d="M1432 0h-1268q-23 0 -23 23v1011q0 25 23 25h121q22 0 22 -25v-882h408v882q0 25 22 25h121q23 0 23 -25v-882h407v882q0 25 23 25h121q22 0 22 -25v-1011q0 -23 -22 -23z" />
    <glyph glyph-name="uni0449" unicode="&#x449;" horiz-adv-x="1640" 
d="M1559 -268h-111q-23 0 -23 22v246h-1261q-23 0 -23 23v1011q0 25 23 25h121q22 0 22 -25v-882h408v882q0 25 22 25h121q23 0 23 -25v-882h407v882q0 25 23 25h121q22 0 22 -25v-884h105q22 0 22 -23v-373q0 -22 -22 -22z" />
    <glyph glyph-name="uni044A" unicode="&#x44a;" horiz-adv-x="1181" 
d="M713 0h-404q-24 0 -24 23v886h-224q-24 0 -24 25v100q0 25 24 25h369q10 0 16.5 -7t6.5 -18v-329h260q188 0 297.5 -96.5t109.5 -262.5q0 -176 -106.5 -261t-300.5 -85zM453 561v-418h235q264 0 264 207q0 211 -264 211h-235z" />
    <glyph glyph-name="uni044B" unicode="&#x44b;" horiz-adv-x="1415" 
d="M569 0h-405q-23 0 -23 23v1011q0 11 6.5 18t16.5 7h121q24 0 24 -25v-329h260q188 0 298 -96.5t110 -262.5q0 -176 -107 -261t-301 -85zM309 561v-418h234q264 0 264 207q2 103 -64.5 157t-199.5 54h-234zM1249 0h-121q-22 0 -22 23v1011q0 25 22 25h121q25 0 25 -25
v-1011q0 -23 -25 -23z" />
    <glyph glyph-name="uni044C" unicode="&#x44c;" horiz-adv-x="1038" 
d="M569 0h-405q-23 0 -23 23v1011q0 11 6.5 18t16.5 7h121q24 0 24 -25v-329h260q188 0 298 -96.5t110 -262.5q0 -176 -107 -261t-301 -85zM309 561v-418h234q264 0 264 207q2 103 -64.5 157t-199.5 54h-234z" />
    <glyph glyph-name="uni044D" unicode="&#x44d;" horiz-adv-x="976" 
d="M432 127q127 0 200 66.5t73 175.5v106h-429q-22 0 -22 25v88q0 22 22 22h429v78q0 108 -72.5 175t-200.5 67q-144 0 -272 -78q-18 -9 -31 8l-55 84q-13 20 6 33q165 104 356 104q199 0 317.5 -109.5t118.5 -283.5v-319q0 -173 -119 -282.5t-319 -109.5q-207 0 -373 119
q-19 13 -6 33l60 84q11 20 32 6q136 -92 285 -92z" />
    <glyph glyph-name="uni044E" unicode="&#x44e;" horiz-adv-x="1482" 
d="M518 680q0 176 117 288.5t311 112.5q196 0 314 -112.5t118 -288.5v-307q0 -174 -117.5 -285t-314.5 -111q-194 0 -311 111t-117 285v104h-213v-454q0 -23 -24 -23h-117q-23 0 -23 23v1011q0 11 6.5 18t16.5 7h117q24 0 24 -25v-407h213v53zM948 129q126 0 194 67t68 177
v307q0 112 -68.5 181t-193.5 69t-193.5 -69t-68.5 -181v-307q0 -110 68 -177t194 -67z" />
    <glyph glyph-name="uni044F" unicode="&#x44f;" horiz-adv-x="1054" 
d="M238 0h-150q-14 0 -17.5 8.5t5.5 20.5l299 377q-138 23 -213.5 107.5t-75.5 211.5q0 164 108 249t293 85h402q24 0 24 -25v-1011q0 -23 -24 -23h-121q-23 0 -23 23v370h-186l-295 -379q-8 -14 -26 -14zM254 725q0 -190 233 -190h258v380h-258q-233 0 -233 -190z" />
    <glyph glyph-name="uni0451" unicode="&#x451;" horiz-adv-x="1060" 
d="M434 1356q0 -44 -26.5 -70t-69.5 -26q-42 0 -69 26t-27 70q0 45 27 71.5t69 26.5q43 0 69.5 -26.5t26.5 -71.5zM827 1356q0 -44 -27 -70t-69 -26q-43 0 -70.5 26t-27.5 70q0 45 27.5 71.5t70.5 26.5q42 0 69 -26.5t27 -71.5zM967 674v-201q0 -24 -23 -24h-670v-87
q0 -112 74.5 -173.5t192.5 -61.5q165 0 313 115q20 13 33 -6l59 -78q15 -18 -4 -33q-176 -148 -405 -148q-85 0 -161.5 24.5t-137.5 71t-97.5 121.5t-36.5 168v312q0 102 36 181.5t97.5 128t138 73t163.5 24.5q86 0 161.5 -24.5t136 -73t95.5 -128t35 -181.5zM803 674
q0 126 -73 191t-191 65q-121 0 -193 -64.5t-72 -191.5v-86h529v86z" />
    <glyph glyph-name="uni0452" unicode="&#x452;" horiz-adv-x="1142" 
d="M309 1006q118 51 256 51q98 0 177.5 -26t141 -78.5t95 -139.5t33.5 -203v-633q0 -202 -75 -294.5t-226 -92.5q-36 0 -90 7q-21 3 -21 26v105q0 22 25 22q58 -4 71 -4q75 0 111.5 55.5t36.5 173.5v629q0 160 -72.5 230.5t-216.5 70.5q-133 0 -246 -53v-829q0 -23 -24 -23
h-121q-23 0 -23 23v1177h-139q-25 0 -25 23v69q0 23 25 23h139v127q0 22 23 22h121q24 0 24 -22v-127h285q22 0 22 -23v-69q0 -23 -22 -23h-285v-194z" />
    <glyph glyph-name="uni0453" unicode="&#x453;" horiz-adv-x="831" 
d="M285 0h-121q-23 0 -23 23v1011q0 11 6.5 18t16.5 7h612q10 0 16.5 -7t6.5 -18v-102q0 -11 -6.5 -18t-16.5 -7h-467v-884q0 -23 -24 -23zM453 1223h-93q-14 0 -19.5 8t1.5 20l166 273q10 14 29 14h129q14 0 17.5 -8.5t-5.5 -20.5l-197 -272q-11 -14 -28 -14z" />
    <glyph glyph-name="uni0454" unicode="&#x454;" horiz-adv-x="976" 
d="M545 127q148 0 284 92q21 14 33 -6l60 -84q13 -20 -7 -33q-166 -119 -372 -119q-200 0 -319.5 109.5t-119.5 282.5v319q0 174 119 283.5t318 109.5q191 0 356 -104q19 -13 6 -33l-55 -84q-13 -17 -31 -8q-128 78 -272 78q-128 0 -200.5 -67t-72.5 -175v-78h428
q23 0 23 -22v-88q0 -25 -23 -25h-428v-106q0 -109 73 -175.5t200 -66.5z" />
    <glyph glyph-name="uni0455" unicode="&#x455;" horiz-adv-x="972" 
d="M903 299q0 -153 -115 -237.5t-301 -84.5q-225 0 -405 132q-16 11 -6 32l55 95q12 21 33 6q152 -115 328 -115q106 0 173.5 43.5t67.5 120.5q0 28 -9 50.5t-29 38.5t-38.5 27t-51.5 21t-54 14.5t-59 12.5q-42 9 -69 15.5t-73.5 21t-77.5 29.5t-68 40.5t-59 55t-37.5 72
t-15.5 91.5q0 100 59.5 170t148.5 100.5t196 30.5q184 0 356 -96q22 -10 8 -31l-55 -92q-5 -9 -13.5 -11.5t-17.5 3.5q-142 76 -287 76q-107 0 -168 -40.5t-61 -109.5q0 -28 9 -50t28.5 -38.5t40.5 -28.5t55.5 -22.5t62 -17t70.5 -15.5q46 -9 73.5 -15.5t72.5 -20t73 -28
t61.5 -38t53 -51.5t32.5 -68t13 -88z" />
    <glyph glyph-name="uni0456" unicode="&#x456;" horiz-adv-x="450" 
d="M287 0h-121q-25 0 -25 23v1011q0 25 25 25h121q22 0 22 -25v-1011q0 -23 -22 -23zM328 1356q0 -43 -29 -72t-72 -29t-72.5 29t-29.5 72q0 44 29.5 72t72.5 28t72 -28t29 -72z" />
    <glyph glyph-name="uni0457" unicode="&#x457;" horiz-adv-x="450" 
d="M285 0h-121q-23 0 -23 23v1011q0 11 6.5 18t16.5 7h121q24 0 24 -25v-1011q0 -23 -24 -23zM176 1356q0 -40 -26.5 -67t-67.5 -27q-40 0 -67 27t-27 67q0 41 27 68.5t67 27.5q41 0 67.5 -27.5t26.5 -68.5zM461 1356q0 -40 -27.5 -67t-68.5 -27t-68 27t-27 67q0 41 27 68.5
t68 27.5t68.5 -27.5t27.5 -68.5z" />
    <glyph glyph-name="uni0458" unicode="&#x458;" horiz-adv-x="466" 
d="M326 -35q0 -184 -80 -280.5t-228 -96.5q-54 0 -100 6q-22 3 -22 27v103q0 24 24 24q43 -6 80 -6q80 0 119 51.5t39 171.5v1069q0 25 24 25h121q10 0 16.5 -7t6.5 -18v-1069zM344 1356q0 -43 -28.5 -72t-71.5 -29t-73 29t-30 72q0 44 30 72t73 28t71.5 -28t28.5 -72z" />
    <glyph glyph-name="uni0459" unicode="&#x459;" horiz-adv-x="1718" 
d="M383 365q-35 -210 -105 -289.5t-225 -83.5q-22 0 -22 22v105q0 21 22 24q47 2 76.5 23t53 78.5t40.5 161.5q30 194 53 628q0 10 7 17.5t18 7.5h668q22 0 22 -25v-329h258q188 0 298 -96.5t110 -262.5q0 -176 -107 -261t-301 -85h-401q-11 0 -18 6.5t-7 16.5v884h-389
q-13 -300 -51 -542zM991 561v-418h232q134 0 199 51t65 156q2 103 -64.5 157t-199.5 54h-232z" />
    <glyph glyph-name="uni045A" unicode="&#x45a;" horiz-adv-x="1677" 
d="M285 0h-121q-23 0 -23 23v1011q0 11 6.5 18t16.5 7h121q24 0 24 -25v-368h486v368q0 25 22 25h121q10 0 17.5 -7.5t7.5 -17.5v-370h249q188 0 297 -88.5t109 -249.5q0 -162 -107.5 -244t-298.5 -82h-395q-22 0 -22 23v491h-486v-491q0 -23 -24 -23zM963 520v-377h223
q262 0 262 193q0 184 -262 184h-223z" />
    <glyph glyph-name="uni045B" unicode="&#x45b;" horiz-adv-x="1142" 
d="M309 1006q122 51 258 51q98 0 177.5 -26t140 -78.5t94 -139.5t33.5 -203v-587q0 -23 -23 -23h-121q-24 0 -24 23v581q0 160 -72.5 230.5t-214.5 70.5q-132 0 -248 -53v-829q0 -23 -22 -23h-121q-25 0 -25 23v1177h-139q-22 0 -22 23v69q0 25 22 25h139v125q0 22 25 22
h121q22 0 22 -22v-125h287q22 0 22 -25v-69q0 -23 -22 -23h-287v-194z" />
    <glyph glyph-name="uni045C" unicode="&#x45c;" horiz-adv-x="1013" 
d="M983 0h-143q-20 0 -31 14l-387 465l-117 -117v-339q0 -23 -24 -23h-117q-23 0 -23 23v1011q0 11 6.5 18t16.5 7h117q10 0 17 -7t7 -18v-465l471 478q10 12 29 12h147q14 0 18.5 -9.5t-5.5 -19.5l-430 -434l462 -567q9 -12 4.5 -20.5t-18.5 -8.5zM524 1223h-92
q-14 0 -19.5 8t1.5 20l166 273q10 14 28 14h129q14 0 18 -8.5t-5 -20.5l-197 -272q-11 -14 -29 -14z" />
    <glyph glyph-name="uni045D" unicode="&#x45d;" horiz-adv-x="1150" 
d="M309 0h-145q-23 0 -23 23v1011q0 11 6.5 18t16.5 7h121q22 0 22 -25v-545q0 -35 -1 -124t-1 -125q121 217 180 307l330 495q10 17 29 17h143q10 0 16.5 -7t6.5 -18v-1011q0 -23 -23 -23h-119q-24 0 -24 23v528q0 108 4 256h-2q-27 -50 -85 -148t-91 -149l-332 -496
q-8 -14 -29 -14zM657 1225h-92q-17 0 -28 14l-197 272q-9 12 -5.5 20.5t17.5 8.5h129q19 0 29 -14l166 -273q7 -12 1 -20t-20 -8z" />
    <glyph glyph-name="uni045E" unicode="&#x45e;" horiz-adv-x="1128" 
d="M877 1499q-14 -125 -97 -200.5t-221 -75.5q-136 0 -217 74.5t-96 199.5q-1 10 5 17.5t15 9.5l82 10q21 3 27 -18q28 -164 184 -164q161 0 189 164q3 21 26 18l80 -10q26 -4 23 -25zM819 244v790q0 11 6.5 18t16.5 7h121q24 0 24 -25v-1005q0 -212 -107 -325t-325 -114
q-228 0 -395 142q-14 14 -2 35l61 83q15 22 33 7q150 -113 303 -115q136 2 202 72.5t62 224.5v47q-127 -53 -254 -53q-85 0 -161.5 25.5t-138 74t-98 128t-36.5 179.5v594q0 11 6.5 18t16.5 7h120q25 0 25 -25v-585q0 -133 79.5 -197t207.5 -64q135 0 233 56z" />
    <glyph glyph-name="uni045F" unicode="&#x45f;" horiz-adv-x="1118" 
d="M834 1059h120q10 0 16.5 -7t6.5 -18v-1011q0 -23 -23 -23h-317v-246q0 -22 -25 -22h-106q-25 0 -25 22v246h-315q-25 0 -25 23v1011q0 25 25 25h121q22 0 22 -25v-882h500v882q0 10 7.5 17.5t17.5 7.5z" />
    <glyph glyph-name="uni0490" unicode="&#x490;" horiz-adv-x="1009" 
d="M334 0h-127q-11 0 -18 6.5t-7 16.5v1419q0 22 25 22h612v293q0 23 25 23h117q24 0 24 -23v-430q0 -22 -24 -22h-603v-1282q0 -23 -24 -23z" />
    <glyph glyph-name="uni0491" unicode="&#x491;" horiz-adv-x="831" 
d="M645 1059v221q0 23 23 23h108q23 0 23 -23v-348q0 -11 -6.5 -18t-16.5 -7h-467v-884q0 -23 -24 -23h-121q-23 0 -23 23v1011q0 11 6.5 18t16.5 7h481z" />
    <glyph glyph-name="Wgrave" unicode="&#x1e80;" horiz-adv-x="1947" 
d="M598 0h-149q-21 0 -27 20l-395 1418q-3 11 2.5 18.5t17.5 7.5h137q22 0 25 -20l213 -801q52 -198 102 -432h4q57 221 125 457l226 753q7 21 24 21h139q18 0 25 -21l227 -753q76 -266 125 -457h4q59 271 101 432l213 801q6 20 24 20h140q12 0 17.5 -7.5t2.5 -18.5
l-397 -1418q-6 -20 -25 -20h-149q-22 0 -25 20l-235 764q-76 258 -113 433h-6q-51 -228 -113 -433l-235 -764q-6 -20 -25 -20zM909 1622l-247 272q-10 10 -6 19.5t18 9.5h143q19 0 27 -14l215 -273q7 -12 3 -20t-18 -8h-106q-18 0 -29 14z" />
    <glyph glyph-name="wgrave" unicode="&#x1e81;" horiz-adv-x="1548" 
d="M367 0q-22 0 -25 20l-305 1010q-7 29 18 29h127q21 0 27 -21l135 -485q39 -147 92 -363h4q62 253 86 332l156 498q6 20 25 20h135q18 0 24 -20l156 -498q34 -109 88 -332h2q73 291 92 363l137 485q3 21 25 21h127q12 0 17.5 -8.5t0.5 -20.5l-303 -1010q-6 -20 -26 -20
h-144q-21 0 -24 20l-172 558q-36 120 -64 256h-6q-34 -144 -65 -256l-172 -558q-3 -20 -25 -20h-143zM858 1223h-92q-18 0 -29 14l-196 272q-9 12 -5.5 20.5t17.5 8.5h129q18 0 29 -14l166 -273q7 -12 1 -20t-20 -8z" />
    <glyph glyph-name="Wacute" unicode="&#x1e82;" horiz-adv-x="1947" 
d="M598 0h-149q-21 0 -27 20l-395 1418q-3 11 2.5 18.5t17.5 7.5h137q22 0 25 -20l213 -801q52 -198 102 -432h4q57 221 125 457l226 753q7 21 24 21h139q18 0 25 -21l227 -753q76 -266 125 -457h4q59 271 101 432l213 801q6 20 24 20h140q12 0 17.5 -7.5t2.5 -18.5
l-397 -1418q-6 -20 -25 -20h-149q-22 0 -25 20l-235 764q-76 258 -113 433h-6q-51 -228 -113 -433l-235 -764q-6 -20 -25 -20zM1264 1894l-248 -272q-11 -14 -29 -14h-106q-14 0 -18 8t3 20l215 273q8 14 27 14h143q14 0 18.5 -9.5t-5.5 -19.5z" />
    <glyph glyph-name="wacute" unicode="&#x1e83;" horiz-adv-x="1548" 
d="M367 0q-22 0 -25 20l-305 1010q-7 29 18 29h127q21 0 27 -21l135 -485q39 -147 92 -363h4q62 253 86 332l156 498q6 20 25 20h135q18 0 24 -20l156 -498q34 -109 88 -332h2q73 291 92 363l137 485q3 21 25 21h127q12 0 17.5 -8.5t0.5 -20.5l-303 -1010q-6 -20 -26 -20
h-144q-21 0 -24 20l-172 558q-36 120 -64 256h-6q-34 -144 -65 -256l-172 -558q-3 -20 -25 -20h-143zM760 1223h-92q-14 0 -20 8t1 20l166 273q10 14 29 14h129q14 0 17.5 -8.5t-5.5 -20.5l-197 -272q-11 -14 -28 -14z" />
    <glyph glyph-name="Wdieresis" unicode="&#x1e84;" horiz-adv-x="1947" 
d="M838 1776q0 -44 -29 -72.5t-72 -28.5q-44 0 -72 28.5t-28 72.5t28 73t72 29q43 0 72 -29t29 -73zM1311 1776q0 -44 -29.5 -72.5t-73.5 -28.5t-72 28.5t-28 72.5t28 73t72 29t73.5 -29t29.5 -73zM598 0h-149q-21 0 -27 20l-395 1418q-3 11 2.5 18.5t17.5 7.5h137
q22 0 25 -20l213 -801q52 -198 102 -432h4q57 221 125 457l226 753q7 21 24 21h139q18 0 25 -21l227 -753q76 -266 125 -457h4q59 271 101 432l213 801q6 20 24 20h140q12 0 17.5 -7.5t2.5 -18.5l-397 -1418q-6 -20 -25 -20h-149q-22 0 -25 20l-235 764q-76 258 -113 433h-6
q-51 -228 -113 -433l-235 -764q-6 -20 -25 -20z" />
    <glyph glyph-name="wdieresis" unicode="&#x1e85;" horiz-adv-x="1548" 
d="M649 1356q0 -44 -26.5 -70t-69.5 -26q-42 0 -70 26.5t-28 69.5q0 45 28 71.5t70 26.5q43 0 69.5 -26.5t26.5 -71.5zM1094 1356q0 -43 -27.5 -69.5t-69.5 -26.5q-43 0 -70.5 26t-27.5 70q0 45 27.5 71.5t70.5 26.5q42 0 69.5 -26.5t27.5 -71.5zM367 0q-22 0 -25 20
l-305 1010q-7 29 18 29h127q21 0 27 -21l135 -485q39 -147 92 -363h4q62 253 86 332l156 498q6 20 25 20h135q18 0 24 -20l156 -498q34 -109 88 -332h2q73 291 92 363l137 485q3 21 25 21h127q12 0 17.5 -8.5t0.5 -20.5l-303 -1010q-6 -20 -26 -20h-144q-21 0 -24 20
l-172 558q-36 120 -64 256h-6q-34 -144 -65 -256l-172 -558q-3 -20 -25 -20h-143z" />
    <glyph glyph-name="Ygrave" unicode="&#x1ef2;" horiz-adv-x="1163" 
d="M645 0h-129q-22 0 -22 23v534l-482 879q-6 12 -1 20t18 8h147q22 0 27 -16l379 -731l376 731q5 16 27 16h148q13 0 17.5 -8t-1.5 -20l-479 -883v-530q0 -23 -25 -23zM530 1622l-247 272q-10 10 -6 19.5t18 9.5h143q19 0 27 -14l215 -273q8 -12 4 -20t-18 -8h-107
q-18 0 -29 14z" />
    <glyph glyph-name="ygrave" unicode="&#x1ef3;" horiz-adv-x="1128" 
d="M819 244v790q0 11 6.5 18t16.5 7h121q24 0 24 -25v-1005q0 -212 -107 -325t-325 -114q-228 0 -395 142q-14 14 -2 35l61 83q15 22 33 7q150 -113 303 -115q136 2 202 72.5t62 224.5v47q-127 -53 -254 -53q-85 0 -161.5 25.5t-138 74t-98 128t-36.5 179.5v594q0 11 6.5 18
t16.5 7h120q25 0 25 -25v-585q0 -133 79.5 -197t207.5 -64q135 0 233 56zM651 1223h-92q-19 0 -29 14l-196 272q-9 12 -5.5 20.5t17.5 8.5h129q19 0 29 -14l166 -273q7 -12 1 -20t-20 -8z" />
    <glyph glyph-name="endash" unicode="&#x2013;" horiz-adv-x="1210" 
d="M1075 672v-111q0 -22 -22 -22h-895q-23 0 -23 22v111q0 22 23 22h895q22 0 22 -22z" />
    <glyph glyph-name="emdash" unicode="&#x2014;" horiz-adv-x="1972" 
d="M1837 672v-111q0 -22 -25 -22h-1652q-25 0 -25 22v111q0 22 25 22h1652q25 0 25 -22z" />
    <glyph glyph-name="quoteleft" unicode="&#x2018;" horiz-adv-x="448" 
d="M92 1038l135 408q3 18 25 18h100q12 0 18 -7.5t3 -18.5l-107 -406q-6 -20 -24 -20h-131q-12 0 -17.5 8t-1.5 18z" />
    <glyph glyph-name="quoteright" unicode="&#x2019;" horiz-adv-x="444" 
d="M379 1438l-135 -408q-6 -18 -27 -18h-100q-12 0 -18 7.5t-3 18.5l107 406q6 20 26 20h129q12 0 18 -7.5t3 -18.5z" />
    <glyph glyph-name="quotesinglbase" unicode="&#x201a;" horiz-adv-x="440" 
d="M324 186l-136 -407q-3 -19 -26 -19h-101q-23 0 -20 27l109 406q3 20 24 20h129q12 0 18 -8t3 -19z" />
    <glyph glyph-name="quotedblleft" unicode="&#x201c;" horiz-adv-x="759" 
d="M244 1012h-131q-12 0 -18 7.5t-3 18.5l135 406q7 20 27 20h100q13 0 19 -7t2 -19l-107 -406q-6 -20 -24 -20zM553 1012h-131q-12 0 -17.5 8t-1.5 18l136 406q3 20 26 20h101q26 0 20 -26l-108 -406q-6 -20 -25 -20z" />
    <glyph glyph-name="quotedblright" unicode="&#x201d;" horiz-adv-x="753" 
d="M217 1012h-100q-13 0 -19 7t-2 19l107 406q6 20 24 20h131q12 0 17.5 -8t1.5 -18l-133 -406q-7 -20 -27 -20zM526 1012h-100q-26 0 -20 26l106 406q6 20 27 20h129q12 0 17.5 -7.5t2.5 -18.5l-135 -406q-7 -20 -27 -20z" />
    <glyph glyph-name="quotedblbase" unicode="&#x201e;" horiz-adv-x="747" 
d="M162 -240h-101q-12 0 -18 7.5t-2 19.5l106 406q6 20 25 20h129q12 0 18.5 -7.5t2.5 -19.5l-136 -405q-4 -21 -24 -21zM471 -240h-100q-12 0 -18.5 7.5t-2.5 19.5l107 406q6 20 24 20h131q12 0 17.5 -7.5t1.5 -19.5l-133 -405q-7 -21 -27 -21z" />
    <glyph glyph-name="dagger" unicode="&#x2020;" horiz-adv-x="1126" 
d="M625 -285h-121q-23 0 -23 23v1163h-356q-25 0 -25 23v108q0 23 25 23h356v448q0 23 23 23h121q22 0 22 -23v-448h357q22 0 22 -23v-108q0 -23 -22 -23h-357v-1163q0 -23 -22 -23z" />
    <glyph glyph-name="daggerdbl" unicode="&#x2021;" horiz-adv-x="1126" 
d="M625 -285h-121q-23 0 -23 23v455h-356q-25 0 -25 24v107q0 24 25 24h356v553h-356q-25 0 -25 23v108q0 23 25 23h356v448q0 23 23 23h121q22 0 22 -23v-448h357q22 0 22 -23v-108q0 -23 -22 -23h-357v-553h357q22 0 22 -24v-107q0 -24 -22 -24h-357v-455q0 -23 -22 -23z
" />
    <glyph glyph-name="bullet" unicode="&#x2022;" horiz-adv-x="737" 
d="M369 465q-87 0 -143 56t-56 145q0 87 56 142.5t143 55.5t142.5 -55.5t55.5 -142.5q0 -89 -55.5 -145t-142.5 -56z" />
    <glyph glyph-name="ellipsis" unicode="&#x2026;" horiz-adv-x="1230" 
d="M330 102q0 -49 -31.5 -80.5t-81.5 -31.5q-51 0 -82 31t-31 81q0 51 31 83t82 32q50 0 81.5 -32t31.5 -83zM729 102q0 -49 -31.5 -80.5t-81.5 -31.5q-51 0 -81.5 31t-30.5 81q0 51 30.5 83t81.5 32q50 0 81.5 -32t31.5 -83zM1128 102q0 -50 -31.5 -81t-82.5 -31t-82 31
t-31 81q0 51 31 83t82 32t82.5 -32t31.5 -83z" />
    <glyph glyph-name="perthousand" unicode="&#x2030;" horiz-adv-x="2185" 
d="M2101 233q0 -119 -77 -185t-185 -66t-185 66t-77 185v252q0 122 76.5 188t185.5 66t185.5 -66t76.5 -188v-252zM1700 244q0 -71 40.5 -108.5t98.5 -37.5t97.5 37.5t39.5 108.5v227q0 74 -39.5 113t-97.5 39q-60 0 -99.5 -39t-39.5 -113v-227zM623 969
q0 -119 -77.5 -185.5t-185.5 -66.5t-185 66.5t-77 185.5v252q0 122 76.5 188t185.5 66t186 -66t77 -188v-252zM334 0h-107q-13 0 -17.5 9t1.5 20l950 1407q11 14 29 14h106q13 0 18 -9t-1 -20l-951 -1407q-11 -14 -28 -14zM221 979q0 -71 40 -108t99 -37q58 0 98 37t40 108
v227q0 74 -40 113t-98 39q-60 0 -99.5 -39t-39.5 -113v-227zM1448 233q0 -119 -77 -185t-185 -66q-107 0 -184.5 66t-77.5 185v252q0 122 76.5 188t185.5 66q110 0 186 -66t76 -188v-252zM1049 244q0 -71 39.5 -108.5t97.5 -37.5t97.5 37.5t39.5 108.5v227q0 74 -39.5 113
t-97.5 39t-97.5 -39t-39.5 -113v-227z" />
    <glyph glyph-name="guilsinglleft" unicode="&#x2039;" horiz-adv-x="632" 
d="M524 145h-131q-19 0 -28 15l-283 420q-8 16 0 32l283 420q9 15 28 15h131q14 0 18 -8.5t-3 -20.5l-287 -422l287 -422q7 -12 3 -20.5t-18 -8.5z" />
    <glyph glyph-name="guilsinglright" unicode="&#x203a;" horiz-adv-x="632" 
d="M238 145h-132q-13 0 -17.5 8.5t3.5 20.5l287 422l-287 422q-8 12 -3.5 20.5t17.5 8.5h132q19 0 28 -15l283 -420q8 -16 0 -32l-283 -420q-9 -15 -28 -15z" />
    <glyph glyph-name="fraction" unicode="&#x2044;" horiz-adv-x="387" 
d="M799 1436l-1082 -1422q-8 -14 -28 -14h-84q-13 0 -18 9t1 20l1084 1421q8 14 28 14h84q13 0 18 -9t-3 -19z" />
    <glyph glyph-name="zero.sups" unicode="&#x2070;" horiz-adv-x="716" 
d="M635 1100q0 -126 -82.5 -198.5t-194.5 -72.5t-194 72t-82 199v272q0 129 81.5 201t194.5 72q114 0 195.5 -72t81.5 -201v-272zM201 1106q0 -79 45.5 -119.5t111.5 -40.5t112 40.5t46 119.5v260q0 81 -46 121.5t-112 40.5t-111.5 -40.5t-45.5 -121.5v-260z" />
    <glyph glyph-name="four.sups" unicode="&#x2074;" horiz-adv-x="671" 
d="M518 840h-74q-22 0 -22 22v150h-356q-23 0 -23 22v45q0 14 6 29l283 510q10 16 26 16h76q13 0 18 -8t-1 -20l-265 -478h236v148q0 24 22 24h74q23 0 23 -24v-148h59q25 0 25 -24v-70q0 -22 -25 -22h-59v-150q0 -22 -23 -22z" />
    <glyph glyph-name="five.sups" unicode="&#x2075;" horiz-adv-x="681" 
d="M618 1102q0 -129 -76.5 -201t-203.5 -72q-163 0 -260 115q-14 17 4 35l39 47q15 16 33 -2q72 -78 182 -78q75 0 118 40.5t44 115.5q0 77 -42.5 115t-115.5 38q-93 0 -158 -65q-14 -14 -32 -8l-50 16q-18 4 -18 27l12 387q0 22 25 22h432q22 0 22 -22v-68q0 -24 -22 -24
h-354l-7 -213q65 59 166 59q111 0 186.5 -68t75.5 -196z" />
    <glyph glyph-name="six.sups" unicode="&#x2076;" horiz-adv-x="688" 
d="M625 1100q0 -122 -74.5 -196.5t-192.5 -74.5q-125 0 -200.5 74t-75.5 197v293q0 118 77 185t197 67q133 0 240 -93q17 -14 2 -32l-37 -47q-8 -9 -17.5 -10.5t-15.5 5.5q-86 64 -168 64q-73 0 -116 -38.5t-43 -104.5v-115q60 76 166 76q111 0 184.5 -66t73.5 -184z
M201 1100q0 -69 42.5 -111.5t108.5 -42.5q69 0 111.5 42.5t42.5 111.5q0 66 -40.5 103.5t-111.5 37.5q-68 0 -110.5 -39t-42.5 -102z" />
    <glyph glyph-name="seven.sups" unicode="&#x2077;" horiz-adv-x="622" 
d="M225 840h-84q-12 0 -16.5 8t0.5 18l309 652h-366q-23 0 -23 22v72q0 22 23 22h489q25 0 25 -22v-49q0 -11 -7 -29l-323 -678q-8 -16 -27 -16z" />
    <glyph glyph-name="eight.sups" unicode="&#x2078;" horiz-adv-x="708" 
d="M637 1073q0 -112 -78.5 -178t-204.5 -66t-204 65.5t-78 178.5q0 62 33 112.5t96 74.5q-111 51 -111 170q0 97 72.5 156t191.5 59q117 0 190.5 -59.5t73.5 -155.5q0 -120 -110 -170q63 -24 96 -74.5t33 -112.5zM209 1425q0 -50 38 -82t107 -32t107.5 32.5t38.5 81.5
t-40 79t-106 30q-65 0 -105 -30t-40 -79zM193 1075q0 -57 43 -93t118 -36t118.5 36t43.5 93q0 53 -43.5 86t-118.5 33t-118 -33t-43 -86z" />
    <glyph glyph-name="nine.sups" unicode="&#x2079;" horiz-adv-x="692" 
d="M66 1384q0 117 75 189t195 72q122 0 198 -73t76 -194v-297q0 -118 -76.5 -185t-195.5 -67q-140 0 -246 103q-15 15 -2 35l39 49q6 9 15.5 10t17.5 -6q80 -76 172 -76q73 0 115.5 38t42.5 103v119q-58 -78 -168 -78t-184 68t-74 190zM492 1380q0 68 -43 110t-111 42
t-110 -41t-42 -107q0 -70 40.5 -109.5t109.5 -39.5q71 0 113.5 39.5t42.5 105.5z" />
    <glyph glyph-name="zero.sinf" unicode="&#x2080;" horiz-adv-x="716" 
d="M635 55q0 -126 -82.5 -198t-194.5 -72t-194 72t-82 198v273q0 129 81.5 200.5t194.5 71.5q114 0 195.5 -71.5t81.5 -200.5v-273zM201 61q0 -79 45.5 -119t111.5 -40t112 40t46 119v261q0 81 -46 121t-112 40t-111.5 -40t-45.5 -121v-261z" />
    <glyph glyph-name="one.sinf" unicode="&#x2081;" horiz-adv-x="432" 
d="M301 -205h-74q-22 0 -22 23v628l-103 -71q-17 -14 -30 6l-35 49q-12 16 6 31l168 119q13 10 29 10h61q23 0 23 -23v-749q0 -23 -23 -23z" />
    <glyph glyph-name="two.sinf" unicode="&#x2082;" horiz-adv-x="653" 
d="M567 -205h-489q-23 0 -23 23v61q0 18 11 29l219 211q41 43 55.5 59t43.5 51t40 54.5t21 47t10 52.5q0 49 -33.5 75.5t-95.5 26.5q-95 0 -174 -79q-19 -19 -33 2l-39 51q-12 19 2 33q104 108 250 108q112 0 176.5 -59.5t64.5 -155.5q0 -87 -50.5 -164t-168.5 -192
l-123 -117h336q23 0 23 -23v-71q0 -23 -23 -23z" />
    <glyph glyph-name="three.sinf" unicode="&#x2083;" horiz-adv-x="657" 
d="M594 45q0 -116 -77.5 -189t-192.5 -71q-158 2 -271 115q-14 18 -2 30l41 50q15 17 33 2q79 -82 199 -82q67 0 109 42.5t42 114.5q0 62 -41.5 101t-114.5 39q-34 0 -69 -7q-23 -3 -29 17l-12 26q-6 18 6 33l145 164l50 51h-299q-25 0 -25 23v63q0 23 25 23h440
q22 0 22 -23v-39q0 -14 -12 -26l-205 -228h27q95 0 153 -65.5t58 -163.5z" />
    <glyph glyph-name="four.sinf" unicode="&#x2084;" horiz-adv-x="671" 
d="M518 -205h-74q-22 0 -22 23v149h-356q-23 0 -23 23v45q0 13 6 28l283 510q10 17 26 17h76q13 0 18 -8.5t-1 -20.5l-265 -477h236v147q0 25 22 25h74q10 0 16.5 -7t6.5 -18v-147h59q25 0 25 -25v-69q0 -23 -25 -23h-59v-149q0 -23 -23 -23z" />
    <glyph glyph-name="five.sinf" unicode="&#x2085;" horiz-adv-x="681" 
d="M621 57q0 -129 -77.5 -200.5t-203.5 -71.5q-165 0 -260 119q-13 16 4 33l39 45q15 16 33 -2q72 -78 182 -78q75 0 118 40t44 115q0 77 -42.5 115.5t-115.5 38.5q-95 0 -158 -66q-14 -14 -32 -8l-50 17q-20 3 -20 26l14 387q0 23 25 23h432q22 0 22 -23v-67q0 -25 -22 -25
h-354l-6 -213q66 60 165 60q52 0 98.5 -16.5t83.5 -48t59 -83.5t22 -117z" />
    <glyph glyph-name="six.sinf" unicode="&#x2086;" horiz-adv-x="688" 
d="M625 55q0 -122 -74.5 -196t-192.5 -74q-125 0 -200.5 73.5t-75.5 196.5v293q0 118 77 185t195 67q134 0 236 -92q17 -14 4 -33l-39 -47q-6 -9 -15.5 -10t-17.5 6q-81 63 -166 63q-72 0 -113.5 -38.5t-41.5 -104.5v-115q60 76 166 76q111 0 184.5 -66t73.5 -184zM201 55
q0 -69 42.5 -111t108.5 -42q70 0 112 42t42 111q0 66 -40.5 104t-111.5 38q-68 0 -110.5 -39.5t-42.5 -102.5z" />
    <glyph glyph-name="seven.sinf" unicode="&#x2087;" horiz-adv-x="622" 
d="M225 -205h-84q-12 0 -16.5 8.5t0.5 18.5l309 651h-366q-23 0 -23 23v71q0 23 23 23h491q23 0 23 -23v-49q0 -11 -7 -29l-323 -677q-8 -17 -27 -17z" />
    <glyph glyph-name="eight.sinf" unicode="&#x2088;" horiz-adv-x="708" 
d="M637 29q0 -112 -78.5 -178t-204.5 -66t-204 65.5t-78 178.5q0 61 32.5 111.5t94.5 74.5q-109 50 -109 170q0 97 72 156t192 59q117 0 189.5 -59t72.5 -156q0 -121 -108 -170q63 -24 96 -74t33 -112zM207 381q0 -49 39 -82t108 -33t107.5 32.5t38.5 82.5q0 49 -40.5 78.5
t-105.5 29.5q-66 0 -106.5 -29.5t-40.5 -78.5zM193 31q0 -57 43 -93t118 -36t118.5 36t43.5 93q0 53 -43.5 86t-118.5 33t-118 -33t-43 -86z" />
    <glyph glyph-name="nine.sinf" unicode="&#x2089;" horiz-adv-x="692" 
d="M66 334q0 119 74 192.5t192 73.5q125 0 200.5 -73t75.5 -197v-293q0 -118 -76.5 -185t-195.5 -67q-135 0 -240 92q-17 14 -4 33l39 47q6 9 15.5 10t17.5 -6q81 -63 170 -63q72 0 113.5 38.5t41.5 104.5v117q-61 -78 -165 -78q-111 0 -184.5 66.5t-73.5 187.5zM489 330
q0 69 -42.5 111t-108.5 42q-69 0 -111.5 -41t-42.5 -108q0 -68 41 -107t111 -39q68 0 110.5 39.5t42.5 102.5z" />
    </font>
</defs>
</svg>
