<?xml version="1.0" standalone="no"?>
<!DOCTYPE svg PUBLIC "-//W3C//DTD SVG 1.1//EN" "http://www.w3.org/Graphics/SVG/1.1/DTD/svg11.dtd" >
<svg xmlns="http://www.w3.org/2000/svg" xmlns:xlink="http://www.w3.org/1999/xlink" version="1.1">
<metadata>
Created by FontForge 20201107 at Mon Oct  6 18:34:47 2025
 By 
Copyright (c) 2016 by FontfabricLLC. All rights reserved.
</metadata>
<defs>
<font id="UniNeueHeavy" horiz-adv-x="1290" >
  <font-face 
    font-family="Uni Neue Heavy"
    font-weight="800"
    font-stretch="normal"
    units-per-em="2048"
    panose-1="0 0 0 0 0 0 0 0 0 0"
    ascent="1536"
    descent="-512"
    x-height="1065"
    cap-height="1464"
    bbox="-357.118 -592 2316 2120"
    underline-thickness="102"
    underline-position="-255"
    unicode-range="U+0020-25CA"
  />
<missing-glyph horiz-adv-x="421" 
 />
    <glyph glyph-name=".notdef" horiz-adv-x="421" 
 />
    <glyph glyph-name=".null" horiz-adv-x="0" 
 />
    <glyph glyph-name="nonmarkingreturn" horiz-adv-x="682" 
 />
    <glyph glyph-name="space" unicode=" " horiz-adv-x="421" 
 />
    <glyph glyph-name="exclam" unicode="!" horiz-adv-x="567" 
d="M383 446h-201q-35 0 -35 37l-20 582v362q0 37 35 37h241q37 0 37 -37v-362l-20 -582q0 -37 -37 -37zM469 158q0 -77 -52.5 -130t-133.5 -53t-133 52.5t-52 130.5q0 80 51.5 131t133.5 51t134 -51t52 -131z" />
    <glyph glyph-name="quotedbl" unicode="&#x22;" horiz-adv-x="821" 
d="M389 1425l-59 -503q-1 -17 -12 -26t-27 -9h-156q-33 0 -33 37l19 503q0 37 39 37h196q39 0 33 -39zM743 1425l-59 -503q-1 -17 -12 -26t-27 -9h-156q-32 0 -32 37l18 503q0 18 10.5 27.5t26.5 9.5h199q38 0 32 -39z" />
    <glyph glyph-name="numbersign" unicode="#" horiz-adv-x="1626" 
d="M449 0h-187q-19 0 -27 11t-2 30l95 330h-244q-19 0 -27 12t-2 29l45 155q5 31 39 31h252l72 262h-242q-20 0 -28 11.5t-3 29.5l46 156q9 30 40 30h252l99 347q6 30 39 30h186q19 0 28 -11.5t3 -29.5l-97 -336h252l99 347q9 30 41 30h186q19 0 27.5 -11t3.5 -30l-97 -336
h242q19 0 27.5 -10.5t3.5 -27.5l-45 -158q-9 -31 -41 -31h-250l-74 -262h242q19 0 27 -11t2 -28l-43 -158q-9 -30 -41 -30h-250l-97 -340q-9 -31 -40 -31h-187q-19 0 -27.5 11t-3.5 30l97 330h-254l-97 -340q-9 -31 -40 -31zM723 860l-72 -262h252l72 262h-252z" />
    <glyph glyph-name="dollar" unicode="$" horiz-adv-x="1263" 
d="M676 891q54 -13 87 -21.5t83 -23.5t82 -28.5t73.5 -35t68 -44t54.5 -54.5t43.5 -68t26 -82.5t10.5 -99.5q0 -85 -25.5 -155.5t-68 -120t-101.5 -86.5t-123.5 -58.5t-137.5 -31.5v-158q0 -37 -37 -37h-185q-37 0 -37 37v160q-210 28 -415 192q-26 20 -6 51l139 195
q20 30 49 8q198 -138 387 -141q91 0 154 37t63 104q0 27 -14 48.5t-33.5 36t-58 28.5t-70.5 22t-88 21q-56 14 -98 26t-99 33.5t-98 45t-85 59.5t-71.5 78t-45 100t-17.5 125q0 184 109.5 290.5t297.5 135.5v149q0 37 37 37h185q37 0 37 -37v-141q196 -23 397 -156
q29 -19 10 -51l-131 -195q-20 -29 -51 -10q-167 105 -352 105q-93 0 -145 -36t-52 -102q0 -25 12.5 -45.5t31 -34t55 -27.5t67.5 -22.5t86 -21.5z" />
    <glyph glyph-name="percent" unicode="%" horiz-adv-x="1687" 
d="M672 971q0 -137 -84 -213t-219 -76q-134 0 -218.5 76t-84.5 213v217q0 137 84 212t219 75q136 0 219.5 -75t83.5 -212v-217zM479 0h-180q-21 0 -27.5 13t4.5 30l879 1393q15 22 45 22h178q21 0 28.5 -13t-3.5 -30l-881 -1392q-14 -23 -43 -23zM283 975q0 -48 24 -72
t62 -24q39 0 63.5 24t24.5 72v209q0 47 -24.5 70.5t-63.5 23.5q-38 0 -62 -23.5t-24 -70.5v-209zM1622 274q0 -137 -84 -212.5t-219 -75.5t-219 75.5t-84 212.5v218q0 137 84 211.5t219 74.5t219 -74.5t84 -211.5v-218zM1233 276q0 -47 24 -70.5t62 -23.5t62 23.5t24 70.5
v211q0 45 -24.5 70t-61.5 25t-61.5 -25t-24.5 -70v-211z" />
    <glyph glyph-name="ampersand" unicode="&#x26;" horiz-adv-x="1282" 
d="M868 113q-160 -136 -352 -136q-122 0 -223.5 52.5t-163 152.5t-61.5 228q0 73 20.5 136t59.5 113t82 87.5t100 74.5q-129 172 -129 318q0 150 112 251t277 101q167 0 273 -102t106 -259q-1 -66 -21.5 -124t-59.5 -105.5t-81 -83.5t-98 -74q27 -33 79 -98t78 -98
q50 76 76 139q17 34 47 19l174 -80q31 -14 19 -47q-45 -118 -135 -261q35 -46 105 -137t105 -137q14 -17 8 -30t-28 -13h-258q-29 0 -43 20q-11 16 -33.5 47t-34.5 46zM475 1139q0 -83 78 -185q71 46 107 88t36 97q0 47 -28.5 79.5t-79.5 32.5t-82 -32.5t-31 -79.5zM352 412
q0 -74 52.5 -121t127.5 -47q99 0 175 82q-187 238 -218 278q-67 -46 -102 -91t-35 -101z" />
    <glyph glyph-name="quotesingle" unicode="'" horiz-adv-x="468" 
d="M391 1425l-61 -505q-3 -33 -37 -33h-156q-35 0 -35 35l19 505q0 37 39 37h196q38 0 35 -39z" />
    <glyph glyph-name="parenleft" unicode="(" horiz-adv-x="651" 
d="M602 -238h-223q-27 0 -43 25q-258 468 -258 942t258 942q16 25 43 25h223q22 0 28.5 -12t-5.5 -31q-129 -218 -198 -456t-69 -468t69 -468t198 -456q12 -19 5.5 -31t-28.5 -12z" />
    <glyph glyph-name="parenright" unicode=")" horiz-adv-x="651" 
d="M270 -238h-223q-22 0 -28 12t6 31q128 218 197 456t69 468t-69 468t-197 456q-12 19 -6 31t28 12h223q27 0 43 -25q258 -468 258 -942t-258 -942q-16 -25 -43 -25z" />
    <glyph glyph-name="asterisk" unicode="*" horiz-adv-x="942" 
d="M311 696l-145 103q-27 20 -8 49l112 153l-180 60q-33 10 -22 43l53 170q12 34 45 24l180 -59v188q0 37 37 37h176q37 0 37 -37v-188l180 57q34 13 43 -22l55 -168q12 -33 -22 -45l-180 -57l110 -154q20 -31 -6 -51l-143 -105q-29 -20 -51 8l-111 154l-111 -154
q-9 -12 -23 -13.5t-26 7.5z" />
    <glyph glyph-name="plus" unicode="+" 
d="M795 831h309q37 0 37 -36v-220q0 -36 -37 -36h-309v-314q0 -37 -37 -37h-228q-34 0 -34 37v314h-312q-34 0 -34 36v220q0 36 34 36h312v314q0 37 34 37h228q37 0 37 -37v-314z" />
    <glyph glyph-name="comma" unicode="," horiz-adv-x="514" 
d="M426 258l-164 -510q-10 -29 -41 -29h-178q-19 0 -27.5 11t-3.5 28l121 508q10 33 39 33h223q19 0 27.5 -11t3.5 -30z" />
    <glyph glyph-name="hyphen" unicode="-" horiz-adv-x="823" 
d="M672 473h-520q-37 0 -37 37v205q0 37 37 37h520q37 0 37 -37v-205q0 -37 -37 -37z" />
    <glyph glyph-name="period" unicode="." horiz-adv-x="522" 
d="M444 160q0 -76 -51.5 -127t-132.5 -51t-131.5 51t-50.5 127q0 80 50.5 130t131.5 50q82 0 133 -50t51 -130z" />
    <glyph glyph-name="slash" unicode="/" horiz-adv-x="974" 
d="M922 1423l-570 -1396q-9 -27 -41 -27h-235q-20 0 -27.5 11t0.5 30l574 1397q9 26 41 26h231q21 0 28.5 -11t-1.5 -30z" />
    <glyph glyph-name="zero" unicode="0" horiz-adv-x="1275" 
d="M1167 508q0 -174 -70 -296.5t-187.5 -180.5t-270.5 -58q-154 0 -271.5 58t-188 180.5t-70.5 296.5v459q0 170 70.5 290t188.5 177t271 57t270.5 -57t187.5 -177t70 -290v-459zM426 494q0 -114 59 -166t154 -52t154 52t59 166v479q0 114 -59 165.5t-154 51.5t-154 -51.5
t-59 -165.5v-479z" />
    <glyph glyph-name="one" unicode="1" horiz-adv-x="827" 
d="M649 2h-248q-34 0 -34 35v1050l-181 -131q-30 -20 -51 11l-115 180q-17 25 11 49l356 254q20 14 45 14h217q35 0 35 -37v-1390q0 -35 -35 -35z" />
    <glyph glyph-name="two" unicode="2" horiz-adv-x="1177" 
d="M1055 0h-951q-36 0 -36 37v178q0 27 18 45l336 338q187 187 256.5 278.5t69.5 174.5q0 64 -43 105.5t-132 41.5q-84 0 -151.5 -37t-136.5 -104q-25 -28 -49 2l-127 170q-18 28 2 51q207 211 475 211q220 0 350.5 -113.5t130.5 -318.5q0 -120 -54.5 -223.5t-176.5 -243.5
q-134 -152 -304 -305h523q37 0 37 -35v-215q0 -37 -37 -37z" />
    <glyph glyph-name="three" unicode="3" horiz-adv-x="1179" 
d="M1104 471q0 -237 -145.5 -366.5t-399.5 -129.5q-165 0 -284.5 46.5t-217.5 130.5q-22 22 0 51l121 170q9 12 24 11.5t27 -11.5q81 -52 152.5 -77.5t177.5 -25.5q105 0 163 55t58 160q0 197 -237 197q-61 0 -135 -18q-30 -9 -46 22l-49 113q-13 25 11 49l325 328h-489
q-35 0 -35 34v217q0 37 35 37h854q35 0 35 -37v-170q0 -26 -19 -45l-332 -331v-4q110 4 202.5 -46t148 -145t55.5 -215z" />
    <glyph glyph-name="four" unicode="4" horiz-adv-x="1228" 
d="M989 0h-244q-36 0 -36 37v223h-625q-37 0 -37 35v178q0 18 10 45l478 920q12 26 40 26h275q22 0 29 -12t-2 -31l-451 -880h283l26 262q6 33 39 33h215q37 0 37 -35v-260h119q35 0 35 -35v-211q0 -35 -35 -35h-119v-223q0 -37 -37 -37z" />
    <glyph glyph-name="five" unicode="5" horiz-adv-x="1210" 
d="M1139 487q0 -236 -146 -374t-395 -138q-307 0 -502 179q-21 24 0 51l127 168q20 26 51 2q150 -105 316 -105q115 0 173 58.5t58 167.5q0 196 -223 196q-144 0 -242 -67q-27 -18 -49 -11l-157 52q-31 9 -31 41l26 720q0 17 10.5 27t26.5 10h828q37 0 37 -37v-221
q0 -35 -37 -35h-568l-10 -274q37 26 99.5 42.5t130.5 16.5q220 0 348.5 -126t128.5 -343z" />
    <glyph glyph-name="six" unicode="6" horiz-adv-x="1241" 
d="M430 864q107 70 254 70q223 0 354 -121.5t131 -333.5q0 -228 -144.5 -367t-383.5 -139q-238 0 -384 137.5t-146 358.5v500q0 241 149 381.5t383 140.5q126 0 243 -37t208 -102q26 -20 8 -49l-117 -181q-20 -29 -51 -10q-123 86 -285 86q-102 0 -160.5 -58t-58.5 -163
v-113zM430 483q0 -103 55.5 -158t153.5 -55q97 0 152 56t55 157q0 92 -52 143.5t-153 51.5q-95 0 -153 -50.5t-58 -144.5z" />
    <glyph glyph-name="seven" unicode="7" horiz-adv-x="1099" 
d="M487 0h-274q-20 0 -28 12t1 31l498 1124h-600q-37 0 -37 35v225q0 37 37 37h938q37 0 37 -37v-172q0 -18 -10 -45l-519 -1181q-13 -29 -43 -29z" />
    <glyph glyph-name="eight" unicode="8" horiz-adv-x="1286" 
d="M1196 440q0 -220 -148 -343.5t-405 -123.5q-256 0 -404.5 123.5t-148.5 343.5q0 112 51.5 202.5t145.5 137.5q-156 118 -156 301q0 178 141 294t371 116q229 0 370.5 -115.5t141.5 -294.5q0 -185 -154 -301q94 -49 144.5 -138.5t50.5 -201.5zM414 444q0 -85 62 -135.5
t167 -50.5q107 0 168 50.5t61 135.5q0 83 -61 130t-168 47q-106 0 -167.5 -47t-61.5 -130zM438 1057q0 -80 54 -125t151 -45t152 45.5t55 124.5q0 73 -55 115t-152 42t-151 -41.5t-54 -115.5z" />
    <glyph glyph-name="nine" unicode="9" horiz-adv-x="1245" 
d="M78 987q0 226 144.5 365t383.5 139q237 0 383 -137.5t146 -356.5v-501q0 -160 -70 -280t-189.5 -181.5t-271.5 -61.5q-131 0 -255 39.5t-218 108.5q-28 19 -10 51l119 190q19 31 51 9q139 -101 305 -101q103 0 161 58.5t58 167.5v106q-103 -70 -252 -70
q-223 0 -354 121.5t-131 333.5zM399 989q0 -96 53 -147t156 -51q93 0 150 50t57 144v16q0 91 -56 145t-151 54q-98 0 -153.5 -55.5t-55.5 -155.5z" />
    <glyph glyph-name="colon" unicode=":" horiz-adv-x="579" 
d="M469 911q0 -82 -49 -131t-131 -49q-80 0 -129 49.5t-49 130.5q0 82 49 132.5t129 50.5q81 0 130.5 -50.5t49.5 -132.5zM469 162q0 -83 -49 -132.5t-131 -49.5q-80 0 -129 49.5t-49 132.5q0 81 49 130.5t129 49.5q82 0 131 -49t49 -131z" />
    <glyph glyph-name="semicolon" unicode=";" horiz-adv-x="581" 
d="M248 -281h-180q-40 0 -31 39l121 518q9 31 39 31h223q19 0 27.5 -11t3.5 -30l-164 -516q-9 -31 -39 -31zM479 911q0 -82 -49 -131t-131 -49q-80 0 -129 49.5t-49 130.5q0 82 49 132.5t129 50.5q81 0 130.5 -50.5t49.5 -132.5z" />
    <glyph glyph-name="less" unicode="&#x3c;" 
d="M1104 408v-254q0 -20 -12 -28t-31 1l-922 438q-26 12 -26 41v139q0 27 26 41l922 439q19 9 31 1t12 -28v-254q0 -30 -29 -43l-559 -225l559 -227q29 -10 29 -41z" />
    <glyph glyph-name="equal" unicode="=" 
d="M1104 752h-920q-34 0 -34 34v222q0 34 34 34h920q37 0 37 -34v-222q0 -34 -37 -34zM1104 315h-920q-34 0 -34 37v219q0 35 34 35h920q37 0 37 -35v-219q0 -37 -37 -37z" />
    <glyph glyph-name="greater" unicode="&#x3e;" 
d="M1151 565l-922 -438q-19 -9 -31 -1t-12 28v254q0 31 29 41l557 227l-557 225q-29 13 -29 43v254q0 20 12 28t31 -1l922 -439q27 -15 27 -41v-139q0 -29 -27 -41z" />
    <glyph glyph-name="question" unicode="?" horiz-adv-x="1048" 
d="M594 438h-227q-37 0 -37 35v80q0 63 19 113.5t49.5 83.5t67 60.5t73 51t67 49t49.5 61t19 79.5q0 71 -46.5 117t-144.5 46q-147 0 -262 -100q-29 -26 -49 4l-115 172q-18 24 4 49q69 64 187.5 108t251.5 44q96 0 181 -26t153.5 -76.5t108.5 -135.5t40 -194
q0 -73 -19.5 -130t-50.5 -93t-68.5 -65.5t-75 -54.5t-68.5 -51.5t-50.5 -65.5t-19.5 -89v-43q0 -29 -37 -29zM666 160q0 -77 -52 -128.5t-131 -51.5q-81 0 -131.5 51t-50.5 129t50.5 128t131.5 50q80 0 131.5 -50t51.5 -128z" />
    <glyph glyph-name="at" unicode="@" horiz-adv-x="1857" 
d="M1251 -168q-74 -36 -188 -60t-193 -24q-380 0 -576 200.5t-196 563.5v276q0 156 51 283.5t151 221.5t259.5 146t366.5 52q564 0 805 -352q14 -20 14 -45v-523q0 -195 -96 -302t-236 -107q-149 0 -229 74q-51 -41 -117.5 -59.5t-165.5 -18.5q-150 0 -248 102.5t-98 249.5
v197q0 161 96 259.5t275 98.5q201 0 358 -82q25 -16 25 -43v-457q0 -98 96 -98q102 3 102 127v537q-75 95 -225.5 158t-337.5 63q-298 0 -449 -131t-151 -363v-264q0 -254 130 -397.5t370 -143.5q196 0 354 68q36 16 45 -23l33 -139q6 -30 -25 -45zM803 547q0 -162 133 -162
q70 0 127 33v397q-41 25 -117 25q-68 0 -105.5 -39t-37.5 -109v-145z" />
    <glyph glyph-name="A" unicode="A" horiz-adv-x="1359" 
d="M313 0h-274q-42 0 -29 41l475 1395q12 28 39 28h312q29 0 38 -28l476 -1395q7 -19 -1 -30t-28 -11h-272q-34 0 -43 31l-76 250h-498l-78 -250q-9 -31 -41 -31zM676 1106q-12 -41 -70 -239t-90 -302h330q-2 5 -162 541h-8z" />
    <glyph glyph-name="B" unicode="B" horiz-adv-x="1331" 
d="M1192 1051q0 -187 -141 -271q202 -84 202 -327q0 -213 -131.5 -333t-369.5 -120h-564q-36 0 -36 37v1390q0 37 36 37h560q211 0 327.5 -108.5t116.5 -304.5zM481 291h250q87 0 137 43t50 129q0 77 -48 121.5t-147 44.5h-242v-338zM856 1036q0 70 -40.5 107t-113.5 37
h-221v-287h221q154 0 154 143z" />
    <glyph glyph-name="C" unicode="C" horiz-adv-x="1216" 
d="M1169 121q-203 -150 -464 -150q-276 0 -437.5 142.5t-161.5 404.5v428q0 261 161 403t431 142q122 0 236 -34.5t203 -96.5q30 -18 10 -47l-129 -197q-20 -29 -51 -10q-115 74 -262 74q-127 0 -196 -66.5t-69 -179.5v-402q0 -118 70 -182.5t197 -64.5q156 0 284 86
q31 21 49 -9l131 -196q20 -30 -2 -45z" />
    <glyph glyph-name="D" unicode="D" horiz-adv-x="1378" 
d="M692 0h-504q-36 0 -36 37v1390q0 37 36 37h504q101 0 186.5 -18.5t159 -61t125 -107t80.5 -162.5t29 -222v-326q0 -125 -29 -222.5t-80 -161.5t-125.5 -105.5t-159 -59.5t-186.5 -18zM481 1157v-848h215q120 0 179 59t59 185v356q0 126 -59.5 187t-178.5 61h-215z" />
    <glyph glyph-name="E" unicode="E" horiz-adv-x="1212" 
d="M481 596v-299h609q36 0 36 -35v-225q0 -37 -36 -37h-902q-36 0 -36 37v1390q0 37 36 37h869q37 0 37 -37v-225q0 -35 -37 -35h-576v-280h508q37 0 37 -35v-221q0 -35 -37 -35h-508z" />
    <glyph glyph-name="F" unicode="F" horiz-adv-x="1167" 
d="M1112 1427v-233q0 -35 -37 -35h-594v-321h508q35 0 35 -37v-223q0 -37 -35 -37h-508v-504q0 -37 -37 -37h-256q-36 0 -36 37v1390q0 37 36 37h887q37 0 37 -37z" />
    <glyph glyph-name="G" unicode="G" horiz-adv-x="1341" 
d="M1225 186q-97 -98 -234 -155.5t-293 -57.5q-268 0 -430 143t-162 404v428q0 173 75.5 297t207 185t307.5 61q131 0 261 -35t231 -98q30 -21 10 -51l-137 -197q-19 -28 -49 -8q-135 78 -318 78q-119 0 -186.5 -62.5t-67.5 -179.5v-408q0 -120 69 -181.5t189 -61.5
q135 0 228 57v236h-219q-35 0 -35 36v201q0 35 35 35h497q35 0 35 -35v-590q0 -27 -14 -41z" />
    <glyph glyph-name="H" unicode="H" horiz-adv-x="1423" 
d="M942 891v536q0 37 37 37h256q37 0 37 -37v-1390q0 -37 -37 -37h-256q-37 0 -37 37v549h-461v-549q0 -37 -37 -37h-256q-36 0 -36 37v1390q0 37 36 37h256q37 0 37 -37v-536h461z" />
    <glyph glyph-name="I" unicode="I" horiz-adv-x="632" 
d="M481 1427v-1390q0 -37 -37 -37h-256q-36 0 -36 37v1390q0 37 36 37h256q37 0 37 -37z" />
    <glyph glyph-name="J" unicode="J" horiz-adv-x="1083" 
d="M946 522q0 -259 -137 -403t-371 -144q-120 0 -220 35.5t-198 110.5q-27 16 -10 47l123 194q19 31 51 9q119 -84 246 -84q92 0 139 56t47 177v907q0 37 35 37h258q37 0 37 -37v-905z" />
    <glyph glyph-name="K" unicode="K" horiz-adv-x="1320" 
d="M444 0h-256q-36 0 -36 37v1390q0 37 36 37h256q37 0 37 -37v-516l393 531q16 22 46 22h323q23 0 29.5 -12t-6.5 -31l-488 -598l545 -780q13 -17 6 -30t-29 -13h-315q-27 0 -43 25l-371 546l-90 -102v-432q0 -37 -37 -37z" />
    <glyph glyph-name="L" unicode="L" horiz-adv-x="1097" 
d="M1040 0h-852q-36 0 -36 37v1390q0 37 36 37h258q35 0 35 -37v-1122h559q35 0 35 -35v-233q0 -37 -35 -37z" />
    <glyph glyph-name="M" unicode="M" horiz-adv-x="1783" 
d="M440 0h-252q-36 0 -36 37v1390q0 37 36 37h291q29 0 41 -26l185 -357q72 -140 184 -403h8q77 191 182 403l187 357q12 26 41 26h290q35 0 35 -37v-1390q0 -37 -35 -37h-254q-36 0 -36 37v270q0 298 20 656l-8 2q-86 -208 -186 -412l-101 -203q-13 -26 -41 -26h-196
q-31 0 -41 26l-103 203q-100 204 -186 412l-8 -2q20 -358 20 -656v-270q0 -37 -37 -37z" />
    <glyph glyph-name="N" unicode="N" horiz-adv-x="1456" 
d="M442 0h-254q-36 0 -36 37v1390q0 37 36 37h273q29 0 41 -24l274 -490q162 -310 219 -438l6 2q-22 289 -22 547v366q0 37 37 37h254q35 0 35 -37v-1390q0 -37 -35 -37h-273q-27 0 -43 25l-266 442q-127 215 -237 477l-7 -2q33 -341 33 -584v-321q0 -37 -35 -37z" />
    <glyph glyph-name="O" unicode="O" horiz-adv-x="1402" 
d="M1298 557q0 -275 -157.5 -428.5t-440.5 -153.5q-281 0 -438.5 153.5t-157.5 428.5v354q0 274 157.5 427t438.5 153q283 0 440.5 -153t157.5 -427v-354zM440 563q0 -276 260 -276q261 0 261 276v342q0 275 -261 275q-129 0 -194.5 -70t-65.5 -205v-342z" />
    <glyph glyph-name="P" unicode="P" horiz-adv-x="1304" 
d="M186 1464h543q241 0 382.5 -140t141.5 -378q0 -239 -141.5 -379.5t-382.5 -140.5h-250v-389q0 -37 -35 -37h-258q-34 0 -34 37v1390q0 37 34 37zM479 731h205q117 0 174 53t57 162q0 215 -231 215h-205v-430z" />
    <glyph glyph-name="Q" unicode="Q" horiz-adv-x="1411" 
d="M1337 14l-166 -149q-25 -25 -51 0l-147 158q-121 -48 -273 -48q-281 0 -439.5 153t-158.5 427v356q0 274 158.5 427t439.5 153q283 0 440.5 -153t157.5 -427v-356q0 -212 -92 -352l131 -137q26 -26 0 -52zM440 561q0 -135 65.5 -204.5t194.5 -69.5t195 69.5t66 204.5v344
q0 275 -261 275q-260 0 -260 -275v-344z" />
    <glyph glyph-name="R" unicode="R" horiz-adv-x="1318" 
d="M1239 0h-301q-28 0 -41 25l-285 464h-131v-452q0 -37 -37 -37h-256q-36 0 -36 37v1390q0 37 36 37h498q259 0 402 -132t143 -361q0 -158 -76.5 -268.5t-218.5 -163.5l328 -496q11 -19 4 -31t-29 -12zM676 1161h-195v-385h195q114 0 165.5 46.5t51.5 146.5q0 99 -52 145.5
t-165 46.5z" />
    <glyph glyph-name="S" unicode="S" horiz-adv-x="1286" 
d="M1221 434q0 -214 -159 -336.5t-429 -122.5q-155 0 -281 47.5t-258 153.5q-27 21 -8 49l139 199q21 28 49 6q198 -138 381 -141q103 0 165.5 34.5t62.5 100.5q0 37 -20 65t-61.5 47t-81 30t-102.5 24q-73 15 -134 34t-135 57t-125 87t-85.5 126.5t-34.5 172.5
q0 138 75 235.5t198 143t282 45.5q136 0 252.5 -37t243.5 -121q33 -20 10 -49l-131 -197q-19 -29 -51 -10q-161 103 -340 103q-203 0 -203 -123q0 -27 11.5 -47.5t29 -34.5t54 -27.5t70.5 -23t95 -23.5q96 -24 164.5 -46.5t140.5 -60.5t116 -85t72 -117t28 -158z" />
    <glyph glyph-name="T" unicode="T" horiz-adv-x="1200" 
d="M61 1464h1078q35 0 35 -37v-233q0 -35 -35 -35h-375v-1122q0 -37 -35 -37h-258q-35 0 -35 37v1122h-375q-36 0 -36 35v233q0 37 36 37z" />
    <glyph glyph-name="U" unicode="U" horiz-adv-x="1419" 
d="M1280 539q0 -268 -150.5 -416t-420.5 -148t-420 148t-150 416v888q0 37 37 37h260q37 0 37 -37v-888q0 -124 60.5 -188t175.5 -64t177 64.5t62 187.5v888q0 37 35 37h262q35 0 35 -37v-888z" />
    <glyph glyph-name="V" unicode="V" horiz-adv-x="1372" 
d="M846 0h-320q-29 0 -39 29l-479 1394q-13 41 29 41h278q30 0 39 -30l215 -664q36 -113 113 -399h10q74 273 113 397l213 666q9 30 41 30h276q20 0 28 -11t1 -30l-479 -1394q-10 -29 -39 -29z" />
    <glyph glyph-name="W" unicode="W" horiz-adv-x="2041" 
d="M735 0h-293q-32 0 -41 31l-387 1392q-6 19 2.5 30t28.5 11h272q33 0 39 -32l113 -467q68 -282 115 -582h8q46 262 133 590l119 440q9 31 41 31h272q33 0 39 -31l123 -440q80 -314 129 -590h8q54 321 117 582l110 467q6 32 39 32h275q19 0 28 -11.5t3 -29.5l-388 -1392
q-9 -31 -41 -31h-292q-32 0 -41 31l-133 469q-31 116 -63 271.5t-46 258.5h-8q-12 -100 -43.5 -256t-63.5 -274l-133 -469q-9 -31 -41 -31z" />
    <glyph glyph-name="X" unicode="X" horiz-adv-x="1282" 
d="M848 735l407 -692q11 -17 4 -30t-28 -13h-301q-28 0 -41 27l-248 462l-246 -462q-17 -27 -43 -27h-301q-20 0 -27.5 13t3.5 30l409 692l-377 686q-10 19 -2.5 31t29.5 12h289q29 0 41 -26l225 -465l225 465q12 26 41 26h291q20 0 28 -12t-1 -31z" />
    <glyph glyph-name="Y" unicode="Y" horiz-adv-x="1255" 
d="M756 0h-260q-35 0 -35 37v485l-455 899q-9 19 -2 31t29 12h286q29 0 41 -28l267 -600l264 600q9 28 41 28h287q20 0 27.5 -12t-1.5 -31l-454 -901v-483q0 -37 -35 -37z" />
    <glyph glyph-name="Z" unicode="Z" horiz-adv-x="1265" 
d="M1155 0h-1049q-36 0 -36 37v158q0 23 14 47l641 917h-578q-36 0 -36 37v231q0 37 36 37h988q36 0 36 -37v-151q0 -28 -14 -45l-633 -926h631q35 0 35 -35v-233q0 -37 -35 -37z" />
    <glyph glyph-name="bracketleft" unicode="[" horiz-adv-x="651" 
d="M418 1442v-1426h137q35 0 35 -36v-183q0 -35 -35 -35h-383q-37 0 -37 35v1862q0 37 37 37h383q35 0 35 -37v-180q0 -37 -35 -37h-137z" />
    <glyph glyph-name="backslash" unicode="\" horiz-adv-x="974" 
d="M621 27l-570 1396q-9 19 -1.5 30t28.5 11h231q32 0 41 -26l574 -1397q8 -19 0.5 -30t-27.5 -11h-235q-32 0 -41 27z" />
    <glyph glyph-name="bracketright" unicode="]" horiz-adv-x="651" 
d="M233 16v1426h-137q-35 0 -35 37v180q0 37 35 37h383q37 0 37 -37v-1862q0 -35 -37 -35h-383q-35 0 -35 35v183q0 36 35 36h137z" />
    <glyph glyph-name="asciicircum" unicode="^" 
d="M362 1124h-247q-23 0 -29.5 12t6.5 31l397 496q17 20 43 20h228q23 0 43 -20l395 -496q13 -19 7.5 -31t-27.5 -12h-248q-27 0 -43 23l-242 313l-239 -313q-20 -23 -44 -23z" />
    <glyph glyph-name="underscore" unicode="_" horiz-adv-x="1130" 
d="M1079 -63v-187q0 -37 -37 -37h-954q-37 0 -37 37v187q0 36 37 36h954q37 0 37 -36z" />
    <glyph glyph-name="grave" unicode="`" horiz-adv-x="526" 
d="M424 1219h-178q-29 0 -43 20l-217 268q-15 19 -9.5 32t27.5 13h232q28 0 43 -24l167 -266q12 -17 6 -30t-28 -13z" />
    <glyph glyph-name="a" unicode="a" horiz-adv-x="1079" 
d="M109 981q78 50 187.5 81.5t233.5 31.5q216 0 332.5 -115t116.5 -344v-561q0 -32 -31 -41q-196 -60 -422 -60q-228 0 -354.5 88t-126.5 265q0 157 117 238t330 81q72 0 174 -12v20q0 86 -38 127t-134 41q-67 0 -139.5 -16t-116.5 -41q-13 -8 -28 -5t-22 17l-84 160
q-15 31 5 45zM362 334q0 -53 44 -80t120 -27q61 0 140 17v180q-61 12 -142 12q-162 0 -162 -102z" />
    <glyph glyph-name="b" unicode="b" horiz-adv-x="1138" 
d="M426 1059q99 35 190 35q198 0 320.5 -123.5t122.5 -329.5v-203q0 -216 -133.5 -340.5t-352.5 -124.5q-104 0 -221 20t-211 54q-28 11 -28 43v1337q0 37 37 37h241q35 0 35 -37v-368zM567 252q174 0 174 180v213q0 176 -172 176q-75 0 -143 -35v-512q61 -22 141 -22z" />
    <glyph glyph-name="c" unicode="c" horiz-adv-x="968" 
d="M930 86q-159 -113 -363 -113q-230 0 -357.5 120t-127.5 327v231q0 204 128 323.5t355 119.5q176 0 336 -97q29 -19 10 -51l-108 -164q-16 -27 -51 -12q-86 47 -172 47q-85 0 -133 -44t-48 -122v-231q0 -84 48.5 -127t130.5 -43q104 0 196 59q32 19 51 -10l111 -164
q20 -30 -6 -49z" />
    <glyph glyph-name="d" unicode="d" horiz-adv-x="1138" 
d="M713 1059v368q0 37 35 37h241q37 0 37 -37v-1337q0 -31 -29 -43q-94 -34 -211 -54t-221 -20q-219 0 -352 124t-133 341v203q0 206 122 329.5t320 123.5q92 0 191 -35zM399 432q0 -95 43.5 -138.5t128.5 -43.5q81 0 142 22v514q-68 35 -144 35q-170 0 -170 -176v-213z" />
    <glyph glyph-name="e" unicode="e" horiz-adv-x="1085" 
d="M1014 657v-196q0 -35 -37 -35h-580v-33q0 -77 46.5 -117t129.5 -40q135 0 261 73q27 21 47 -8l106 -141q20 -31 -6 -51q-177 -136 -418 -136q-136 0 -243 46t-172.5 144t-65.5 236v258q0 111 37.5 196.5t103 137t150 77.5t184.5 26q97 0 178 -25.5t144.5 -76.5t99 -136.5
t35.5 -198.5zM713 672q0 80 -43 121t-115 41q-74 0 -116 -40t-42 -122v-43h316v43z" />
    <glyph glyph-name="f" unicode="f" horiz-adv-x="692" 
d="M649 1217q-50 4 -86 4q-135 0 -135 -148v-35h193q34 0 34 -34v-197q0 -35 -34 -35h-193v-735q0 -37 -35 -37h-241q-37 0 -37 37v1048q0 195 107 300.5t288 105.5q86 0 135 -8q31 -6 31 -41v-191q0 -17 -7.5 -26.5t-19.5 -7.5z" />
    <glyph glyph-name="g" unicode="g" horiz-adv-x="1134" 
d="M1024 102q0 -265 -116 -390.5t-371 -125.5q-126 0 -222.5 26.5t-183.5 84.5q-27 20 -8 51l108 166q18 28 48 10q113 -67 245 -67q101 0 147.5 45t45.5 155q-95 -30 -191 -30q-202 0 -324 116t-122 322v168q0 117 37 206.5t104 144.5t155 82.5t195 27.5q215 0 426 -82
q27 -12 27 -43v-867zM397 461q0 -166 170 -166q100 0 144 35v465q-52 20 -138 20q-87 0 -131.5 -40.5t-44.5 -133.5v-180z" />
    <glyph glyph-name="h" unicode="h" horiz-adv-x="1161" 
d="M428 1061q91 33 207 33q194 0 309 -123.5t115 -349.5v-584q0 -37 -37 -37h-242q-37 0 -37 37v584q0 104 -41.5 150t-132.5 46q-76 0 -141 -26v-754q0 -37 -35 -37h-241q-37 0 -37 37v1390q0 37 37 37h241q35 0 35 -37v-366z" />
    <glyph glyph-name="i" unicode="i" horiz-adv-x="542" 
d="M393 0h-241q-37 0 -37 37v993q0 35 37 35h241q35 0 35 -35v-993q0 -37 -35 -37zM444 1384q0 -73 -48.5 -122.5t-123.5 -49.5q-74 0 -124 50t-50 122q0 75 49.5 123.5t124.5 48.5q76 0 124 -48.5t48 -123.5z" />
    <glyph glyph-name="j" unicode="j" horiz-adv-x="559" 
d="M444 -18q0 -188 -98.5 -293t-277.5 -105q-65 0 -117 10q-31 5 -31 39v203q0 17 10 26.5t27 8.5q18 -2 55 -2q61 0 90 36t29 113v1012q0 35 37 35h242q34 0 34 -35v-1048zM463 1384q0 -73 -49 -122.5t-123 -49.5q-76 0 -125 49.5t-49 122.5q0 75 49 123.5t125 48.5
q75 0 123.5 -48.5t48.5 -123.5z" />
    <glyph glyph-name="k" unicode="k" horiz-adv-x="1075" 
d="M1055 0h-289q-32 0 -43 25l-240 368l-57 -61v-295q0 -37 -37 -37h-237q-37 0 -37 37v1390q0 37 37 37h237q37 0 37 -37v-722l260 337q14 23 43 23h285q22 0 27.5 -12t-9.5 -31l-346 -406l391 -573q12 -19 6 -31t-28 -12z" />
    <glyph glyph-name="l" unicode="l" horiz-adv-x="659" 
d="M621 -14q-76 -13 -136 -13q-181 0 -280 105t-99 293v1056q0 37 37 37h242q35 0 35 -37v-1017q0 -150 121 -150q43 0 63 2q39 3 39 -35v-204q0 -34 -22 -37z" />
    <glyph glyph-name="m" unicode="m" horiz-adv-x="1683" 
d="M817 1006q86 45 156.5 65.5t150.5 20.5q207 0 332 -118t125 -331v-606q0 -37 -35 -37h-237q-37 0 -37 37v616q0 160 -158 160q-71 0 -133 -33q20 -59 20 -133v-610q0 -37 -34 -37h-238q-37 0 -37 37v616q0 162 -149 162q-62 0 -121 -18v-760q0 -37 -37 -37h-238
q-36 0 -36 37v930q0 31 28 45q194 80 400 80q156 0 278 -86z" />
    <glyph glyph-name="n" unicode="n" horiz-adv-x="1157" 
d="M389 -2h-242q-36 0 -36 37v932q0 31 26 43q206 84 430 84q234 0 361 -123t127 -353v-583q0 -37 -37 -37h-242q-37 0 -37 37v583q0 108 -43 152.5t-129 44.5q-84 0 -143 -18v-762q0 -37 -35 -37z" />
    <glyph glyph-name="o" unicode="o" horiz-adv-x="1136" 
d="M1055 408q0 -202 -130.5 -318.5t-355.5 -116.5q-226 0 -356.5 116.5t-130.5 318.5v245q0 205 130.5 323t356.5 118q225 0 355.5 -118t130.5 -323v-245zM401 408q0 -77 43 -117.5t125 -40.5t125 40.5t43 117.5v245q0 77 -43.5 119.5t-124.5 42.5t-124.5 -42.5
t-43.5 -119.5v-245z" />
    <glyph glyph-name="p" unicode="p" horiz-adv-x="1136" 
d="M137 1016q94 35 212 56.5t222 21.5q219 0 352.5 -124.5t133.5 -340.5v-203q0 -207 -123 -330t-322 -123q-99 0 -188 35v-360q0 -37 -35 -37h-242q-36 0 -36 37v1329q0 30 26 39zM567 246q172 0 172 174v215q0 180 -174 180q-80 0 -141 -22v-512q59 -35 143 -35z" />
    <glyph glyph-name="q" unicode="q" horiz-adv-x="1136" 
d="M80 629q0 217 133 341t352 124q105 0 222 -20.5t210 -55.5q29 -12 29 -41v-1329q0 -37 -37 -37h-241q-35 0 -35 37v360q-89 -35 -189 -35q-199 0 -321.5 123t-122.5 330v203zM399 420q0 -174 170 -174q85 0 144 35v512q-61 22 -142 22q-172 0 -172 -180v-215z" />
    <glyph glyph-name="r" unicode="r" horiz-adv-x="774" 
d="M389 0h-242q-36 0 -36 37v930q0 29 26 43q173 84 377 84q70 0 199 -21q32 -6 32 -39v-188q0 -39 -38 -33q-55 8 -127 8q-93 0 -156 -26v-758q0 -37 -35 -37z" />
    <glyph glyph-name="s" unicode="s" horiz-adv-x="1015" 
d="M961 332q0 -178 -120 -268.5t-343 -90.5q-235 0 -426 133q-30 21 -11 52l97 164q20 32 49 12q136 -92 293 -92q66 0 105.5 21.5t39.5 60.5q0 36 -37.5 55t-109.5 31q-406 67 -406 346q0 165 119.5 251.5t325.5 86.5q182 0 362 -95q32 -16 12 -49l-94 -159
q-18 -30 -49 -15q-114 60 -238 60q-131 0 -131 -76q0 -41 38 -59.5t141 -34.5q85 -15 150.5 -39t120 -63t83.5 -97.5t29 -134.5z" />
    <glyph glyph-name="t" unicode="t" horiz-adv-x="708" 
d="M420 406q0 -152 137 -152q20 0 66 4q39 6 39 -31v-200q0 -35 -29 -41q-64 -11 -129 -11q-184 0 -291 100t-107 292v919q0 35 37 35h213q34 0 37 -33l25 -246h184q37 0 37 -34v-197q0 -35 -37 -35h-182v-370z" />
    <glyph glyph-name="u" unicode="u" horiz-adv-x="1144" 
d="M756 1065h241q37 0 37 -35v-932q0 -31 -26 -43q-198 -82 -422 -82q-233 0 -358.5 122.5t-125.5 353.5v581q0 35 37 35h242q37 0 37 -35v-584q0 -108 42 -152t126 -44q83 0 135 20v760q0 35 35 35z" />
    <glyph glyph-name="v" unicode="v" horiz-adv-x="1093" 
d="M686 0h-287q-29 0 -39 29l-344 995q-7 19 1 30t28 11h258q33 0 39 -29l125 -448q24 -72 74 -269h6q24 95 74 269l127 448q10 29 40 29h259q41 0 28 -41l-348 -995q-13 -29 -41 -29z" />
    <glyph glyph-name="w" unicode="w" horiz-adv-x="1587" 
d="M602 0h-266q-33 0 -39 31l-274 995q-10 39 30 39h246q32 0 37 -31l74 -338q41 -231 63 -370h6q29 178 72 358l78 336q6 31 39 31h254q30 0 36 -31l80 -336q30 -126 72 -358h6q13 79 64 370l71 338q5 31 39 31h246q19 0 27 -11t2 -28l-273 -995q-9 -31 -39 -31h-266
q-34 0 -41 33l-90 370q-30 125 -59 267h-6q-8 -38 -29.5 -137t-28.5 -130l-92 -370q-7 -33 -39 -33z" />
    <glyph glyph-name="x" unicode="x" horiz-adv-x="1060" 
d="M733 537l297 -494q10 -19 3 -31t-27 -12h-285q-29 0 -41 27l-150 292l-147 -292q-13 -27 -43 -27h-285q-20 0 -26.5 12t2.5 31l297 494l-281 485q-10 19 -3 31t28 12h276q31 0 43 -27l139 -303l140 303q12 27 43 27h276q22 0 29 -12t-4 -31z" />
    <glyph glyph-name="y" unicode="y" horiz-adv-x="1146" 
d="M719 326v704q0 35 37 35h241q35 0 35 -35v-928q0 -267 -116.5 -391.5t-368.5 -124.5q-131 0 -228 26.5t-180 86.5q-30 18 -10 49l109 166q18 27 47 12q117 -69 247 -69q98 0 146 44.5t47 153.5q-100 -28 -186 -28q-192 0 -314.5 117t-122.5 321v565q0 35 37 35h242
q35 0 35 -35v-559q0 -88 44.5 -131t125.5 -43q77 0 133 29z" />
    <glyph glyph-name="z" unicode="z" horiz-adv-x="1015" 
d="M911 0h-815q-35 0 -35 37v129q0 24 15 45l434 580h-383q-35 0 -35 34v205q0 35 35 35h772q37 0 37 -35v-123q0 -25 -14 -45l-428 -586h417q37 0 37 -36v-203q0 -37 -37 -37z" />
    <glyph glyph-name="braceleft" unicode="{" horiz-adv-x="706" 
d="M608 -238h-106q-152 0 -223.5 75.5t-71.5 238.5v330q0 183 -115 206q-35 6 -35 37v160q0 31 35 37q115 23 115 207v329q0 163 71.5 238.5t223.5 75.5h106q37 0 37 -35v-186q0 -37 -37 -37h-45q-40 0 -60 -21.5t-20 -70.5v-332q0 -99 -48.5 -178.5t-119.5 -106.5
q71 -27 119.5 -106.5t48.5 -178.5v-331q0 -93 80 -93h45q37 0 37 -36v-187q0 -35 -37 -35z" />
    <glyph glyph-name="bar" unicode="|" horiz-adv-x="563" 
d="M391 -285h-217q-37 0 -37 37v1974q0 37 37 37h217q35 0 35 -37v-1974q0 -37 -35 -37z" />
    <glyph glyph-name="braceright" unicode="}" horiz-adv-x="706" 
d="M205 -238h-107q-37 0 -37 35v187q0 36 37 36h45q80 0 80 93v331q0 99 48.5 178.5t119.5 106.5q-71 27 -119.5 106.5t-48.5 178.5v332q0 49 -20 70.5t-60 21.5h-45q-37 0 -37 37v186q0 35 37 35h107q152 0 223.5 -75.5t71.5 -238.5v-329q0 -184 114 -207q35 -6 35 -37
v-160q0 -31 -35 -37q-114 -23 -114 -206v-330q0 -163 -71.5 -238.5t-223.5 -75.5z" />
    <glyph glyph-name="asciitilde" unicode="~" 
d="M1147 631q-53 -75 -121.5 -110.5t-163.5 -35.5q-39 0 -82 10t-65 18t-70 28q-104 45 -160 45q-87 0 -143 -49q-27 -24 -49 -5l-146 130q-23 20 -8 51q103 147 293 147q39 0 81.5 -9.5t66.5 -18t69 -27.5q102 -45 164 -45q80 0 135 49q28 25 51 4l144 -129q24 -24 4 -53z
" />
    <glyph glyph-name="exclamdown" unicode="&#xa1;" horiz-adv-x="546" 
d="M174 623h201q35 0 35 -37l20 -582v-362q0 -37 -35 -37h-241q-37 0 -37 37v362l20 582q0 37 37 37zM88 911q0 77 52.5 130t133.5 53t133 -52.5t52 -130.5q0 -80 -51.5 -131t-133.5 -51t-134 51t-52 131z" />
    <glyph glyph-name="cent" unicode="&#xa2;" horiz-adv-x="1019" 
d="M840 299l110 -164q20 -29 -8 -51q-131 -93 -289 -104v-148q0 -37 -37 -37h-159q-35 0 -35 37v160q-156 38 -241 150t-85 278v231q0 164 85.5 275t240.5 149v148q0 37 35 37h159q37 0 37 -37v-136q132 -14 262 -90q30 -20 11 -51l-109 -164q-16 -27 -51 -12
q-86 47 -172 47q-85 0 -132.5 -44t-47.5 -122v-231q0 -84 48 -127t130 -43q104 0 196 59q34 20 52 -10z" />
    <glyph glyph-name="sterling" unicode="&#xa3;" horiz-adv-x="1161" 
d="M1053 0h-928q-35 0 -35 37v190q0 31 35 37q64 13 91.5 69.5t25.5 137.5v156h-117q-35 0 -35 37v188q0 37 35 37h117v172q0 201 117 315.5t327 114.5q226 0 379 -111q25 -22 6 -51l-108 -151q-18 -27 -50 -11q-97 60 -213 60q-85 0 -129.5 -45t-44.5 -131v-162h301
q37 0 37 -37v-188q0 -37 -37 -37h-303v-156q0 -148 -84 -211h613q34 0 34 -35v-188q0 -37 -34 -37z" />
    <glyph glyph-name="currency" unicode="&#xa4;" horiz-adv-x="1308" 
d="M905 281q-116 -66 -260 -66q-141 0 -250 59l-116 -116q-11 -12 -25 -12t-25 12l-116 118q-23 26 0 52l110 108q-69 117 -69 273q0 146 65 258l-106 106q-25 25 0 51l116 117q11 11 25 11t25 -11l108 -108q112 67 258 67q154 0 270 -72l113 113q26 25 51 0l117 -117
q10 -10 10 -24t-10 -25l-119 -119q62 -111 62 -247q0 -141 -66 -263l123 -122q25 -25 0 -50l-119 -116q-25 -26 -51 0zM408 709q0 -107 66 -173.5t171 -66.5t172.5 67.5t67.5 172.5q-2 104 -69 170.5t-171 66.5t-170.5 -66.5t-66.5 -170.5z" />
    <glyph glyph-name="yen" unicode="&#xa5;" horiz-adv-x="1294" 
d="M938 1464h272q20 0 27.5 -12t-0.5 -31l-348 -712h153q37 0 37 -37v-144q0 -34 -37 -34h-239v-99h239q37 0 37 -37v-141q0 -37 -37 -37h-239v-143q0 -37 -37 -37h-242q-35 0 -35 37v143h-247q-35 0 -35 37v141q0 37 35 37h247v99h-247q-35 0 -35 34v144q0 37 35 37h159
l-346 712q-9 19 -2 31t29 12h270q32 0 41 -28l252 -602l250 602q12 28 43 28z" />
    <glyph glyph-name="brokenbar" unicode="&#xa6;" horiz-adv-x="571" 
d="M395 848h-219q-37 0 -37 37v841q0 37 37 37h219q37 0 37 -37v-841q0 -37 -37 -37zM395 -285h-219q-37 0 -37 37v844q0 37 37 37h219q37 0 37 -37v-844q0 -37 -37 -37z" />
    <glyph glyph-name="section" unicode="&#xa7;" horiz-adv-x="1067" 
d="M973 49q3 -188 -120 -298.5t-321 -110.5q-120 0 -230.5 52t-186.5 138q-21 24 -2 49l110 148q24 30 51 6q57 -54 125 -84.5t131 -30.5q69 0 106.5 32t37.5 79q0 37 -33 66.5t-85.5 51.5t-116 45.5t-127 56t-116 74t-85.5 108t-33 151.5q0 175 168 272q-121 109 -121 281
q0 114 59.5 196t154.5 121t212 39q186 0 338 -125q26 -23 6 -49l-111 -139q-21 -30 -51 -7q-80 58 -176 58q-137 0 -137 -107q0 -44 31.5 -76t81.5 -52.5t111 -41t121.5 -49.5t110.5 -69t81.5 -109.5t31.5 -161.5q0 -164 -137 -268q121 -90 121 -246zM360 604
q0 -60 61.5 -102t205.5 -90q75 47 75 129q0 65 -57.5 106.5t-187.5 81.5q-97 -40 -97 -125z" />
    <glyph glyph-name="dieresis" unicode="&#xa8;" horiz-adv-x="602" 
d="M303 1378q0 -71 -41 -111t-108 -40q-68 0 -111 40t-43 109q0 72 43 113t111 41q67 0 108 -40t41 -112zM754 1378q0 -71 -41.5 -111t-108.5 -40q-69 0 -111 40t-42 111q0 72 42 112t111 40q68 0 109 -40t41 -112z" />
    <glyph glyph-name="copyright" unicode="&#xa9;" horiz-adv-x="1646" 
d="M1561 733q0 -142 -37.5 -264t-105.5 -212.5t-160 -155t-202 -96.5t-231 -32q-154 0 -288 51.5t-234.5 146.5t-158.5 240t-58 322q0 175 58 319.5t158.5 239.5t235 147t287.5 52q152 0 285.5 -52t233.5 -147t158.5 -239.5t58.5 -319.5zM238 733q0 -147 45.5 -265t126 -193
t186.5 -114.5t229 -39.5q122 0 227.5 39.5t185 114.5t125.5 193t46 265q0 146 -46 263.5t-125.5 191.5t-185 113.5t-227.5 39.5q-98 0 -186 -24.5t-161.5 -74.5t-127 -121.5t-83 -170.5t-29.5 -217zM1116 414q-103 -97 -278 -97q-55 0 -105.5 11.5t-95.5 37t-78 63t-52.5 92
t-19.5 120.5v182q0 82 29 146t79 102t111 57t130 19q149 0 266 -90q24 -21 6 -49l-82 -113q-20 -29 -51 -10q-60 47 -133 47q-50 0 -83.5 -29t-33.5 -84v-170q0 -58 33.5 -86t85.5 -28q83 0 143 45q31 25 51 -5l80 -116q20 -26 -2 -45z" />
    <glyph glyph-name="guillemotleft" unicode="&#xab;" horiz-adv-x="1169" 
d="M614 145h-233q-26 0 -43 23l-270 403q-16 25 0 50l270 403q17 23 43 23h233q21 0 27.5 -12t-4.5 -31l-279 -408l279 -408q11 -19 4.5 -31t-27.5 -12zM1073 145h-233q-26 0 -43 23l-271 403q-16 25 0 50l271 403q17 23 43 23h233q21 0 27.5 -12t-4.5 -31l-279 -408
l279 -408q11 -19 4.5 -31t-27.5 -12z" />
    <glyph glyph-name="logicalnot" unicode="&#xac;" 
d="M1090 260h-207q-37 0 -37 37v272h-676q-35 0 -35 35v219q0 35 35 35h920q36 0 36 -35v-526q0 -37 -36 -37z" />
    <glyph glyph-name="registered" unicode="&#xae;" horiz-adv-x="1011" 
d="M932 1065q0 -131 -58.5 -229.5t-154 -147.5t-213.5 -49t-213.5 49t-154 147.5t-58.5 229.5q0 195 122.5 310.5t303.5 115.5t303.5 -115.5t122.5 -310.5zM176 1065q0 -156 94 -244t238 -88q141 0 234.5 88t93.5 244q0 158 -93 245t-235 87q-145 0 -238.5 -87t-93.5 -245z
M432 860h-59q-17 0 -17 19v383q0 16 17 16h153q71 0 114.5 -33.5t43.5 -101.5q0 -107 -96 -127l100 -135q7 -9 4 -15t-12 -6h-72q-12 0 -22 14l-94 132h-46v-127q0 -19 -14 -19zM446 1196v-111h76q70 0 70 58q0 53 -70 53h-76z" />
    <glyph glyph-name="macron" unicode="&#xaf;" horiz-adv-x="624" 
d="M0 1286v146q0 34 37 34h561q37 0 37 -34v-146q0 -35 -37 -35h-561q-37 0 -37 35z" />
    <glyph glyph-name="degree" unicode="&#xb0;" horiz-adv-x="800" 
d="M735 1161q0 -151 -94.5 -241.5t-239.5 -90.5q-148 0 -240.5 89t-92.5 243q0 152 92.5 240t240.5 88q146 0 240 -88t94 -240zM264 1159q0 -67 38.5 -102t98.5 -35q61 0 99.5 35t38.5 102q0 65 -39 101t-99 36t-98.5 -36t-38.5 -101z" />
    <glyph glyph-name="plusminus" unicode="&#xb1;" 
d="M754 426h-217q-35 0 -35 37v278h-318q-34 0 -34 35v211q0 37 34 37h318v279q0 36 35 36h217q34 0 34 -36v-279h316q37 0 37 -37v-211q0 -35 -37 -35h-316v-278q0 -37 -34 -37zM1104 47h-920q-34 0 -34 35v197q0 36 34 36h920q37 0 37 -36v-197q0 -35 -37 -35z" />
    <glyph glyph-name="two.sups" unicode="&#xb2;" horiz-adv-x="686" 
d="M598 840h-518q-37 0 -37 37v108q0 28 20 45l230 203q60 55 88.5 92t28.5 68q0 59 -76 59t-146 -59q-30 -21 -51 6l-69 96q-18 28 6 49q121 101 282 101q121 0 195 -63.5t74 -166.5q0 -73 -34 -134.5t-120 -145.5q-61 -61 -119 -99h246q37 0 37 -37v-122q0 -37 -37 -37z
" />
    <glyph glyph-name="three.sups" unicode="&#xb3;" horiz-adv-x="702" 
d="M653 1096q0 -123 -85.5 -195t-227.5 -72q-168 0 -299 105q-26 23 -4 51l69 88q20 29 52 4q60 -51 168 -51q116 0 116 98q0 41 -32 63.5t-91 22.5q-35 0 -53 -4q-34 -3 -45 25l-16 41q-12 27 10 49l64 70q22 25 73 65h-252q-34 0 -34 35v106q0 37 34 37h484q34 0 34 -37
v-71q0 -30 -18 -45l-164 -156q17 0 35 -4q83 -8 132.5 -68t49.5 -157z" />
    <glyph glyph-name="acute" unicode="&#xb4;" horiz-adv-x="583" 
d="M227 1219h-178q-22 0 -28 13t6 30l168 266q15 24 43 24h231q22 0 27.5 -13t-9.5 -32l-217 -268q-14 -20 -43 -20z" />
    <glyph glyph-name="paragraph" unicode="&#xb6;" horiz-adv-x="1533" 
d="M827 -285h-223q-35 0 -35 37v682q-151 0 -269.5 69.5t-182.5 188.5t-64 266q0 218 149.5 362t399.5 144h741q35 0 35 -37v-1675q0 -37 -35 -37h-223q-37 0 -37 37v1424h-219v-1424q0 -37 -37 -37z" />
    <glyph glyph-name="periodcentered" unicode="&#xb7;" horiz-adv-x="557" 
d="M467 647q0 -76 -51.5 -127t-132.5 -51t-132 51t-51 127q0 80 50.5 130t132.5 50t133 -50t51 -130z" />
    <glyph glyph-name="cedilla" unicode="&#xb8;" horiz-adv-x="380" 
d="M430 -250q0 -88 -73 -134t-203 -46q-66 0 -113 16q-29 6 -29 41v64q0 34 39 28q40 -8 62 -8q104 0 104 58q0 48 -86 57q-31 0 -43 24q-4 13 6 33l41 99q9 28 41 28h76q20 0 28.5 -12t0.5 -31l-27 -59q85 -6 130.5 -47t45.5 -111z" />
    <glyph glyph-name="one.sups" unicode="&#xb9;" horiz-adv-x="507" 
d="M385 840h-139q-37 0 -37 37v514l-72 -50q-30 -20 -49 11l-70 98q-20 30 9 49l178 121q16 14 45 14h135q35 0 35 -37v-720q0 -37 -35 -37z" />
    <glyph glyph-name="guillemotright" unicode="&#xbb;" horiz-adv-x="1169" 
d="M330 145h-234q-21 0 -27 12t5 31l278 408l-278 408q-11 19 -5 31t27 12h234q26 0 43 -23l270 -403q16 -25 0 -50l-270 -403q-17 -23 -43 -23zM788 145h-233q-21 0 -27.5 12t4.5 31l279 408l-279 408q-11 19 -4.5 31t27.5 12h233q26 0 43 -23l271 -403q16 -25 0 -50
l-271 -403q-17 -23 -43 -23z" />
    <glyph glyph-name="onequarter" unicode="&#xbc;" horiz-adv-x="1814" 
d="M422 670h-139q-37 0 -37 37v514l-72 -50q-30 -20 -49 11l-70 98q-20 30 8 49l179 121q16 14 45 14h135q35 0 35 -37v-720q0 -37 -35 -37zM1432 1421l-934 -1398q-14 -23 -43 -23h-160q-21 0 -27.5 13t4.5 30l932 1399q14 22 43 22h160q21 0 28.5 -13t-3.5 -30zM1634 0
h-139q-37 0 -37 37v96h-346q-35 0 -35 37v104q0 26 10 43l238 453q16 25 41 25h145q20 0 28 -12t-1 -31l-223 -424h143l10 110q3 33 37 33h129q37 0 37 -35v-110h47q35 0 35 -37v-119q0 -37 -35 -37h-47v-96q0 -37 -37 -37z" />
    <glyph glyph-name="onehalf" unicode="&#xbd;" horiz-adv-x="1789" 
d="M424 670h-139q-37 0 -37 37v514l-72 -50q-30 -20 -49 11l-70 98q-20 30 9 49l178 121q16 14 45 14h135q35 0 35 -37v-720q0 -37 -35 -37zM1384 1421l-933 -1398q-14 -23 -43 -23h-160q-21 0 -27.5 13t4.5 30l932 1399q14 22 43 22h160q21 0 28 -13t-4 -30zM1673 0h-518
q-37 0 -37 37v108q0 27 21 45l229 203q60 55 88.5 92t28.5 68q0 59 -76 59q-75 0 -145 -59q-31 -21 -52 6l-69 96q-19 28 6 50q120 100 283 100q121 0 194.5 -63.5t73.5 -166.5q0 -73 -34 -134.5t-120 -145.5q-58 -58 -119 -98h246q37 0 37 -37v-123q0 -37 -37 -37z" />
    <glyph glyph-name="threequarters" unicode="&#xbe;" horiz-adv-x="1855" 
d="M686 926q0 -123 -85.5 -195t-227.5 -72q-168 0 -299 105q-26 23 -4 51l69 88q20 29 51 4q60 -51 168 -51q117 0 117 98q0 41 -32 63.5t-91 22.5q-35 0 -53 -4q-34 -3 -45 25l-16 41q-12 27 10 49l63 70q20 23 74 65h-252q-35 0 -35 35v106q0 37 35 37h483q35 0 35 -37
v-71q0 -30 -18 -45l-164 -156q17 0 35 -4q83 -8 132.5 -68t49.5 -157zM1513 1421l-933 -1398q-14 -23 -43 -23h-160q-21 0 -27.5 13t4.5 30l932 1399q14 22 43 22h160q21 0 28 -13t-4 -30zM1681 0h-139q-37 0 -37 37v96h-346q-35 0 -35 37v104q0 24 11 43l237 453
q16 25 41 25h146q20 0 27.5 -12t-1.5 -31l-223 -424h143l11 110q3 33 36 33h129q37 0 37 -35v-110h47q35 0 35 -37v-119q0 -37 -35 -37h-47v-96q0 -37 -37 -37z" />
    <glyph glyph-name="questiondown" unicode="&#xbf;" horiz-adv-x="1038" 
d="M451 635h227q37 0 37 -35v-80q0 -63 -19 -113.5t-49.5 -83t-67 -60t-73 -51.5t-67 -49t-49.5 -60.5t-19 -79.5q0 -71 46 -117.5t144 -46.5q147 0 262 100q29 26 49 -4l115 -172q18 -24 -4 -49q-69 -64 -187.5 -108t-250.5 -44q-77 0 -146.5 15.5t-131.5 50t-107.5 84
t-72 122t-26.5 160.5q0 73 19.5 130t50.5 93t68.5 65.5t75.5 54.5t69 51.5t50.5 65.5t19.5 89v43q0 29 37 29zM379 913q0 77 51.5 129t130.5 52q81 0 131.5 -51.5t50.5 -129.5t-50.5 -128t-131.5 -50q-80 0 -131 50t-51 128z" />
    <glyph glyph-name="Agrave" unicode="&#xc0;" horiz-adv-x="1359" 
d="M313 0h-274q-42 0 -29 41l475 1395q12 28 39 28h312q29 0 38 -28l476 -1395q7 -19 -1 -30t-28 -11h-272q-34 0 -43 31l-76 250h-498l-78 -250q-9 -31 -41 -31zM676 1106q-12 -41 -70 -239t-90 -302h330q-2 5 -162 541h-8zM571 1581l-258 270q-15 17 -8.5 31t29.5 14h252
q29 0 43 -22l207 -268q13 -19 6 -31t-29 -12h-199q-28 0 -43 18z" />
    <glyph glyph-name="Aacute" unicode="&#xc1;" horiz-adv-x="1359" 
d="M313 0h-274q-42 0 -29 41l475 1395q12 28 39 28h312q29 0 38 -28l476 -1395q7 -19 -1 -30t-28 -11h-272q-34 0 -43 31l-76 250h-498l-78 -250q-9 -31 -41 -31zM676 1106q-12 -41 -70 -239t-90 -302h330q-2 5 -162 541h-8zM1030 1851l-258 -270q-15 -18 -43 -18h-199
q-22 0 -28.5 12t6.5 31l207 268q14 22 43 22h252q23 0 29 -14t-9 -31z" />
    <glyph glyph-name="Acircumflex" unicode="&#xc2;" horiz-adv-x="1359" 
d="M313 0h-274q-42 0 -29 41l475 1395q12 28 39 28h312q29 0 38 -28l476 -1395q7 -19 -1 -30t-28 -11h-272q-34 0 -43 31l-76 250h-498l-78 -250q-9 -31 -41 -31zM676 1106q-12 -41 -70 -239t-90 -302h330q-2 5 -162 541h-8zM532 1556h-198q-23 0 -28.5 13.5t9.5 32.5
l236 268q17 20 45 20h168q28 0 45 -20l233 -268q15 -19 10 -32.5t-28 -13.5h-199q-28 0 -43 21l-102 121l-105 -121q-15 -21 -43 -21z" />
    <glyph glyph-name="Atilde" unicode="&#xc3;" horiz-adv-x="1359" 
d="M313 0h-274q-42 0 -29 41l475 1395q12 28 39 28h312q29 0 38 -28l476 -1395q7 -19 -1 -30t-28 -11h-272q-34 0 -43 31l-76 250h-498l-78 -250q-9 -31 -41 -31zM676 1106q-12 -41 -70 -239t-90 -302h330q-2 5 -162 541h-8zM1059 1755q-26 -78 -84.5 -141.5t-136.5 -63.5
q-52 0 -162 58q-5 2 -20 10t-19.5 10t-16 8t-17 7.5t-13.5 4.5t-14.5 4t-12.5 1q-43 0 -78 -64q-19 -31 -49 -14l-127 65q-29 18 -16 48q29 77 85 136.5t132 59.5q64 0 164 -55q92 -47 121 -47q20 0 34 14.5t35 50.5q18 31 47 15l127 -68q30 -18 21 -39z" />
    <glyph glyph-name="Adieresis" unicode="&#xc4;" horiz-adv-x="1359" 
d="M313 0h-274q-42 0 -29 41l475 1395q12 28 39 28h312q29 0 38 -28l476 -1395q7 -19 -1 -30t-28 -11h-272q-34 0 -43 31l-76 250h-498l-78 -250q-9 -31 -41 -31zM676 1106q-12 -41 -70 -239t-90 -302h330q-2 5 -162 541h-8zM612 1724q0 -67 -44.5 -111t-112.5 -44t-112 44
t-44 111q0 68 44.5 112t111.5 44q68 0 112.5 -44.5t44.5 -111.5zM1063 1724q0 -67 -45.5 -111t-114.5 -44q-70 0 -112.5 43.5t-42.5 111.5t42.5 112t112.5 44q69 0 114.5 -44.5t45.5 -111.5z" />
    <glyph glyph-name="Aring" unicode="&#xc5;" horiz-adv-x="1359" 
d="M313 0h-274q-42 0 -29 41l475 1395q12 28 39 28h312q29 0 38 -28l476 -1395q7 -19 -1 -30t-28 -11h-272q-34 0 -43 31l-76 250h-498l-78 -250q-9 -31 -41 -31zM676 1106q-12 -41 -70 -239t-90 -302h330q-2 5 -162 541h-8zM969 1794q0 -116 -79.5 -186t-207.5 -70
q-129 0 -209 70.5t-80 185.5q0 114 80 184t209 70q127 0 207 -70.5t80 -183.5zM580 1794q0 -43 28 -68.5t74 -25.5t73 25.5t27 68.5q0 41 -27 65.5t-73 24.5t-74 -24.5t-28 -65.5z" />
    <glyph glyph-name="AE" unicode="&#xc6;" horiz-adv-x="1853" 
d="M1149 590v-291h582q36 0 36 -37v-225q0 -37 -36 -37h-873q-35 0 -35 37v250h-362l-115 -260q-12 -27 -41 -27h-285q-20 0 -27 12t1 31l653 1395q12 26 41 26h1012q35 0 35 -37v-225q0 -35 -35 -35h-551v-284h483q35 0 35 -35v-221q0 -37 -35 -37h-483zM815 1122
l-235 -551h243v551h-8z" />
    <glyph glyph-name="Ccedilla" unicode="&#xc7;" horiz-adv-x="1216" 
d="M901 -262q0 -90 -75.5 -138.5t-209.5 -48.5q-52 0 -112 17q-29 9 -29 41v67q0 35 39 29q40 -8 61 -8q103 0 103 57q2 24 -20.5 39t-67.5 19q-31 0 -43 24q-4 13 6 33l43 108q-229 27 -359.5 166.5t-130.5 374.5v428q0 261 161 403t431 142q122 0 236 -34.5t203 -96.5
q30 -18 10 -47l-129 -197q-20 -29 -51 -10q-115 74 -262 74q-127 0 -196 -66.5t-69 -179.5v-402q0 -118 70 -182.5t197 -64.5q156 0 284 86q31 21 49 -9l131 -196q20 -30 -2 -45q-182 -137 -415 -148l-33 -79q86 -6 133 -46.5t47 -109.5z" />
    <glyph glyph-name="Egrave" unicode="&#xc8;" horiz-adv-x="1212" 
d="M481 596v-299h609q36 0 36 -35v-225q0 -37 -36 -37h-902q-36 0 -36 37v1390q0 37 36 37h869q37 0 37 -37v-225q0 -35 -37 -35h-576v-280h508q37 0 37 -35v-221q0 -35 -37 -35h-508zM532 1581l-258 270q-15 17 -8.5 31t29.5 14h252q29 0 43 -22l207 -268q13 -19 6 -31
t-29 -12h-199q-28 0 -43 18z" />
    <glyph glyph-name="Eacute" unicode="&#xc9;" horiz-adv-x="1212" 
d="M481 596v-299h609q36 0 36 -35v-225q0 -37 -36 -37h-902q-36 0 -36 37v1390q0 37 36 37h869q37 0 37 -37v-225q0 -35 -37 -35h-576v-280h508q37 0 37 -35v-221q0 -35 -37 -35h-508zM979 1851l-258 -270q-15 -18 -43 -18h-199q-22 0 -28.5 12t6.5 31l207 268q14 22 43 22
h251q23 0 29.5 -14t-8.5 -31z" />
    <glyph glyph-name="Ecircumflex" unicode="&#xca;" horiz-adv-x="1212" 
d="M481 596v-299h609q36 0 36 -35v-225q0 -37 -36 -37h-902q-36 0 -36 37v1390q0 37 36 37h869q37 0 37 -37v-225q0 -35 -37 -35h-576v-280h508q37 0 37 -35v-221q0 -35 -37 -35h-508zM483 1563h-198q-23 0 -28.5 13t9.5 32l236 268q17 20 45 20h168q28 0 45 -20l233 -268
q15 -19 10 -32t-28 -13h-199q-29 0 -43 20l-102 121l-105 -121q-14 -20 -43 -20z" />
    <glyph glyph-name="Edieresis" unicode="&#xcb;" horiz-adv-x="1212" 
d="M481 596v-299h609q36 0 36 -35v-225q0 -37 -36 -37h-902q-36 0 -36 37v1390q0 37 36 37h869q37 0 37 -37v-225q0 -35 -37 -35h-576v-280h508q37 0 37 -35v-221q0 -35 -37 -35h-508zM561 1731q0 -67 -45 -111.5t-113 -44.5q-67 0 -111 44t-44 112q0 67 44 111t111 44
q68 0 113 -44t45 -111zM1012 1731q0 -67 -45.5 -111.5t-114.5 -44.5q-70 0 -113 44t-43 112t43 111.5t113 43.5q69 0 114.5 -44t45.5 -111z" />
    <glyph glyph-name="Igrave" unicode="&#xcc;" horiz-adv-x="632" 
d="M481 1427v-1390q0 -37 -37 -37h-256q-36 0 -36 37v1390q0 37 36 37h256q37 0 37 -37zM201 1602l-258 270q-15 17 -9 31t29 14h252q29 0 43 -23l207 -268q13 -19 6 -31t-29 -12h-198q-27 0 -43 19z" />
    <glyph glyph-name="Iacute" unicode="&#xcd;" horiz-adv-x="632" 
d="M481 1427v-1390q0 -37 -37 -37h-256q-36 0 -36 37v1390q0 37 36 37h256q37 0 37 -37zM668 1872l-258 -270q-16 -19 -43 -19h-199q-22 0 -29 12t6 31l207 268q14 23 43 23h252q23 0 29.5 -14t-8.5 -31z" />
    <glyph glyph-name="Icircumflex" unicode="&#xce;" horiz-adv-x="632" 
d="M199 1563h-199q-23 0 -28.5 13t8.5 32l221 268q14 20 43 20h147q28 0 45 -20l219 -268q14 -19 8.5 -32t-28.5 -13h-199q-29 0 -43 22l-76 111l-75 -111q-14 -22 -43 -22zM481 1427v-1390q0 -37 -37 -37h-256q-36 0 -36 37v1390q0 37 36 37h256q37 0 37 -37z" />
    <glyph glyph-name="Idieresis" unicode="&#xcf;" horiz-adv-x="632" 
d="M444 0h-256q-36 0 -36 37v1390q0 37 36 37h256q37 0 37 -37v-1390q0 -37 -37 -37zM276 1716q0 -66 -43 -108.5t-108 -42.5q-66 0 -109 42.5t-43 108.5t43 108t109 42q65 0 108 -42t43 -108zM674 1716q0 -66 -43.5 -108.5t-110.5 -42.5t-109 42.5t-42 108.5t42 108t109 42
q68 0 111 -42t43 -108z" />
    <glyph glyph-name="Eth" unicode="&#xd0;" horiz-adv-x="1409" 
d="M215 1464h508q127 0 229 -30.5t182.5 -95.5t124.5 -178t44 -267v-326q0 -125 -29.5 -222.5t-80.5 -161.5t-125.5 -105.5t-159 -59.5t-185.5 -18h-508q-37 0 -37 37v612h-123q-37 0 -37 35v125q0 35 37 35h123v583q0 37 37 37zM727 309q119 0 178.5 59t59.5 185v356
q0 248 -238 248h-219v-313h217q35 0 35 -35v-125q0 -35 -35 -35h-217v-340h219z" />
    <glyph glyph-name="Ntilde" unicode="&#xd1;" horiz-adv-x="1456" 
d="M442 0h-254q-36 0 -36 37v1390q0 37 36 37h273q29 0 41 -24l274 -490q162 -310 219 -438l6 2q-22 289 -22 547v366q0 37 37 37h254q35 0 35 -37v-1390q0 -37 -35 -37h-273q-27 0 -43 25l-266 442q-127 215 -237 477l-7 -2q33 -341 33 -584v-321q0 -37 -35 -37zM1114 1776
q-26 -78 -84.5 -141.5t-136.5 -63.5q-54 0 -162 57q-5 2 -20 10t-19.5 10t-16 8t-17 7.5t-13.5 4.5t-14.5 4t-12.5 1q-43 0 -77 -63q-19 -32 -49 -15l-127 66q-30 18 -17 47q29 77 85 137t132 60q62 0 164 -56q92 -47 121 -47q20 0 34.5 15t35.5 51q18 30 47 14l127 -67
q29 -18 20 -39z" />
    <glyph glyph-name="Ograve" unicode="&#xd2;" horiz-adv-x="1402" 
d="M1298 557q0 -275 -157.5 -428.5t-440.5 -153.5q-281 0 -438.5 153.5t-157.5 428.5v354q0 274 157.5 427t438.5 153q283 0 440.5 -153t157.5 -427v-354zM440 563q0 -276 260 -276q261 0 261 276v342q0 275 -261 275q-129 0 -194.5 -70t-65.5 -205v-342zM584 1602l-258 270
q-15 17 -9 31t29 14h252q29 0 43 -23l207 -268q13 -19 6 -31t-29 -12h-198q-27 0 -43 19z" />
    <glyph glyph-name="Oacute" unicode="&#xd3;" horiz-adv-x="1402" 
d="M1298 557q0 -275 -157.5 -428.5t-440.5 -153.5q-281 0 -438.5 153.5t-157.5 428.5v354q0 274 157.5 427t438.5 153q283 0 440.5 -153t157.5 -427v-354zM440 563q0 -276 260 -276q261 0 261 276v342q0 275 -261 275q-129 0 -194.5 -70t-65.5 -205v-342zM1051 1872
l-258 -270q-16 -19 -43 -19h-199q-22 0 -29 12t6 31l207 268q14 23 43 23h252q23 0 29.5 -14t-8.5 -31z" />
    <glyph glyph-name="Ocircumflex" unicode="&#xd4;" horiz-adv-x="1402" 
d="M1298 557q0 -275 -157.5 -428.5t-440.5 -153.5q-281 0 -438.5 153.5t-157.5 428.5v354q0 274 157.5 427t438.5 153q283 0 440.5 -153t157.5 -427v-354zM440 563q0 -276 260 -276q261 0 261 276v342q0 275 -261 275q-129 0 -194.5 -70t-65.5 -205v-342zM553 1579h-199
q-23 0 -28 13t10 32l235 268q18 21 45 21h168q27 0 45 -21l234 -268q15 -19 9.5 -32t-28.5 -13h-198q-29 0 -43 20l-103 121l-104 -121q-14 -20 -43 -20z" />
    <glyph glyph-name="Otilde" unicode="&#xd5;" horiz-adv-x="1402" 
d="M1298 557q0 -275 -157.5 -428.5t-440.5 -153.5q-281 0 -438.5 153.5t-157.5 428.5v354q0 274 157.5 427t438.5 153q283 0 440.5 -153t157.5 -427v-354zM440 563q0 -276 260 -276q261 0 261 276v342q0 275 -261 275q-129 0 -194.5 -70t-65.5 -205v-342zM1085 1776
q-26 -78 -84.5 -141.5t-136.5 -63.5q-54 0 -162 57q-7 3 -20 10t-19 10l-16 8t-16.5 7.5t-14 5t-14 3.5t-12.5 1q-44 0 -78 -63q-19 -32 -49 -15l-127 66q-30 18 -17 47q29 77 85.5 137t132.5 60q61 0 163 -56q92 -47 121 -47q20 0 34.5 15t35.5 51q18 30 47 14l127 -67
q29 -18 20 -39z" />
    <glyph glyph-name="Odieresis" unicode="&#xd6;" horiz-adv-x="1402" 
d="M1298 557q0 -275 -157.5 -428.5t-440.5 -153.5q-281 0 -438.5 153.5t-157.5 428.5v354q0 274 157.5 427t438.5 153q283 0 440.5 -153t157.5 -427v-354zM440 563q0 -276 260 -276q261 0 261 276v342q0 275 -261 275q-129 0 -194.5 -70t-65.5 -205v-342zM633 1720
q0 -67 -45 -111t-113 -44t-112 44t-44 111q0 68 44.5 112t111.5 44q68 0 113 -44.5t45 -111.5zM1083 1720q0 -67 -45 -111t-114 -44q-70 0 -113 43.5t-43 111.5t43 112t113 44q69 0 114 -44t45 -112z" />
    <glyph glyph-name="multiply" unicode="&#xd7;" 
d="M645 451l-283 -283q-26 -26 -51 0l-159 158q-22 26 0 51l282 282l-282 283q-24 27 0 51l159 160q24 24 51 0l283 -283l283 283q26 22 51 0l158 -160q25 -25 0 -51l-283 -283l283 -282q25 -25 0 -51l-158 -158q-27 -27 -51 0z" />
    <glyph glyph-name="Oslash" unicode="&#xd8;" horiz-adv-x="1402" 
d="M1264 1540l-113 -213q147 -150 147 -416v-354q0 -275 -157.5 -428.5t-440.5 -153.5q-131 0 -241 35l-56 -106q-11 -25 -43 -25h-178q-20 0 -27.5 12t1.5 31l108 205q-160 151 -160 430v354q0 274 157.5 427t438.5 153q148 0 261 -43l57 111q12 26 41 26h178
q22 0 29.5 -13t-2.5 -32zM440 563q0 -276 260 -276q263 0 263 276v342q0 135 -66.5 205t-196.5 70q-129 0 -194.5 -70t-65.5 -205v-342z" />
    <glyph glyph-name="Ugrave" unicode="&#xd9;" horiz-adv-x="1419" 
d="M1280 539q0 -268 -150.5 -416t-420.5 -148t-420 148t-150 416v888q0 37 37 37h260q37 0 37 -37v-888q0 -124 60.5 -188t175.5 -64t177 64.5t62 187.5v888q0 37 35 37h262q35 0 35 -37v-888zM594 1581l-258 270q-15 17 -9 31t29 14h252q29 0 43 -22l207 -268
q13 -19 6.5 -31t-28.5 -12h-199q-28 0 -43 18z" />
    <glyph glyph-name="Uacute" unicode="&#xda;" horiz-adv-x="1419" 
d="M1280 539q0 -268 -150.5 -416t-420.5 -148t-420 148t-150 416v888q0 37 37 37h260q37 0 37 -37v-888q0 -124 60.5 -188t175.5 -64t177 64.5t62 187.5v888q0 37 35 37h262q35 0 35 -37v-888zM1061 1851l-258 -270q-15 -18 -43 -18h-199q-22 0 -28.5 12t6.5 31l206 268
q14 22 43 22h252q23 0 29.5 -14t-8.5 -31z" />
    <glyph glyph-name="Ucircumflex" unicode="&#xdb;" horiz-adv-x="1419" 
d="M1280 539q0 -268 -150.5 -416t-420.5 -148t-420 148t-150 416v888q0 37 37 37h260q37 0 37 -37v-888q0 -124 60.5 -188t175.5 -64t177 64.5t62 187.5v888q0 37 35 37h262q35 0 35 -37v-888zM563 1569h-198q-23 0 -28.5 13t9.5 32l236 268q18 21 45 21h168q27 0 45 -21
l233 -268q15 -19 10 -32t-28 -13h-199q-29 0 -43 20l-102 121l-105 -121q-14 -20 -43 -20z" />
    <glyph glyph-name="Udieresis" unicode="&#xdc;" horiz-adv-x="1419" 
d="M1280 539q0 -268 -150.5 -416t-420.5 -148t-420 148t-150 416v888q0 37 37 37h260q37 0 37 -37v-888q0 -124 60.5 -188t175.5 -64t177 64.5t62 187.5v888q0 37 35 37h262q35 0 35 -37v-888zM643 1735q0 -67 -45 -111.5t-113 -44.5q-67 0 -111 44t-44 112q0 67 44 111
t111 44q68 0 113 -44t45 -111zM1094 1735q0 -67 -45.5 -111.5t-114.5 -44.5q-70 0 -113 44t-43 112t43 111.5t113 43.5q69 0 114.5 -44t45.5 -111z" />
    <glyph glyph-name="Yacute" unicode="&#xdd;" horiz-adv-x="1255" 
d="M756 0h-260q-35 0 -35 37v485l-455 899q-9 19 -2 31t29 12h286q29 0 41 -28l267 -600l264 600q9 28 41 28h287q20 0 27.5 -12t-1.5 -31l-454 -901v-483q0 -37 -35 -37zM977 1851l-258 -270q-15 -18 -43 -18h-199q-22 0 -28.5 12t6.5 31l207 268q14 22 43 22h251
q23 0 29.5 -14t-8.5 -31z" />
    <glyph glyph-name="Thorn" unicode="&#xde;" horiz-adv-x="1337" 
d="M446 0h-258q-36 0 -36 37v1390q0 37 36 37h258q37 0 37 -37v-155h250q243 0 385 -139.5t142 -376.5q0 -238 -142 -379t-385 -141h-250v-199q0 -37 -37 -37zM483 965v-424h213q117 0 170.5 53t53.5 162q0 209 -224 209h-213z" />
    <glyph glyph-name="germandbls" unicode="&#xdf;" horiz-adv-x="1206" 
d="M1079 1057q0 -83 -42.5 -157t-114.5 -112q103 -45 160 -138.5t57 -211.5q0 -215 -123 -334.5t-322 -119.5q-76 0 -153 18q-31 9 -31 41v215q0 40 39 31q52 -10 100 -10q76 0 124 44.5t48 125.5q0 169 -182 169h-92q-37 0 -37 35v197q0 37 37 37h84q60 0 95.5 43t35.5 119
q0 78 -42 119.5t-124 41.5q-168 0 -168 -190v-983q0 -37 -37 -37h-239q-37 0 -37 37v981q0 228 132 350.5t355 122.5q219 0 348 -113t129 -321z" />
    <glyph glyph-name="agrave" unicode="&#xe0;" horiz-adv-x="1079" 
d="M109 981q78 50 187.5 81.5t233.5 31.5q216 0 332.5 -115t116.5 -344v-561q0 -32 -31 -41q-196 -60 -422 -60q-228 0 -354.5 88t-126.5 265q0 157 117 238t330 81q72 0 174 -12v20q0 86 -38 127t-134 41q-67 0 -139.5 -16t-116.5 -41q-13 -8 -28 -5t-22 17l-84 160
q-15 31 5 45zM362 334q0 -53 44 -80t120 -27q61 0 140 17v180q-61 12 -142 12q-162 0 -162 -102zM670 1198h-178q-28 0 -43 21l-218 268q-15 19 -9 32t28 13h231q27 0 43 -25l168 -266q12 -17 6 -30t-28 -13z" />
    <glyph glyph-name="aacute" unicode="&#xe1;" horiz-adv-x="1079" 
d="M109 981q78 50 187.5 81.5t233.5 31.5q216 0 332.5 -115t116.5 -344v-561q0 -32 -31 -41q-196 -60 -422 -60q-228 0 -354.5 88t-126.5 265q0 157 117 238t330 81q72 0 174 -12v20q0 86 -38 127t-134 41q-67 0 -139.5 -16t-116.5 -41q-13 -8 -28 -5t-22 17l-84 160
q-15 31 5 45zM362 334q0 -53 44 -80t120 -27q61 0 140 17v180q-61 12 -142 12q-162 0 -162 -102zM565 1198h-178q-22 0 -28 13t6 30l167 266q16 25 43 25h232q22 0 27.5 -13t-9.5 -32l-217 -268q-15 -21 -43 -21z" />
    <glyph glyph-name="acircumflex" unicode="&#xe2;" horiz-adv-x="1079" 
d="M109 981q78 50 187.5 81.5t233.5 31.5q216 0 332.5 -115t116.5 -344v-561q0 -32 -31 -41q-196 -60 -422 -60q-228 0 -354.5 88t-126.5 265q0 157 117 238t330 81q72 0 174 -12v20q0 86 -38 127t-134 41q-67 0 -139.5 -16t-116.5 -41q-13 -8 -28 -5t-22 17l-84 160
q-15 31 5 45zM362 334q0 -53 44 -80t120 -27q61 0 140 17v180q-61 12 -142 12q-162 0 -162 -102zM383 1182h-180q-22 0 -28 13t9 32l230 268q18 21 45 21h153q28 0 43 -21l228 -268q15 -19 9.5 -32t-28.5 -13h-180q-29 0 -43 20l-106 131l-109 -131q-14 -20 -43 -20z" />
    <glyph glyph-name="atilde" unicode="&#xe3;" horiz-adv-x="1079" 
d="M109 981q78 50 187.5 81.5t233.5 31.5q216 0 332.5 -115t116.5 -344v-561q0 -32 -31 -41q-196 -60 -422 -60q-228 0 -354.5 88t-126.5 265q0 157 117 238t330 81q72 0 174 -12v20q0 86 -38 127t-134 41q-67 0 -139.5 -16t-116.5 -41q-13 -8 -28 -5t-22 17l-84 160
q-15 31 5 45zM362 334q0 -53 44 -80t120 -27q61 0 140 17v180q-61 12 -142 12q-162 0 -162 -102zM913 1378q-18 -48 -45 -90.5t-74.5 -77t-101.5 -34.5q-58 0 -162 55q-85 47 -112 47q-42 0 -78 -66q-19 -31 -49 -14l-127 68q-30 15 -17 47q13 34 32 65.5t46 61.5t63.5 48.5
t76.5 18.5q59 0 163 -53q85 -47 121 -47q21 0 35.5 14t34.5 49q19 31 47 15l127 -66q29 -17 20 -41z" />
    <glyph glyph-name="adieresis" unicode="&#xe4;" horiz-adv-x="1079" 
d="M109 981q78 50 187.5 81.5t233.5 31.5q216 0 332.5 -115t116.5 -344v-561q0 -32 -31 -41q-196 -60 -422 -60q-228 0 -354.5 88t-126.5 265q0 157 117 238t330 81q72 0 174 -12v20q0 86 -38 127t-134 41q-67 0 -139.5 -16t-116.5 -41q-13 -8 -28 -5t-22 17l-84 160
q-15 31 5 45zM362 334q0 -53 44 -80t120 -27q61 0 140 17v180q-61 12 -142 12q-162 0 -162 -102zM461 1333q0 -71 -41.5 -111t-108.5 -40q-68 0 -110.5 40t-42.5 109q0 72 42.5 113t110.5 41t109 -40t41 -112zM911 1333q0 -71 -41 -111t-108 -40q-69 0 -111.5 40t-42.5 111
q0 72 42.5 112t111.5 40q67 0 108 -40t41 -112z" />
    <glyph glyph-name="aring" unicode="&#xe5;" horiz-adv-x="1079" 
d="M109 981q78 50 187.5 81.5t233.5 31.5q216 0 332.5 -115t116.5 -344v-561q0 -32 -31 -41q-196 -60 -422 -60q-228 0 -354.5 88t-126.5 265q0 157 117 238t330 81q72 0 174 -12v20q0 86 -38 127t-134 41q-67 0 -139.5 -16t-116.5 -41q-13 -8 -28 -5t-22 17l-84 160
q-15 31 5 45zM362 334q0 -53 44 -80t120 -27q61 0 140 17v180q-61 12 -142 12q-162 0 -162 -102zM799 1401q0 -101 -72 -163t-188 -62q-118 0 -191.5 62.5t-73.5 164.5q0 99 73.5 160t191.5 61q116 0 188 -61t72 -162zM440 1401q0 -37 28 -60.5t71 -23.5q42 0 68 23.5
t26 60.5q0 40 -25.5 63t-68.5 23t-71 -23.5t-28 -62.5z" />
    <glyph glyph-name="ae" unicode="&#xe6;" horiz-adv-x="1630" 
d="M1116 -27q-175 0 -278 80q-134 -80 -340 -80q-204 0 -327.5 90t-123.5 259q0 160 120 243.5t333 83.5q77 0 159 -10v35q0 76 -45.5 110.5t-134.5 34.5q-128 0 -233 -57q-31 -15 -49 12l-99 162q-17 30 11 49q80 49 183.5 78t205.5 29q189 0 307 -109q125 109 315 109
q125 0 222 -47t154.5 -144t57.5 -231v-203q0 -37 -34 -37h-559v-31q0 -153 167 -153q145 0 248 76q30 18 51 -9l111 -151q19 -29 -6 -49q-78 -68 -187.5 -104t-228.5 -36zM356 332q0 -52 43.5 -77.5t114.5 -25.5q98 0 164 29q-19 49 -19 107v65q-57 8 -133 8
q-170 0 -170 -106zM961 678v-45h301v45q0 81 -40 120.5t-110 39.5q-71 0 -111 -39t-40 -121z" />
    <glyph glyph-name="ccedilla" unicode="&#xe7;" horiz-adv-x="968" 
d="M930 86q-141 -102 -322 -111l-30 -75q85 -6 130.5 -47t45.5 -111q0 -88 -73.5 -134t-203.5 -46q-65 0 -112 16q-29 6 -29 41v64q0 34 39 28q40 -8 61 -8q105 0 105 57q0 49 -86 58q-31 0 -43 24q-4 13 6 33l41 107q-181 26 -279 141t-98 297v231q0 204 128 323.5
t355 119.5q176 0 336 -97q29 -19 10 -51l-108 -164q-16 -27 -51 -12q-86 47 -172 47q-85 0 -133 -44t-48 -122v-231q0 -84 48.5 -127t130.5 -43q104 0 196 59q32 19 51 -10l111 -164q20 -30 -6 -49z" />
    <glyph glyph-name="egrave" unicode="&#xe8;" horiz-adv-x="1085" 
d="M1014 657v-196q0 -35 -37 -35h-580v-33q0 -77 46.5 -117t129.5 -40q135 0 261 73q27 21 47 -8l106 -141q20 -31 -6 -51q-177 -136 -418 -136q-136 0 -243 46t-172.5 144t-65.5 236v258q0 111 37.5 196.5t103 137t150 77.5t184.5 26q97 0 178 -25.5t144.5 -76.5t99 -136.5
t35.5 -198.5zM713 672q0 80 -43 121t-115 41q-74 0 -116 -40t-42 -122v-43h316v43zM684 1198h-178q-28 0 -43 21l-217 268q-15 19 -9.5 32t27.5 13h232q27 0 43 -25l168 -266q12 -17 5.5 -30t-28.5 -13z" />
    <glyph glyph-name="eacute" unicode="&#xe9;" horiz-adv-x="1085" 
d="M1014 657v-196q0 -35 -37 -35h-580v-33q0 -77 46.5 -117t129.5 -40q135 0 261 73q27 21 47 -8l106 -141q20 -31 -6 -51q-177 -136 -418 -136q-136 0 -243 46t-172.5 144t-65.5 236v258q0 111 37.5 196.5t103 137t150 77.5t184.5 26q97 0 178 -25.5t144.5 -76.5t99 -136.5
t35.5 -198.5zM713 672q0 80 -43 121t-115 41q-74 0 -116 -40t-42 -122v-43h316v43zM582 1194h-179q-22 0 -28 13t6 30l168 266q16 25 43 25h231q22 0 28 -13t-9 -32l-217 -269q-14 -20 -43 -20z" />
    <glyph glyph-name="ecircumflex" unicode="&#xea;" horiz-adv-x="1085" 
d="M1014 657v-196q0 -35 -37 -35h-580v-33q0 -77 46.5 -117t129.5 -40q135 0 261 73q27 21 47 -8l106 -141q20 -31 -6 -51q-177 -136 -418 -136q-136 0 -243 46t-172.5 144t-65.5 236v258q0 111 37.5 196.5t103 137t150 77.5t184.5 26q97 0 178 -25.5t144.5 -76.5t99 -136.5
t35.5 -198.5zM713 672q0 80 -43 121t-115 41q-74 0 -116 -40t-42 -122v-43h316v43zM403 1178h-180q-22 0 -27.5 13t9.5 32l229 268q17 20 45 20h154q29 0 43 -20l227 -268q15 -19 10 -32t-28 -13h-180q-29 0 -43 20l-107 131l-109 -131q-14 -20 -43 -20z" />
    <glyph glyph-name="edieresis" unicode="&#xeb;" horiz-adv-x="1085" 
d="M1014 657v-196q0 -35 -37 -35h-580v-33q0 -77 46.5 -117t129.5 -40q135 0 261 73q27 21 47 -8l106 -141q20 -31 -6 -51q-177 -136 -418 -136q-136 0 -243 46t-172.5 144t-65.5 236v258q0 111 37.5 196.5t103 137t150 77.5t184.5 26q97 0 178 -25.5t144.5 -76.5t99 -136.5
t35.5 -198.5zM713 672q0 80 -43 121t-115 41q-74 0 -116 -40t-42 -122v-43h316v43zM479 1337q0 -71 -41 -111t-108 -40q-68 0 -111 40t-43 109q0 72 43 113t111 41q67 0 108 -40t41 -112zM930 1337q0 -71 -41.5 -111t-108.5 -40q-69 0 -111 40t-42 111q0 72 42 112t111 40
q68 0 109 -40t41 -112z" />
    <glyph glyph-name="igrave" unicode="&#xec;" horiz-adv-x="542" 
d="M393 0h-241q-37 0 -37 37v993q0 35 37 35h241q35 0 35 -35v-993q0 -37 -35 -37zM408 1198h-179q-28 0 -43 21l-217 268q-15 19 -9 32t28 13h231q27 0 43 -25l168 -266q12 -17 6 -30t-28 -13z" />
    <glyph glyph-name="iacute" unicode="&#xed;" horiz-adv-x="542" 
d="M391 0h-241q-37 0 -37 37v993q0 35 37 35h241q35 0 35 -35v-993q0 -37 -35 -37zM301 1198h-178q-22 0 -28.5 13t5.5 30l168 266q16 25 43 25h232q22 0 27.5 -13t-9.5 -32l-217 -268q-15 -21 -43 -21z" />
    <glyph glyph-name="icircumflex" unicode="&#xee;" horiz-adv-x="542" 
d="M391 0h-239q-37 0 -37 37v993q0 35 37 35h239q37 0 37 -35v-993q0 -37 -37 -37zM139 1178h-174q-22 0 -27.5 13t7.5 32l209 266q16 22 45 22h145q31 0 45 -22l209 -266q14 -19 7 -32t-30 -13h-172q-29 0 -45 22l-86 131l-90 -131q-16 -22 -43 -22z" />
    <glyph glyph-name="idieresis" unicode="&#xef;" horiz-adv-x="542" 
d="M393 0h-241q-37 0 -37 37v993q0 35 37 35h241q35 0 35 -35v-993q0 -37 -35 -37zM221 1337q0 -67 -39.5 -106t-103.5 -39q-65 0 -106.5 39t-41.5 104q0 68 41 108t107 40q64 0 103.5 -39.5t39.5 -106.5zM616 1337q0 -67 -41 -106t-106 -39q-64 0 -104.5 39.5t-40.5 105.5
q0 67 40.5 106.5t104.5 39.5q65 0 106 -39.5t41 -106.5z" />
    <glyph glyph-name="eth" unicode="&#xf0;" horiz-adv-x="1140" 
d="M891 1382l-80 -65q236 -223 236 -647v-246q0 -214 -129 -332.5t-355 -118.5t-356.5 117t-130.5 322v143q0 187 124 306.5t318 119.5q148 0 242 -84q-34 153 -156 248l-131 -107q-27 -24 -51 6l-47 54q-21 26 6 53l86 72q-93 37 -195 37q-36 0 -36 34v181q0 34 36 34
q245 0 418 -102l109 88q27 24 53 -6l43 -55q24 -27 -4 -52zM395 408q0 -77 43 -117.5t125 -40.5q80 0 123.5 41t44.5 117v135q0 77 -44.5 119.5t-123.5 42.5q-81 0 -124.5 -42.5t-43.5 -119.5v-135z" />
    <glyph glyph-name="ntilde" unicode="&#xf1;" horiz-adv-x="1157" 
d="M389 -2h-242q-36 0 -36 37v932q0 31 26 43q206 84 430 84q234 0 361 -123t127 -353v-583q0 -37 -37 -37h-242q-37 0 -37 37v583q0 108 -43 152.5t-129 44.5q-84 0 -143 -18v-762q0 -37 -35 -37zM938 1397q-13 -35 -32 -68t-46.5 -64.5t-64.5 -51t-78 -19.5q-58 0 -162 55
q-85 47 -113 47q-42 0 -77 -65q-19 -31 -50 -14l-127 67q-29 14 -16 47q29 76 85 135.5t132 59.5q60 0 164 -53q87 -48 121 -48q20 0 34 14t35 50q18 31 48 14l127 -65q29 -17 20 -41z" />
    <glyph glyph-name="ograve" unicode="&#xf2;" horiz-adv-x="1136" 
d="M1055 408q0 -202 -130.5 -318.5t-355.5 -116.5q-226 0 -356.5 116.5t-130.5 318.5v245q0 205 130.5 323t356.5 118q225 0 355.5 -118t130.5 -323v-245zM401 408q0 -77 43 -117.5t125 -40.5t125 40.5t43 117.5v245q0 77 -43.5 119.5t-124.5 42.5t-124.5 -42.5
t-43.5 -119.5v-245zM705 1198h-179q-28 0 -43 21l-217 268q-15 19 -9 32t28 13h231q27 0 43 -25l168 -266q12 -17 6 -30t-28 -13z" />
    <glyph glyph-name="oacute" unicode="&#xf3;" horiz-adv-x="1136" 
d="M1055 408q0 -202 -130.5 -318.5t-355.5 -116.5q-226 0 -356.5 116.5t-130.5 318.5v245q0 205 130.5 323t356.5 118q225 0 355.5 -118t130.5 -323v-245zM401 408q0 -77 43 -117.5t125 -40.5t125 40.5t43 117.5v245q0 77 -43.5 119.5t-124.5 42.5t-124.5 -42.5
t-43.5 -119.5v-245zM600 1198h-178q-22 0 -28.5 13t5.5 30l168 266q16 25 43 25h232q22 0 27.5 -13t-9.5 -32l-217 -268q-15 -21 -43 -21z" />
    <glyph glyph-name="ocircumflex" unicode="&#xf4;" horiz-adv-x="1136" 
d="M1055 408q0 -202 -130.5 -318.5t-355.5 -116.5q-226 0 -356.5 116.5t-130.5 318.5v245q0 205 130.5 323t356.5 118q225 0 355.5 -118t130.5 -323v-245zM401 408q0 -77 43 -117.5t125 -40.5t125 40.5t43 117.5v245q0 77 -43.5 119.5t-124.5 42.5t-124.5 -42.5
t-43.5 -119.5v-245zM418 1178h-180q-22 0 -28 13t9 32l230 268q17 20 45 20h153q29 0 43 -20l228 -268q15 -19 9.5 -32t-28.5 -13h-180q-29 0 -43 20l-107 131l-108 -131q-14 -20 -43 -20z" />
    <glyph glyph-name="otilde" unicode="&#xf5;" horiz-adv-x="1136" 
d="M1055 408q0 -202 -130.5 -318.5t-355.5 -116.5q-226 0 -356.5 116.5t-130.5 318.5v245q0 205 130.5 323t356.5 118q225 0 355.5 -118t130.5 -323v-245zM401 408q0 -77 43 -117.5t125 -40.5t125 40.5t43 117.5v245q0 77 -43.5 119.5t-124.5 42.5t-124.5 -42.5
t-43.5 -119.5v-245zM948 1382q-18 -48 -45 -90.5t-74.5 -77t-101.5 -34.5q-58 0 -162 55q-85 47 -112 47q-43 0 -78 -65q-19 -32 -49 -15l-127 68q-30 15 -17 47q29 76 85 135t132 59q60 0 164 -53q85 -47 121 -47q20 0 34.5 14.5t35.5 49.5q18 30 47 14l127 -66
q29 -17 20 -41z" />
    <glyph glyph-name="odieresis" unicode="&#xf6;" horiz-adv-x="1136" 
d="M1055 408q0 -202 -130.5 -318.5t-355.5 -116.5q-226 0 -356.5 116.5t-130.5 318.5v245q0 205 130.5 323t356.5 118q225 0 355.5 -118t130.5 -323v-245zM401 408q0 -77 43 -117.5t125 -40.5t125 40.5t43 117.5v245q0 77 -43.5 119.5t-124.5 42.5t-124.5 -42.5
t-43.5 -119.5v-245zM496 1337q0 -71 -41.5 -111t-108.5 -40q-68 0 -110.5 40t-42.5 109q0 72 42.5 113t110.5 41t109 -40t41 -112zM946 1337q0 -71 -41 -111t-108 -40q-69 0 -111.5 40t-42.5 111q0 72 42.5 112t111.5 40q67 0 108 -40t41 -112z" />
    <glyph glyph-name="divide" unicode="&#xf7;" 
d="M1104 541h-920q-34 0 -34 34v220q0 34 34 34h920q37 0 37 -34v-220q0 -34 -37 -34zM838 258q0 -83 -53 -134.5t-138 -51.5q-84 0 -135 51t-51 135q0 85 50.5 136.5t135.5 51.5t138 -52t53 -136zM838 1106q0 -82 -53 -134t-138 -52q-84 0 -135 52t-51 134q0 85 50.5 136.5
t135.5 51.5t138 -52t53 -136z" />
    <glyph glyph-name="oslash" unicode="&#xf8;" horiz-adv-x="1134" 
d="M248 -154h-150q-20 0 -27.5 13t3.5 30l123 213q-115 115 -115 301v252q0 204 130 321.5t355 117.5q94 0 187 -27l73 127q16 25 45 25h148q22 0 30 -13t-3 -30l-119 -205q125 -116 125 -316v-252q0 -200 -130.5 -316t-355.5 -116q-109 0 -200 31l-76 -131q-13 -25 -43 -25
zM399 412q0 -79 43 -120.5t125 -41.5t125 41.5t43 120.5v237q0 82 -43 125t-125 43t-125 -43t-43 -125v-237z" />
    <glyph glyph-name="ugrave" unicode="&#xf9;" horiz-adv-x="1144" 
d="M756 1065h241q37 0 37 -35v-932q0 -31 -26 -43q-198 -82 -422 -82q-233 0 -358.5 122.5t-125.5 353.5v581q0 35 37 35h242q37 0 37 -35v-584q0 -108 42 -152t126 -44q83 0 135 20v760q0 35 35 35zM713 1178h-178q-29 0 -43 20l-218 268q-15 19 -9 32t28 13h231
q28 0 43 -24l168 -266q12 -17 6 -30t-28 -13z" />
    <glyph glyph-name="uacute" unicode="&#xfa;" horiz-adv-x="1144" 
d="M756 1065h241q37 0 37 -35v-932q0 -31 -26 -43q-198 -82 -422 -82q-233 0 -358.5 122.5t-125.5 353.5v581q0 35 37 35h242q37 0 37 -35v-584q0 -108 42 -152t126 -44q83 0 135 20v760q0 35 35 35zM608 1178h-178q-22 0 -28 13t6 30l167 266q15 24 43 24h232
q22 0 27.5 -13t-9.5 -32l-217 -268q-14 -20 -43 -20z" />
    <glyph glyph-name="ucircumflex" unicode="&#xfb;" horiz-adv-x="1144" 
d="M756 1065h241q37 0 37 -35v-932q0 -31 -26 -43q-198 -82 -422 -82q-233 0 -358.5 122.5t-125.5 353.5v581q0 35 37 35h242q37 0 37 -35v-584q0 -108 42 -152t126 -44q83 0 135 20v760q0 35 35 35zM426 1182h-180q-22 0 -28 13t9 32l230 268q18 21 45 21h153q28 0 43 -21
l228 -268q15 -19 9.5 -32t-28.5 -13h-180q-29 0 -43 20l-106 131l-109 -131q-14 -20 -43 -20z" />
    <glyph glyph-name="udieresis" unicode="&#xfc;" horiz-adv-x="1144" 
d="M756 1065h241q37 0 37 -35v-932q0 -31 -26 -43q-198 -82 -422 -82q-233 0 -358.5 122.5t-125.5 353.5v581q0 35 37 35h242q37 0 37 -35v-584q0 -108 42 -152t126 -44q83 0 135 20v760q0 35 35 35zM504 1346q0 -71 -41.5 -111.5t-108.5 -40.5q-68 0 -110.5 40t-42.5 109
q0 72 42.5 113t110.5 41t109 -39.5t41 -111.5zM954 1346q0 -71 -41 -111.5t-108 -40.5q-69 0 -111.5 40.5t-42.5 111.5q0 72 42.5 111.5t111.5 39.5q68 0 108.5 -39.5t40.5 -111.5z" />
    <glyph glyph-name="yacute" unicode="&#xfd;" horiz-adv-x="1146" 
d="M719 326v704q0 35 37 35h241q35 0 35 -35v-928q0 -267 -116.5 -391.5t-368.5 -124.5q-131 0 -228 26.5t-180 86.5q-30 18 -10 49l109 166q18 27 47 12q117 -69 247 -69q98 0 146 44.5t47 153.5q-100 -28 -186 -28q-192 0 -314.5 117t-122.5 321v565q0 35 37 35h242
q35 0 35 -35v-559q0 -88 44.5 -131t125.5 -43q77 0 133 29zM604 1178h-178q-22 0 -28.5 13t5.5 30l168 266q15 24 43 24h232q22 0 27.5 -13t-9.5 -32l-217 -268q-14 -20 -43 -20z" />
    <glyph glyph-name="thorn" unicode="&#xfe;" horiz-adv-x="1136" 
d="M428 1069q83 27 166 27q131 0 235 -52.5t167 -160t63 -254.5v-191q0 -211 -133 -338t-332 -127q-90 0 -166 31v-356q0 -37 -35 -37h-241q-37 0 -37 37v1775q0 35 37 35h241q35 0 35 -35v-354zM567 250q78 0 126 41t48 127v229q0 90 -48 131t-126 41q-76 0 -139 -24v-514
q67 -31 139 -31z" />
    <glyph glyph-name="ydieresis" unicode="&#xff;" horiz-adv-x="1146" 
d="M719 326v704q0 35 37 35h241q35 0 35 -35v-928q0 -267 -116.5 -391.5t-368.5 -124.5q-131 0 -228 26.5t-180 86.5q-30 18 -10 49l109 166q18 27 47 12q117 -69 247 -69q98 0 146 44.5t47 153.5q-100 -28 -186 -28q-192 0 -314.5 117t-122.5 321v565q0 35 37 35h242
q35 0 35 -35v-559q0 -88 44.5 -131t125.5 -43q77 0 133 29zM500 1341q0 -71 -41.5 -111t-108.5 -40q-68 0 -110.5 40t-42.5 109q0 72 42.5 113t110.5 41t109 -40t41 -112zM950 1341q0 -71 -41 -111t-108 -40q-69 0 -111.5 40t-42.5 111q0 72 42.5 112t111.5 40q67 0 108 -40
t41 -112z" />
    <glyph glyph-name="Amacron" unicode="&#x100;" horiz-adv-x="1359" 
d="M313 0h-274q-42 0 -29 41l475 1395q12 28 39 28h312q29 0 38 -28l476 -1395q7 -19 -1 -30t-28 -11h-272q-34 0 -43 31l-76 250h-498l-78 -250q-9 -31 -41 -31zM676 1106q-12 -41 -70 -239t-90 -302h330q-2 5 -162 541h-8zM983 1604h-606q-37 0 -37 36v152q0 37 37 37h606
q37 0 37 -37v-152q0 -36 -37 -36z" />
    <glyph glyph-name="amacron" unicode="&#x101;" horiz-adv-x="1079" 
d="M109 981q78 50 187.5 81.5t233.5 31.5q216 0 332.5 -115t116.5 -344v-561q0 -32 -31 -41q-196 -60 -422 -60q-228 0 -354.5 88t-126.5 265q0 157 117 238t330 81q72 0 174 -12v20q0 86 -38 127t-134 41q-67 0 -139.5 -16t-116.5 -41q-13 -8 -28 -5t-22 17l-84 160
q-15 31 5 45zM362 334q0 -53 44 -80t120 -27q61 0 140 17v180q-61 12 -142 12q-162 0 -162 -102zM217 1266v145q0 35 37 35h561q37 0 37 -35v-145q0 -35 -37 -35h-561q-37 0 -37 35z" />
    <glyph glyph-name="Abreve" unicode="&#x102;" horiz-adv-x="1359" 
d="M313 0h-274q-42 0 -29 41l475 1395q12 28 39 28h312q29 0 38 -28l476 -1395q7 -19 -1 -30t-28 -11h-272q-34 0 -43 31l-76 250h-498l-78 -250q-9 -31 -41 -31zM676 1106q-12 -41 -70 -239t-90 -302h330q-2 5 -162 541h-8zM1053 1831q-22 -126 -120 -200.5t-253 -74.5
q-154 0 -250.5 73.5t-118.5 197.5q-4 14 4.5 25t24.5 16l168 37q31 9 41 -25q28 -88 131 -88q105 0 133 88q10 34 41 25l168 -37q34 -10 31 -37z" />
    <glyph glyph-name="abreve" unicode="&#x103;" horiz-adv-x="1079" 
d="M109 981q78 50 187.5 81.5t233.5 31.5q216 0 332.5 -115t116.5 -344v-561q0 -32 -31 -41q-196 -60 -422 -60q-228 0 -354.5 88t-126.5 265q0 157 117 238t330 81q72 0 174 -12v20q0 86 -38 127t-134 41q-67 0 -139.5 -16t-116.5 -41q-13 -8 -28 -5t-22 17l-84 160
q-15 31 5 45zM362 334q0 -53 44 -80t120 -27q61 0 140 17v180q-61 12 -142 12q-162 0 -162 -102zM887 1479q-15 -131 -104.5 -205t-239.5 -74q-149 0 -237.5 73t-106.5 202q-6 34 30 41l152 24q32 6 41 -29q24 -90 121 -90q100 0 121 90q12 34 43 29l149 -24q16 -3 25 -13
t6 -24z" />
    <glyph glyph-name="Aogonek" unicode="&#x104;" horiz-adv-x="1359" 
d="M1368 -371q-100 -47 -217 -47q-118 0 -178 46t-60 130q0 64 43 127.5t117 114.5h-24q-34 0 -43 31l-76 252h-498l-78 -252q-9 -31 -41 -31h-274q-42 0 -29 41l475 1395q12 28 39 28h312q29 0 38 -28l476 -1395q16 -41 -33 -41q-68 -28 -104.5 -70t-36.5 -82q0 -45 59 -45
q37 0 78 13q37 9 45 -23l31 -119q5 -30 -21 -45zM676 1106q-12 -41 -70 -239t-90 -302h330q-2 5 -162 541h-8z" />
    <glyph glyph-name="aogonek" unicode="&#x105;" horiz-adv-x="1079" 
d="M977 641v-567q0 -29 -31 -41q-99 -37 -155 -86t-56 -92q0 -52 66 -52q38 0 73 13q38 12 46 -23l28 -117q9 -30 -18 -45q-104 -49 -217 -49q-234 0 -234 174q0 59 36 120t103 104q-51 -7 -92 -7q-229 0 -355 87t-126 266q0 159 116.5 240t330.5 81q74 0 172 -12v27
q0 79 -38 118t-134 39q-130 0 -232 -57q-32 -14 -49 14l-100 162q-20 29 10 49q174 107 407 107q216 0 332.5 -114t116.5 -339zM362 338q0 -109 162 -109q66 0 140 17v178q-65 10 -140 10q-162 0 -162 -96z" />
    <glyph glyph-name="Cacute" unicode="&#x106;" horiz-adv-x="1216" 
d="M1169 121q-203 -150 -464 -150q-276 0 -437.5 142.5t-161.5 404.5v428q0 261 161 403t431 142q122 0 236 -34.5t203 -96.5q30 -18 10 -47l-129 -197q-20 -29 -51 -10q-115 74 -262 74q-127 0 -196 -66.5t-69 -179.5v-402q0 -118 70 -182.5t197 -64.5q156 0 284 86
q31 21 49 -9l131 -196q20 -30 -2 -45zM1012 1892l-258 -270q-15 -18 -43 -18h-199q-22 0 -29 12t6 31l207 268q14 22 43 22h252q23 0 29.5 -14t-8.5 -31z" />
    <glyph glyph-name="cacute" unicode="&#x107;" horiz-adv-x="968" 
d="M930 86q-159 -113 -363 -113q-230 0 -357.5 120t-127.5 327v231q0 204 128 323.5t355 119.5q176 0 336 -97q29 -19 10 -51l-108 -164q-16 -27 -51 -12q-86 47 -172 47q-85 0 -133 -44t-48 -122v-231q0 -84 48.5 -127t130.5 -43q104 0 196 59q32 19 51 -10l111 -164
q20 -30 -6 -49zM571 1198h-178q-22 0 -28 13t6 30l168 266q16 25 43 25h231q22 0 27.5 -13t-9.5 -32l-217 -268q-15 -21 -43 -21z" />
    <glyph glyph-name="Cdotaccent" unicode="&#x10a;" horiz-adv-x="1216" 
d="M1169 121q-203 -150 -464 -150q-276 0 -437.5 142.5t-161.5 404.5v428q0 261 161 403t431 142q122 0 236 -34.5t203 -96.5q30 -18 10 -47l-129 -197q-20 -29 -51 -10q-115 74 -262 74q-127 0 -196 -66.5t-69 -179.5v-402q0 -118 70 -182.5t197 -64.5q156 0 284 86
q31 21 49 -9l131 -196q20 -30 -2 -45zM866 1769q0 -73 -50 -122.5t-124 -49.5t-124 49.5t-50 122.5t49.5 121.5t124.5 48.5t124.5 -48.5t49.5 -121.5z" />
    <glyph glyph-name="cdotaccent" unicode="&#x10b;" horiz-adv-x="968" 
d="M930 86q-159 -113 -363 -113q-230 0 -357.5 120t-127.5 327v231q0 204 128 323.5t355 119.5q176 0 336 -97q29 -19 10 -51l-108 -164q-16 -27 -51 -12q-86 47 -172 47q-85 0 -133 -44t-48 -122v-231q0 -84 48.5 -127t130.5 -43q104 0 196 59q32 19 51 -10l111 -164
q20 -30 -6 -49zM711 1368q0 -67 -45 -112.5t-113 -45.5q-69 0 -114.5 46t-45.5 112q0 70 45 114t115 44q69 0 113.5 -44t44.5 -114z" />
    <glyph glyph-name="Ccaron" unicode="&#x10c;" horiz-adv-x="1216" 
d="M1169 121q-203 -150 -464 -150q-276 0 -437.5 142.5t-161.5 404.5v428q0 261 161 403t431 142q122 0 236 -34.5t203 -96.5q30 -18 10 -47l-129 -197q-20 -29 -51 -10q-115 74 -262 74q-127 0 -196 -66.5t-69 -179.5v-402q0 -118 70 -182.5t197 -64.5q156 0 284 86
q31 21 49 -9l131 -196q20 -30 -2 -45zM336 1917h199q28 0 43 -21l104 -120l102 120q15 21 43 21h199q23 0 28 -13t-10 -32l-233 -268q-18 -21 -45 -21h-168q-27 0 -45 21l-236 268q-15 19 -9.5 32t28.5 13z" />
    <glyph glyph-name="ccaron" unicode="&#x10d;" horiz-adv-x="968" 
d="M930 86q-159 -113 -363 -113q-230 0 -357.5 120t-127.5 327v231q0 204 128 323.5t355 119.5q176 0 336 -97q29 -19 10 -51l-108 -164q-16 -27 -51 -12q-86 47 -172 47q-85 0 -133 -44t-48 -122v-231q0 -84 48.5 -127t130.5 -43q104 0 196 59q32 19 51 -10l111 -164
q20 -30 -6 -49zM211 1530h180q28 0 43 -21l109 -131l106 131q15 21 43 21h180q23 0 28.5 -13t-9.5 -32l-227 -268q-15 -21 -43 -21h-154q-27 0 -45 21l-229 268q-15 19 -9.5 32t27.5 13z" />
    <glyph glyph-name="Dcaron" unicode="&#x10e;" horiz-adv-x="1378" 
d="M692 0h-504q-36 0 -36 37v1390q0 37 36 37h504q101 0 186.5 -18.5t159 -61t125 -107t80.5 -162.5t29 -222v-326q0 -125 -29 -222.5t-80 -161.5t-125.5 -105.5t-159 -59.5t-186.5 -18zM481 1157v-848h215q120 0 179 59t59 185v356q0 126 -59.5 187t-178.5 61h-215z
M319 1917h199q28 0 43 -21l105 -120l102 120q15 21 43 21h199q23 0 28 -13t-10 -32l-233 -268q-18 -21 -45 -21h-168q-27 0 -45 21l-236 268q-15 19 -10 32t28 13z" />
    <glyph glyph-name="dcaron" unicode="&#x10f;" horiz-adv-x="1314" 
d="M522 1094q92 0 191 -35v368q0 37 35 37h241q37 0 37 -37v-1337q0 -31 -29 -43q-94 -34 -211 -54t-221 -20q-219 0 -352 124t-133 341v203q0 206 122 329.5t320 123.5zM1094 1098l73 334q6 32 39 32h180q19 0 27.5 -11t3.5 -30l-114 -336q-8 -28 -39 -28h-140
q-39 0 -30 39zM399 432q0 -95 43.5 -138.5t128.5 -43.5q81 0 142 22v514q-68 35 -144 35q-170 0 -170 -176v-213z" />
    <glyph glyph-name="Dcroat" unicode="&#x110;" horiz-adv-x="1409" 
d="M215 1464h508q127 0 229 -30.5t182.5 -95.5t124.5 -178t44 -267v-326q0 -125 -29.5 -222.5t-80.5 -161.5t-125.5 -105.5t-159 -59.5t-185.5 -18h-508q-37 0 -37 37v612h-123q-37 0 -37 35v125q0 35 37 35h123v583q0 37 37 37zM727 309q119 0 178.5 59t59.5 185v356
q0 248 -238 248h-219v-313h217q35 0 35 -35v-125q0 -35 -35 -35h-217v-340h219z" />
    <glyph glyph-name="dcroat" unicode="&#x111;" horiz-adv-x="1138" 
d="M1026 1337h111q34 0 34 -37v-98q0 -35 -34 -35h-111v-1077q0 -31 -29 -43q-94 -34 -211 -54t-221 -20q-219 0 -352 124t-133 341v156q0 207 122 330t320 123q102 0 191 -35v155h-226q-36 0 -36 35v98q0 37 36 37h226v90q0 37 35 37h241q37 0 37 -37v-90zM399 432
q0 -95 43.5 -138.5t128.5 -43.5q81 0 142 22v467q-59 35 -144 35q-170 0 -170 -174v-168z" />
    <glyph glyph-name="Emacron" unicode="&#x112;" horiz-adv-x="1212" 
d="M481 596v-299h609q36 0 36 -35v-225q0 -37 -36 -37h-902q-36 0 -36 37v1390q0 37 36 37h869q37 0 37 -37v-225q0 -35 -37 -35h-576v-280h508q37 0 37 -35v-221q0 -35 -37 -35h-508zM932 1622h-606q-37 0 -37 37v151q0 37 37 37h606q37 0 37 -37v-151q0 -37 -37 -37z" />
    <glyph glyph-name="emacron" unicode="&#x113;" horiz-adv-x="1085" 
d="M1014 657v-196q0 -35 -37 -35h-580v-33q0 -77 46.5 -117t129.5 -40q135 0 261 73q27 21 47 -8l106 -141q20 -31 -6 -51q-177 -136 -418 -136q-136 0 -243 46t-172.5 144t-65.5 236v258q0 111 37.5 196.5t103 137t150 77.5t184.5 26q97 0 178 -25.5t144.5 -76.5t99 -136.5
t35.5 -198.5zM713 672q0 80 -43 121t-115 41q-74 0 -116 -40t-42 -122v-43h316v43zM231 1260v145q0 35 37 35h561q37 0 37 -35v-145q0 -35 -37 -35h-561q-37 0 -37 35z" />
    <glyph glyph-name="Edotaccent" unicode="&#x116;" horiz-adv-x="1212" 
d="M481 596v-299h609q36 0 36 -35v-225q0 -37 -36 -37h-902q-36 0 -36 37v1390q0 37 36 37h869q37 0 37 -37v-225q0 -35 -37 -35h-576v-280h508q37 0 37 -35v-221q0 -35 -37 -35h-508zM803 1743q0 -73 -49.5 -122.5t-124.5 -49.5t-124.5 49.5t-49.5 122.5t49.5 121.5
t124.5 48.5t124.5 -48.5t49.5 -121.5z" />
    <glyph glyph-name="edotaccent" unicode="&#x117;" horiz-adv-x="1085" 
d="M1014 657v-196q0 -35 -37 -35h-580v-33q0 -77 46.5 -117t129.5 -40q135 0 261 73q27 21 47 -8l106 -141q20 -31 -6 -51q-177 -136 -418 -136q-136 0 -243 46t-172.5 144t-65.5 236v258q0 111 37.5 196.5t103 137t150 77.5t184.5 26q97 0 178 -25.5t144.5 -76.5t99 -136.5
t35.5 -198.5zM713 672q0 80 -43 121t-115 41q-74 0 -116 -40t-42 -122v-43h316v43zM707 1362q0 -67 -45 -112.5t-113 -45.5q-69 0 -114.5 46t-45.5 112q0 70 45 114t115 44q69 0 113.5 -44t44.5 -114z" />
    <glyph glyph-name="Eogonek" unicode="&#x118;" horiz-adv-x="1212" 
d="M1036 -197q36 0 80 13q34 9 45 -23l29 -119q9 -29 -21 -45q-102 -47 -217 -47q-118 0 -177.5 46t-59.5 130q0 69 45.5 135t128.5 107h-701q-36 0 -36 37v1390q0 37 36 37h869q35 0 35 -37v-225q0 -35 -35 -35h-576v-280h508q37 0 37 -35v-221q0 -37 -37 -37h-508v-297
h609q34 0 34 -35v-233q0 -29 -26 -41q-58 -28 -89.5 -66.5t-31.5 -73.5q0 -45 59 -45z" />
    <glyph glyph-name="eogonek" unicode="&#x119;" horiz-adv-x="1079" 
d="M846 -365q-104 -51 -211 -51q-112 0 -175 49t-63 140q0 108 144 207q-15 -3 -27 -3q-84 0 -161 28.5t-137.5 80.5t-97 133.5t-36.5 179.5v263q0 110 37 194t102 135.5t147.5 77t180.5 25.5t179.5 -25t144.5 -76t98 -135.5t35 -195.5v-203q0 -37 -35 -37h-576v-31
q0 -76 44.5 -114.5t127.5 -38.5q148 0 254 73q31 18 51 -8l109 -143q21 -30 -6 -51q-81 -60 -197 -105q-65 -28 -105 -66.5t-40 -74.5q0 -60 74 -60q24 0 75 15q32 13 45 -23l35 -114q10 -31 -16 -46zM395 672v-43h312v43q0 83 -43.5 123.5t-116.5 40.5q-70 0 -111 -40.5
t-41 -123.5z" />
    <glyph glyph-name="Ecaron" unicode="&#x11a;" horiz-adv-x="1212" 
d="M481 596v-299h609q36 0 36 -35v-225q0 -37 -36 -37h-902q-36 0 -36 37v1390q0 37 36 37h869q37 0 37 -37v-225q0 -35 -37 -35h-576v-280h508q37 0 37 -35v-221q0 -35 -37 -35h-508zM287 1896h198q29 0 43 -20l105 -121l102 121q14 20 43 20h199q23 0 28 -13t-10 -32
l-233 -268q-17 -20 -45 -20h-168q-28 0 -45 20l-236 268q-15 19 -9.5 32t28.5 13z" />
    <glyph glyph-name="ecaron" unicode="&#x11b;" horiz-adv-x="1085" 
d="M1014 657v-196q0 -35 -37 -35h-580v-33q0 -77 46.5 -117t129.5 -40q135 0 261 73q27 21 47 -8l106 -141q20 -31 -6 -51q-177 -136 -418 -136q-136 0 -243 46t-172.5 144t-65.5 236v258q0 111 37.5 196.5t103 137t150 77.5t184.5 26q97 0 178 -25.5t144.5 -76.5t99 -136.5
t35.5 -198.5zM713 672q0 80 -43 121t-115 41q-74 0 -116 -40t-42 -122v-43h316v43zM223 1538h180q29 0 43 -20l109 -132l107 132q14 20 43 20h180q23 0 28 -13t-10 -32l-227 -268q-15 -21 -43 -21h-154q-27 0 -45 21l-229 268q-15 19 -9.5 32t27.5 13z" />
    <glyph glyph-name="Gbreve" unicode="&#x11e;" horiz-adv-x="1341" 
d="M1225 186q-97 -98 -234 -155.5t-293 -57.5q-268 0 -430 143t-162 404v428q0 173 75.5 297t207 185t307.5 61q131 0 261 -35t231 -98q30 -21 10 -51l-137 -197q-19 -28 -49 -8q-135 78 -318 78q-119 0 -186.5 -62.5t-67.5 -179.5v-408q0 -120 69 -181.5t189 -61.5
q135 0 228 57v236h-219q-35 0 -35 36v201q0 35 35 35h497q35 0 35 -35v-590q0 -27 -14 -41zM1040 1858q-22 -126 -119.5 -200.5t-252.5 -74.5q-154 0 -250.5 73t-118.5 197q-4 14 4.5 25t24.5 16l168 37q31 9 41 -24q28 -88 131 -88q105 0 133 88q10 33 41 24l168 -37
q33 -10 30 -36z" />
    <glyph glyph-name="gbreve" unicode="&#x11f;" horiz-adv-x="1134" 
d="M1024 102q0 -265 -116 -390.5t-371 -125.5q-126 0 -222.5 26.5t-183.5 84.5q-27 20 -8 51l108 166q18 28 48 10q113 -67 245 -67q101 0 147.5 45t45.5 155q-95 -30 -191 -30q-202 0 -324 116t-122 322v168q0 117 37 206.5t104 144.5t155 82.5t195 27.5q215 0 426 -82
q27 -12 27 -43v-867zM397 461q0 -166 170 -166q100 0 144 35v465q-52 20 -138 20q-87 0 -131.5 -40.5t-44.5 -133.5v-180zM930 1483q-15 -131 -104.5 -205t-239.5 -74q-149 0 -237.5 73t-106.5 202q-6 34 30 41l152 24q32 6 41 -28q24 -91 121 -91q100 0 121 91q12 33 43 28
l149 -24q16 -3 25 -13t6 -24z" />
    <glyph glyph-name="Gdotaccent" unicode="&#x120;" horiz-adv-x="1341" 
d="M1225 186q-97 -98 -234 -155.5t-293 -57.5q-268 0 -430 143t-162 404v428q0 173 75.5 297t207 185t307.5 61q131 0 261 -35t231 -98q30 -21 10 -51l-137 -197q-19 -28 -49 -8q-135 78 -318 78q-119 0 -186.5 -62.5t-67.5 -179.5v-408q0 -120 69 -181.5t189 -61.5
q135 0 228 57v236h-219q-35 0 -35 36v201q0 35 35 35h497q35 0 35 -35v-590q0 -27 -14 -41zM858 1780q0 -72 -50 -122t-124 -50t-124 50t-50 122q0 73 49.5 121.5t124.5 48.5t124.5 -48.5t49.5 -121.5z" />
    <glyph glyph-name="gdotaccent" unicode="&#x121;" horiz-adv-x="1134" 
d="M1024 102q0 -265 -116 -390.5t-371 -125.5q-126 0 -222.5 26.5t-183.5 84.5q-27 20 -8 51l108 166q18 28 48 10q113 -67 245 -67q101 0 147.5 45t45.5 155q-95 -30 -191 -30q-202 0 -324 116t-122 322v168q0 117 37 206.5t104 144.5t155 82.5t195 27.5q215 0 426 -82
q27 -12 27 -43v-867zM397 461q0 -166 170 -166q100 0 144 35v465q-52 20 -138 20q-87 0 -131.5 -40.5t-44.5 -133.5v-180zM745 1376q0 -67 -44.5 -112t-112.5 -45q-69 0 -114.5 45.5t-45.5 111.5q0 70 45 114t115 44q69 0 113 -44t44 -114z" />
    <glyph glyph-name="uni0122" unicode="&#x122;" horiz-adv-x="1341" 
d="M1225 186q-97 -98 -234 -155.5t-293 -57.5q-268 0 -430 143t-162 404v428q0 173 75.5 297t207 185t307.5 61q131 0 261 -35t231 -98q30 -21 10 -51l-137 -197q-19 -28 -49 -8q-135 78 -318 78q-119 0 -186.5 -62.5t-67.5 -179.5v-408q0 -120 69 -181.5t189 -61.5
q135 0 228 57v236h-219q-35 0 -35 36v201q0 35 35 35h497q35 0 35 -35v-590q0 -27 -14 -41zM680 -508h-164q-41 0 -35 35l78 323q3 13 15.5 21t27.5 8h215q21 0 29.5 -10t1.5 -27l-127 -325q-8 -25 -41 -25z" />
    <glyph glyph-name="uni0123" unicode="&#x123;" horiz-adv-x="1134" 
d="M1024 102q0 -265 -116 -390.5t-371 -125.5q-126 0 -222.5 26.5t-183.5 84.5q-27 20 -8 51l108 166q18 28 48 10q113 -67 245 -67q101 0 147.5 45t45.5 155q-95 -30 -191 -30q-202 0 -324 116t-122 322v168q0 117 37 206.5t104 144.5t155 82.5t195 27.5q215 0 426 -82
q27 -12 27 -43v-867zM397 461q0 -166 170 -166q100 0 144 35v465q-52 20 -138 20q-87 0 -131.5 -40.5t-44.5 -133.5v-180zM676 1200h-193q-20 0 -28.5 10t-1.5 25l125 299q11 27 43 27h147q18 0 27 -10.5t4 -24.5l-80 -299q-7 -27 -43 -27z" />
    <glyph glyph-name="Hbar" unicode="&#x126;" horiz-adv-x="1454" 
d="M1278 1292h119q37 0 37 -37v-122q0 -37 -37 -37h-119v-1059q0 -37 -37 -37h-256q-37 0 -37 37v551h-440v-551q0 -37 -37 -37h-256q-37 0 -37 37v1059h-119q-34 0 -34 37v122q0 37 34 37h119v135q0 37 37 37h256q37 0 37 -37v-135h440v135q0 37 37 37h256q37 0 37 -37
v-135zM508 891h440v205h-440v-205z" />
    <glyph glyph-name="hbar" unicode="&#x127;" horiz-adv-x="1159" 
d="M428 1012q88 30 205 30q194 0 309 -123.5t115 -349.5v-532q0 -37 -35 -37h-244q-35 0 -35 37v532q0 103 -42 150t-132 47q-73 0 -141 -27v-702q0 -37 -37 -37h-241q-35 0 -35 37v1130h-111q-37 0 -37 35v98q0 37 37 37h111v90q0 37 35 37h241q37 0 37 -37v-90h250
q37 0 37 -37v-98q0 -35 -37 -35h-250v-155z" />
    <glyph glyph-name="Imacron" unicode="&#x12a;" horiz-adv-x="630" 
d="M33 1659v151q0 35 37 35h491q35 0 35 -35v-151q0 -37 -35 -37h-491q-37 0 -37 37zM479 1427v-1390q0 -37 -35 -37h-258q-34 0 -34 37v1390q0 37 34 37h258q35 0 35 -37z" />
    <glyph glyph-name="imacron" unicode="&#x12b;" horiz-adv-x="542" 
d="M504 1255h-473q-37 0 -37 35v146q0 37 37 37h473q35 0 35 -37v-146q0 -35 -35 -35zM391 0h-241q-35 0 -35 37v993q0 35 35 35h241q37 0 37 -35v-993q0 -37 -37 -37z" />
    <glyph glyph-name="Iogonek" unicode="&#x12e;" horiz-adv-x="632" 
d="M397 -197q36 0 80 13q37 10 45 -23l29 -119q7 -28 -19 -45q-103 -47 -219 -47q-118 0 -178.5 47t-60.5 129q0 70 37.5 135.5t109.5 106.5q-43 0 -56 6t-13 31v1390q0 37 36 37h256q37 0 37 -37v-1390q0 -37 -28 -37q-58 -29 -88.5 -70.5t-30.5 -81.5q0 -45 63 -45z" />
    <glyph glyph-name="iogonek" unicode="&#x12f;" horiz-adv-x="542" 
d="M496 -360q-103 -54 -215 -54q-116 0 -179 51.5t-63 149.5q0 57 37.5 112.5t103.5 100.5h-28q-37 0 -37 37v993q0 35 37 35h241q35 0 35 -35v-993q0 -23 -11.5 -30t-39.5 -7q-50 -29 -78.5 -64.5t-28.5 -66.5q0 -55 84 -55q42 0 82 12q39 9 47 -23l29 -120q8 -32 -16 -43z
M446 1384q0 -73 -49 -122.5t-123 -49.5q-76 0 -125 49.5t-49 122.5q0 75 49 123.5t125 48.5q75 0 123.5 -48.5t48.5 -123.5z" />
    <glyph glyph-name="Idotaccent" unicode="&#x130;" horiz-adv-x="632" 
d="M481 1427v-1390q0 -37 -37 -37h-256q-36 0 -36 37v1390q0 37 36 37h256q37 0 37 -37zM492 1784q0 -72 -50 -122t-125 -50t-124.5 50t-49.5 122q0 73 49.5 121.5t124.5 48.5t125 -48.5t50 -121.5z" />
    <glyph glyph-name="dotlessi" unicode="&#x131;" horiz-adv-x="542" 
d="M393 0h-241q-37 0 -37 37v993q0 35 37 35h241q35 0 35 -35v-993q0 -37 -35 -37z" />
    <glyph glyph-name="IJ" unicode="&#x132;" horiz-adv-x="1724" 
d="M481 1427v-1390q0 -37 -37 -37h-256q-36 0 -36 37v1390q0 37 36 37h256q37 0 37 -37zM1585 522q0 -259 -137 -403t-371 -144q-120 0 -220 35.5t-198 110.5q-27 16 -10 47l123 194q19 31 51 9q119 -84 246 -84q92 0 139 56t47 177v907q0 37 35 37h258q37 0 37 -37v-905z
" />
    <glyph glyph-name="ij" unicode="&#x133;" horiz-adv-x="1171" 
d="M393 0h-241q-37 0 -37 37v993q0 35 37 35h241q35 0 35 -35v-993q0 -37 -35 -37zM444 1384q0 -73 -48.5 -122.5t-123.5 -49.5q-74 0 -124 50t-50 122q0 75 49.5 123.5t124.5 48.5q76 0 124 -48.5t48 -123.5zM1057 -18q0 -188 -99 -293t-278 -105q-65 0 -117 10
q-31 5 -31 39v203q0 17 10 26.5t27 8.5q18 -2 56 -2q60 0 89 36t29 113v1012q0 35 37 35h242q35 0 35 -35v-1048zM1075 1384q0 -73 -49 -122.5t-123 -49.5q-76 0 -125 49.5t-49 122.5q0 75 49 123.5t125 48.5q75 0 123.5 -48.5t48.5 -123.5z" />
    <glyph glyph-name="uni0136" unicode="&#x136;" horiz-adv-x="1320" 
d="M444 0h-256q-36 0 -36 37v1390q0 37 36 37h256q37 0 37 -37v-516l393 531q16 22 46 22h323q23 0 29.5 -12t-6.5 -31l-488 -598l545 -780q13 -17 6 -30t-29 -13h-315q-27 0 -43 25l-371 546l-90 -102v-432q0 -37 -37 -37zM696 -496h-161q-20 0 -29 10t-6 25l78 318
q6 26 43 26h210q20 0 29.5 -10t3.5 -25l-127 -319q-13 -25 -41 -25z" />
    <glyph glyph-name="uni0137" unicode="&#x137;" horiz-adv-x="1075" 
d="M1055 0h-289q-32 0 -43 25l-240 368l-57 -61v-295q0 -37 -37 -37h-237q-37 0 -37 37v1390q0 37 37 37h237q37 0 37 -37v-722l260 337q14 23 43 23h285q22 0 27.5 -12t-9.5 -31l-346 -406l391 -573q12 -19 6 -31t-28 -12zM547 -469h-154q-21 0 -30.5 9.5t-4.5 23.5l82 291
q6 26 43 26h199q45 0 35 -37l-125 -288q-14 -25 -45 -25z" />
    <glyph glyph-name="Lacute" unicode="&#x139;" horiz-adv-x="1097" 
d="M1040 0h-852q-36 0 -36 37v1390q0 37 36 37h258q35 0 35 -37v-1122h559q35 0 35 -35v-233q0 -37 -35 -37zM690 1860l-258 -271q-15 -18 -43 -18h-199q-22 0 -28.5 12t6.5 31l207 268q14 23 43 23h252q23 0 29 -14t-9 -31z" />
    <glyph glyph-name="lacute" unicode="&#x13a;" horiz-adv-x="659" 
d="M621 -14q-76 -13 -136 -13q-181 0 -280 105t-99 293v1056q0 37 37 37h242q35 0 35 -37v-1017q0 -150 121 -150q43 0 63 2q39 3 39 -35v-204q0 -34 -22 -37zM655 1860l-258 -271q-15 -18 -43 -18h-198q-22 0 -29 12t6 31l207 268q14 23 43 23h252q23 0 29 -14t-9 -31z" />
    <glyph glyph-name="uni013B" unicode="&#x13b;" horiz-adv-x="1097" 
d="M1040 0h-852q-36 0 -36 37v1390q0 37 36 37h258q35 0 35 -37v-1122h559q35 0 35 -35v-233q0 -37 -35 -37zM594 -496h-158q-18 0 -27 10t-6 25l76 318q6 26 41 26h205q21 0 30 -10t3 -25l-125 -319q-9 -25 -39 -25z" />
    <glyph glyph-name="uni013C" unicode="&#x13c;" horiz-adv-x="659" 
d="M621 -14q-76 -13 -136 -13q-181 0 -280 105t-99 293v1056q0 37 37 37h242q35 0 35 -37v-1017q0 -150 121 -150q43 0 63 2q39 3 39 -35v-204q0 -34 -22 -37zM373 -487h-148q-20 0 -28.5 9.5t-3.5 24.5l77 297q6 29 41 29h193q22 0 30.5 -10t2.5 -27l-119 -299
q-13 -24 -45 -24z" />
    <glyph glyph-name="Lcaron" unicode="&#x13d;" horiz-adv-x="1101" 
d="M809 1075h-154q-40 0 -30 41l80 318q9 30 38 30h195q19 0 27 -11t2 -30l-115 -319q-14 -29 -43 -29zM1040 0h-852q-36 0 -36 37v1390q0 37 36 37h258q35 0 35 -37v-1122h559q35 0 35 -35v-233q0 -37 -35 -37z" />
    <glyph glyph-name="lcaron" unicode="&#x13e;" horiz-adv-x="696" 
d="M616 -16q-64 -11 -133 -11q-179 0 -278 105t-99 293v1056q0 37 37 37h242q35 0 35 -37v-1017q0 -150 121 -150q19 0 59 4q39 0 39 -35v-209q0 -33 -23 -36zM705 1079h-150q-37 0 -31 39l76 316q9 30 41 30h188q42 0 29 -41l-110 -315q-13 -29 -43 -29z" />
    <glyph glyph-name="Ldot" unicode="&#x13f;" horiz-adv-x="1101" 
d="M1040 0h-852q-36 0 -36 37v1390q0 37 36 37h258q35 0 35 -37v-1122h559q35 0 35 -35v-233q0 -37 -35 -37zM999 735q0 -76 -51.5 -127t-132.5 -51t-131.5 51t-50.5 127q0 80 50.5 130t131.5 50q82 0 133 -50t51 -130z" />
    <glyph glyph-name="ldot" unicode="&#x140;" horiz-adv-x="833" 
d="M598 -16q-57 -11 -115 -11q-179 0 -278 105t-99 293v1056q0 37 35 37h242q37 0 37 -37v-1017q0 -150 119 -150q15 0 43 4q39 0 39 -35v-209q0 -33 -23 -36zM842 786q0 -72 -44 -117.5t-118 -45.5q-76 0 -122 46t-46 117q0 75 46 120.5t122 45.5q75 0 118.5 -45.5
t43.5 -120.5z" />
    <glyph glyph-name="Lslash" unicode="&#x141;" horiz-adv-x="1146" 
d="M530 709v-404h557q37 0 37 -35v-233q0 -37 -37 -37h-849q-37 0 -37 37v461l-142 -92q-17 -11 -30 -4t-13 28v195q0 27 23 43l162 104v655q0 37 37 37h256q36 0 36 -37v-444l226 143q17 12 30 5t13 -29v-193q0 -27 -23 -43z" />
    <glyph glyph-name="lslash" unicode="&#x142;" horiz-adv-x="782" 
d="M682 -16q-57 -11 -115 -11q-179 0 -278 105t-99 293v127l-102 -66q-17 -12 -30 -4.5t-13 29.5v190q0 27 25 43l120 76v661q0 37 35 37h242q37 0 37 -37v-464l155 108q17 11 30 4t13 -28v-191q0 -28 -24 -43l-174 -121v-282q0 -150 119 -150q15 0 43 4q39 0 39 -35v-209
q0 -33 -23 -36z" />
    <glyph glyph-name="Nacute" unicode="&#x143;" horiz-adv-x="1456" 
d="M442 0h-254q-36 0 -36 37v1390q0 37 36 37h273q29 0 41 -24l274 -490q162 -310 219 -438l6 2q-22 289 -22 547v366q0 37 37 37h254q35 0 35 -37v-1390q0 -37 -35 -37h-273q-27 0 -43 25l-266 442q-127 215 -237 477l-7 -2q33 -341 33 -584v-321q0 -37 -35 -37zM1079 1855
l-258 -270q-15 -18 -43 -18h-198q-22 0 -29 12t6 31l207 268q14 23 43 23h252q23 0 29 -14.5t-9 -31.5z" />
    <glyph glyph-name="nacute" unicode="&#x144;" horiz-adv-x="1157" 
d="M389 -2h-242q-36 0 -36 37v932q0 31 26 43q206 84 430 84q234 0 361 -123t127 -353v-583q0 -37 -37 -37h-242q-37 0 -37 37v583q0 108 -43 152.5t-129 44.5q-84 0 -143 -18v-762q0 -37 -35 -37zM616 1200h-178q-22 0 -28 13t6 30l168 266q16 25 43 25h231q22 0 28 -13
t-9 -32l-218 -268q-15 -21 -43 -21z" />
    <glyph glyph-name="uni0145" unicode="&#x145;" horiz-adv-x="1456" 
d="M442 0h-254q-36 0 -36 37v1390q0 37 36 37h273q29 0 41 -24l274 -490q162 -310 219 -438l6 2q-22 289 -22 547v366q0 37 37 37h254q35 0 35 -37v-1390q0 -37 -35 -37h-273q-27 0 -43 25l-266 442q-127 215 -237 477l-7 -2q33 -341 33 -584v-321q0 -37 -35 -37zM748 -483
h-175q-22 0 -31 8.5t-5 25.5l81 314q9 26 48 26h227q23 0 32 -9.5t3 -24.5l-137 -318q-9 -22 -43 -22z" />
    <glyph glyph-name="uni0146" unicode="&#x146;" horiz-adv-x="1157" 
d="M389 -2h-242q-36 0 -36 37v932q0 31 26 43q206 84 430 84q234 0 361 -123t127 -353v-583q0 -37 -37 -37h-242q-37 0 -37 37v583q0 108 -43 152.5t-129 44.5q-84 0 -143 -18v-762q0 -37 -35 -37zM567 -473h-155q-20 0 -30 9.5t-5 23.5l84 295q7 26 43 26h203q44 0 34 -37
l-127 -293q-13 -24 -47 -24z" />
    <glyph glyph-name="Ncaron" unicode="&#x147;" horiz-adv-x="1456" 
d="M442 0h-254q-36 0 -36 37v1390q0 37 36 37h273q29 0 41 -24l274 -490q162 -310 219 -438l6 2q-22 289 -22 547v366q0 37 37 37h254q35 0 35 -37v-1390q0 -37 -35 -37h-273q-27 0 -43 25l-266 442q-127 215 -237 477l-7 -2q33 -341 33 -584v-321q0 -37 -35 -37zM383 1896
h199q29 0 43 -20l104 -121l102 121q14 20 43 20h199q23 0 28.5 -13t-9.5 -32l-234 -268q-17 -20 -45 -20h-168q-28 0 -45 20l-235 268q-15 19 -10 32t28 13z" />
    <glyph glyph-name="ncaron" unicode="&#x148;" horiz-adv-x="1157" 
d="M389 -2h-242q-36 0 -36 37v932q0 31 26 43q206 84 430 84q234 0 361 -123t127 -353v-583q0 -37 -37 -37h-242q-37 0 -37 37v583q0 108 -43 152.5t-129 44.5q-84 0 -143 -18v-762q0 -37 -35 -37zM238 1530h180q28 0 43 -21l108 -131l107 131q15 21 43 21h180
q23 0 28.5 -13t-9.5 -32l-228 -268q-15 -21 -43 -21h-153q-27 0 -45 21l-230 268q-15 19 -9 32t28 13z" />
    <glyph glyph-name="Eng" unicode="&#x14a;" horiz-adv-x="1456" 
d="M979 1061v366q0 37 37 37h254q35 0 35 -37v-1441q0 -197 -97 -299.5t-278 -102.5q-63 0 -115 10q-31 5 -31 39v197q0 35 37 35q36 -4 51 -4q105 0 117 129l-301 487q-125 204 -237 467l-7 -2q33 -341 33 -584v-321q0 -37 -35 -37h-254q-36 0 -36 37v1390q0 37 36 37h273
q29 0 41 -24l274 -490q162 -310 219 -438l6 2q-22 289 -22 547z" />
    <glyph glyph-name="eng" unicode="&#x14b;" horiz-adv-x="1157" 
d="M1055 -10q0 -198 -96 -301t-279 -103q-44 0 -102 8q-31 5 -31 41v193q0 38 31 35q18 -2 47 -2q58 0 86 39t28 125v593q0 108 -43 152.5t-129 44.5q-84 0 -143 -18v-762q0 -37 -35 -37h-242q-36 0 -36 37v932q0 31 24 43q206 84 432 84q234 0 361 -123t127 -353v-628z" />
    <glyph glyph-name="Omacron" unicode="&#x14c;" horiz-adv-x="1402" 
d="M1298 557q0 -275 -157.5 -428.5t-440.5 -153.5q-281 0 -438.5 153.5t-157.5 428.5v354q0 274 157.5 427t438.5 153q283 0 440.5 -153t157.5 -427v-354zM440 563q0 -276 260 -276q261 0 261 276v342q0 275 -261 275q-129 0 -194.5 -70t-65.5 -205v-342zM1004 1624h-607
q-37 0 -37 37v151q0 37 37 37h607q36 0 36 -37v-151q0 -37 -36 -37z" />
    <glyph glyph-name="omacron" unicode="&#x14d;" horiz-adv-x="1136" 
d="M1055 408q0 -202 -130.5 -318.5t-355.5 -116.5q-226 0 -356.5 116.5t-130.5 318.5v245q0 205 130.5 323t356.5 118q225 0 355.5 -118t130.5 -323v-245zM401 408q0 -77 43 -117.5t125 -40.5t125 40.5t43 117.5v245q0 77 -43.5 119.5t-124.5 42.5t-124.5 -42.5
t-43.5 -119.5v-245zM260 1247v146q0 34 37 34h561q37 0 37 -34v-146q0 -35 -37 -35h-561q-37 0 -37 35z" />
    <glyph glyph-name="Ohungarumlaut" unicode="&#x150;" horiz-adv-x="1402" 
d="M1298 557q0 -275 -157.5 -428.5t-440.5 -153.5q-281 0 -438.5 153.5t-157.5 428.5v354q0 274 157.5 427t438.5 153q283 0 440.5 -153t157.5 -427v-354zM440 563q0 -276 260 -276q261 0 261 276v342q0 275 -261 275q-129 0 -194.5 -70t-65.5 -205v-342zM506 1583h-170
q-21 0 -27.5 12t6.5 31l187 266q16 25 43 25h217q23 0 28.5 -14t-8.5 -31l-233 -268q-18 -21 -43 -21zM944 1583h-168q-23 0 -28.5 13t8.5 30l211 268q16 23 43 23h219q23 0 29 -14t-11 -31l-260 -270q-16 -19 -43 -19z" />
    <glyph glyph-name="ohungarumlaut" unicode="&#x151;" horiz-adv-x="1136" 
d="M1055 408q0 -202 -130.5 -318.5t-355.5 -116.5q-226 0 -356.5 116.5t-130.5 318.5v245q0 205 130.5 323t356.5 118q225 0 355.5 -118t130.5 -323v-245zM401 408q0 -77 43 -117.5t125 -40.5t125 40.5t43 117.5v245q0 77 -43.5 119.5t-124.5 42.5t-124.5 -42.5
t-43.5 -119.5v-245zM414 1198h-125q-22 0 -29 11t2 28l139 229q14 23 45 23h170q22 0 29 -11t-4 -28l-182 -231q-15 -21 -45 -21zM782 1198h-127q-21 0 -28.5 12t2.5 27l157 231q15 21 43 21h175q22 0 28 -10t-6 -29l-201 -231q-15 -21 -43 -21z" />
    <glyph glyph-name="OE" unicode="&#x152;" horiz-adv-x="1980" 
d="M1006 0q-37 0 -37 37v45q-129 -109 -301 -109q-122 0 -224 37.5t-177.5 108.5t-118 182.5t-42.5 251.5v371q0 182 74 312t199 192.5t289 62.5q175 0 301 -111v47q0 37 37 37h821q35 0 35 -37v-233q0 -35 -35 -35h-563v-272h495q35 0 35 -37v-223q0 -35 -35 -35h-495v-285
h596q34 0 34 -37v-233q0 -37 -34 -37h-854zM442 555q0 -137 68 -205.5t184 -68.5q111 0 176.5 68.5t65.5 205.5v363q0 136 -65 201t-177 65q-117 0 -184.5 -65t-67.5 -201v-363z" />
    <glyph glyph-name="oe" unicode="&#x153;" horiz-adv-x="1740" 
d="M1219 -27q-200 0 -322 113q-129 -113 -328 -113q-226 0 -356.5 116.5t-130.5 318.5v245q0 205 130.5 323t356.5 118q201 0 324 -117q126 117 319 117q98 0 179 -25.5t144 -76.5t98.5 -136.5t35.5 -198.5v-196q0 -35 -35 -35h-579v-33q0 -76 45.5 -115.5t128.5 -39.5
q142 0 256 73q32 21 51 -8l109 -143q19 -28 -7 -51q-177 -136 -419 -136zM401 408q0 -77 43 -117.5t125 -40.5t125 40.5t43 117.5v245q0 77 -43.5 119.5t-124.5 42.5t-124.5 -42.5t-43.5 -119.5v-245zM1055 672v-43h313v43q0 82 -43 123t-115 41q-73 0 -114 -41t-41 -123z
" />
    <glyph glyph-name="Racute" unicode="&#x154;" horiz-adv-x="1318" 
d="M1239 0h-301q-28 0 -41 25l-285 464h-131v-452q0 -37 -37 -37h-256q-36 0 -36 37v1390q0 37 36 37h498q259 0 402 -132t143 -361q0 -158 -76.5 -268.5t-218.5 -163.5l328 -496q11 -19 4 -31t-29 -12zM676 1161h-195v-385h195q114 0 165.5 46.5t51.5 146.5q0 99 -52 145.5
t-165 46.5zM991 1872l-258 -270q-16 -19 -43 -19h-198q-22 0 -29 12t6 31l207 268q14 23 43 23h252q23 0 29 -14t-9 -31z" />
    <glyph glyph-name="racute" unicode="&#x155;" horiz-adv-x="774" 
d="M389 0h-242q-36 0 -36 37v930q0 29 26 43q173 84 377 84q70 0 199 -21q32 -6 32 -39v-188q0 -39 -38 -33q-55 8 -127 8q-93 0 -156 -26v-758q0 -37 -35 -37zM463 1214h-178q-22 0 -28.5 13t5.5 30l168 267q15 24 43 24h232q22 0 27.5 -13t-9.5 -32l-217 -268
q-15 -21 -43 -21z" />
    <glyph glyph-name="uni0156" unicode="&#x156;" horiz-adv-x="1318" 
d="M1239 0h-301q-28 0 -41 25l-285 464h-131v-452q0 -37 -37 -37h-256q-36 0 -36 37v1390q0 37 36 37h498q259 0 402 -132t143 -361q0 -158 -76.5 -268.5t-218.5 -163.5l328 -496q11 -19 4 -31t-29 -12zM676 1161h-195v-385h195q114 0 165.5 46.5t51.5 146.5q0 99 -52 145.5
t-165 46.5zM680 -487h-164q-20 0 -29 8.5t-6 25.5l78 324q3 13 15.5 21t27.5 8h215q21 0 29.5 -10t1.5 -27l-127 -326q-8 -24 -41 -24z" />
    <glyph glyph-name="uni0157" unicode="&#x157;" horiz-adv-x="774" 
d="M389 0h-242q-36 0 -36 37v930q0 29 26 43q173 84 377 84q70 0 199 -21q32 -6 32 -39v-188q0 -39 -38 -33q-55 8 -127 8q-93 0 -156 -26v-758q0 -37 -35 -37zM254 -465h-150q-20 0 -28.5 10t-3.5 25l78 287q9 24 43 24h192q45 0 33 -35l-121 -286q-13 -25 -43 -25z" />
    <glyph glyph-name="Rcaron" unicode="&#x158;" horiz-adv-x="1318" 
d="M1239 0h-301q-28 0 -41 25l-285 464h-131v-452q0 -37 -37 -37h-256q-36 0 -36 37v1390q0 37 36 37h498q259 0 402 -132t143 -361q0 -158 -76.5 -268.5t-218.5 -163.5l328 -496q11 -19 4 -31t-29 -12zM676 1161h-195v-385h195q114 0 165.5 46.5t51.5 146.5q0 99 -52 145.5
t-165 46.5zM295 1917h199q28 0 43 -21l104 -120l102 120q15 21 43 21h199q23 0 28.5 -13t-9.5 -32l-234 -268q-18 -21 -45 -21h-168q-27 0 -45 21l-236 268q-15 19 -9.5 32t28.5 13z" />
    <glyph glyph-name="rcaron" unicode="&#x159;" horiz-adv-x="774" 
d="M389 0h-242q-36 0 -36 37v930q0 29 26 43q173 84 377 84q70 0 199 -21q32 -6 32 -39v-188q0 -39 -38 -33q-55 8 -127 8q-93 0 -156 -26v-758q0 -37 -35 -37zM111 1530h180q28 0 43 -21l108 -131l107 131q15 21 43 21h180q23 0 28.5 -13t-9.5 -32l-228 -268
q-15 -21 -43 -21h-153q-27 0 -45 21l-230 268q-15 19 -9 32t28 13z" />
    <glyph glyph-name="Sacute" unicode="&#x15a;" horiz-adv-x="1286" 
d="M1221 434q0 -214 -159 -336.5t-429 -122.5q-155 0 -281 47.5t-258 153.5q-27 21 -8 49l139 199q21 28 49 6q198 -138 381 -141q103 0 165.5 34.5t62.5 100.5q0 37 -20 65t-61.5 47t-81 30t-102.5 24q-73 15 -134 34t-135 57t-125 87t-85.5 126.5t-34.5 172.5
q0 138 75 235.5t198 143t282 45.5q136 0 252.5 -37t243.5 -121q33 -20 10 -49l-131 -197q-19 -29 -51 -10q-161 103 -340 103q-203 0 -203 -123q0 -27 11.5 -47.5t29 -34.5t54 -27.5t70.5 -23t95 -23.5q96 -24 164.5 -46.5t140.5 -60.5t116 -85t72 -117t28 -158zM989 1892
l-258 -270q-15 -18 -43 -18h-199q-22 0 -28.5 12t6.5 31l207 268q14 22 43 22h252q23 0 29 -14t-9 -31z" />
    <glyph glyph-name="sacute" unicode="&#x15b;" horiz-adv-x="1015" 
d="M961 332q0 -178 -120 -268.5t-343 -90.5q-235 0 -426 133q-30 21 -11 52l97 164q20 32 49 12q136 -92 293 -92q66 0 105.5 21.5t39.5 60.5q0 36 -37.5 55t-109.5 31q-406 67 -406 346q0 165 119.5 251.5t325.5 86.5q182 0 362 -95q32 -16 12 -49l-94 -159
q-18 -30 -49 -15q-114 60 -238 60q-131 0 -131 -76q0 -41 38 -59.5t141 -34.5q85 -15 150.5 -39t120 -63t83.5 -97.5t29 -134.5zM563 1198h-178q-22 0 -28.5 13t5.5 30l168 266q16 25 43 25h232q22 0 27.5 -13t-9.5 -32l-217 -268q-15 -21 -43 -21z" />
    <glyph glyph-name="Scedilla" unicode="&#x15e;" horiz-adv-x="1286" 
d="M1221 434q0 -192 -130 -311t-356 -141l-35 -84q86 -6 133.5 -46.5t47.5 -109.5q0 -90 -75.5 -138t-209.5 -48q-57 0 -113 16q-28 8 -28 41v68q0 34 39 28q40 -8 61 -8q102 0 102 57q2 24 -20.5 39t-67.5 19q-31 0 -43 24q-4 13 6 33l41 104q-133 7 -246 54.5t-233 144.5
q-27 21 -8 49l139 199q21 28 49 6q198 -138 381 -141q103 0 165.5 34.5t62.5 100.5q0 37 -20 65t-61.5 47t-81 30t-102.5 24q-507 105 -507 477q0 138 73 235.5t194.5 143t280.5 45.5q136 0 252.5 -37t243.5 -121q33 -20 10 -49l-131 -197q-19 -29 -51 -10
q-161 103 -340 103q-197 0 -197 -123q0 -63 54.5 -92.5t199.5 -63.5q96 -24 164.5 -46.5t140.5 -60.5t116 -85t72 -117t28 -158z" />
    <glyph glyph-name="scedilla" unicode="&#x15f;" horiz-adv-x="1015" 
d="M961 332q0 -161 -98 -250.5t-281 -104.5l-33 -77q85 -6 130.5 -47t45.5 -111q0 -88 -73 -134t-203 -46q-66 0 -113 16q-29 6 -29 41v64q0 34 39 28q40 -8 62 -8q104 0 104 57q0 49 -86 58q-31 0 -43 24q-4 13 6 33l41 102q-196 16 -358 129q-30 21 -11 52l97 164
q20 32 49 12q136 -92 293 -92q66 0 105.5 21.5t39.5 60.5q0 36 -37.5 55t-109.5 31q-406 67 -406 346q0 165 119.5 251.5t325.5 86.5q182 0 362 -95q32 -16 12 -49l-94 -159q-18 -30 -49 -15q-114 60 -238 60q-131 0 -131 -76q0 -41 38 -59.5t141 -34.5q85 -15 150.5 -39
t120 -63t83.5 -97.5t29 -134.5z" />
    <glyph glyph-name="Scaron" unicode="&#x160;" horiz-adv-x="1286" 
d="M1221 434q0 -214 -159 -336.5t-429 -122.5q-155 0 -281 47.5t-258 153.5q-27 21 -8 49l139 199q21 28 49 6q198 -138 381 -141q103 0 165.5 34.5t62.5 100.5q0 37 -20 65t-61.5 47t-81 30t-102.5 24q-73 15 -134 34t-135 57t-125 87t-85.5 126.5t-34.5 172.5
q0 138 75 235.5t198 143t282 45.5q136 0 252.5 -37t243.5 -121q33 -20 10 -49l-131 -197q-19 -29 -51 -10q-161 103 -340 103q-203 0 -203 -123q0 -27 11.5 -47.5t29 -34.5t54 -27.5t70.5 -23t95 -23.5q96 -24 164.5 -46.5t140.5 -60.5t116 -85t72 -117t28 -158zM313 1917
h199q28 0 43 -21l104 -120l103 120q15 21 43 21h199q23 0 28 -13t-10 -32l-234 -268q-18 -21 -45 -21h-168q-27 0 -45 21l-235 268q-15 19 -10 32t28 13z" />
    <glyph glyph-name="scaron" unicode="&#x161;" horiz-adv-x="1015" 
d="M961 332q0 -178 -120 -268.5t-343 -90.5q-235 0 -426 133q-30 21 -11 52l97 164q20 32 49 12q136 -92 293 -92q66 0 105.5 21.5t39.5 60.5q0 36 -37.5 55t-109.5 31q-406 67 -406 346q0 165 119.5 251.5t325.5 86.5q182 0 362 -95q32 -16 12 -49l-94 -159
q-18 -30 -49 -15q-114 60 -238 60q-131 0 -131 -76q0 -41 38 -59.5t141 -34.5q85 -15 150.5 -39t120 -63t83.5 -97.5t29 -134.5zM184 1509h181q29 0 43 -20l108 -131l107 131q14 20 43 20h180q23 0 28 -13t-10 -32l-227 -268q-14 -20 -43 -20h-154q-28 0 -45 20l-229 268
q-15 19 -9.5 32t27.5 13z" />
    <glyph glyph-name="uni0162" unicode="&#x162;" horiz-adv-x="1200" 
d="M606 -479h-164q-20 0 -28.5 9t-5.5 24l77 301q6 24 45 24h213q22 0 31.5 -10t1.5 -25l-129 -301q-8 -22 -41 -22zM61 1464h1078q35 0 35 -37v-233q0 -35 -35 -35h-375v-1122q0 -37 -35 -37h-258q-35 0 -35 37v1122h-375q-36 0 -36 35v233q0 37 36 37z" />
    <glyph glyph-name="uni0163" unicode="&#x163;" horiz-adv-x="708" 
d="M358 -492h-153q-20 0 -29 10t-4 25l80 305q6 29 43 29h197q45 0 32 -37l-123 -305q-12 -27 -43 -27zM420 406q0 -152 137 -152q20 0 66 4q39 6 39 -31v-200q0 -35 -29 -41q-64 -11 -129 -11q-184 0 -291 100t-107 292v919q0 35 37 35h213q34 0 37 -33l25 -246h184
q37 0 37 -34v-197q0 -35 -37 -35h-182v-370z" />
    <glyph glyph-name="Tcaron" unicode="&#x164;" horiz-adv-x="1200" 
d="M61 1464h1078q35 0 35 -37v-233q0 -35 -35 -35h-375v-1122q0 -37 -35 -37h-258q-35 0 -35 37v1122h-375q-36 0 -36 35v233q0 37 36 37zM254 1901h199q28 0 43 -21l104 -121l102 121q15 21 43 21h199q23 0 28.5 -13.5t-9.5 -32.5l-234 -268q-17 -20 -45 -20h-168
q-28 0 -45 20l-235 268q-15 19 -10 32.5t28 13.5z" />
    <glyph glyph-name="tcaron" unicode="&#x165;" horiz-adv-x="708" 
d="M641 -10q-53 -15 -137 -15q-184 0 -291 100t-107 292v919q0 35 37 35h213q34 0 37 -33l25 -246h184q37 0 37 -34v-197q0 -35 -37 -35h-182v-370q0 -152 137 -152q20 0 66 4q39 6 39 -31v-200q0 -31 -21 -37zM696 1184h-139q-40 0 -31 39l76 309q5 31 39 31h182
q41 0 29 -41l-113 -310q-12 -28 -43 -28z" />
    <glyph glyph-name="Tbar" unicode="&#x166;" horiz-adv-x="1216" 
d="M739 0h-262q-35 0 -35 37v536h-213q-34 0 -34 37v123q0 37 34 37h213v389h-370q-37 0 -37 35v233q0 37 37 37h1073q37 0 37 -37v-233q0 -35 -37 -35h-371v-389h219q35 0 35 -37v-123q0 -37 -35 -37h-219v-536q0 -37 -35 -37z" />
    <glyph glyph-name="tbar" unicode="&#x167;" horiz-adv-x="735" 
d="M657 -14q-64 -11 -127 -11q-185 0 -292 100t-107 292v102h-68q-36 0 -36 37v94q0 35 36 35h68v651q0 35 37 35h213q36 0 39 -33l22 -246h185q37 0 37 -34v-197q0 -35 -37 -35h-183v-141h136q36 0 36 -35v-94q0 -37 -36 -37h-136v-63q0 -152 138 -152q17 0 67 4
q39 6 39 -31v-200q0 -35 -31 -41z" />
    <glyph glyph-name="Umacron" unicode="&#x16a;" horiz-adv-x="1419" 
d="M1280 539q0 -268 -150.5 -416t-420.5 -148t-420 148t-150 416v888q0 37 37 37h260q37 0 37 -37v-888q0 -124 60.5 -188t175.5 -64t177 64.5t62 187.5v888q0 37 35 37h262q35 0 35 -37v-888zM1014 1618h-606q-37 0 -37 37v151q0 37 37 37h606q37 0 37 -37v-151
q0 -37 -37 -37z" />
    <glyph glyph-name="umacron" unicode="&#x16b;" horiz-adv-x="1144" 
d="M756 1065h241q37 0 37 -35v-932q0 -31 -26 -43q-198 -82 -422 -82q-233 0 -358.5 122.5t-125.5 353.5v581q0 35 37 35h242q37 0 37 -35v-584q0 -108 42 -152t126 -44q83 0 135 20v760q0 35 35 35zM256 1245v146q0 34 37 34h561q37 0 37 -34v-146q0 -35 -37 -35h-561
q-37 0 -37 35z" />
    <glyph glyph-name="Uring" unicode="&#x16e;" horiz-adv-x="1419" 
d="M1280 539q0 -268 -150.5 -416t-420.5 -148t-420 148t-150 416v888q0 37 37 37h260q37 0 37 -37v-888q0 -124 60.5 -188t175.5 -64t177 64.5t62 187.5v888q0 37 35 37h262q35 0 35 -37v-888zM1001 1794q0 -110 -80 -178t-208 -68q-129 0 -210 68.5t-81 177.5q0 108 81 175
t210 67q128 0 208 -67.5t80 -174.5zM610 1794q0 -41 28.5 -65.5t74.5 -24.5t73 24.5t27 65.5q0 40 -27 64t-73 24t-74.5 -24t-28.5 -64z" />
    <glyph glyph-name="uring" unicode="&#x16f;" horiz-adv-x="1144" 
d="M756 1065h241q37 0 37 -35v-932q0 -31 -26 -43q-198 -82 -422 -82q-233 0 -358.5 122.5t-125.5 353.5v581q0 35 37 35h242q37 0 37 -35v-584q0 -108 42 -152t126 -44q83 0 135 20v760q0 35 35 35zM840 1376q0 -99 -72 -160t-188 -61q-118 0 -191.5 61t-73.5 162
q0 99 73.5 160t191.5 61q116 0 188 -61t72 -162zM481 1376q0 -36 28 -59t71 -23t68.5 22.5t25.5 59.5q0 39 -25.5 61.5t-68.5 22.5q-44 0 -71.5 -22.5t-27.5 -61.5z" />
    <glyph glyph-name="Uhungarumlaut" unicode="&#x170;" horiz-adv-x="1419" 
d="M1280 539q0 -268 -150.5 -416t-420.5 -148t-420 148t-150 416v888q0 37 37 37h260q37 0 37 -37v-888q0 -124 60.5 -188t175.5 -64t177 64.5t62 187.5v888q0 37 35 37h262q35 0 35 -37v-888zM537 1583h-170q-21 0 -27.5 12t6.5 31l186 266q16 25 43 25h218q23 0 28.5 -14
t-8.5 -31l-233 -268q-18 -21 -43 -21zM975 1583h-168q-23 0 -29 13t8 30l211 268q16 23 43 23h220q23 0 29 -14t-11 -31l-260 -270q-16 -19 -43 -19z" />
    <glyph glyph-name="uhungarumlaut" unicode="&#x171;" horiz-adv-x="1144" 
d="M756 1065h241q37 0 37 -35v-932q0 -31 -26 -43q-198 -82 -422 -82q-233 0 -358.5 122.5t-125.5 353.5v581q0 35 37 35h242q37 0 37 -35v-584q0 -108 42 -152t126 -44q83 0 135 20v760q0 35 35 35zM424 1198h-127q-21 0 -28.5 12t1.5 29l142 248q13 24 43 24h172
q23 0 30 -12t-4 -29l-184 -249q-17 -23 -45 -23zM795 1198h-127q-21 0 -29.5 13t2.5 28l158 250q14 22 43 22h174q23 0 29.5 -11t-5.5 -30l-202 -249q-14 -23 -43 -23z" />
    <glyph glyph-name="Uogonek" unicode="&#x172;" horiz-adv-x="1423" 
d="M1071 -367q-105 -51 -237 -51q-113 0 -173.5 45t-60.5 121q0 64 35 123.5t100 103.5v2q-3 0 -11.5 -1t-12.5 -1q-264 0 -418 143.5t-154 420.5v888q0 37 37 37h262q35 0 35 -37v-895q0 -123 64.5 -184t173.5 -61q108 0 173.5 61.5t65.5 183.5v895q0 37 35 37h262
q37 0 37 -37v-888q0 -343 -244 -484q-75 -45 -123.5 -97t-48.5 -99q0 -58 66 -58q34 0 78 13q37 12 45 -21l30 -115q8 -30 -16 -45z" />
    <glyph glyph-name="uogonek" unicode="&#x173;" horiz-adv-x="1142" 
d="M979 -362q-96 -52 -209 -52q-119 0 -184.5 52.5t-65.5 142.5q0 109 129 196q-18 -2 -53 -2q-236 0 -365 118.5t-129 334.5v602q0 35 37 35h242q37 0 37 -35v-606q0 -172 172 -172q83 0 131 20v758q0 35 35 35h241q35 0 35 -35v-932q0 -30 -28 -39q-252 -88 -252 -188
q0 -32 20.5 -46.5t65.5 -14.5q41 0 82 12q36 13 45 -23l32 -118q9 -31 -18 -43z" />
    <glyph glyph-name="Wcircumflex" unicode="&#x174;" horiz-adv-x="2041" 
d="M735 0h-293q-32 0 -41 31l-387 1392q-6 19 2.5 30t28.5 11h272q33 0 39 -32l113 -467q68 -282 115 -582h8q46 262 133 590l119 440q9 31 41 31h272q33 0 39 -31l123 -440q80 -314 129 -590h8q54 321 117 582l110 467q6 32 39 32h275q19 0 28 -11.5t3 -29.5l-388 -1392
q-9 -31 -41 -31h-292q-32 0 -41 31l-133 469q-31 116 -63 271.5t-46 258.5h-8q-12 -100 -43.5 -256t-63.5 -274l-133 -469q-9 -31 -41 -31zM872 1563h-198q-23 0 -28.5 13t9.5 32l236 268q17 20 45 20h168q28 0 45 -20l233 -268q15 -19 10 -32t-28 -13h-199q-29 0 -43 20
l-102 121l-105 -121q-14 -20 -43 -20z" />
    <glyph glyph-name="wcircumflex" unicode="&#x175;" horiz-adv-x="1587" 
d="M602 0h-266q-33 0 -39 31l-274 995q-10 39 30 39h246q32 0 37 -31l74 -338q41 -231 63 -370h6q29 178 72 358l78 336q6 31 39 31h254q30 0 36 -31l80 -336q30 -126 72 -358h6q13 79 64 370l71 338q5 31 39 31h246q19 0 27 -11t2 -28l-273 -995q-9 -31 -39 -31h-266
q-34 0 -41 33l-90 370q-30 125 -59 267h-6q-8 -38 -29.5 -137t-28.5 -130l-92 -370q-7 -33 -39 -33zM643 1178h-180q-22 0 -28 13t9 32l230 268q17 20 45 20h153q29 0 43 -20l228 -268q15 -19 9.5 -32t-28.5 -13h-180q-29 0 -43 20l-106 131l-109 -131q-14 -20 -43 -20z" />
    <glyph glyph-name="Ycircumflex" unicode="&#x176;" horiz-adv-x="1255" 
d="M756 0h-260q-35 0 -35 37v485l-455 899q-9 19 -2 31t29 12h286q29 0 41 -28l267 -600l264 600q9 28 41 28h287q20 0 27.5 -12t-1.5 -31l-454 -901v-483q0 -37 -35 -37zM479 1571h-198q-23 0 -28.5 13t9.5 32l236 268q18 21 45 21h168q27 0 45 -21l233 -268q15 -19 10 -32
t-28 -13h-199q-29 0 -43 20l-102 121l-105 -121q-14 -20 -43 -20z" />
    <glyph glyph-name="ycircumflex" unicode="&#x177;" horiz-adv-x="1146" 
d="M719 326v704q0 35 37 35h241q35 0 35 -35v-928q0 -267 -116.5 -391.5t-368.5 -124.5q-131 0 -228 26.5t-180 86.5q-30 18 -10 49l109 166q18 27 47 12q117 -69 247 -69q98 0 146 44.5t47 153.5q-100 -28 -186 -28q-192 0 -314.5 117t-122.5 321v565q0 35 37 35h242
q35 0 35 -35v-559q0 -88 44.5 -131t125.5 -43q77 0 133 29zM422 1198h-180q-22 0 -28 13t9 32l230 268q18 21 45 21h153q28 0 43 -21l228 -268q15 -19 9.5 -32t-28.5 -13h-180q-28 0 -43 21l-107 131l-108 -131q-15 -21 -43 -21z" />
    <glyph glyph-name="Ydieresis" unicode="&#x178;" horiz-adv-x="1255" 
d="M756 0h-260q-35 0 -35 37v485l-455 899q-9 19 -2 31t29 12h286q29 0 41 -28l267 -600l264 600q9 28 41 28h287q20 0 27.5 -12t-1.5 -31l-454 -901v-483q0 -37 -35 -37zM559 1731q0 -67 -45 -111.5t-113 -44.5q-67 0 -111 44t-44 112q0 67 44 111t111 44q68 0 113 -44
t45 -111zM1010 1731q0 -67 -45.5 -111.5t-114.5 -44.5q-70 0 -113 44t-43 112t43 111.5t113 43.5q69 0 114.5 -44t45.5 -111z" />
    <glyph glyph-name="Zacute" unicode="&#x179;" horiz-adv-x="1265" 
d="M1155 0h-1049q-36 0 -36 37v158q0 23 14 47l641 917h-578q-36 0 -36 37v231q0 37 36 37h988q36 0 36 -37v-151q0 -28 -14 -45l-633 -926h631q35 0 35 -35v-233q0 -37 -35 -37zM983 1858l-258 -271q-15 -18 -43 -18h-199q-22 0 -28.5 12t6.5 31l207 268q14 23 43 23h252
q23 0 29 -14t-9 -31z" />
    <glyph glyph-name="zacute" unicode="&#x17a;" horiz-adv-x="1015" 
d="M911 0h-815q-35 0 -35 37v129q0 24 15 45l434 580h-383q-35 0 -35 34v205q0 35 35 35h772q37 0 37 -35v-123q0 -25 -14 -45l-428 -586h417q37 0 37 -36v-203q0 -37 -37 -37zM557 1198h-178q-22 0 -28.5 13t5.5 30l168 266q16 25 43 25h232q22 0 27.5 -13t-9.5 -32
l-217 -268q-15 -21 -43 -21z" />
    <glyph glyph-name="Zdotaccent" unicode="&#x17b;" horiz-adv-x="1265" 
d="M1155 0h-1049q-36 0 -36 37v158q0 23 14 47l641 917h-578q-36 0 -36 37v231q0 37 36 37h988q36 0 36 -37v-151q0 -28 -14 -45l-633 -926h631q35 0 35 -35v-233q0 -37 -35 -37zM825 1763q0 -73 -49.5 -122.5t-124.5 -49.5t-124.5 49.5t-49.5 122.5t49.5 121.5t124.5 48.5
t124.5 -48.5t49.5 -121.5z" />
    <glyph glyph-name="zdotaccent" unicode="&#x17c;" horiz-adv-x="1015" 
d="M911 0h-815q-35 0 -35 37v129q0 24 15 45l434 580h-383q-35 0 -35 34v205q0 35 35 35h772q37 0 37 -35v-123q0 -25 -14 -45l-428 -586h417q37 0 37 -36v-203q0 -37 -37 -37zM666 1362q0 -67 -45 -112.5t-113 -45.5t-114 46t-46 112q0 70 45 114t115 44q69 0 113.5 -44
t44.5 -114z" />
    <glyph glyph-name="Zcaron" unicode="&#x17d;" horiz-adv-x="1265" 
d="M1155 0h-1049q-36 0 -36 37v158q0 23 14 47l641 917h-578q-36 0 -36 37v231q0 37 36 37h988q36 0 36 -37v-151q0 -28 -14 -45l-633 -926h631q35 0 35 -35v-233q0 -37 -35 -37zM307 1896h199q29 0 43 -20l104 -121l103 121q14 20 43 20h198q23 0 28.5 -13t-9.5 -32
l-234 -268q-17 -20 -45 -20h-168q-28 0 -45 20l-235 268q-15 19 -10 32t28 13z" />
    <glyph glyph-name="zcaron" unicode="&#x17e;" horiz-adv-x="1015" 
d="M911 0h-815q-35 0 -35 37v129q0 24 15 45l434 580h-383q-35 0 -35 34v205q0 35 35 35h772q37 0 37 -35v-123q0 -25 -14 -45l-428 -586h417q37 0 37 -36v-203q0 -37 -37 -37zM201 1509h180q29 0 43 -20l108 -131l107 131q14 20 43 20h180q23 0 28.5 -13t-9.5 -32
l-228 -268q-14 -20 -43 -20h-153q-28 0 -45 20l-230 268q-15 19 -9 32t28 13z" />
    <glyph glyph-name="florin" unicode="&#x192;" horiz-adv-x="1044" 
d="M569 72q-58 -334 -370 -334q-77 0 -162 24q-34 9 -25 45l47 179q6 32 43 26q36 -4 52 -4q46 0 70.5 26t33.5 87l86 457h-133q-37 0 -37 36v211q0 35 37 35h180l58 305q11 60 35 113.5t65 103.5t108.5 79.5t153.5 29.5q101 0 186 -21q33 -6 27 -43l-37 -178
q-6 -32 -43 -26q-30 6 -65 6q-105 0 -125 -123l-45 -246h163q37 0 37 -35v-211q0 -36 -37 -36h-213z" />
    <glyph glyph-name="uni0218" unicode="&#x218;" horiz-adv-x="1286" 
d="M1221 434q0 -214 -159 -336.5t-429 -122.5q-155 0 -281 47.5t-258 153.5q-27 21 -8 49l139 199q21 28 49 6q198 -138 381 -141q103 0 165.5 34.5t62.5 100.5q0 37 -20 65t-61.5 47t-81 30t-102.5 24q-73 15 -134 34t-135 57t-125 87t-85.5 126.5t-34.5 172.5
q0 138 75 235.5t198 143t282 45.5q136 0 252.5 -37t243.5 -121q33 -20 10 -49l-131 -197q-19 -29 -51 -10q-161 103 -340 103q-203 0 -203 -123q0 -27 11.5 -47.5t29 -34.5t54 -27.5t70.5 -23t95 -23.5q96 -24 164.5 -46.5t140.5 -60.5t116 -85t72 -117t28 -158zM655 -498
h-170q-20 0 -28.5 9t-5.5 24l79 311q9 27 48 27h221q22 0 31 -10t1 -25l-133 -313q-9 -23 -43 -23z" />
    <glyph glyph-name="uni0219" unicode="&#x219;" horiz-adv-x="1015" 
d="M961 332q0 -178 -120 -268.5t-343 -90.5q-235 0 -426 133q-30 21 -11 52l97 164q20 32 49 12q136 -92 293 -92q66 0 105.5 21.5t39.5 60.5q0 36 -37.5 55t-109.5 31q-406 67 -406 346q0 165 119.5 251.5t325.5 86.5q182 0 362 -95q32 -16 12 -49l-94 -159
q-18 -30 -49 -15q-114 60 -238 60q-131 0 -131 -76q0 -41 38 -59.5t141 -34.5q85 -15 150.5 -39t120 -63t83.5 -97.5t29 -134.5zM500 -477h-140q-18 0 -26.5 9.5t-3.5 23.5l73 294q7 27 39 27h181q40 0 30 -37l-112 -293q-11 -24 -41 -24z" />
    <glyph glyph-name="uni021A" unicode="&#x21a;" horiz-adv-x="1200" 
d="M61 1464h1078q35 0 35 -37v-233q0 -35 -35 -35h-375v-1122q0 -37 -35 -37h-258q-35 0 -35 37v1122h-375q-36 0 -36 35v233q0 37 36 37zM608 -492h-166q-40 0 -34 35l79 314q6 26 43 26h218q22 0 31 -10t1 -25l-129 -317q-13 -23 -43 -23z" />
    <glyph glyph-name="uni021B" unicode="&#x21b;" horiz-adv-x="708" 
d="M420 406q0 -152 137 -152q20 0 66 4q39 6 39 -31v-200q0 -35 -29 -41q-64 -11 -129 -11q-184 0 -291 100t-107 292v919q0 35 37 35h213q34 0 37 -33l25 -246h184q37 0 37 -34v-197q0 -35 -37 -35h-182v-370zM352 -467h-147q-19 0 -28 10t-3 25l78 287q6 24 41 24h188
q42 0 33 -35l-119 -286q-13 -25 -43 -25z" />
    <glyph glyph-name="uni0237" unicode="&#x237;" horiz-adv-x="559" 
d="M444 -18q0 -188 -98.5 -293t-277.5 -105q-65 0 -117 10q-31 5 -31 39v203q0 17 10 26.5t27 8.5q18 -2 55 -2q61 0 90 36t29 113v1012q0 35 37 35h242q34 0 34 -35v-1048z" />
    <glyph glyph-name="circumflex" unicode="&#x2c6;" horiz-adv-x="718" 
d="M246 1219h-180q-22 0 -28 13t9 32l229 268q17 20 46 20h153q29 0 43 -20l227 -268q15 -19 10 -32t-28 -13h-180q-29 0 -43 20l-107 131l-108 -131q-14 -20 -43 -20z" />
    <glyph glyph-name="caron" unicode="&#x2c7;" horiz-adv-x="591" 
d="M66 1550h180q29 0 43 -20l108 -131l107 131q14 20 43 20h180q23 0 28 -13t-10 -32l-227 -268q-14 -20 -43 -20h-153q-29 0 -46 20l-229 268q-15 19 -9 32t28 13z" />
    <glyph glyph-name="breve" unicode="&#x2d8;" horiz-adv-x="516" 
d="M688 1489q-15 -131 -104.5 -205t-239.5 -74q-149 0 -237.5 73t-106.5 202q-3 16 6 27t25 14l151 24q32 6 41 -28q24 -90 121 -90q100 0 121 90q12 33 43 28l149 -24q16 -3 25 -13t6 -24z" />
    <glyph glyph-name="dotaccent" unicode="&#x2d9;" horiz-adv-x="249" 
d="M340 1382q0 -67 -45 -112t-113 -45t-113.5 45.5t-45.5 111.5q0 70 45 114t114 44t113.5 -44t44.5 -114z" />
    <glyph glyph-name="ring" unicode="&#x2da;" horiz-adv-x="491" 
d="M508 1444q0 -112 -70.5 -180t-185.5 -68q-116 0 -188 68.5t-72 181.5q0 110 72 178t188 68q115 0 185.5 -68t70.5 -180zM156 1444q0 -41 26.5 -66.5t69.5 -25.5q42 0 67 25t25 67q0 44 -24.5 69t-67.5 25t-69.5 -25t-26.5 -69z" />
    <glyph glyph-name="ogonek" unicode="&#x2db;" horiz-adv-x="491" 
d="M496 -371q-100 -47 -220 -47q-116 0 -176.5 46.5t-60.5 129.5q0 64 39 126.5t112 103.5q19 12 46 12h141q25 0 26.5 -9t-18.5 -24q-40 -25 -62 -57.5t-22 -61.5q0 -45 59 -45q36 0 80 13q37 10 45 -23l29 -119q8 -31 -18 -45z" />
    <glyph glyph-name="tilde" unicode="&#x2dc;" horiz-adv-x="733" 
d="M784 1409q-13 -35 -32 -68t-46.5 -64.5t-64.5 -51t-78 -19.5q-56 0 -162 56q-85 47 -112 47q-42 0 -78 -66q-19 -31 -49 -14l-127 67q-30 15 -17 47q29 76 85.5 135.5t132.5 59.5q59 0 163 -53q85 -47 121 -47q21 0 35.5 14t34.5 49q18 31 47 15l127 -66q29 -17 20 -41z
" />
    <glyph glyph-name="hungarumlaut" unicode="&#x2dd;" horiz-adv-x="729" 
d="M156 1219h-123q-22 0 -29 12t2 31l137 264q14 26 43 26h168q22 0 29 -13t-4 -32l-180 -266q-14 -22 -43 -22zM516 1219h-123q-21 0 -28.5 13t2.5 30l153 266q15 24 43 24h170q22 0 28.5 -12.5t-5.5 -32.5l-197 -266q-14 -22 -43 -22z" />
    <glyph glyph-name="gravecomb" unicode="&#x300;" horiz-adv-x="524" 
d="M467 1219h-178q-29 0 -43 20l-217 268q-15 19 -9.5 32t27.5 13h232q28 0 43 -24l167 -266q12 -17 6 -30t-28 -13z" />
    <glyph glyph-name="acutecomb" unicode="&#x301;" horiz-adv-x="526" 
d="M227 1219h-178q-22 0 -28 13t6 30l168 266q15 24 43 24h231q22 0 27.5 -13t-9.5 -32l-217 -268q-14 -20 -43 -20z" />
    <glyph glyph-name="uni0302" unicode="&#x302;" horiz-adv-x="792" 
d="M246 1219h-180q-22 0 -28 13t9 32l229 268q17 20 46 20h153q29 0 43 -20l227 -268q15 -19 10 -32t-28 -13h-180q-29 0 -43 20l-107 131l-108 -131q-14 -20 -43 -20z" />
    <glyph glyph-name="tildecomb" unicode="&#x303;" horiz-adv-x="798" 
d="M784 1409q-13 -35 -32 -68t-46.5 -64.5t-64.5 -51t-78 -19.5q-56 0 -162 56q-85 47 -112 47q-42 0 -78 -66q-19 -31 -49 -14l-127 67q-30 15 -17 47q29 76 85.5 135.5t132.5 59.5q59 0 163 -53q85 -47 121 -47q21 0 35.5 14t34.5 49q18 31 47 15l127 -66q29 -17 20 -41z
" />
    <glyph glyph-name="uni0304" unicode="&#x304;" horiz-adv-x="634" 
d="M0 1286v146q0 34 37 34h561q37 0 37 -34v-146q0 -35 -37 -35h-561q-37 0 -37 35z" />
    <glyph glyph-name="uni0306" unicode="&#x306;" horiz-adv-x="692" 
d="M688 1489q-15 -131 -104.5 -205t-239.5 -74q-149 0 -237.5 73t-106.5 202q-3 16 6 27t25 14l151 24q32 6 41 -28q24 -90 121 -90q100 0 121 90q12 33 43 28l149 -24q16 -3 25 -13t6 -24z" />
    <glyph glyph-name="uni0307" unicode="&#x307;" horiz-adv-x="352" 
d="M340 1382q0 -67 -45 -112t-113 -45t-113.5 45.5t-45.5 111.5q0 70 45 114t114 44t113.5 -44t44.5 -114z" />
    <glyph glyph-name="uni0308" unicode="&#x308;" horiz-adv-x="753" 
d="M303 1378q0 -71 -41 -111t-108 -40q-68 0 -111 40t-43 109q0 72 43 113t111 41q67 0 108 -40t41 -112zM754 1378q0 -71 -41.5 -111t-108.5 -40q-69 0 -111 40t-42 111q0 72 42 112t111 40q68 0 109 -40t41 -112z" />
    <glyph glyph-name="uni030A" unicode="&#x30a;" horiz-adv-x="497" 
d="M508 1444q0 -112 -70.5 -180t-185.5 -68q-116 0 -188 68.5t-72 181.5q0 110 72 178t188 68q115 0 185.5 -68t70.5 -180zM156 1444q0 -41 26.5 -66.5t69.5 -25.5q42 0 67 25t25 67q0 44 -24.5 69t-67.5 25t-69.5 -25t-26.5 -69z" />
    <glyph glyph-name="uni030B" unicode="&#x30b;" horiz-adv-x="763" 
d="M152 1219h-123q-22 0 -29 12t2 31l137 264q14 26 43 26h168q22 0 29 -13t-4 -32l-180 -266q-14 -22 -43 -22zM512 1219h-123q-21 0 -28.5 13t1.5 30l154 266q15 24 43 24h170q22 0 28.5 -12.5t-5.5 -32.5l-197 -266q-14 -22 -43 -22z" />
    <glyph glyph-name="uni030C" unicode="&#x30c;" horiz-adv-x="763" 
d="M66 1550h180q29 0 43 -20l108 -131l107 131q14 20 43 20h180q23 0 28 -13t-10 -32l-227 -268q-14 -20 -43 -20h-153q-29 0 -46 20l-229 268q-15 19 -9 32t28 13z" />
    <glyph glyph-name="uni0312" unicode="&#x312;" horiz-adv-x="393" 
d="M246 1219h-185q-20 0 -28 11t-2 30l121 333q10 29 41 29h141q19 0 27.5 -11t3.5 -28l-78 -334q-7 -30 -41 -30z" />
    <glyph glyph-name="uni0326" unicode="&#x326;" horiz-adv-x="403" 
d="M193 -565h-140q-19 0 -27 11t-3 28l73 336q6 30 39 30h180q41 0 31 -41l-113 -336q-11 -28 -40 -28z" />
    <glyph glyph-name="uni0327" unicode="&#x327;" horiz-adv-x="428" 
d="M430 -250q0 -88 -73 -134t-203 -46q-66 0 -113 16q-29 6 -29 41v64q0 34 39 28q40 -8 62 -8q104 0 104 58q0 48 -86 57q-31 0 -43 24q-4 13 6 33l41 99q9 28 41 28h76q20 0 28.5 -12t0.5 -31l-27 -59q85 -6 130.5 -47t45.5 -111z" />
    <glyph glyph-name="uni0328" unicode="&#x328;" horiz-adv-x="477" 
d="M455 -371q-100 -47 -219 -47q-117 0 -177.5 46.5t-60.5 129.5q0 64 39.5 126.5t112.5 103.5q19 12 45 12h141q25 0 26.5 -9t-18.5 -24q-40 -25 -62 -57.5t-22 -61.5q0 -45 59 -45q36 0 80 13q37 10 45 -23l29 -119q8 -31 -18 -45z" />
    <glyph glyph-name="uni0335" unicode="&#x335;" horiz-adv-x="722" 
d="M688 1159h-651q-37 0 -37 37v135q0 37 37 37h651q35 0 35 -37v-135q0 -37 -35 -37z" />
    <glyph glyph-name="uni0336" unicode="&#x336;" horiz-adv-x="1114" 
d="M0 477v135q0 35 37 35h1042q35 0 35 -35v-135q0 -37 -35 -37h-1042q-37 0 -37 37z" />
    <glyph glyph-name="uni0337" unicode="&#x337;" horiz-adv-x="620" 
d="M20 715l555 493q19 15 32.5 10t13.5 -28v-193q0 -25 -21 -43l-555 -495q-19 -14 -32 -8.5t-13 28.5v191q0 28 20 45z" />
    <glyph glyph-name="uni0338" unicode="&#x338;" horiz-adv-x="1271" 
d="M358 -109h-252q-22 0 -29 12t3 31l831 1600q11 25 41 25h252q20 0 28 -12t-1 -31l-832 -1600q-13 -25 -41 -25z" />
    <glyph glyph-name="tonos" unicode="&#x384;" horiz-adv-x="526" 
d="M227 1219h-178q-22 0 -28 13t6 30l168 266q15 24 43 24h231q22 0 27.5 -13t-9.5 -32l-217 -268q-14 -20 -43 -20z" />
    <glyph glyph-name="dieresistonos" unicode="&#x385;" horiz-adv-x="974" 
d="M483 1219h-147q-20 0 -28 12t1 31l111 262q12 28 41 28h196q20 0 27 -13t-4 -30l-154 -266q-12 -24 -43 -24zM281 1376q0 -63 -37 -100t-97 -37q-62 0 -100.5 36.5t-38.5 98.5q0 65 38 102t101 37q60 0 97 -37t37 -100zM965 1376q0 -64 -37.5 -100.5t-98.5 -36.5t-99 37
t-38 100t38 100t99 37t98.5 -36.5t37.5 -100.5z" />
    <glyph glyph-name="Alphatonos" unicode="&#x386;" horiz-adv-x="1519" 
d="M227 1130h-178q-21 0 -27.5 13.5t5.5 30.5l168 266q15 24 43 24h231q22 0 27.5 -13t-9.5 -32l-217 -268q-15 -21 -43 -21zM473 0h-274q-42 0 -29 41l475 1395q12 28 39 28h311q30 0 39 -28l475 -1395q7 -19 -0.5 -30t-27.5 -11h-273q-34 0 -43 31l-75 250h-498l-78 -250
q-9 -31 -41 -31zM836 1106q-12 -41 -70 -239t-90 -302h330q-2 5 -162 541h-8z" />
    <glyph glyph-name="Epsilontonos" unicode="&#x388;" horiz-adv-x="1654" 
d="M199 1130h-179q-21 0 -27.5 13.5t5.5 30.5l168 266q15 24 43 24h231q22 0 28 -13t-9 -32l-217 -268q-15 -21 -43 -21zM922 596v-299h608q37 0 37 -35v-225q0 -37 -37 -37h-901q-37 0 -37 37v1390q0 37 37 37h868q37 0 37 -37v-225q0 -35 -37 -35h-575v-280h508
q36 0 36 -35v-221q0 -35 -36 -35h-508z" />
    <glyph glyph-name="Etatonos" unicode="&#x389;" horiz-adv-x="1861" 
d="M199 1130h-179q-21 0 -27.5 13.5t5.5 30.5l168 266q15 24 43 24h231q22 0 28 -13t-9 -32l-217 -268q-15 -21 -43 -21zM1378 891v536q0 37 37 37h256q37 0 37 -37v-1390q0 -37 -37 -37h-256q-37 0 -37 37v549h-460v-549q0 -37 -37 -37h-256q-37 0 -37 37v1390q0 37 37 37
h256q37 0 37 -37v-536h460z" />
    <glyph glyph-name="Iotatonos" unicode="&#x38a;" horiz-adv-x="1097" 
d="M199 1130h-179q-21 0 -27.5 13.5t5.5 30.5l168 266q15 24 43 24h231q22 0 28 -13t-9 -32l-217 -268q-15 -21 -43 -21zM944 1427v-1390q0 -37 -37 -37h-256q-37 0 -37 37v1390q0 37 37 37h256q37 0 37 -37z" />
    <glyph glyph-name="Omicrontonos" unicode="&#x38c;" horiz-adv-x="1751" 
d="M201 1130h-178q-22 0 -28.5 13.5t5.5 30.5l168 266q15 24 43 24h231q22 0 28 -13t-9 -32l-217 -268q-15 -21 -43 -21zM1645 557q0 -275 -157.5 -428.5t-440.5 -153.5q-281 0 -438.5 153.5t-157.5 428.5v354q0 274 157.5 427t438.5 153q283 0 440.5 -153t157.5 -427v-354z
M786 563q0 -136 66 -206t195 -70q260 0 260 276v342q0 275 -260 275q-129 0 -195 -70t-66 -205v-342z" />
    <glyph glyph-name="Upsilontonos" unicode="&#x38e;" horiz-adv-x="1871" 
d="M238 1130h-179q-21 0 -27.5 13.5t5.5 30.5l168 266q15 24 43 24h231q22 0 28 -13t-9 -32l-217 -268q-15 -21 -43 -21zM1372 0h-260q-35 0 -35 37v485l-454 899q-9 19 -2 31t28 12h287q29 0 41 -28l266 -600l264 600q9 28 41 28h287q20 0 28 -12t-1 -31l-455 -901v-483
q0 -37 -35 -37z" />
    <glyph glyph-name="Omegatonos" unicode="&#x38f;" horiz-adv-x="1755" 
d="M903 0h-465q-35 0 -35 37v207q0 35 35 35h105q-63 79 -97 176t-34 196v258q0 275 159 428.5t445 153.5q284 0 443 -153.5t159 -428.5v-258q0 -100 -33.5 -197t-97.5 -175h104q35 0 35 -35v-207q0 -37 -35 -37h-465q-36 0 -36 37v199q0 28 28 40q162 60 162 320v307
q0 138 -67 209.5t-197 71.5t-197 -71.5t-67 -209.5v-307q0 -261 159 -320q29 -13 29 -40v-199q0 -37 -37 -37zM205 1130h-178q-22 0 -28.5 13.5t5.5 30.5l168 266q15 24 43 24h231q22 0 28 -13t-9 -32l-217 -268q-15 -21 -43 -21z" />
    <glyph glyph-name="iotadieresistonos" unicode="&#x390;" horiz-adv-x="542" 
d="M391 0h-239q-37 0 -37 37v993q0 35 37 35h239q37 0 37 -35v-993q0 -37 -37 -37zM113 1339q0 -61 -36 -97t-95 -36q-61 0 -98.5 36t-37.5 97q0 62 37.5 98t98.5 36q59 0 95 -36t36 -98zM283 1178h-117q-19 0 -27 12t-2 29l84 258q12 28 41 28h166q20 0 28 -12t-1 -31
l-131 -258q-12 -26 -41 -26zM731 1339q0 -61 -35.5 -97t-95.5 -36q-59 0 -96 36t-37 97q0 62 37 98t96 36q60 0 95.5 -35.5t35.5 -98.5z" />
    <glyph glyph-name="Alpha" unicode="&#x391;" horiz-adv-x="1359" 
d="M313 0h-274q-42 0 -29 41l475 1395q12 28 39 28h312q29 0 38 -28l476 -1395q7 -19 -1 -30t-28 -11h-272q-34 0 -43 31l-76 250h-498l-78 -250q-9 -31 -41 -31zM676 1106q-12 -41 -70 -239t-90 -302h330q-2 5 -162 541h-8z" />
    <glyph glyph-name="Beta" unicode="&#x392;" horiz-adv-x="1331" 
d="M1192 1051q0 -187 -141 -271q202 -84 202 -327q0 -213 -131.5 -333t-369.5 -120h-564q-36 0 -36 37v1390q0 37 36 37h560q211 0 327.5 -108.5t116.5 -304.5zM481 291h250q87 0 137 43t50 129q0 77 -48 121.5t-147 44.5h-242v-338zM856 1036q0 70 -40.5 107t-113.5 37
h-221v-287h221q154 0 154 143z" />
    <glyph glyph-name="Gamma" unicode="&#x393;" horiz-adv-x="1067" 
d="M444 0h-256q-36 0 -36 37v1390q0 37 36 37h820q36 0 36 -37v-233q0 -35 -36 -35h-527v-1122q0 -37 -37 -37z" />
    <glyph glyph-name="uni0394" unicode="&#x394;" horiz-adv-x="1370" 
d="M1331 0h-1292q-42 0 -29 41l473 1395q12 28 41 28h320q29 0 41 -28l475 -1395q6 -19 -2 -30t-27 -11zM561 707l-127 -412h502l-129 412q-15 52 -57 188.5t-60 198.5h-12q-18 -62 -60 -198.5t-57 -188.5z" />
    <glyph glyph-name="Epsilon" unicode="&#x395;" horiz-adv-x="1212" 
d="M481 596v-299h609q36 0 36 -35v-225q0 -37 -36 -37h-902q-36 0 -36 37v1390q0 37 36 37h869q37 0 37 -37v-225q0 -35 -37 -35h-576v-280h508q37 0 37 -35v-221q0 -35 -37 -35h-508z" />
    <glyph glyph-name="Zeta" unicode="&#x396;" horiz-adv-x="1265" 
d="M1155 0h-1049q-36 0 -36 37v158q0 23 14 47l641 917h-578q-36 0 -36 37v231q0 37 36 37h988q36 0 36 -37v-151q0 -28 -14 -45l-633 -926h631q35 0 35 -35v-233q0 -37 -35 -37z" />
    <glyph glyph-name="Eta" unicode="&#x397;" horiz-adv-x="1423" 
d="M942 891v536q0 37 37 37h256q37 0 37 -37v-1390q0 -37 -37 -37h-256q-37 0 -37 37v549h-461v-549q0 -37 -37 -37h-256q-36 0 -36 37v1390q0 37 36 37h256q37 0 37 -37v-536h461z" />
    <glyph glyph-name="Theta" unicode="&#x398;" horiz-adv-x="1411" 
d="M1309 557q0 -275 -159.5 -428.5t-442.5 -153.5q-284 0 -443.5 153.5t-159.5 428.5v354q0 274 159.5 427t443.5 153q283 0 442.5 -153.5t159.5 -426.5v-354zM440 563q0 -136 67.5 -206t199.5 -70q131 0 197.5 70t66.5 206v342q0 135 -67 205t-197 70q-132 0 -199.5 -70
t-67.5 -205v-342zM852 612h-295q-35 0 -35 37v178q0 35 35 35h295q37 0 37 -35v-178q0 -37 -37 -37z" />
    <glyph glyph-name="Iota" unicode="&#x399;" horiz-adv-x="632" 
d="M481 1427v-1390q0 -37 -37 -37h-256q-36 0 -36 37v1390q0 37 36 37h256q37 0 37 -37z" />
    <glyph glyph-name="Kappa" unicode="&#x39a;" horiz-adv-x="1320" 
d="M444 0h-256q-36 0 -36 37v1390q0 37 36 37h256q37 0 37 -37v-516l393 531q16 22 46 22h323q23 0 29.5 -12t-6.5 -31l-488 -598l545 -780q13 -17 6 -30t-29 -13h-315q-27 0 -43 25l-371 546l-90 -102v-432q0 -37 -37 -37z" />
    <glyph glyph-name="Lambda" unicode="&#x39b;" horiz-adv-x="1372" 
d="M315 2h-276q-41 0 -29 41l475 1395q12 28 41 28h318q29 0 41 -28l477 -1395q12 -41 -29 -41h-278q-33 0 -39 29l-211 659q-18 58 -38.5 129.5t-43.5 156.5t-33 120h-10q-78 -293 -113 -406l-211 -659q-10 -29 -41 -29z" />
    <glyph glyph-name="Mu" unicode="&#x39c;" horiz-adv-x="1783" 
d="M440 0h-252q-36 0 -36 37v1390q0 37 36 37h291q29 0 41 -26l185 -357q72 -140 184 -403h8q77 191 182 403l187 357q12 26 41 26h290q35 0 35 -37v-1390q0 -37 -35 -37h-254q-36 0 -36 37v270q0 298 20 656l-8 2q-86 -208 -186 -412l-101 -203q-13 -26 -41 -26h-196
q-31 0 -41 26l-103 203q-100 204 -186 412l-8 -2q20 -358 20 -656v-270q0 -37 -37 -37z" />
    <glyph glyph-name="Nu" unicode="&#x39d;" horiz-adv-x="1456" 
d="M442 0h-254q-36 0 -36 37v1390q0 37 36 37h273q29 0 41 -24l274 -490q162 -310 219 -438l6 2q-22 289 -22 547v366q0 37 37 37h254q35 0 35 -37v-1390q0 -37 -35 -37h-273q-27 0 -43 25l-266 442q-127 215 -237 477l-7 -2q33 -341 33 -584v-321q0 -37 -35 -37z" />
    <glyph glyph-name="Xi" unicode="&#x39e;" horiz-adv-x="1251" 
d="M1102 1165h-955q-34 0 -34 37v225q0 37 34 37h955q37 0 37 -37v-225q0 -37 -37 -37zM1034 596h-819q-35 0 -35 35v219q0 35 35 35h819q37 0 37 -35v-219q0 -35 -37 -35zM1130 0h-1011q-37 0 -37 37v227q0 35 37 35h1011q37 0 37 -35v-227q0 -37 -37 -37z" />
    <glyph glyph-name="Omicron" unicode="&#x39f;" horiz-adv-x="1402" 
d="M1298 557q0 -275 -157.5 -428.5t-440.5 -153.5q-281 0 -438.5 153.5t-157.5 428.5v354q0 274 157.5 427t438.5 153q283 0 440.5 -153t157.5 -427v-354zM440 563q0 -276 260 -276q261 0 261 276v342q0 275 -261 275q-129 0 -194.5 -70t-65.5 -205v-342z" />
    <glyph glyph-name="Pi" unicode="&#x3a0;" horiz-adv-x="1425" 
d="M446 0h-258q-36 0 -36 37v1390q0 37 36 37h1049q37 0 37 -37v-1390q0 -37 -37 -37h-256q-37 0 -37 37v1122h-463v-1122q0 -37 -35 -37z" />
    <glyph glyph-name="Rho" unicode="&#x3a1;" horiz-adv-x="1304" 
d="M186 1464h543q241 0 382.5 -140t141.5 -378q0 -239 -141.5 -379.5t-382.5 -140.5h-250v-389q0 -37 -35 -37h-258q-34 0 -34 37v1390q0 37 34 37zM479 731h205q117 0 174 53t57 162q0 215 -231 215h-205v-430z" />
    <glyph glyph-name="Sigma" unicode="&#x3a3;" horiz-adv-x="1222" 
d="M111 1464h985q34 0 34 -37v-223q0 -35 -34 -35h-559q60 -75 272 -387q19 -26 0 -51l-297 -426h584q34 0 34 -37v-231q0 -37 -34 -37h-985q-35 0 -35 37v131q0 25 14 45l381 545l-381 516q-14 20 -14 45v108q0 37 35 37z" />
    <glyph glyph-name="Tau" unicode="&#x3a4;" horiz-adv-x="1200" 
d="M61 1464h1078q35 0 35 -37v-233q0 -35 -35 -35h-375v-1122q0 -37 -35 -37h-258q-35 0 -35 37v1122h-375q-36 0 -36 35v233q0 37 36 37z" />
    <glyph glyph-name="Upsilon" unicode="&#x3a5;" horiz-adv-x="1255" 
d="M756 0h-260q-35 0 -35 37v485l-455 899q-9 19 -2 31t29 12h286q29 0 41 -28l267 -600l264 600q9 28 41 28h287q20 0 27.5 -12t-1.5 -31l-454 -901v-483q0 -37 -35 -37z" />
    <glyph glyph-name="Phi" unicode="&#x3a6;" horiz-adv-x="1808" 
d="M1032 -137h-256q-35 0 -35 37v139h-77q-167 0 -292.5 63.5t-197.5 193.5t-72 312v244q0 182 72 312t197.5 193.5t292.5 63.5h77v129q0 37 35 37h256q37 0 37 -37v-129h78q254 0 406.5 -148t152.5 -421v-244q0 -273 -152.5 -421t-406.5 -148h-78v-139q0 -37 -37 -37z
M440 592q0 -126 62.5 -184t171.5 -58h67v760h-67q-234 0 -234 -242v-276zM1069 1110v-760h68q108 0 170.5 58t62.5 184v276q0 127 -62.5 184.5t-170.5 57.5h-68z" />
    <glyph glyph-name="Chi" unicode="&#x3a7;" horiz-adv-x="1282" 
d="M848 735l407 -692q11 -17 4 -30t-28 -13h-301q-28 0 -41 27l-248 462l-246 -462q-17 -27 -43 -27h-301q-20 0 -27.5 13t3.5 30l409 692l-377 686q-10 19 -2.5 31t29.5 12h289q29 0 41 -26l225 -465l225 465q12 26 41 26h291q20 0 28 -12t-1 -31z" />
    <glyph glyph-name="Psi" unicode="&#x3a8;" horiz-adv-x="1744" 
d="M999 0h-254q-36 0 -36 37v262h-56q-242 0 -398.5 143t-156.5 392v593q0 37 37 37h256q35 0 35 -37v-593q0 -116 65 -172t177 -56h41v821q0 37 36 37h254q37 0 37 -37v-821h41q112 0 177 56t65 172v593q0 37 35 37h256q37 0 37 -37v-593q0 -249 -156.5 -392t-398.5 -143
h-56v-262q0 -37 -37 -37z" />
    <glyph glyph-name="uni03A9" unicode="&#x3a9;" horiz-adv-x="1474" 
d="M625 0h-465q-35 0 -35 37v207q0 35 35 35h104q-63 79 -97 176t-34 196v258q0 275 159 428.5t445 153.5q284 0 443 -153.5t159 -428.5v-258q0 -100 -33.5 -197t-97.5 -175h105q35 0 35 -35v-207q0 -37 -35 -37h-465q-37 0 -37 37v199q0 27 29 40q161 60 161 320v307
q0 138 -67 209.5t-197 71.5t-197 -71.5t-67 -209.5v-307q0 -261 160 -320q29 -13 29 -40v-199q0 -37 -37 -37z" />
    <glyph glyph-name="Iotadieresis" unicode="&#x3aa;" horiz-adv-x="632" 
d="M444 0h-256q-36 0 -36 37v1390q0 37 36 37h256q37 0 37 -37v-1390q0 -37 -37 -37zM276 1716q0 -66 -43 -108.5t-108 -42.5q-66 0 -109 42.5t-43 108.5t43 108t109 42q65 0 108 -42t43 -108zM674 1716q0 -66 -43.5 -108.5t-110.5 -42.5t-109 42.5t-42 108.5t42 108t109 42
q68 0 111 -42t43 -108z" />
    <glyph glyph-name="Upsilondieresis" unicode="&#x3ab;" horiz-adv-x="1255" 
d="M559 1778q0 -67 -45 -111.5t-113 -44.5q-67 0 -111 44t-44 112t44 111.5t111 43.5q68 0 113 -44t45 -111zM1010 1778q0 -67 -45.5 -111.5t-114.5 -44.5q-70 0 -113 44t-43 112t43 111.5t113 43.5q69 0 114.5 -44t45.5 -111zM756 0h-260q-35 0 -35 37v485l-455 899
q-9 19 -2 31t29 12h286q29 0 41 -28l267 -600l264 600q9 28 41 28h287q20 0 27.5 -12t-1.5 -31l-454 -901v-483q0 -37 -35 -37z" />
    <glyph glyph-name="alphatonos" unicode="&#x3ac;" horiz-adv-x="1134" 
d="M762 98q-46 -59 -124.5 -92t-166.5 -33q-172 0 -281.5 116t-109.5 329v221q0 215 136.5 335t352.5 120q191 0 426 -76q29 -9 29 -41v-940q0 -37 -35 -37h-170q-32 0 -41 31zM399 410q0 -85 34.5 -123.5t109.5 -38.5q46 0 91.5 18.5t76.5 52.5v480q-66 16 -144 16
q-75 0 -121.5 -43t-46.5 -125v-237zM616 1198h-178q-22 0 -28 13t6 30l168 266q16 25 43 25h231q22 0 28 -13t-9 -32l-218 -268q-15 -21 -43 -21z" />
    <glyph glyph-name="epsilontonos" unicode="&#x3ad;" horiz-adv-x="1034" 
d="M555 227q147 0 270 95q28 25 52 -5l110 -139q21 -28 -2 -51q-89 -81 -198 -117.5t-250 -36.5q-223 0 -346 93t-123 247q0 178 157 248q-123 73 -123 211q0 142 120 232t315 90q241 0 419 -138q26 -23 7 -51l-103 -139q-23 -26 -51 -4q-115 82 -246 82q-151 0 -151 -96
q0 -50 40 -75.5t111 -25.5h133q35 0 35 -37v-133q0 -37 -35 -37h-143q-170 0 -170 -102q0 -111 172 -111zM584 1198h-178q-22 0 -28.5 13t5.5 30l168 266q16 25 43 25h231q22 0 28 -13t-9 -32l-217 -268q-15 -21 -43 -21z" />
    <glyph glyph-name="etatonos" unicode="&#x3ae;" horiz-adv-x="1157" 
d="M637 1198h-178q-22 0 -28.5 13t5.5 30l168 266q16 25 43 25h232q22 0 27.5 -13t-9.5 -32l-217 -268q-15 -21 -43 -21zM389 -2h-242q-36 0 -36 37v932q0 31 26 43q206 84 430 84q234 0 361 -123t127 -353v-583q0 -37 -37 -37h-242q-37 0 -37 37v583q0 108 -43 152.5
t-129 44.5q-84 0 -143 -18v-762q0 -37 -35 -37z" />
    <glyph glyph-name="iotatonos" unicode="&#x3af;" horiz-adv-x="542" 
d="M326 1186h-179q-22 0 -28 13t6 30l168 266q16 25 43 25h231q22 0 28 -13t-9 -32l-217 -269q-14 -20 -43 -20zM391 0h-241q-37 0 -37 37v993q0 35 37 35h241q35 0 35 -35v-993q0 -37 -35 -37z" />
    <glyph glyph-name="upsilondieresistonos" unicode="&#x3b0;" horiz-adv-x="1159" 
d="M1057 412q0 -198 -134 -318.5t-341 -120.5q-209 0 -343.5 120.5t-134.5 318.5v618q0 35 37 35h244q35 0 35 -35v-620q0 -77 44.5 -119.5t117.5 -42.5q71 0 115 42.5t44 119.5v620q0 35 35 35h246q35 0 35 -35v-618zM578 1182h-148q-20 0 -28 12t1 31l111 262q13 29 41 29
h197q20 0 26.5 -13t-4.5 -30l-153 -267q-12 -24 -43 -24zM375 1339q0 -63 -36.5 -100t-96.5 -37q-62 0 -101 36.5t-39 98.5q0 65 38.5 102.5t101.5 37.5q59 0 96 -37t37 -101zM1059 1339q0 -64 -37 -100.5t-98 -36.5t-99.5 37t-38.5 100t38.5 100.5t99.5 37.5t98 -37
t37 -101z" />
    <glyph glyph-name="alpha" unicode="&#x3b1;" horiz-adv-x="1134" 
d="M762 98q-46 -59 -124.5 -92t-166.5 -33q-172 0 -281.5 116t-109.5 329v221q0 215 136.5 335t352.5 120q191 0 426 -76q29 -9 29 -41v-940q0 -37 -35 -37h-170q-32 0 -41 31zM399 410q0 -85 34.5 -123.5t109.5 -38.5q46 0 91.5 18.5t76.5 52.5v480q-66 16 -144 16
q-75 0 -121.5 -43t-46.5 -125v-237z" />
    <glyph glyph-name="beta" unicode="&#x3b2;" horiz-adv-x="1146" 
d="M1026 1063q0 -86 -44.5 -163t-111.5 -126q93 -43 150 -134.5t57 -215.5q0 -207 -119.5 -328t-314.5 -123q-101 -3 -219 35v-362q0 -37 -35 -37h-239q-35 0 -35 37v1394q0 208 124.5 329.5t321.5 121.5q207 0 336 -117t129 -311zM424 272q65 -26 158 -26q180 0 180 184
q0 176 -187 176h-32q-35 0 -35 35v184q0 37 35 37h32q61 0 99.5 48.5t38.5 133.5q0 83 -40 126.5t-106 43.5q-69 0 -106 -46.5t-37 -123.5v-772z" />
    <glyph glyph-name="gamma" unicode="&#x3b3;" horiz-adv-x="1087" 
d="M664 -391h-240q-37 0 -37 37v387l-373 991q-6 19 2 30t27 11h258q32 0 41 -29l86 -272q92 -304 113 -424h6q35 183 110 424l86 272q9 29 41 29h258q19 0 27.5 -11.5t1.5 -29.5l-371 -991v-387q0 -37 -36 -37z" />
    <glyph glyph-name="delta" unicode="&#x3b4;" horiz-adv-x="1120" 
d="M432 1141q0 -48 81.5 -93.5t223.5 -93.5q153 -54 230 -152.5t77 -256.5v-146q0 -201 -134.5 -313.5t-348.5 -112.5t-349.5 112.5t-135.5 313.5v150q0 123 65.5 218t159.5 142q-89 65 -128.5 127.5t-39.5 139.5q0 146 111.5 230.5t322.5 84.5q210 0 377 -96q29 -17 12 -49
l-94 -181q-17 -33 -49 -14q-129 66 -250 66q-131 0 -131 -76zM561 258q73 0 120.5 37t47.5 119v133q0 70 -48 119.5t-120 60.5q-76 -3 -123 -49t-47 -127v-137q0 -79 47.5 -117.5t122.5 -38.5z" />
    <glyph glyph-name="epsilon" unicode="&#x3b5;" horiz-adv-x="1034" 
d="M555 227q147 0 270 95q28 25 52 -5l110 -139q21 -28 -2 -51q-89 -81 -198 -117.5t-250 -36.5q-223 0 -346 93t-123 247q0 178 157 248q-123 73 -123 211q0 142 120 232t315 90q241 0 419 -138q26 -23 7 -51l-103 -139q-23 -26 -51 -4q-115 82 -246 82q-151 0 -151 -96
q0 -50 40 -75.5t111 -25.5h133q35 0 35 -37v-133q0 -37 -35 -37h-143q-170 0 -170 -102q0 -111 172 -111z" />
    <glyph glyph-name="zeta" unicode="&#x3b6;" horiz-adv-x="999" 
d="M901 -45q0 -85 -46 -175t-124 -171q-23 -26 -53 -4l-158 125q-24 24 -2 49q74 85 74 139q0 28 -29 51t-75.5 43t-102.5 43t-112 57t-102.5 78t-75.5 113.5t-29 155.5q0 212 139 411t364 326v2q-159 -6 -174 -6h-252q-34 0 -34 37v198q0 37 34 37h811q35 0 35 -37v-133
q0 -30 -24 -43q-275 -172 -430.5 -372.5t-155.5 -370.5q0 -66 29 -116.5t75 -82.5t101.5 -59t111 -53.5t101.5 -56.5t75 -77t29 -108z" />
    <glyph glyph-name="eta" unicode="&#x3b7;" horiz-adv-x="1157" 
d="M389 -2h-242q-36 0 -36 37v932q0 31 26 43q206 84 430 84q234 0 361 -123t127 -353v-583q0 -37 -37 -37h-242q-37 0 -37 37v583q0 108 -43 152.5t-129 44.5q-84 0 -143 -18v-762q0 -37 -35 -37z" />
    <glyph glyph-name="theta" unicode="&#x3b8;" horiz-adv-x="1198" 
d="M1098 475q0 -237 -136 -369.5t-362 -132.5t-363 132.5t-137 369.5v512q0 237 137 370.5t363 133.5t362 -133.5t136 -370.5v-512zM416 989v-123h366v123q0 104 -49.5 155.5t-134.5 51.5q-82 0 -132 -52.5t-50 -154.5zM416 471q0 -101 47.5 -151t134.5 -50q88 0 137 50.5
t49 150.5v145h-368v-145z" />
    <glyph glyph-name="iota" unicode="&#x3b9;" horiz-adv-x="542" 
d="M393 0h-241q-37 0 -37 37v993q0 35 37 35h241q35 0 35 -35v-993q0 -37 -35 -37z" />
    <glyph glyph-name="kappa" unicode="&#x3ba;" horiz-adv-x="1067" 
d="M1044 0h-278q-32 0 -43 25l-234 362l-67 -78v-272q0 -37 -35 -37h-235q-37 0 -37 37v991q0 37 37 37h235q35 0 35 -37v-362l268 376q14 23 41 23h270q23 0 30 -13t-7 -30l-330 -422l373 -557q12 -19 5.5 -31t-28.5 -12z" />
    <glyph glyph-name="lambda" unicode="&#x3bb;" horiz-adv-x="1159" 
d="M381 0h-242q-37 0 -37 37v516q0 138 61 237t161 146t229 47q88 0 180 -25v89q0 87 -44.5 127t-131.5 40q-70 0 -135.5 -21.5t-110.5 -55.5q-31 -22 -51 6l-117 157q-20 29 7 50q167 141 425 141q101 0 183 -24.5t147.5 -77t102 -145t36.5 -218.5v-989q0 -37 -36 -37h-242
q-35 0 -35 37v647q-67 25 -151 25q-162 0 -162 -172v-500q0 -37 -37 -37z" />
    <glyph glyph-name="uni03BC" unicode="&#x3bc;" horiz-adv-x="1177" 
d="M373 -391h-221q-37 0 -37 37v1384q0 35 37 35h241q35 0 35 -35v-606q0 -81 44 -128.5t118 -47.5q73 0 116.5 47.5t43.5 128.5v606q0 35 34 35h242q37 0 37 -35v-993q0 -37 -37 -37h-156q-30 0 -39 29l-24 86q-62 -142 -217 -142q-123 0 -191 99q9 -70 9 -156v-270
q0 -37 -35 -37z" />
    <glyph glyph-name="nu" unicode="&#x3bd;" horiz-adv-x="1093" 
d="M686 0h-287q-29 0 -39 29l-344 995q-7 19 1 30t28 11h258q33 0 39 -29l125 -448q24 -72 74 -269h6q24 95 74 269l127 448q10 29 40 29h259q41 0 28 -41l-348 -995q-13 -29 -41 -29z" />
    <glyph glyph-name="xi" unicode="&#x3be;" horiz-adv-x="980" 
d="M918 -35q0 -172 -170 -356q-24 -27 -54 -4l-157 125q-25 26 -2 49q73 80 73 143q0 25 -30 47.5t-77.5 42.5t-105 44t-115 58t-105 77t-77.5 109t-30 146q0 127 65 214t184 126q-113 65 -161.5 142.5t-46.5 185.5q2 167 126 272t326 105q221 0 404 -121q32 -19 12 -49
l-100 -164q-18 -29 -50 -10q-111 70 -241 70q-74 0 -121 -35t-47 -103q0 -80 67 -128t183 -48h102q35 0 35 -35v-192q0 -37 -35 -37h-137q-114 0 -181 -47.5t-67 -126.5q0 -46 29.5 -83.5t76.5 -64t103.5 -51.5t113.5 -52.5t104 -59.5t76.5 -80.5t29.5 -108.5z" />
    <glyph glyph-name="omicron" unicode="&#x3bf;" horiz-adv-x="1136" 
d="M1055 408q0 -202 -130.5 -318.5t-355.5 -116.5q-226 0 -356.5 116.5t-130.5 318.5v245q0 205 130.5 323t356.5 118q225 0 355.5 -118t130.5 -323v-245zM401 408q0 -77 43 -117.5t125 -40.5t125 40.5t43 117.5v245q0 77 -43.5 119.5t-124.5 42.5t-124.5 -42.5
t-43.5 -119.5v-245z" />
    <glyph glyph-name="pi" unicode="&#x3c0;" horiz-adv-x="1140" 
d="M152 1065h839q35 0 35 -35v-993q0 -37 -35 -37h-241q-37 0 -37 37v756h-285v-756q0 -37 -35 -37h-241q-37 0 -37 37v993q0 35 37 35z" />
    <glyph glyph-name="rho" unicode="&#x3c1;" horiz-adv-x="1140" 
d="M381 -389h-240q-37 0 -37 35v999q0 216 129 332.5t342 116.5q142 0 249.5 -49.5t171 -151.5t63.5 -246v-252q0 -194 -129 -308t-336 -114q-88 0 -178 37v-364q0 -35 -35 -35zM416 291q67 -41 149 -41q84 0 131 42t47 126v217q0 92 -44.5 136t-120.5 44q-162 0 -162 -180
v-344z" />
    <glyph glyph-name="sigma1" unicode="&#x3c2;" horiz-adv-x="958" 
d="M389 653v-180q0 -50 28.5 -90.5t73.5 -69t100 -54.5t110 -53.5t100 -58.5t73.5 -77t28.5 -103q0 -173 -172 -360q-25 -25 -51 -2l-158 125q-29 23 -4 51q32 34 55 73t23 64q0 26 -28.5 48.5t-74.5 43t-101 43.5t-110 57.5t-101 78.5t-74.5 112.5t-28.5 153.5v211
q0 107 38 191.5t103 134.5t144.5 76t168.5 26q214 0 377 -99q14 -8 17 -20.5t-6 -26.5l-111 -172q-17 -26 -49 -12q-96 49 -209 49q-69 0 -115.5 -41t-46.5 -119z" />
    <glyph glyph-name="sigma" unicode="&#x3c3;" horiz-adv-x="1206" 
d="M1055 410q0 -204 -131 -320.5t-357 -116.5t-356.5 116.5t-130.5 320.5v208q0 210 130 328.5t357 118.5h568q36 0 36 -35v-201q0 -36 -36 -36h-144q64 -86 64 -222v-161zM395 420q0 -83 45 -123.5t127 -40.5t128 41t46 123v192q0 85 -46 127.5t-128 42.5t-127 -42
t-45 -128v-192z" />
    <glyph glyph-name="tau" unicode="&#x3c4;" horiz-adv-x="956" 
d="M600 0h-242q-36 0 -36 37v756h-254q-35 0 -35 36v201q0 35 35 35h819q37 0 37 -35v-201q0 -36 -37 -36h-252v-756q0 -37 -35 -37z" />
    <glyph glyph-name="upsilon" unicode="&#x3c5;" horiz-adv-x="1159" 
d="M1057 412q0 -198 -134 -318.5t-341 -120.5q-209 0 -343.5 120.5t-134.5 318.5v618q0 35 37 35h244q35 0 35 -35v-620q0 -77 44.5 -119.5t117.5 -42.5q71 0 115 42.5t44 119.5v620q0 35 35 35h246q35 0 35 -35v-618z" />
    <glyph glyph-name="phi" unicode="&#x3c6;" horiz-adv-x="1591" 
d="M913 -389h-235q-35 0 -35 35v354h-123q-87 0 -164.5 27t-140.5 80t-100 141.5t-37 202.5v161q0 113 37 201.5t100.5 142.5t143.5 81.5t171 27.5h113v362q0 37 35 37h235q35 0 35 -37v-362h121q91 0 169.5 -28t140 -82t97 -142.5t35.5 -200.5v-161q0 -114 -37 -203
t-99 -141.5t-138 -79.5t-160 -27h-129v-354q0 -35 -35 -35zM387 451q0 -93 42.5 -135t129.5 -42h84v519h-90q-166 0 -166 -177v-165zM948 274h82q87 0 130.5 42t43.5 135v165q0 177 -166 177h-90v-519z" />
    <glyph glyph-name="chi" unicode="&#x3c7;" horiz-adv-x="1060" 
d="M733 537l297 -494q10 -19 3 -31t-27 -12h-285q-29 0 -41 27l-150 292l-147 -292q-13 -27 -43 -27h-285q-20 0 -26.5 12t2.5 31l297 494l-281 485q-10 19 -3 31t28 12h276q31 0 43 -27l139 -303l140 303q12 27 43 27h276q22 0 29 -12t-4 -31z" />
    <glyph glyph-name="psi" unicode="&#x3c8;" horiz-adv-x="1581" 
d="M907 -391h-233q-35 0 -35 37v354h-72q-66 -1 -129 13t-124.5 48t-108 84.5t-75 129t-28.5 176.5v579q0 35 37 35h236q35 0 35 -35v-569q0 -98 46.5 -142.5t145.5 -44.5h37v756q0 35 35 35h233q37 0 37 -35v-756h35q99 0 145.5 44.5t46.5 142.5v569q0 35 37 35h236
q35 0 35 -35v-579q0 -98 -28.5 -176.5t-74.5 -128.5t-108 -84t-125 -48t-129 -14h-70v-354q0 -37 -37 -37z" />
    <glyph glyph-name="omega" unicode="&#x3c9;" horiz-adv-x="1595" 
d="M1065 856l53 209q6 34 43 27q159 -35 255.5 -146.5t96.5 -283.5v-273q0 -129 -58.5 -224t-152 -141.5t-208.5 -46.5q-206 0 -295 152q-92 -152 -295 -152q-115 0 -209.5 46.5t-153.5 142t-59 223.5v273q0 172 96.5 283.5t257.5 146.5q34 7 43 -27l53 -209q9 -34 -26 -43
q-54 -14 -85.5 -52.5t-31.5 -98.5v-265q0 -69 38 -104t91 -35q59 0 94 34.5t35 104.5v234q0 37 37 37h229q35 0 35 -37v-234q0 -70 35 -104.5t94 -34.5q53 0 91 35t38 104v265q0 122 -116 151q-34 10 -25 43z" />
    <glyph glyph-name="iotadieresis" unicode="&#x3ca;" horiz-adv-x="542" 
d="M393 0h-241q-37 0 -37 37v993q0 35 37 35h241q35 0 35 -35v-993q0 -37 -35 -37zM221 1337q0 -67 -39.5 -106t-103.5 -39q-65 0 -106.5 39t-41.5 104q0 68 41 108t107 40q64 0 103.5 -39.5t39.5 -106.5zM616 1337q0 -67 -41 -106t-106 -39q-64 0 -104.5 39.5t-40.5 105.5
q0 67 40.5 106.5t104.5 39.5q65 0 106 -39.5t41 -106.5z" />
    <glyph glyph-name="upsilondieresis" unicode="&#x3cb;" horiz-adv-x="1159" 
d="M1057 412q0 -198 -134 -318.5t-341 -120.5q-209 0 -343.5 120.5t-134.5 318.5v618q0 35 37 35h244q35 0 35 -35v-620q0 -77 44.5 -119.5t117.5 -42.5q71 0 115 42.5t44 119.5v620q0 35 35 35h246q35 0 35 -35v-618zM508 1337q0 -71 -41.5 -111t-108.5 -40
q-68 0 -110.5 40t-42.5 109q0 72 42.5 113t110.5 41t109 -40t41 -112zM958 1337q0 -71 -41 -111t-108 -40q-69 0 -111.5 40t-42.5 111q0 72 42.5 112t111.5 40q67 0 108 -40t41 -112z" />
    <glyph glyph-name="omicrontonos" unicode="&#x3cc;" horiz-adv-x="1136" 
d="M639 1198h-178q-22 0 -28.5 13t5.5 30l168 266q16 25 43 25h232q22 0 27.5 -13t-9.5 -32l-217 -268q-15 -21 -43 -21zM1055 408q0 -202 -130.5 -318.5t-355.5 -116.5q-226 0 -356.5 116.5t-130.5 318.5v245q0 205 130.5 323t356.5 118q225 0 355.5 -118t130.5 -323v-245z
M401 408q0 -77 43 -117.5t125 -40.5t125 40.5t43 117.5v245q0 77 -43.5 119.5t-124.5 42.5t-124.5 -42.5t-43.5 -119.5v-245z" />
    <glyph glyph-name="upsilontonos" unicode="&#x3cd;" horiz-adv-x="1159" 
d="M1057 412q0 -198 -134 -318.5t-341 -120.5q-209 0 -343.5 120.5t-134.5 318.5v618q0 35 37 35h244q35 0 35 -35v-620q0 -77 44.5 -119.5t117.5 -42.5q71 0 115 42.5t44 119.5v620q0 35 35 35h246q35 0 35 -35v-618zM637 1182h-178q-22 0 -28.5 13t5.5 30l168 266
q16 25 43 25h232q22 0 27.5 -13.5t-9.5 -32.5l-217 -268q-14 -20 -43 -20z" />
    <glyph glyph-name="omegatonos" unicode="&#x3ce;" horiz-adv-x="1595" 
d="M1065 856l53 209q6 34 43 27q159 -35 255.5 -146.5t96.5 -283.5v-273q0 -129 -58.5 -224t-152 -141.5t-208.5 -46.5q-206 0 -295 152q-92 -152 -295 -152q-115 0 -209.5 46.5t-153.5 142t-59 223.5v273q0 172 96.5 283.5t257.5 146.5q34 7 43 -27l53 -209q9 -34 -26 -43
q-54 -14 -85.5 -52.5t-31.5 -98.5v-265q0 -69 38 -104t91 -35q59 0 94 34.5t35 104.5v234q0 37 37 37h229q35 0 35 -37v-234q0 -70 35 -104.5t94 -34.5q53 0 91 35t38 104v265q0 122 -116 151q-34 10 -25 43zM848 1178h-178q-22 0 -28.5 13t5.5 30l168 266q15 24 43 24h232
q22 0 27.5 -13t-9.5 -32l-217 -268q-14 -20 -43 -20z" />
    <glyph glyph-name="uni0401" unicode="&#x401;" horiz-adv-x="1212" 
d="M481 596v-299h609q36 0 36 -35v-225q0 -37 -36 -37h-902q-36 0 -36 37v1390q0 37 36 37h869q37 0 37 -37v-225q0 -35 -37 -35h-576v-280h508q37 0 37 -35v-221q0 -35 -37 -35h-508zM561 1737q0 -67 -45 -111.5t-113 -44.5q-67 0 -111 44t-44 112q0 67 44 111t111 44
q68 0 113 -44t45 -111zM1012 1737q0 -67 -45.5 -111.5t-114.5 -44.5q-70 0 -113 44t-43 112t43 111.5t113 43.5q69 0 114.5 -44t45.5 -111z" />
    <glyph glyph-name="uni0402" unicode="&#x402;" horiz-adv-x="1472" 
d="M758 989q91 33 213 33q197 0 313.5 -123.5t116.5 -349.5v-178q0 -188 -101 -293t-284 -105q-54 0 -94 9q-31 6 -31 41v204q0 35 29 35q28 -4 43 -4q58 0 86 36.5t28 113.5v139q0 104 -41 150t-131 46q-85 0 -147 -30v-676q0 -37 -35 -37h-252q-35 0 -35 37v1130h-375
q-36 0 -36 35v225q0 37 36 37h1078q35 0 35 -37v-225q0 -35 -35 -35h-381v-178z" />
    <glyph glyph-name="uni0403" unicode="&#x403;" horiz-adv-x="1067" 
d="M444 0h-256q-36 0 -36 37v1390q0 37 36 37h820q36 0 36 -37v-233q0 -35 -36 -35h-527v-1122q0 -37 -37 -37zM948 1872l-258 -270q-16 -19 -43 -19h-198q-22 0 -29 12t6 31l207 268q14 23 43 23h252q23 0 29 -14t-9 -31z" />
    <glyph glyph-name="uni0404" unicode="&#x404;" horiz-adv-x="1226" 
d="M1176 121q-203 -150 -471 -150q-276 0 -437.5 142.5t-161.5 404.5v428q0 261 161 403t431 142q248 0 435 -131q30 -18 10 -47l-129 -197q-20 -29 -51 -10q-115 74 -258 74q-127 0 -196 -66.5t-69 -179.5v-64h394q36 0 36 -36v-203q0 -37 -36 -37h-394v-62
q0 -118 70 -182.5t197 -64.5q162 0 290 86q31 22 50 -9l131 -196q20 -30 -2 -45z" />
    <glyph glyph-name="uni0405" unicode="&#x405;" 
d="M1223 434q0 -214 -159 -336.5t-429 -122.5q-155 0 -281 47.5t-258 153.5q-27 21 -8 49l139 199q21 28 49 6q198 -138 381 -141q103 0 165.5 34.5t62.5 100.5q0 30 -15 54.5t-36.5 40.5t-59.5 30t-70.5 22.5t-82.5 18.5q-515 107 -515 477q0 138 75 235.5t198.5 143
t282.5 45.5q136 0 252 -37t243 -121q33 -20 10 -49l-131 -197q-19 -29 -51 -10q-161 103 -340 103q-203 0 -203 -123q0 -27 11.5 -47.5t29 -34.5t54 -27.5t70.5 -23t95 -23.5q96 -24 164.5 -46.5t140.5 -60.5t116 -85t72 -117t28 -158z" />
    <glyph glyph-name="uni0406" unicode="&#x406;" horiz-adv-x="632" 
d="M481 1427v-1390q0 -37 -37 -37h-256q-36 0 -36 37v1390q0 37 36 37h256q37 0 37 -37z" />
    <glyph glyph-name="uni0407" unicode="&#x407;" horiz-adv-x="630" 
d="M262 1778q0 -66 -43 -109t-108 -43t-108.5 43t-43.5 109q0 65 43.5 107t108.5 42t108 -42t43 -107zM674 1778q0 -66 -44 -109t-110 -43q-68 0 -109.5 42.5t-41.5 109.5q0 66 41.5 107.5t109.5 41.5q67 0 110.5 -41.5t43.5 -107.5zM481 1427v-1390q0 -37 -37 -37h-256
q-36 0 -36 37v1390q0 37 36 37h256q37 0 37 -37z" />
    <glyph glyph-name="uni0408" unicode="&#x408;" horiz-adv-x="1083" 
d="M946 522q0 -259 -137 -403t-371 -144q-120 0 -220 35.5t-198 110.5q-27 16 -10 47l123 194q19 31 51 9q119 -84 246 -84q92 0 139 56t47 177v907q0 37 35 37h258q37 0 37 -37v-905z" />
    <glyph glyph-name="uni0409" unicode="&#x409;" horiz-adv-x="2080" 
d="M537 276q-68 -145 -180.5 -210t-290.5 -68q-37 0 -37 35v233q0 34 34 37q72 5 117.5 44t75.5 128q38 114 62 331.5t47 618.5q3 39 36 39h863q36 0 36 -37v-479h220q242 0 377 -121.5t135 -347.5q0 -227 -133 -353t-363 -126h-526q-35 0 -35 37v1120h-299
q-14 -326 -46 -537.5t-93 -343.5zM1300 643v-336h216q178 0 178 168t-183 168h-211z" />
    <glyph glyph-name="uni040A" unicode="&#x40a;" horiz-adv-x="2021" 
d="M442 0h-254q-36 0 -36 37v1382q0 37 36 37h254q37 0 37 -37v-504h436v504q0 37 37 37h256q35 0 35 -37v-499h215q247 0 381.5 -113t134.5 -328q0 -227 -133.5 -353t-365.5 -126h-523q-37 0 -37 37v567h-436v-567q0 -37 -37 -37zM1243 621v-322h217q178 0 178 170
q0 152 -182 152h-213z" />
    <glyph glyph-name="uni040B" unicode="&#x40b;" horiz-adv-x="1476" 
d="M756 991q91 31 205 31q197 0 313.5 -123.5t116.5 -349.5v-512q0 -37 -37 -37h-250q-35 0 -35 37v510q0 103 -42 149.5t-132 46.5q-74 0 -139 -26v-680q0 -37 -37 -37h-250q-37 0 -37 37v1130h-371q-36 0 -36 35v225q0 37 36 37h1072q34 0 34 -37v-225q0 -35 -34 -35h-377
v-176z" />
    <glyph glyph-name="uni040C" unicode="&#x40c;" horiz-adv-x="1320" 
d="M1040 1858l-258 -271q-15 -18 -43 -18h-198q-22 0 -29 12t6 31l207 268q14 23 43 23h252q23 0 29 -14t-9 -31zM444 0h-256q-36 0 -36 37v1390q0 37 36 37h256q37 0 37 -37v-516l393 531q16 22 46 22h323q23 0 29.5 -12t-6.5 -31l-488 -598l545 -780q13 -17 6 -30t-29 -13
h-315q-27 0 -43 25l-371 546l-90 -102v-432q0 -37 -37 -37z" />
    <glyph glyph-name="uni040E" unicode="&#x40e;" horiz-adv-x="1216" 
d="M578 0h-283q-19 0 -26.5 11t1.5 30l185 422l-449 960q-8 19 -0.5 30t27.5 11h282q31 0 43 -28l256 -617l236 617q11 28 41 28h283q41 0 28 -41l-581 -1394q-13 -29 -43 -29zM977 1831q-22 -126 -120 -200.5t-253 -74.5q-154 0 -250 73.5t-118 197.5q-9 30 28 41l168 37
q31 9 41 -25q28 -88 131 -88q105 0 133 88q10 34 41 25l168 -37q34 -10 31 -37z" />
    <glyph glyph-name="uni040F" unicode="&#x40f;" horiz-adv-x="1423" 
d="M979 1464h256q37 0 37 -37v-1390q0 -37 -37 -37h-367v-238q0 -34 -37 -34h-239q-37 0 -37 34v238h-367q-36 0 -36 37v1390q0 37 36 37h256q37 0 37 -37v-1122h461v1122q0 37 37 37z" />
    <glyph glyph-name="uni0410" unicode="&#x410;" horiz-adv-x="1359" 
d="M313 0h-274q-42 0 -29 41l475 1395q12 28 39 28h312q29 0 38 -28l476 -1395q7 -19 -1 -30t-28 -11h-272q-34 0 -43 31l-76 250h-498l-78 -250q-9 -31 -41 -31zM676 1106q-12 -41 -70 -239t-90 -302h330q-2 5 -162 541h-8z" />
    <glyph glyph-name="uni0411" unicode="&#x411;" horiz-adv-x="1329" 
d="M481 913h254q265 0 396 -110t131 -336q0 -232 -134 -349.5t-383 -117.5h-557q-36 0 -36 37v1390q0 37 36 37h924q37 0 37 -37v-215q0 -36 -37 -36h-631v-263zM481 293h262q183 0 183 176q0 85 -44 125.5t-139 40.5h-262v-342z" />
    <glyph glyph-name="uni0412" unicode="&#x412;" horiz-adv-x="1331" 
d="M1192 1051q0 -187 -141 -271q202 -84 202 -327q0 -213 -131.5 -333t-369.5 -120h-564q-36 0 -36 37v1390q0 37 36 37h560q211 0 327.5 -108.5t116.5 -304.5zM481 291h250q87 0 137 43t50 129q0 77 -48 121.5t-147 44.5h-242v-338zM856 1036q0 70 -40.5 107t-113.5 37
h-221v-287h221q154 0 154 143z" />
    <glyph glyph-name="uni0413" unicode="&#x413;" horiz-adv-x="1067" 
d="M444 0h-256q-36 0 -36 37v1390q0 37 36 37h820q36 0 36 -37v-233q0 -35 -36 -35h-527v-1122q0 -37 -37 -37z" />
    <glyph glyph-name="uni0414" unicode="&#x414;" horiz-adv-x="1519" 
d="M317 -272h-254q-34 0 -34 34v506q0 35 34 35h54q68 33 111 138t75.5 339t56.5 645q3 39 37 39h869q37 0 37 -37v-1122h100q35 0 35 -37v-506q0 -34 -35 -34h-252q-37 0 -37 34v238h-762v-238q0 -34 -35 -34zM674 1159q-18 -340 -55.5 -552t-106.5 -304h461v856h-299z" />
    <glyph glyph-name="uni0415" unicode="&#x415;" horiz-adv-x="1212" 
d="M481 596v-299h609q36 0 36 -35v-225q0 -37 -36 -37h-902q-36 0 -36 37v1390q0 37 36 37h869q37 0 37 -37v-225q0 -35 -37 -35h-576v-280h508q37 0 37 -35v-221q0 -35 -37 -35h-508z" />
    <glyph glyph-name="uni0416" unicode="&#x416;" horiz-adv-x="1933" 
d="M1903 0h-312q-27 0 -43 25l-340 548l-80 -102v-434q0 -37 -36 -37h-250q-35 0 -35 37v434l-82 102l-340 -548q-13 -25 -43 -25h-311q-22 0 -28.5 12t5.5 31l514 776l-459 602q-13 19 -6 31t29 12h309q30 0 43 -24l209 -301q33 -50 160 -252v540q0 37 35 37h250
q36 0 36 -37v-540q69 114 160 252l207 301q13 24 45 24h307q23 0 29.5 -12t-6.5 -31l-459 -602l514 -776q12 -19 6 -31t-28 -12z" />
    <glyph glyph-name="uni0417" unicode="&#x417;" horiz-adv-x="1257" 
d="M1128 1069q0 -94 -46 -173t-121 -118q99 -45 154.5 -133.5t55.5 -206.5q0 -114 -44.5 -203.5t-122.5 -146t-181.5 -86t-224.5 -29.5q-333 0 -547 187q-23 20 -6 49l127 182q19 28 49 8q159 -125 371 -125q111 0 175 49.5t64 129.5q0 82 -64.5 123.5t-205.5 41.5h-151
q-35 0 -35 35v193q0 37 35 37h141q120 0 182 42.5t62 116.5q0 72 -54 114t-157 42q-188 0 -330 -100q-30 -23 -49 8l-119 172q-18 27 4 49q196 164 496 164q129 0 234 -34.5t171.5 -93t102 -134t34.5 -160.5z" />
    <glyph glyph-name="uni0418" unicode="&#x418;" horiz-adv-x="1456" 
d="M1268 0h-254q-35 0 -35 37v321q0 243 33 584l-6 2q-107 -256 -238 -477l-266 -442q-16 -25 -43 -25h-273q-34 0 -34 37v1390q0 37 34 37h254q37 0 37 -37v-366q0 -258 -22 -547l6 -2q57 128 219 438l274 490q12 24 41 24h273q37 0 37 -37v-1390q0 -37 -37 -37z" />
    <glyph glyph-name="uni0419" unicode="&#x419;" horiz-adv-x="1456" 
d="M1114 1831q-22 -126 -120 -200.5t-253 -74.5q-154 0 -250 73.5t-118 197.5q-9 30 28 41l168 37q31 9 41 -25q28 -88 131 -88q105 0 133 88q10 34 41 25l168 -37q34 -10 31 -37zM1014 0h254q37 0 37 37v1390q0 37 -37 37h-273q-29 0 -41 -24l-274 -490
q-162 -310 -219 -438l-6 2q22 289 22 547v366q0 37 -37 37h-254q-34 0 -34 -37v-1390q0 -37 34 -37h273q27 0 43 25l266 442q131 221 238 477l6 -2q-33 -341 -33 -584v-321q0 -37 35 -37z" />
    <glyph glyph-name="uni041A" unicode="&#x41a;" horiz-adv-x="1320" 
d="M444 0h-256q-36 0 -36 37v1390q0 37 36 37h256q37 0 37 -37v-516l393 531q16 22 46 22h323q23 0 29.5 -12t-6.5 -31l-488 -598l545 -780q13 -17 6 -30t-29 -13h-315q-27 0 -43 25l-371 546l-90 -102v-432q0 -37 -37 -37z" />
    <glyph glyph-name="uni041B" unicode="&#x41b;" horiz-adv-x="1454" 
d="M569 432q-60 -234 -178.5 -335t-322.5 -107q-37 0 -37 35v235q0 34 35 37q80 8 123 62t71 184q54 235 78 884q3 37 39 37h891q35 0 35 -37v-1390q0 -37 -35 -37h-258q-35 0 -35 37v1120h-322q-20 -460 -84 -725z" />
    <glyph glyph-name="uni041C" unicode="&#x41c;" horiz-adv-x="1783" 
d="M440 0h-252q-36 0 -36 37v1390q0 37 36 37h291q29 0 41 -26l185 -357q72 -140 184 -403h8q77 191 182 403l187 357q12 26 41 26h290q35 0 35 -37v-1390q0 -37 -35 -37h-254q-36 0 -36 37v270q0 298 20 656l-8 2q-86 -208 -186 -412l-101 -203q-13 -26 -41 -26h-196
q-31 0 -41 26l-103 203q-100 204 -186 412l-8 -2q20 -358 20 -656v-270q0 -37 -37 -37z" />
    <glyph glyph-name="uni041D" unicode="&#x41d;" horiz-adv-x="1423" 
d="M942 891v536q0 37 37 37h256q37 0 37 -37v-1390q0 -37 -37 -37h-256q-37 0 -37 37v549h-461v-549q0 -37 -37 -37h-256q-36 0 -36 37v1390q0 37 36 37h256q37 0 37 -37v-536h461z" />
    <glyph glyph-name="uni041E" unicode="&#x41e;" horiz-adv-x="1402" 
d="M1298 557q0 -275 -157.5 -428.5t-440.5 -153.5q-281 0 -438.5 153.5t-157.5 428.5v354q0 274 157.5 427t438.5 153q283 0 440.5 -153t157.5 -427v-354zM440 563q0 -276 260 -276q261 0 261 276v342q0 275 -261 275q-129 0 -194.5 -70t-65.5 -205v-342z" />
    <glyph glyph-name="uni041F" unicode="&#x41f;" horiz-adv-x="1425" 
d="M446 0h-258q-36 0 -36 37v1390q0 37 36 37h1049q37 0 37 -37v-1390q0 -37 -37 -37h-256q-37 0 -37 37v1122h-463v-1122q0 -37 -35 -37z" />
    <glyph glyph-name="uni0420" unicode="&#x420;" horiz-adv-x="1304" 
d="M186 1464h543q241 0 382.5 -140t141.5 -378q0 -239 -141.5 -379.5t-382.5 -140.5h-250v-389q0 -37 -35 -37h-258q-34 0 -34 37v1390q0 37 34 37zM479 731h205q117 0 174 53t57 162q0 215 -231 215h-205v-430z" />
    <glyph glyph-name="uni0421" unicode="&#x421;" horiz-adv-x="1216" 
d="M1169 121q-203 -150 -464 -150q-276 0 -437.5 142.5t-161.5 404.5v428q0 261 161 403t431 142q122 0 236 -34.5t203 -96.5q30 -18 10 -47l-129 -197q-20 -29 -51 -10q-115 74 -262 74q-127 0 -196 -66.5t-69 -179.5v-402q0 -118 70 -182.5t197 -64.5q156 0 284 86
q31 21 49 -9l131 -196q20 -30 -2 -45z" />
    <glyph glyph-name="uni0422" unicode="&#x422;" horiz-adv-x="1200" 
d="M61 1464h1078q35 0 35 -37v-233q0 -35 -35 -35h-375v-1122q0 -37 -35 -37h-258q-35 0 -35 37v1122h-375q-36 0 -36 35v233q0 37 36 37z" />
    <glyph glyph-name="uni0423" unicode="&#x423;" horiz-adv-x="1216" 
d="M578 0h-283q-19 0 -26.5 11t1.5 30l185 422l-449 960q-8 19 -0.5 30t27.5 11h282q31 0 43 -28l256 -617l236 617q11 28 41 28h283q41 0 28 -41l-581 -1394q-13 -29 -43 -29z" />
    <glyph glyph-name="uni0424" unicode="&#x424;" horiz-adv-x="1808" 
d="M1032 -137h-256q-35 0 -35 37v139h-77q-167 0 -292.5 63.5t-197.5 193.5t-72 312v244q0 182 72 312t197.5 193.5t292.5 63.5h77v129q0 37 35 37h256q37 0 37 -37v-129h78q254 0 406.5 -148t152.5 -421v-244q0 -273 -152.5 -421t-406.5 -148h-78v-139q0 -37 -37 -37z
M440 592q0 -126 62.5 -184t171.5 -58h67v760h-67q-234 0 -234 -242v-276zM1069 1110v-760h68q108 0 170.5 58t62.5 184v276q0 127 -62.5 184.5t-170.5 57.5h-68z" />
    <glyph glyph-name="uni0425" unicode="&#x425;" horiz-adv-x="1282" 
d="M848 735l407 -692q11 -17 4 -30t-28 -13h-301q-28 0 -41 27l-248 462l-246 -462q-17 -27 -43 -27h-301q-20 0 -27.5 13t3.5 30l409 692l-377 686q-10 19 -2.5 31t29.5 12h289q29 0 41 -26l225 -465l225 465q12 26 41 26h291q20 0 28 -12t-1 -31z" />
    <glyph glyph-name="uni0426" unicode="&#x426;" horiz-adv-x="1472" 
d="M1358 -268h-242q-35 0 -35 37v231h-893q-36 0 -36 37v1390q0 37 36 37h256q37 0 37 -37v-1118h447v1118q0 37 35 37h258q34 0 34 -37v-1118h103q35 0 35 -35v-505q0 -37 -35 -37z" />
    <glyph glyph-name="uni0427" unicode="&#x427;" horiz-adv-x="1331" 
d="M1145 0h-258q-37 0 -37 37v467q-113 -55 -260 -55q-103 0 -190 29t-159.5 89.5t-113.5 165.5t-41 246v448q0 37 35 37h260q37 0 37 -37v-444q0 -115 57.5 -172t153.5 -57q127 0 221 63v610q0 37 37 37h258q35 0 35 -37v-1390q0 -37 -35 -37z" />
    <glyph glyph-name="uni0428" unicode="&#x428;" horiz-adv-x="1990" 
d="M1804 0h-1616q-36 0 -36 37v1390q0 37 36 37h254q37 0 37 -37v-1118h355v1118q0 37 34 37h254q37 0 37 -37v-1118h354v1118q0 37 37 37h254q35 0 35 -37v-1390q0 -37 -35 -37z" />
    <glyph glyph-name="uni0429" unicode="&#x429;" horiz-adv-x="2058" 
d="M1944 -268h-242q-37 0 -37 37v231h-1477q-36 0 -36 37v1390q0 37 36 37h256q35 0 35 -37v-1118h355v1118q0 37 34 37h256q37 0 37 -37v-1118h352v1118q0 37 37 37h254q37 0 37 -37v-1118h103q34 0 34 -35v-505q0 -37 -34 -37z" />
    <glyph glyph-name="uni042A" unicode="&#x42a;" horiz-adv-x="1480" 
d="M920 0h-553q-35 0 -35 37v1122h-264q-37 0 -37 37v231q0 37 37 37h557q37 0 37 -37v-444h241q250 0 389.5 -125.5t139.5 -359.5q0 -235 -137.5 -366.5t-374.5 -131.5zM662 678v-373h237q195 0 195 193q0 180 -199 180h-233z" />
    <glyph glyph-name="uni042B" unicode="&#x42b;" horiz-adv-x="1902" 
d="M739 0h-551q-36 0 -36 37v1390q0 37 36 37h258q35 0 35 -37v-444h242q249 0 388.5 -128.5t139.5 -356.5q0 -234 -135 -366t-377 -132zM1714 0h-258q-35 0 -35 37v1390q0 37 35 37h258q37 0 37 -37v-1390q0 -37 -37 -37zM481 678v-373h238q194 0 194 193q0 180 -194 180
h-238z" />
    <glyph glyph-name="uni042C" unicode="&#x42c;" horiz-adv-x="1300" 
d="M739 0h-551q-36 0 -36 37v1390q0 37 36 37h258q35 0 35 -37v-444h242q249 0 388.5 -128t139.5 -355q0 -235 -135 -367.5t-377 -132.5zM481 678v-373h238q194 0 194 195q0 178 -194 178h-238z" />
    <glyph glyph-name="uni042D" unicode="&#x42d;" horiz-adv-x="1226" 
d="M51 121q-22 15 -2 45l131 196q18 30 49 9q128 -86 291 -86q126 0 196 64.5t70 182.5v62h-393q-37 0 -37 37v203q0 36 37 36h393v64q0 113 -69 179.5t-195 66.5q-143 0 -258 -74q-31 -19 -51 10l-129 197q-20 29 10 47q187 131 434 131q270 0 431 -142t161 -403v-428
q0 -262 -161.5 -404.5t-436.5 -142.5q-268 0 -471 150z" />
    <glyph glyph-name="uni042E" unicode="&#x42e;" horiz-adv-x="1902" 
d="M1796 524q0 -261 -156.5 -406t-410.5 -145q-166 0 -293 63t-200.5 190.5t-73.5 303.5l-9 62h-174v-555q0 -37 -37 -37h-254q-36 0 -36 37v1390q0 37 36 37h254q37 0 37 -37v-530h176l7 45q0 174 73.5 299.5t200 187.5t293.5 62q254 0 410.5 -142.5t156.5 -398.5v-426z
M997 530q0 -118 63.5 -179.5t168.5 -61.5q106 0 169.5 61.5t63.5 179.5v410q0 120 -62.5 179t-170.5 59q-106 0 -169 -59t-63 -179v-410z" />
    <glyph glyph-name="uni042F" unicode="&#x42f;" horiz-adv-x="1345" 
d="M102 971q0 231 143 362t396 131h518q35 0 35 -37v-1390q0 -37 -35 -37h-258q-35 0 -35 37v450h-149l-283 -462q-16 -25 -45 -25h-317q-22 0 -29 12t6 31l338 487q-135 54 -210 167t-75 274zM655 772h211v385h-211q-104 0 -159.5 -50t-55.5 -142q0 -91 56 -142t159 -51z
" />
    <glyph glyph-name="uni0430" unicode="&#x430;" horiz-adv-x="1079" 
d="M109 981q78 50 187.5 81.5t233.5 31.5q216 0 332.5 -115t116.5 -344v-561q0 -32 -31 -41q-196 -60 -422 -60q-228 0 -354.5 88t-126.5 265q0 157 117 238t330 81q72 0 174 -12v20q0 86 -38 127t-134 41q-67 0 -139.5 -16t-116.5 -41q-13 -8 -28 -5t-22 17l-84 160
q-15 31 5 45zM362 334q0 -53 44 -80t120 -27q61 0 140 17v180q-61 12 -142 12q-162 0 -162 -102z" />
    <glyph glyph-name="uni0431" unicode="&#x431;" horiz-adv-x="1132" 
d="M420 967q90 41 219 41q186 0 300 -114.5t114 -307.5v-172q0 -111 -39 -197.5t-106.5 -138.5t-152.5 -78.5t-184 -26.5q-96 0 -179 26.5t-148 78.5t-102.5 138t-37.5 198v610q0 87 28.5 160t73.5 122.5t105.5 87t118.5 57.5t119 30q205 32 287 69q33 17 49 -12l102 -174
q20 -33 -12 -49q-100 -55 -332 -105q-51 -11 -84.5 -23t-68.5 -34t-52.5 -58t-17.5 -87v-41zM569 250q71 0 118.5 39.5t47.5 116.5v188q0 80 -41.5 123t-122.5 43q-86 0 -151 -35v-319q0 -78 41.5 -117t107.5 -39z" />
    <glyph glyph-name="uni0432" unicode="&#x432;" horiz-adv-x="1112" 
d="M610 0h-458q-37 0 -37 37v993q0 35 37 35h444q194 0 304 -78t110 -217q0 -134 -123 -207q155 -67 155 -250q0 -145 -115.5 -229t-316.5 -84zM426 831v-186h154q56 0 87 24.5t31 69.5q0 92 -120 92h-152zM426 438v-205h162q139 0 139 105q0 100 -139 100h-162z" />
    <glyph glyph-name="uni0433" unicode="&#x433;" horiz-adv-x="870" 
d="M393 -8h-241q-37 0 -37 37v1001q0 35 37 35h653q35 0 35 -35v-205q0 -37 -35 -37h-377v-759q0 -37 -35 -37z" />
    <glyph glyph-name="uni0434" unicode="&#x434;" horiz-adv-x="1277" 
d="M299 -272h-227q-37 0 -37 34v474q0 34 37 34h51q67 49 105 212t63 546q3 37 37 37h729q35 0 35 -35v-760h94q37 0 37 -37v-471q0 -34 -37 -34h-228q-34 0 -34 34v238h-588v-238q0 -34 -37 -34zM575 797q-23 -392 -122 -527h331v527h-209z" />
    <glyph glyph-name="uni0435" unicode="&#x435;" horiz-adv-x="1085" 
d="M1014 657v-196q0 -35 -37 -35h-580v-33q0 -77 46.5 -117t129.5 -40q135 0 261 73q27 21 47 -8l106 -141q20 -31 -6 -51q-177 -136 -418 -136q-136 0 -243 46t-172.5 144t-65.5 236v258q0 111 37.5 196.5t103 137t150 77.5t184.5 26q97 0 178 -25.5t144.5 -76.5t99 -136.5
t35.5 -198.5zM713 672q0 80 -43 121t-115 41q-74 0 -116 -40t-42 -122v-43h316v43z" />
    <glyph glyph-name="uni0436" unicode="&#x436;" horiz-adv-x="1564" 
d="M1520 0h-281q-30 0 -41 27l-194 370l-70 -82v-278q0 -37 -37 -37h-229q-37 0 -37 37v278l-70 82l-194 -370q-11 -27 -41 -27h-281q-20 0 -27 12t2 31l340 571l-303 408q-12 19 -5.5 31t28.5 12h274q27 0 43 -25l80 -110q78 -129 154 -271v371q0 35 37 35h229q37 0 37 -35
v-371q85 158 153 271l80 110q16 25 43 25h275q22 0 28 -12t-6 -31l-303 -408l340 -571q9 -19 2.5 -31t-26.5 -12z" />
    <glyph glyph-name="uni0437" unicode="&#x437;" horiz-adv-x="1032" 
d="M930 772q0 -140 -123 -211q158 -70 158 -248q0 -154 -123 -247t-344 -93q-143 0 -252.5 36.5t-198.5 117.5q-23 23 -2 51l111 139q23 30 51 5q123 -95 270 -95q172 0 172 111q0 102 -170 102h-143q-35 0 -35 37v133q0 37 35 37h133q71 0 111.5 25.5t40.5 75.5
q0 96 -150 96q-133 0 -248 -82q-29 -23 -49 4l-104 139q-19 29 6 51q178 138 420 138q195 0 314.5 -90t119.5 -232z" />
    <glyph glyph-name="uni0438" unicode="&#x438;" horiz-adv-x="1189" 
d="M401 0h-249q-37 0 -37 37v993q0 35 37 35h235q37 0 37 -35v-321q0 -100 -4 -260h2q57 124 160 301l161 290q11 25 41 25h254q37 0 37 -35v-993q0 -37 -37 -37h-235q-35 0 -35 37v321q0 112 4 256h-2q-49 -114 -162 -307l-164 -282q-12 -25 -43 -25z" />
    <glyph glyph-name="uni0439" unicode="&#x439;" horiz-adv-x="1189" 
d="M401 0h-249q-37 0 -37 37v993q0 35 37 35h235q37 0 37 -35v-321q0 -100 -4 -260h2q57 124 160 301l161 290q11 25 41 25h254q37 0 37 -35v-993q0 -37 -37 -37h-235q-35 0 -35 37v321q0 112 4 256h-2q-49 -114 -162 -307l-164 -282q-12 -25 -43 -25zM940 1444
q-15 -131 -104.5 -205t-239.5 -74q-149 0 -237.5 73t-106.5 202q-3 16 6 27t25 14l151 24q32 6 41 -28q24 -91 121 -91q100 0 121 91q12 33 43 28l149 -24q16 -3 25 -13t6 -24z" />
    <glyph glyph-name="uni043A" unicode="&#x43a;" horiz-adv-x="1067" 
d="M1044 0h-278q-32 0 -43 25l-234 362l-67 -78v-272q0 -37 -35 -37h-235q-37 0 -37 37v991q0 37 37 37h235q35 0 35 -37v-362l268 376q14 23 41 23h270q23 0 30 -13t-7 -30l-330 -422l373 -557q12 -19 5.5 -31t-28.5 -12z" />
    <glyph glyph-name="uni043B" unicode="&#x43b;" horiz-adv-x="1171" 
d="M469 303q-41 -163 -133 -234.5t-270 -78.5q-37 0 -37 37v200q0 32 34 39q48 8 77.5 44t49.5 118q42 175 54 602q3 35 37 35h739q37 0 37 -35v-993q0 -37 -37 -37h-238q-37 0 -37 37v756h-215q-10 -310 -61 -490z" />
    <glyph glyph-name="uni043C" unicode="&#x43c;" horiz-adv-x="1421" 
d="M385 0h-233q-37 0 -37 37v993q0 35 37 35h264q32 0 41 -27l116 -237q92 -188 134 -291h8q47 115 133 291l115 237q12 27 43 27h264q37 0 37 -35v-993q0 -37 -37 -37h-234q-35 0 -35 37v237q0 147 11 330h-4q-44 -104 -101 -231l-84 -178q-12 -27 -43 -27h-139
q-31 0 -43 27l-84 178q-40 89 -100 231h-4q10 -167 10 -330v-237q0 -37 -35 -37z" />
    <glyph glyph-name="uni043D" unicode="&#x43d;" horiz-adv-x="1140" 
d="M393 0h-241q-37 0 -37 37v993q0 35 37 35h241q35 0 35 -35v-346h285v346q0 35 37 35h241q35 0 35 -35v-993q0 -37 -35 -37h-241q-37 0 -37 37v369h-285v-369q0 -37 -35 -37z" />
    <glyph glyph-name="uni043E" unicode="&#x43e;" horiz-adv-x="1136" 
d="M1055 408q0 -202 -130.5 -318.5t-355.5 -116.5q-226 0 -356.5 116.5t-130.5 318.5v245q0 205 130.5 323t356.5 118q225 0 355.5 -118t130.5 -323v-245zM401 408q0 -77 43 -117.5t125 -40.5t125 40.5t43 117.5v245q0 77 -43.5 119.5t-124.5 42.5t-124.5 -42.5
t-43.5 -119.5v-245z" />
    <glyph glyph-name="uni043F" unicode="&#x43f;" horiz-adv-x="1140" 
d="M152 1065h839q35 0 35 -35v-993q0 -37 -35 -37h-241q-37 0 -37 37v756h-285v-756q0 -37 -35 -37h-241q-37 0 -37 37v993q0 35 37 35z" />
    <glyph glyph-name="uni0440" unicode="&#x440;" horiz-adv-x="1136" 
d="M137 1016q94 35 212 56.5t222 21.5q219 0 352.5 -124.5t133.5 -340.5v-203q0 -207 -123 -330t-322 -123q-99 0 -188 35v-360q0 -37 -35 -37h-242q-36 0 -36 37v1329q0 30 26 39zM567 246q172 0 172 174v215q0 180 -174 180q-80 0 -141 -22v-512q59 -35 143 -35z" />
    <glyph glyph-name="uni0441" unicode="&#x441;" horiz-adv-x="966" 
d="M930 86q-159 -113 -363 -113q-230 0 -357.5 120t-127.5 327v231q0 204 128 323.5t355 119.5q176 0 336 -97q29 -19 10 -51l-108 -164q-16 -27 -51 -12q-86 47 -172 47q-85 0 -133 -44t-48 -122v-231q0 -84 48.5 -127t130.5 -43q104 0 196 59q32 19 51 -10l111 -164
q20 -30 -6 -49z" />
    <glyph glyph-name="uni0442" unicode="&#x442;" horiz-adv-x="956" 
d="M600 0h-242q-36 0 -36 37v756h-254q-35 0 -35 36v201q0 35 35 35h819q37 0 37 -35v-201q0 -36 -37 -36h-252v-756q0 -37 -35 -37z" />
    <glyph glyph-name="uni0443" unicode="&#x443;" horiz-adv-x="1146" 
d="M719 326v704q0 35 37 35h241q35 0 35 -35v-928q0 -267 -116.5 -391.5t-368.5 -124.5q-131 0 -228 26.5t-180 86.5q-30 18 -10 49l109 166q18 27 47 12q117 -69 247 -69q98 0 146 44.5t47 153.5q-100 -28 -186 -28q-192 0 -314.5 117t-122.5 321v565q0 35 37 35h242
q35 0 35 -35v-559q0 -88 44.5 -131t125.5 -43q77 0 133 29z" />
    <glyph glyph-name="uni0444" unicode="&#x444;" horiz-adv-x="1591" 
d="M913 -389h-235q-35 0 -35 35v354h-123q-87 0 -164.5 27t-140.5 80t-100 141.5t-37 202.5v161q0 113 37 201.5t100.5 142.5t143.5 81.5t171 27.5h113v362q0 37 35 37h235q35 0 35 -37v-362h121q91 0 169.5 -28t140 -82t97 -142.5t35.5 -200.5v-161q0 -114 -37 -203
t-99 -141.5t-138 -79.5t-160 -27h-129v-354q0 -35 -35 -35zM387 451q0 -93 42.5 -135t129.5 -42h84v519h-90q-166 0 -166 -177v-165zM948 274h82q87 0 130.5 42t43.5 135v165q0 177 -166 177h-90v-519z" />
    <glyph glyph-name="uni0445" unicode="&#x445;" horiz-adv-x="1060" 
d="M733 537l297 -494q10 -19 3 -31t-27 -12h-285q-29 0 -41 27l-150 292l-147 -292q-13 -27 -43 -27h-285q-20 0 -26.5 12t2.5 31l297 494l-281 485q-10 19 -3 31t28 12h276q31 0 43 -27l139 -303l140 303q12 27 43 27h276q22 0 29 -12t-4 -31z" />
    <glyph glyph-name="uni0446" unicode="&#x446;" horiz-adv-x="1212" 
d="M1118 -268h-215q-37 0 -37 37v231h-714q-37 0 -37 37v993q0 35 37 35h241q35 0 35 -35v-754h285v754q0 35 37 35h241q35 0 35 -35v-754h92q37 0 37 -36v-471q0 -37 -37 -37z" />
    <glyph glyph-name="uni0447" unicode="&#x447;" horiz-adv-x="1097" 
d="M948 0h-241q-37 0 -37 37v297q-80 -27 -185 -27q-81 0 -151.5 24.5t-130 75.5t-94.5 140.5t-35 208.5v274q0 35 35 35h241q37 0 37 -35v-256q0 -96 35 -139t106 -43q85 0 142 24v414q0 35 37 35h241q35 0 35 -35v-993q0 -37 -35 -37z" />
    <glyph glyph-name="uni0448" unicode="&#x448;" horiz-adv-x="1624" 
d="M1473 0h-1321q-37 0 -37 37v993q0 35 37 35h231q37 0 37 -35v-754h242v754q0 35 36 35h230q35 0 35 -35v-754h241v754q0 35 37 35h232q36 0 36 -35v-993q0 -37 -36 -37z" />
    <glyph glyph-name="uni0449" unicode="&#x449;" horiz-adv-x="1695" 
d="M1602 -268h-216q-36 0 -36 37v231h-1198q-37 0 -37 37v993q0 35 37 35h231q37 0 37 -35v-754h242v754q0 35 36 35h230q35 0 35 -35v-754h241v754q0 35 37 35h232q36 0 36 -35v-754h93q36 0 36 -36v-471q0 -37 -36 -37z" />
    <glyph glyph-name="uni044A" unicode="&#x44a;" horiz-adv-x="1226" 
d="M764 0h-455q-37 0 -37 37v766h-204q-35 0 -35 35v192q0 35 35 35h481q35 0 35 -35v-303h180q186 0 304 -95t118 -272q0 -180 -116 -270t-306 -90zM584 483v-235h131q155 0 155 119q0 116 -155 116h-131z" />
    <glyph glyph-name="uni044B" unicode="&#x44b;" horiz-adv-x="1574" 
d="M606 0h-454q-37 0 -37 37v993q0 35 37 35h239q37 0 37 -35v-303h178q186 0 304 -95t118 -272q0 -180 -116 -270t-306 -90zM428 483v-235h129q156 0 156 119q0 116 -156 116h-129zM1425 0h-241q-37 0 -37 37v993q0 35 37 35h241q35 0 35 -35v-993q0 -37 -35 -37z" />
    <glyph glyph-name="uni044C" unicode="&#x44c;" horiz-adv-x="1069" 
d="M606 0h-454q-37 0 -37 37v993q0 35 37 35h239q37 0 37 -35v-303h178q186 0 304 -95t118 -272q0 -180 -116 -270t-306 -90zM428 483v-235h129q156 0 156 119q0 116 -156 116h-129z" />
    <glyph glyph-name="uni044D" unicode="&#x44d;" horiz-adv-x="989" 
d="M414 246q79 0 127 43t49 121l-2 32h-295q-35 0 -35 35v127q0 37 35 37h293l4 21q-1 73 -48.5 115t-127.5 42q-112 0 -199 -43q-28 -11 -49 15l-107 161q-21 31 11 47q176 95 370 95q132 0 236 -48t167.5 -149t63.5 -242v-239q0 -143 -63 -245t-166.5 -150t-237.5 -48
q-226 0 -385 105q-28 19 -10 49l111 160q16 27 51 12q92 -53 207 -53z" />
    <glyph glyph-name="uni044E" unicode="&#x44e;" horiz-adv-x="1581" 
d="M559 690q10 187 135 294.5t332 107.5q220 0 346.5 -117.5t126.5 -321.5v-245q0 -201 -127 -317t-346 -116q-206 0 -330.5 105t-136.5 289l-10 30h-129v-362q0 -37 -35 -37h-233q-37 0 -37 37v993q0 35 37 35h233q35 0 35 -35v-346h131zM1028 254q77 0 118.5 41t41.5 117
v237q0 79 -41.5 122.5t-118.5 43.5q-78 0 -119 -43t-41 -123v-237q0 -77 41 -117.5t119 -40.5z" />
    <glyph glyph-name="uni044F" unicode="&#x44f;" horiz-adv-x="1110" 
d="M362 0h-276q-21 0 -27.5 12t4.5 31l232 346q-101 35 -160 122.5t-59 197.5q0 166 113.5 261t299.5 95h469q37 0 37 -35v-993q0 -37 -37 -37h-239q-37 0 -37 37v319h-76l-203 -331q-13 -25 -41 -25zM393 711q0 -115 133 -115h156v223h-156q-133 0 -133 -108z" />
    <glyph glyph-name="uni0451" unicode="&#x451;" horiz-adv-x="1085" 
d="M492 1335q0 -71 -41.5 -111t-108.5 -40q-68 0 -111 40t-43 109q0 72 43 113t111 41t109 -40t41 -112zM942 1335q0 -71 -41 -111t-108 -40q-69 0 -111.5 40t-42.5 111q0 72 42.5 112t111.5 40q67 0 108 -40t41 -112zM1014 657v-196q0 -35 -37 -35h-580v-33
q0 -77 46.5 -117t129.5 -40q135 0 261 73q27 21 47 -8l106 -141q20 -31 -6 -51q-177 -136 -418 -136q-136 0 -243 46t-172.5 144t-65.5 236v258q0 111 37.5 196.5t103 137t150 77.5t184.5 26q97 0 178 -25.5t144.5 -76.5t99 -136.5t35.5 -198.5zM713 672q0 80 -43 121
t-115 41q-74 0 -116 -40t-42 -122v-43h316v43z" />
    <glyph glyph-name="uni0452" unicode="&#x452;" horiz-adv-x="1159" 
d="M428 1012q88 30 205 30q194 0 309 -123.5t115 -349.5v-579q0 -200 -96 -302t-277 -102q-49 0 -111 8q-32 8 -32 41v191q0 38 39 35q18 -2 51 -2q112 0 112 157v553q0 103 -42 150t-132 47q-73 0 -141 -27v-702q0 -37 -37 -37h-241q-35 0 -35 37v1130h-111q-37 0 -37 35
v98q0 37 37 37h111v90q0 37 35 37h241q37 0 37 -37v-90h209q37 0 37 -37v-98q0 -35 -37 -35h-209v-155z" />
    <glyph glyph-name="uni0453" unicode="&#x453;" horiz-adv-x="870" 
d="M393 -8h-241q-37 0 -37 37v1001q0 35 37 35h653q35 0 35 -35v-205q0 -37 -35 -37h-377v-759q0 -37 -35 -37zM524 1178h-178q-22 0 -28 13t6 30l168 266q15 24 43 24h231q22 0 27.5 -13t-9.5 -32l-217 -268q-14 -20 -43 -20z" />
    <glyph glyph-name="uni0454" unicode="&#x454;" horiz-adv-x="989" 
d="M575 246q115 0 207 53q36 15 52 -12l110 -160q18 -30 -10 -49q-159 -105 -385 -105q-134 0 -237.5 48t-166.5 150t-63 245v239q0 141 63.5 242t167.5 149t236 48q195 0 371 -95q31 -15 10 -47l-107 -161q-21 -26 -49 -15q-87 43 -199 43q-80 0 -127.5 -42t-48.5 -115
l4 -21h293q35 0 35 -37v-127q0 -35 -35 -35h-295l-2 -32q1 -78 49 -121t127 -43z" />
    <glyph glyph-name="uni0455" unicode="&#x455;" horiz-adv-x="1015" 
d="M961 332q0 -178 -120 -268.5t-343 -90.5q-235 0 -426 133q-30 21 -11 52l97 164q20 32 49 12q136 -92 293 -92q66 0 105.5 21.5t39.5 60.5q0 36 -37.5 55t-109.5 31q-406 67 -406 346q0 165 119.5 251.5t325.5 86.5q182 0 362 -95q32 -16 12 -49l-94 -159
q-18 -30 -49 -15q-114 60 -238 60q-131 0 -131 -76q0 -41 38 -59.5t141 -34.5q85 -15 150.5 -39t120 -63t83.5 -97.5t29 -134.5z" />
    <glyph glyph-name="uni0456" unicode="&#x456;" horiz-adv-x="542" 
d="M393 0h-241q-37 0 -37 37v993q0 35 37 35h241q35 0 35 -35v-993q0 -37 -35 -37zM444 1384q0 -73 -48.5 -122.5t-123.5 -49.5q-74 0 -124 50t-50 122q0 75 49.5 123.5t124.5 48.5q76 0 124 -48.5t48 -123.5z" />
    <glyph glyph-name="uni0457" unicode="&#x457;" horiz-adv-x="542" 
d="M393 0h-241q-37 0 -37 37v993q0 35 37 35h241q35 0 35 -35v-993q0 -37 -35 -37zM221 1337q0 -67 -39.5 -106t-103.5 -39q-65 0 -106.5 39t-41.5 104q0 68 41 108t107 40q64 0 103.5 -39.5t39.5 -106.5zM616 1337q0 -67 -41 -106t-106 -39q-64 0 -104.5 39.5t-40.5 105.5
q0 67 40.5 106.5t104.5 39.5q65 0 106 -39.5t41 -106.5z" />
    <glyph glyph-name="uni0458" unicode="&#x458;" horiz-adv-x="559" 
d="M444 -18q0 -188 -98.5 -293t-277.5 -105q-65 0 -117 10q-31 5 -31 39v203q0 17 10 26.5t27 8.5q18 -2 55 -2q61 0 90 36t29 113v1012q0 35 37 35h242q34 0 34 -35v-1048zM463 1384q0 -73 -49 -122.5t-123 -49.5q-76 0 -125 49.5t-49 122.5q0 75 49 123.5t125 48.5
q75 0 123.5 -48.5t48.5 -123.5z" />
    <glyph glyph-name="uni0459" unicode="&#x459;" horiz-adv-x="1703" 
d="M475 324q-44 -172 -137.5 -246.5t-274.5 -81.5q-36 0 -36 35v202q0 34 34 37q52 6 83.5 42t52.5 122q40 163 51 594q3 37 37 37h743q35 0 35 -35v-303h178q190 0 306 -97t116 -270q0 -180 -114 -270t-308 -90h-453q-34 0 -34 37v760h-222q-16 -323 -57 -473zM1063 483
v-233h129q151 0 151 117q3 116 -151 116h-129z" />
    <glyph glyph-name="uni045A" unicode="&#x45a;" horiz-adv-x="1660" 
d="M393 0h-241q-37 0 -37 37v993q0 35 37 35h241q35 0 35 -35v-334h283v334q0 35 37 35h241q35 0 35 -35v-317h176q192 0 307 -93.5t115 -267.5q0 -173 -114.5 -262.5t-307.5 -89.5h-452q-37 0 -37 37v383h-283v-383q0 -37 -35 -37zM1024 469v-219h127q152 0 152 112
q0 56 -37.5 81.5t-114.5 25.5h-127z" />
    <glyph glyph-name="uni045B" unicode="&#x45b;" horiz-adv-x="1159" 
d="M428 1012q88 30 205 30q194 0 309 -123.5t115 -349.5v-532q0 -37 -35 -37h-244q-35 0 -35 37v532q0 103 -42 150t-132 47q-73 0 -141 -27v-702q0 -37 -37 -37h-241q-35 0 -35 37v1130h-111q-37 0 -37 35v98q0 37 37 37h111v90q0 37 35 37h241q37 0 37 -37v-90h250
q37 0 37 -37v-98q0 -35 -37 -35h-250v-155z" />
    <glyph glyph-name="uni045C" unicode="&#x45c;" horiz-adv-x="1067" 
d="M1044 0h-278q-32 0 -43 25l-234 362l-67 -78v-272q0 -37 -35 -37h-235q-37 0 -37 37v991q0 37 37 37h235q35 0 35 -37v-362l268 376q14 23 41 23h270q23 0 30 -13t-7 -30l-330 -422l373 -557q12 -19 5.5 -31t-28.5 -12zM625 1174h-179q-22 0 -28 13t6 30l168 266
q15 24 43 24h231q22 0 28 -13t-9 -32l-217 -268q-14 -20 -43 -20z" />
    <glyph glyph-name="uni045D" unicode="&#x45d;" horiz-adv-x="1189" 
d="M401 0h-249q-37 0 -37 37v993q0 35 37 35h235q37 0 37 -35v-321q0 -100 -4 -260h2q57 124 160 301l161 290q11 25 41 25h254q37 0 37 -35v-993q0 -37 -37 -37h-235q-35 0 -35 37v321q0 112 4 256h-2q-49 -114 -162 -307l-164 -282q-12 -25 -43 -25zM725 1174h-178
q-29 0 -43 20l-217 268q-15 19 -9.5 32t27.5 13h232q28 0 43 -24l168 -266q12 -17 5.5 -30t-28.5 -13z" />
    <glyph glyph-name="uni045E" unicode="&#x45e;" horiz-adv-x="1146" 
d="M920 1448q-15 -131 -105 -205t-240 -74q-149 0 -237.5 73t-106.5 202q-3 16 6 27t25 14l152 24q32 6 41 -28q12 -46 41 -68t79 -22q100 0 121 90q12 33 43 28l150 -24q16 -3 25 -13t6 -24zM719 326v704q0 35 37 35h241q35 0 35 -35v-928q0 -267 -116.5 -391.5
t-368.5 -124.5q-131 0 -228 26.5t-180 86.5q-30 18 -10 49l109 166q18 27 47 12q117 -69 247 -69q98 0 146 44.5t47 153.5q-100 -28 -186 -28q-192 0 -314.5 117t-122.5 321v565q0 35 37 35h242q35 0 35 -35v-559q0 -88 44.5 -131t125.5 -43q77 0 133 29z" />
    <glyph glyph-name="uni045F" unicode="&#x45f;" horiz-adv-x="1140" 
d="M750 1065h241q35 0 35 -35v-993q0 -37 -35 -37h-276v-231q0 -37 -37 -37h-215q-37 0 -37 37v231h-274q-37 0 -37 37v993q0 35 37 35h241q35 0 35 -35v-751h285v751q0 35 37 35z" />
    <glyph glyph-name="uni0490" unicode="&#x490;" horiz-adv-x="1054" 
d="M444 0h-256q-36 0 -36 37v1390q0 37 36 37h545v285q0 35 37 35h225q37 0 37 -35v-555q0 -35 -37 -35h-514v-1122q0 -37 -37 -37z" />
    <glyph glyph-name="uni0491" unicode="&#x491;" horiz-adv-x="870" 
d="M561 1065v219q0 35 37 35h207q35 0 35 -35v-459q0 -37 -35 -37h-377v-759q0 -37 -35 -37h-241q-37 0 -37 37v1001q0 35 37 35h409z" />
    <glyph glyph-name="Wgrave" unicode="&#x1e80;" horiz-adv-x="2041" 
d="M735 0h-293q-32 0 -41 31l-387 1392q-6 19 2.5 30t28.5 11h272q33 0 39 -32l113 -467q68 -282 115 -582h8q46 262 133 590l119 440q9 31 41 31h272q33 0 39 -31l123 -440q80 -314 129 -590h8q54 321 117 582l110 467q6 32 39 32h275q19 0 28 -11.5t3 -29.5l-388 -1392
q-9 -31 -41 -31h-292q-32 0 -41 31l-133 469q-31 116 -63 271.5t-46 258.5h-8q-12 -100 -43.5 -256t-63.5 -274l-133 -469q-9 -31 -41 -31zM903 1602l-258 270q-15 17 -8.5 31t29.5 14h252q29 0 43 -23l206 -268q13 -19 6.5 -31t-28.5 -12h-199q-27 0 -43 19z" />
    <glyph glyph-name="wgrave" unicode="&#x1e81;" horiz-adv-x="1587" 
d="M602 0h-266q-33 0 -39 31l-274 995q-10 39 30 39h246q32 0 37 -31l74 -338q41 -231 63 -370h6q29 178 72 358l78 336q6 31 39 31h254q30 0 36 -31l80 -336q30 -126 72 -358h6q13 79 64 370l71 338q5 31 39 31h246q19 0 27 -11t2 -28l-273 -995q-9 -31 -39 -31h-266
q-34 0 -41 33l-90 370q-30 125 -59 267h-6q-8 -38 -29.5 -137t-28.5 -130l-92 -370q-7 -33 -39 -33zM930 1198h-178q-28 0 -43 21l-217 268q-15 19 -9.5 32t27.5 13h231q27 0 43 -25l168 -266q12 -17 6 -30t-28 -13z" />
    <glyph glyph-name="Wacute" unicode="&#x1e82;" horiz-adv-x="2041" 
d="M735 0h-293q-32 0 -41 31l-387 1392q-6 19 2.5 30t28.5 11h272q33 0 39 -32l113 -467q68 -282 115 -582h8q46 262 133 590l119 440q9 31 41 31h272q33 0 39 -31l123 -440q80 -314 129 -590h8q54 321 117 582l110 467q6 32 39 32h275q19 0 28 -11.5t3 -29.5l-388 -1392
q-9 -31 -41 -31h-292q-32 0 -41 31l-133 469q-31 116 -63 271.5t-46 258.5h-8q-12 -100 -43.5 -256t-63.5 -274l-133 -469q-9 -31 -41 -31zM1370 1853l-258 -270q-15 -18 -43 -18h-199q-22 0 -28.5 12t6.5 31l207 268q14 22 43 22h252q23 0 29 -14t-9 -31z" />
    <glyph glyph-name="wacute" unicode="&#x1e83;" horiz-adv-x="1587" 
d="M602 0h-266q-33 0 -39 31l-274 995q-10 39 30 39h246q32 0 37 -31l74 -338q41 -231 63 -370h6q29 178 72 358l78 336q6 31 39 31h254q30 0 36 -31l80 -336q30 -126 72 -358h6q13 79 64 370l71 338q5 31 39 31h246q19 0 27 -11t2 -28l-273 -995q-9 -31 -39 -31h-266
q-34 0 -41 33l-90 370q-30 125 -59 267h-6q-8 -38 -29.5 -137t-28.5 -130l-92 -370q-7 -33 -39 -33zM825 1178h-178q-22 0 -28 13t6 30l168 266q15 24 43 24h231q22 0 27.5 -13t-9.5 -32l-217 -268q-14 -20 -43 -20z" />
    <glyph glyph-name="Wdieresis" unicode="&#x1e84;" horiz-adv-x="2041" 
d="M915 1753q0 -67 -44.5 -111.5t-112.5 -44.5t-112 44.5t-44 111.5t44 111.5t112 44.5t112.5 -44.5t44.5 -111.5zM1440 1753q0 -67 -45.5 -111.5t-114.5 -44.5q-70 0 -114 44t-44 112t44 112t114 44q69 0 114.5 -44.5t45.5 -111.5zM735 0h-293q-32 0 -41 31l-387 1392
q-6 19 2.5 30t28.5 11h272q33 0 39 -32l113 -467q68 -282 115 -582h8q46 262 133 590l119 440q9 31 41 31h272q33 0 39 -31l123 -440q80 -314 129 -590h8q54 321 117 582l110 467q6 32 39 32h275q19 0 28 -11.5t3 -29.5l-388 -1392q-9 -31 -41 -31h-292q-32 0 -41 31
l-133 469q-31 116 -63 271.5t-46 258.5h-8q-12 -100 -43.5 -256t-63.5 -274l-133 -469q-9 -31 -41 -31z" />
    <glyph glyph-name="wdieresis" unicode="&#x1e85;" horiz-adv-x="1587" 
d="M705 1337q0 -71 -41.5 -111t-110.5 -40q-68 0 -111 40t-43 109q0 72 43 113t111 41q69 0 110.5 -40t41.5 -112zM1188 1337q0 -71 -41.5 -111t-108.5 -40q-69 0 -111 40t-42 111q0 72 42 112t111 40q68 0 109 -40t41 -112zM602 0h-266q-33 0 -39 31l-274 995q-10 39 30 39
h246q32 0 37 -31l74 -338q41 -231 63 -370h6q29 178 72 358l78 336q6 31 39 31h254q30 0 36 -31l80 -336q30 -126 72 -358h6q13 79 64 370l71 338q5 31 39 31h246q19 0 27 -11t2 -28l-273 -995q-9 -31 -39 -31h-266q-34 0 -41 33l-90 370q-30 125 -59 267h-6
q-8 -38 -29.5 -137t-28.5 -130l-92 -370q-7 -33 -39 -33z" />
    <glyph glyph-name="Ygrave" unicode="&#x1ef2;" horiz-adv-x="1255" 
d="M756 0h-260q-35 0 -35 37v485l-455 899q-9 19 -2 31t29 12h286q29 0 41 -28l267 -600l264 600q9 28 41 28h287q20 0 27.5 -12t-1.5 -31l-454 -901v-483q0 -37 -35 -37zM510 1585l-258 270q-15 17 -9 31.5t29 14.5h252q29 0 43 -23l207 -268q13 -19 6.5 -31t-28.5 -12
h-199q-28 0 -43 18z" />
    <glyph glyph-name="ygrave" unicode="&#x1ef3;" horiz-adv-x="1146" 
d="M719 326v704q0 35 37 35h241q35 0 35 -35v-928q0 -267 -116.5 -391.5t-368.5 -124.5q-131 0 -228 26.5t-180 86.5q-30 18 -10 49l109 166q18 27 47 12q117 -69 247 -69q98 0 146 44.5t47 153.5q-100 -28 -186 -28q-192 0 -314.5 117t-122.5 321v565q0 35 37 35h242
q35 0 35 -35v-559q0 -88 44.5 -131t125.5 -43q77 0 133 29zM709 1198h-179q-28 0 -43 21l-217 268q-15 19 -9 32t28 13h231q27 0 43 -25l168 -266q12 -17 6 -30t-28 -13z" />
    <glyph glyph-name="endash" unicode="&#x2013;" horiz-adv-x="1243" 
d="M1128 715v-205q0 -37 -36 -37h-940q-37 0 -37 37v205q0 37 37 37h940q36 0 36 -37z" />
    <glyph glyph-name="emdash" unicode="&#x2014;" horiz-adv-x="2048" 
d="M1933 715v-205q0 -37 -35 -37h-1746q-37 0 -37 37v205q0 37 37 37h1746q35 0 35 -37z" />
    <glyph glyph-name="quoteleft" unicode="&#x2018;" horiz-adv-x="530" 
d="M66 926l167 510q9 28 41 28h170q41 0 31 -41l-119 -508q-6 -30 -39 -30h-221q-19 0 -27.5 11t-2.5 30z" />
    <glyph glyph-name="quoteright" unicode="&#x2019;" horiz-adv-x="528" 
d="M485 1423l-161 -510q-9 -28 -41 -28h-179q-39 0 -32 39l123 508q6 32 38 32h222q20 0 28 -11t2 -30z" />
    <glyph glyph-name="quotesinglbase" unicode="&#x201a;" horiz-adv-x="514" 
d="M426 258l-164 -510q-10 -29 -41 -29h-178q-19 0 -27.5 11t-3.5 28l121 508q10 33 39 33h223q19 0 27.5 -11t3.5 -30z" />
    <glyph glyph-name="quotedblleft" unicode="&#x201c;" horiz-adv-x="958" 
d="M322 885h-224q-19 0 -27 11t-3 30l163 508q10 30 41 30h179q19 0 27 -11t3 -30l-121 -508q-6 -30 -38 -30zM743 885h-223q-19 0 -27.5 11t-3.5 30l164 508q10 30 41 30h178q19 0 27.5 -11t3.5 -30l-121 -508q-6 -30 -39 -30z" />
    <glyph glyph-name="quotedblright" unicode="&#x201d;" horiz-adv-x="950" 
d="M283 885h-179q-41 0 -32 39l123 508q6 32 38 32h222q20 0 28 -11t2 -30l-161 -508q-12 -30 -41 -30zM705 885h-179q-41 0 -32 39l122 508q6 32 39 32h222q20 0 28 -11t2 -30l-162 -508q-9 -30 -40 -30z" />
    <glyph glyph-name="quotedblbase" unicode="&#x201e;" horiz-adv-x="933" 
d="M221 -285h-178q-19 0 -28 11t-5 28l123 510q6 31 39 31h221q20 0 28.5 -11t2.5 -30l-162 -508q-12 -31 -41 -31zM643 -285h-178q-19 0 -28 11t-5 28l123 510q6 31 39 31h221q20 0 28.5 -11t2.5 -30l-162 -508q-9 -31 -41 -31z" />
    <glyph glyph-name="dagger" unicode="&#x2020;" horiz-adv-x="1093" 
d="M664 -285h-230q-35 0 -35 37v1055h-278q-37 0 -37 37v203q0 36 37 36h278v406q0 37 35 37h230q34 0 34 -37v-406h275q37 0 37 -36v-203q0 -37 -37 -37h-275v-1055q0 -37 -34 -37z" />
    <glyph glyph-name="daggerdbl" unicode="&#x2021;" horiz-adv-x="1093" 
d="M664 -285h-230q-35 0 -35 37v416h-278q-37 0 -37 37v203q0 36 37 36h278v363h-278q-37 0 -37 37v203q0 36 37 36h278v406q0 37 35 37h230q34 0 34 -37v-406h275q37 0 37 -36v-203q0 -37 -37 -37h-275v-363h275q37 0 37 -36v-203q0 -37 -37 -37h-275v-416q0 -37 -34 -37z
" />
    <glyph glyph-name="bullet" unicode="&#x2022;" horiz-adv-x="827" 
d="M414 422q-121 0 -201 80.5t-80 204.5q0 122 80 201t201 79q122 0 201 -78.5t79 -201.5q0 -124 -79 -204.5t-201 -80.5z" />
    <glyph glyph-name="ellipsis" unicode="&#x2026;" horiz-adv-x="1527" 
d="M444 160q0 -76 -51.5 -127t-132.5 -51t-131.5 51t-50.5 127q0 80 50.5 130t131.5 50q82 0 133 -50t51 -130zM948 160q0 -76 -51.5 -127t-132.5 -51q-79 0 -130.5 51t-51.5 127q0 79 51 129.5t131 50.5q82 0 133 -50t51 -130zM1450 160q0 -76 -50.5 -127t-131.5 -51
t-132 51t-51 127q0 80 50.5 130t132.5 50q81 0 131.5 -50t50.5 -130z" />
    <glyph glyph-name="perthousand" unicode="&#x2030;" horiz-adv-x="2375" 
d="M2316 274q0 -137 -84 -212.5t-219 -75.5q-134 0 -218.5 75.5t-84.5 212.5v218q0 137 84 211.5t219 74.5q136 0 219.5 -74.5t83.5 -211.5v-218zM1927 276q0 -47 24 -70.5t62 -23.5t62 23.5t24 70.5v211q0 45 -24.5 70t-61.5 25t-61.5 -25t-24.5 -70v-211zM672 971
q0 -137 -84 -213t-219 -76q-134 0 -218.5 76t-84.5 213v217q0 137 84 212t219 75q136 0 219.5 -75t83.5 -212v-217zM479 0h-180q-21 0 -27.5 13t4.5 30l879 1393q15 22 45 22h178q21 0 28.5 -13t-3.5 -30l-881 -1392q-14 -23 -43 -23zM283 975q0 -48 24 -72t62 -24
q39 0 63.5 24t24.5 72v209q0 47 -24.5 70.5t-63.5 23.5q-38 0 -62 -23.5t-24 -70.5v-209zM1622 274q0 -137 -84 -212.5t-219 -75.5t-219 75.5t-84 212.5v218q0 137 84 211.5t219 74.5t219 -74.5t84 -211.5v-218zM1233 276q0 -47 24 -70.5t62 -23.5t62 23.5t24 70.5v211
q0 45 -24.5 70t-61.5 25t-61.5 -25t-24.5 -70v-211z" />
    <glyph glyph-name="guilsinglleft" unicode="&#x2039;" horiz-adv-x="710" 
d="M614 145h-233q-26 0 -43 23l-270 403q-16 25 0 50l270 403q17 23 43 23h233q21 0 27.5 -12t-4.5 -31l-279 -408l279 -408q11 -19 4.5 -31t-27.5 -12z" />
    <glyph glyph-name="guilsinglright" unicode="&#x203a;" horiz-adv-x="710" 
d="M330 145h-234q-21 0 -27 12t5 31l278 408l-278 408q-11 19 -5 31t27 12h234q26 0 43 -23l270 -403q16 -25 0 -50l-270 -403q-17 -23 -43 -23z" />
    <glyph glyph-name="fraction" unicode="&#x2044;" horiz-adv-x="458" 
d="M809 1421l-934 -1398q-14 -23 -43 -23h-160q-21 0 -27 13t5 30l932 1399q14 22 43 22h159q21 0 28.5 -13t-3.5 -30z" />
    <glyph glyph-name="zero.sups" unicode="&#x2070;" horiz-adv-x="739" 
d="M680 1126q0 -141 -86 -219t-223 -78t-224.5 78.5t-87.5 218.5v222q0 140 87.5 218.5t224.5 78.5t223 -78t86 -219v-222zM274 1126q0 -50 28 -75t69 -25q40 0 67 25.5t27 74.5v222q0 49 -27 74.5t-67 25.5q-41 0 -69 -25t-28 -75v-222z" />
    <glyph glyph-name="four.sups" unicode="&#x2074;" horiz-adv-x="741" 
d="M590 840h-139q-37 0 -37 37v96h-346q-35 0 -35 37v104q0 26 10 43l238 453q15 24 41 24h145q20 0 28 -12t-1 -31l-224 -424h144l10 111q3 33 37 33h129q37 0 37 -35v-111h47q35 0 35 -37v-118q0 -37 -35 -37h-47v-96q0 -37 -37 -37z" />
    <glyph glyph-name="five.sups" unicode="&#x2075;" horiz-adv-x="712" 
d="M672 1098q0 -131 -86.5 -200t-243.5 -69q-171 0 -279 97q-23 21 0 51l62 84q23 23 51 2q72 -45 166 -45q55 0 85 23.5t30 68.5t-28.5 69.5t-80.5 24.5q-70 0 -117 -35q-22 -14 -49 -8l-90 21q-31 6 -31 41l19 376q3 35 37 35h471q37 0 37 -37v-112q0 -35 -37 -35h-330
l-4 -115q48 25 127 25q135 0 213 -66.5t78 -195.5z" />
    <glyph glyph-name="six.sups" unicode="&#x2076;" horiz-adv-x="712" 
d="M672 1104q0 -122 -84 -198.5t-217 -76.5q-139 0 -224.5 79t-85.5 206v250q0 128 88 204.5t226 76.5q132 0 252 -74q32 -19 10 -51l-68 -90q-19 -28 -49 -11q-63 37 -137 37q-55 0 -85 -24.5t-30 -69.5v-57q44 41 127 41q121 0 199 -65t78 -177zM268 1106q0 -38 26.5 -61
t70.5 -23t71 23t27 61t-26 60t-72 22q-44 0 -70.5 -22t-26.5 -60z" />
    <glyph glyph-name="seven.sups" unicode="&#x2077;" horiz-adv-x="659" 
d="M303 840h-149q-20 0 -28 11t-1 30l252 557h-309q-37 0 -37 37v122q0 37 37 37h524q37 0 37 -37v-84q0 -26 -11 -45l-272 -602q-9 -26 -43 -26z" />
    <glyph glyph-name="eight.sups" unicode="&#x2078;" horiz-adv-x="733" 
d="M682 1079q0 -119 -84.5 -184.5t-230.5 -65.5t-231 65.5t-85 184.5q0 61 30 109.5t85 71.5q-94 56 -94 159q0 104 79 164t216 62q135 0 213.5 -61t78.5 -165q0 -103 -94 -159q56 -21 86.5 -69.5t30.5 -111.5zM264 1405q0 -36 27 -57t76 -21q48 0 74 21t26 57
q0 34 -25.5 53t-74.5 19t-76 -19t-27 -53zM254 1085q0 -79 113 -79q112 0 112 79q0 36 -29 57t-83 21t-83.5 -21t-29.5 -57z" />
    <glyph glyph-name="nine.sups" unicode="&#x2079;" horiz-adv-x="714" 
d="M43 1372q0 120 84 196.5t219 76.5q137 0 222 -79t85 -204v-252q0 -129 -87 -205t-224 -76q-161 0 -262 78q-32 23 -10 51l51 93q20 26 49 10q68 -43 164 -43q56 0 85.5 24.5t29.5 69.5v57q-42 -39 -132 -39q-119 0 -196.5 65.5t-77.5 176.5zM449 1370q0 38 -26.5 61
t-72.5 23q-44 0 -70 -22.5t-26 -59.5q0 -40 25 -62t71 -22t72.5 22t26.5 60z" />
    <glyph glyph-name="zero.sinf" unicode="&#x2080;" horiz-adv-x="739" 
d="M680 82q0 -141 -86 -219t-223 -78t-224.5 78.5t-87.5 218.5v221q0 140 87.5 218.5t224.5 78.5t223 -78t86 -219v-221zM274 82q0 -50 28 -75t69 -25q40 0 67 25.5t27 74.5v221q0 49 -27 74.5t-67 25.5q-41 0 -69 -25t-28 -75v-221z" />
    <glyph glyph-name="one.sinf" unicode="&#x2081;" horiz-adv-x="507" 
d="M385 -205h-139q-37 0 -37 37v514l-72 -49q-31 -20 -49 10l-70 99q-20 30 9 49l178 120q17 15 45 15h135q35 0 35 -37v-721q0 -37 -35 -37z" />
    <glyph glyph-name="two.sinf" unicode="&#x2082;" horiz-adv-x="686" 
d="M598 -205h-518q-37 0 -37 37v109q0 28 20 45l230 202q60 55 88.5 92t28.5 68q0 60 -76 60q-75 0 -146 -60q-30 -21 -51 6l-69 97q-18 28 6 49q120 100 282 100q121 0 195 -63t74 -166q0 -73 -34.5 -135t-119.5 -146q-58 -58 -119 -98h246q37 0 37 -37v-123q0 -37 -37 -37
z" />
    <glyph glyph-name="three.sinf" unicode="&#x2083;" horiz-adv-x="702" 
d="M655 51q0 -123 -85.5 -194.5t-227.5 -71.5q-169 0 -299 104q-26 23 -4 52l70 88q19 27 51 4q63 -51 168 -51q116 0 116 98q0 41 -31.5 63.5t-90.5 22.5q-36 0 -54 -4q-34 -3 -45 24l-16 41q-12 27 10 49l64 70q25 28 73 66h-252q-34 0 -34 34v107q0 37 34 37h484
q35 0 35 -37v-72q0 -29 -19 -45l-164 -155q12 0 35 -5q83 -8 132.5 -68t49.5 -157z" />
    <glyph glyph-name="four.sinf" unicode="&#x2084;" horiz-adv-x="741" 
d="M590 -205h-139q-37 0 -37 37v96h-346q-35 0 -35 37v105q0 26 10 43l238 452q16 25 41 25h145q20 0 28 -12t-1 -31l-224 -424h144l10 110q3 33 37 33h129q37 0 37 -35v-110h47q35 0 35 -37v-119q0 -37 -35 -37h-47v-96q0 -37 -37 -37z" />
    <glyph glyph-name="five.sinf" unicode="&#x2085;" horiz-adv-x="712" 
d="M672 53q0 -131 -86.5 -199.5t-243.5 -68.5q-174 0 -279 98q-23 21 0 51l62 82q23 23 51 2q72 -45 166 -45q55 0 85 24t30 69t-28.5 69.5t-80.5 24.5q-70 0 -117 -35q-22 -14 -49 -8l-90 20q-31 6 -31 41l19 377q3 35 37 35h471q37 0 37 -37v-113q0 -34 -37 -34h-330
l-4 -115q46 24 127 24q135 0 213 -66.5t78 -195.5z" />
    <glyph glyph-name="six.sinf" unicode="&#x2086;" horiz-adv-x="712" 
d="M672 59q0 -122 -84 -198t-217 -76q-139 0 -224.5 79t-85.5 206v249q0 128 91.5 204.5t230.5 76.5q131 0 248 -74q30 -18 10 -51l-68 -90q-18 -27 -49 -10q-60 37 -133 37q-56 0 -89.5 -25.5t-33.5 -69.5v-57q44 41 127 41q121 0 199 -65t78 -177zM268 61q0 -38 26.5 -61
t70.5 -23t71 23t27 61t-26 60t-72 22q-44 0 -70.5 -22t-26.5 -60z" />
    <glyph glyph-name="seven.sinf" unicode="&#x2087;" horiz-adv-x="659" 
d="M303 -205h-149q-20 0 -28 11t-1 30l252 557h-309q-37 0 -37 37v123q0 37 37 37h524q37 0 37 -37v-84q0 -26 -11 -45l-272 -602q-9 -27 -43 -27z" />
    <glyph glyph-name="eight.sinf" unicode="&#x2088;" horiz-adv-x="733" 
d="M682 35q0 -119 -84.5 -184.5t-230.5 -65.5t-231 65.5t-85 184.5q0 61 30 109t85 71q-94 56 -94 160t79 163.5t216 61.5q135 0 213.5 -60.5t78.5 -164.5t-94 -160q56 -21 86.5 -69t30.5 -111zM264 360q0 -36 27 -56.5t76 -20.5t74.5 20.5t25.5 56.5q0 34 -25.5 53
t-74.5 19t-76 -19t-27 -53zM254 41q0 -80 113 -80q112 0 112 80q0 36 -29 57t-83 21t-83.5 -21t-29.5 -57z" />
    <glyph glyph-name="nine.sinf" unicode="&#x2089;" horiz-adv-x="714" 
d="M43 326q0 122 84 198t217 76q139 0 224 -79t85 -206v-249q0 -128 -93 -204.5t-238 -76.5q-129 0 -246 74q-30 18 -10 51l67 90q18 27 49 10q60 -37 131 -37q133 0 133 95v57q-44 -41 -127 -41q-121 0 -198.5 65t-77.5 177zM446 324q0 38 -26 61t-70 23t-71 -23t-27 -61
t26 -60t72 -22q44 0 70 22t26 60z" />
    <glyph glyph-name="Euro" unicode="&#x20ac;" horiz-adv-x="1370" 
d="M801 289q181 0 321 88q30 18 49 -10l132 -199q20 -30 -9 -49q-207 -146 -499 -146q-265 0 -424.5 132.5t-169.5 379.5l-11 4h-88q-36 0 -36 37v109q0 37 36 37h99v106h-99q-36 0 -36 37v111q0 35 36 35h91l8 10q6 250 165 385t422 135q279 0 488 -131q30 -18 10 -49
l-129 -199q-17 -26 -49 -10q-66 36 -149 56t-158 20q-119 0 -182 -54.5t-68 -152.5l8 -10h330q37 0 37 -35v-111q0 -37 -37 -37h-342v-106h342q37 0 37 -37v-109q0 -37 -37 -37h-332l-6 -2q8 -96 71.5 -147t178.5 -51z" />
    <glyph glyph-name="uni20BD" unicode="&#x20bd;" horiz-adv-x="1343" 
d="M1282 958q0 -227 -136 -361t-368 -134h-248v-117h263q36 0 36 -35v-127q0 -37 -36 -37h-263v-110q0 -37 -34 -37h-244q-37 0 -37 37v110h-121q-37 0 -37 37v127q0 35 37 35h121v1081q0 37 37 37h526q232 0 368 -137t136 -369zM965 965q0 213 -234 213h-201v-430h201
q234 0 234 217z" />
    <glyph glyph-name="uni2113" unicode="&#x2113;" horiz-adv-x="878" 
d="M813 94q-126 -117 -287 -117q-163 0 -257.5 106t-94.5 286v30q-28 -14 -78 -32q-19 -6 -30 1.5t-11 26.5v174q0 31 29 43q18 7 51.5 23t38.5 18v414q0 208 89 316t241 108q151 0 239 -106.5t88 -274.5q0 -134 -49.5 -241.5t-136.5 -187.5t-223 -157v-86q0 -109 35.5 -160
t81.5 -51q68 0 129 58q30 24 51 -6l96 -136q19 -28 -2 -49zM422 1071v-278q82 52 120 121t38 184q0 149 -76 149q-82 0 -82 -176z" />
    <glyph glyph-name="uni2116" unicode="&#x2116;" horiz-adv-x="2371" 
d="M2281 922q0 -179 -114.5 -284.5t-311.5 -105.5q-199 0 -313.5 105.5t-114.5 284.5v174q0 181 115 288t313 107q197 0 311.5 -107t114.5 -288v-174zM434 0h-254q-35 0 -35 37v1390q0 37 35 37h273q28 0 43 -24l272 -490q160 -299 219 -438l8 2q-22 253 -22 547v366
q0 37 35 37h254q36 0 36 -37v-1390q0 -37 -36 -37h-271q-31 0 -43 25l-266 442q-131 221 -238 477l-8 -2q35 -326 35 -584v-321q0 -37 -37 -37zM1708 934q0 -71 37.5 -109.5t109.5 -38.5q71 0 109.5 39t38.5 109v147q0 73 -38.5 113.5t-109.5 40.5q-72 0 -109.5 -40
t-37.5 -114v-147zM2204 221h-691q-36 0 -36 37v154q0 34 36 34h691q37 0 37 -34v-154q0 -37 -37 -37z" />
    <glyph glyph-name="trademark" unicode="&#x2122;" horiz-adv-x="1363" 
d="M713 850h-88q-21 0 -21 20v574q0 20 21 20h116q21 0 27 -18l111 -260l39 -103l38 103l111 260q6 18 27 18h116q21 0 21 -20v-574q0 -20 -21 -20h-88q-20 0 -20 20v203l12 205h-4l-51 -135l-84 -176q-9 -21 -27 -21h-61q-18 0 -27 21l-84 176l-51 135h-4l12 -205v-203
q0 -20 -20 -20zM352 850h-94q-20 0 -20 20v471h-160q-9 0 -15 6t-6 15v82q0 20 21 20h454q21 0 21 -20v-82q0 -21 -21 -21h-159v-471q0 -20 -21 -20z" />
    <glyph glyph-name="estimated" unicode="&#x212e;" horiz-adv-x="1701" 
d="M442 289q71 -79 188 -126.5t234 -47.5q149 0 286 53.5t214 167.5q3 6 12 6h168q6 0 7.5 -4t-1.5 -8q-73 -120 -191 -202t-243 -117.5t-254 -35.5q-158 0 -302 58t-248 155.5t-166 234t-62 286.5q0 158 62 302.5t166 249t248 166.5t302 62q159 0 303.5 -62t249 -166.5
t166 -249t61.5 -302.5v-64q0 -10 -10 -10h-1190v-346zM1286 780v412q-184 160 -422 160q-122 0 -232.5 -48.5t-189.5 -127.5v-396h844z" />
    <glyph glyph-name="onethird" unicode="&#x2153;" horiz-adv-x="1810" 
d="M424 670h-139q-37 0 -37 37v514l-72 -50q-30 -20 -49 11l-70 98q-20 30 9 49l178 121q16 14 45 14h135q35 0 35 -37v-720q0 -37 -35 -37zM1386 1421l-933 -1398q-14 -23 -43 -23h-160q-21 0 -27.5 13t4.5 30l932 1399q14 22 43 22h160q21 0 28 -13t-4 -30zM1735 256
q0 -123 -86 -194.5t-228 -71.5q-169 0 -299 104q-26 23 -4 51l70 88q21 29 51 5q61 -52 168 -52q117 0 117 99q0 41 -32 63.5t-91 22.5q-35 0 -53 -4q-34 -3 -45 24l-17 41q-12 27 10 49l64 70q20 23 74 65h-252q-35 0 -35 35v107q0 37 35 37h483q35 0 35 -37v-72
q0 -29 -19 -45l-163 -156q16 0 34 -4q83 -8 133 -68t50 -157z" />
    <glyph glyph-name="twothirds" unicode="&#x2154;" horiz-adv-x="1957" 
d="M621 670h-519q-36 0 -36 37v108q0 28 20 45l229 203q60 55 88.5 92t28.5 68q0 59 -76 59q-75 0 -145 -59q-30 -21 -51 6l-70 96q-18 28 6 49q121 101 283 101q121 0 194.5 -63.5t73.5 -166.5q0 -73 -34 -134.5t-119 -145.5q-61 -61 -119 -99h246q36 0 36 -37v-122
q0 -37 -36 -37zM1548 1421l-934 -1398q-14 -23 -43 -23h-159q-21 0 -27.5 13t4.5 30l932 1399q14 22 43 22h160q21 0 28 -13t-4 -30zM1898 256q0 -123 -85.5 -194.5t-227.5 -71.5q-169 0 -299 104q-26 23 -4 51l70 88q21 29 51 5q61 -52 168 -52q117 0 117 99q0 41 -32 63.5
t-91 22.5q-36 0 -54 -4q-34 -3 -45 24l-16 41q-12 27 10 49l64 70q22 25 73 65h-251q-35 0 -35 35v107q0 37 35 37h483q35 0 35 -37v-72q0 -29 -19 -45l-164 -156q17 0 35 -4q83 -8 132.5 -68t49.5 -157z" />
    <glyph glyph-name="oneeighth" unicode="&#x215b;" horiz-adv-x="1871" 
d="M422 670h-139q-37 0 -37 37v514l-72 -50q-30 -20 -49 11l-70 98q-20 30 8 49l179 121q16 14 45 14h135q35 0 35 -37v-720q0 -37 -35 -37zM1413 1421l-934 -1398q-14 -23 -43 -23h-160q-21 0 -27 13t5 30l932 1399q14 22 43 22h160q21 0 28 -13t-4 -30zM1798 240
q0 -119 -84.5 -184.5t-230.5 -65.5t-231 65.5t-85 184.5q0 61 30 109t85 71q-94 56 -94 160t79 163.5t216 61.5q135 0 214 -60.5t79 -164.5t-95 -160q56 -21 86.5 -69t30.5 -111zM1380 565q0 -36 27 -57t76 -21q48 0 74 21t26 57q0 34 -25.5 53t-74.5 19t-76 -19t-27 -53z
M1370 246q0 -80 113 -80q112 0 112 80q0 36 -29 57t-83 21t-83.5 -21t-29.5 -57z" />
    <glyph glyph-name="threeeighths" unicode="&#x215c;" horiz-adv-x="1923" 
d="M680 926q0 -123 -85.5 -195t-227.5 -72q-168 0 -299 105q-27 23 -5 51l70 88q20 29 51 4q60 -51 168 -51q117 0 117 98q0 41 -32 63.5t-91 22.5q-35 0 -53 -4q-34 -3 -45 25l-17 41q-12 26 11 49l63 70q20 23 74 65h-252q-35 0 -35 35v106q0 37 35 37h483q35 0 35 -37
v-71q0 -30 -18 -45l-164 -156q17 0 35 -4q83 -8 132.5 -68t49.5 -157zM1536 1421l-934 -1398q-14 -23 -43 -23h-160q-21 0 -27 13t5 30l932 1399q14 22 43 22h159q21 0 28.5 -13t-3.5 -30zM1860 240q0 -119 -85 -184.5t-231 -65.5t-230.5 65.5t-84.5 184.5q0 61 29.5 109
t84.5 71q-94 56 -94 160t79 163.5t216 61.5q135 0 214 -60.5t79 -164.5t-94 -160q56 -21 86.5 -69t30.5 -111zM1442 565q0 -36 26.5 -57t75.5 -21t75 21t26 57q0 34 -26 53t-75 19t-75.5 -19t-26.5 -53zM1432 246q0 -80 112 -80q113 0 113 80q0 36 -29.5 57t-83.5 21
t-83 -21t-29 -57z" />
    <glyph glyph-name="fiveeighths" unicode="&#x215d;" horiz-adv-x="1878" 
d="M690 928q0 -131 -86.5 -200t-243.5 -69q-170 0 -278 97q-23 21 0 51l61 84q24 24 52 2q72 -45 165 -45q55 0 85 23.5t30 68.5t-28.5 69.5t-79.5 24.5q-70 0 -117 -35q-22 -14 -49 -8l-90 21q-31 6 -31 41l18 377q3 34 37 34h471q37 0 37 -37v-112q0 -35 -37 -35h-330
l-4 -115q48 25 127 25q135 0 213 -66.5t78 -195.5zM1516 1421l-934 -1398q-14 -23 -43 -23h-160q-21 0 -27.5 13t4.5 30l932 1399q14 22 43 22h160q21 0 28.5 -13t-3.5 -30zM1819 240q0 -119 -85 -184.5t-231 -65.5t-230.5 65.5t-84.5 184.5q0 61 30 109t85 71
q-95 56 -95 160t79 163.5t216 61.5q135 0 214 -60.5t79 -164.5t-94 -160q56 -21 86.5 -69t30.5 -111zM1401 565q0 -36 26.5 -57t75.5 -21t75 21t26 57q0 34 -26 53t-75 19t-75.5 -19t-26.5 -53zM1391 246q0 -80 112 -80q113 0 113 80q0 36 -29.5 57t-83.5 21t-83 -21
t-29 -57z" />
    </font>
</defs>
</svg>
